G75*
%MOIN*%
%OFA0B0*%
%FSLAX25Y25*%
%IPPOS*%
%LPD*%
%AMOC8*
5,1,8,0,0,1.08239X$1,22.5*
%
%ADD10C,0.00500*%
%ADD11C,0.00000*%
%ADD12R,0.06000X0.06000*%
%ADD13OC8,0.06000*%
%ADD14R,0.08800X0.04800*%
%ADD15R,0.08661X0.14173*%
%ADD16C,0.08600*%
%ADD17R,0.03937X0.04331*%
%ADD18R,0.04331X0.03937*%
%ADD19OC8,0.03962*%
%ADD20C,0.01200*%
%ADD21R,0.03962X0.03962*%
%ADD22C,0.01600*%
%ADD23C,0.02400*%
%ADD24C,0.25400*%
%ADD25C,0.05600*%
D10*
X0016811Y0011991D02*
X0249094Y0011991D01*
X0249379Y0011994D01*
X0249665Y0012005D01*
X0249950Y0012022D01*
X0250234Y0012046D01*
X0250518Y0012077D01*
X0250801Y0012115D01*
X0251082Y0012160D01*
X0251363Y0012211D01*
X0251643Y0012269D01*
X0251921Y0012334D01*
X0252197Y0012406D01*
X0252471Y0012484D01*
X0252744Y0012569D01*
X0253014Y0012661D01*
X0253282Y0012759D01*
X0253548Y0012863D01*
X0253811Y0012974D01*
X0254071Y0013091D01*
X0254329Y0013214D01*
X0254583Y0013344D01*
X0254834Y0013480D01*
X0255082Y0013621D01*
X0255326Y0013769D01*
X0255567Y0013922D01*
X0255803Y0014082D01*
X0256036Y0014247D01*
X0256265Y0014417D01*
X0256490Y0014593D01*
X0256710Y0014775D01*
X0256926Y0014961D01*
X0257137Y0015153D01*
X0257344Y0015350D01*
X0257546Y0015552D01*
X0257743Y0015759D01*
X0257935Y0015970D01*
X0258121Y0016186D01*
X0258303Y0016406D01*
X0258479Y0016631D01*
X0258649Y0016860D01*
X0258814Y0017093D01*
X0258974Y0017329D01*
X0259127Y0017570D01*
X0259275Y0017814D01*
X0259416Y0018062D01*
X0259552Y0018313D01*
X0259682Y0018567D01*
X0259805Y0018825D01*
X0259922Y0019085D01*
X0260033Y0019348D01*
X0260137Y0019614D01*
X0260235Y0019882D01*
X0260327Y0020152D01*
X0260412Y0020425D01*
X0260490Y0020699D01*
X0260562Y0020975D01*
X0260627Y0021253D01*
X0260685Y0021533D01*
X0260736Y0021814D01*
X0260781Y0022095D01*
X0260819Y0022378D01*
X0260850Y0022662D01*
X0260874Y0022946D01*
X0260891Y0023231D01*
X0260902Y0023517D01*
X0260905Y0023802D01*
X0260906Y0023802D02*
X0260906Y0118290D01*
X0260905Y0118290D02*
X0260902Y0118575D01*
X0260891Y0118861D01*
X0260874Y0119146D01*
X0260850Y0119430D01*
X0260819Y0119714D01*
X0260781Y0119997D01*
X0260736Y0120278D01*
X0260685Y0120559D01*
X0260627Y0120839D01*
X0260562Y0121117D01*
X0260490Y0121393D01*
X0260412Y0121667D01*
X0260327Y0121940D01*
X0260235Y0122210D01*
X0260137Y0122478D01*
X0260033Y0122744D01*
X0259922Y0123007D01*
X0259805Y0123267D01*
X0259682Y0123525D01*
X0259552Y0123779D01*
X0259416Y0124030D01*
X0259275Y0124278D01*
X0259127Y0124522D01*
X0258974Y0124763D01*
X0258814Y0124999D01*
X0258649Y0125232D01*
X0258479Y0125461D01*
X0258303Y0125686D01*
X0258121Y0125906D01*
X0257935Y0126122D01*
X0257743Y0126333D01*
X0257546Y0126540D01*
X0257344Y0126742D01*
X0257137Y0126939D01*
X0256926Y0127131D01*
X0256710Y0127317D01*
X0256490Y0127499D01*
X0256265Y0127675D01*
X0256036Y0127845D01*
X0255803Y0128010D01*
X0255567Y0128170D01*
X0255326Y0128323D01*
X0255082Y0128471D01*
X0254834Y0128612D01*
X0254583Y0128748D01*
X0254329Y0128878D01*
X0254071Y0129001D01*
X0253811Y0129118D01*
X0253548Y0129229D01*
X0253282Y0129333D01*
X0253014Y0129431D01*
X0252744Y0129523D01*
X0252471Y0129608D01*
X0252197Y0129686D01*
X0251921Y0129758D01*
X0251643Y0129823D01*
X0251363Y0129881D01*
X0251082Y0129932D01*
X0250801Y0129977D01*
X0250518Y0130015D01*
X0250234Y0130046D01*
X0249950Y0130070D01*
X0249665Y0130087D01*
X0249379Y0130098D01*
X0249094Y0130101D01*
X0016811Y0130101D01*
X0016526Y0130098D01*
X0016240Y0130087D01*
X0015955Y0130070D01*
X0015671Y0130046D01*
X0015387Y0130015D01*
X0015104Y0129977D01*
X0014823Y0129932D01*
X0014542Y0129881D01*
X0014262Y0129823D01*
X0013984Y0129758D01*
X0013708Y0129686D01*
X0013434Y0129608D01*
X0013161Y0129523D01*
X0012891Y0129431D01*
X0012623Y0129333D01*
X0012357Y0129229D01*
X0012094Y0129118D01*
X0011834Y0129001D01*
X0011576Y0128878D01*
X0011322Y0128748D01*
X0011071Y0128612D01*
X0010823Y0128471D01*
X0010579Y0128323D01*
X0010338Y0128170D01*
X0010102Y0128010D01*
X0009869Y0127845D01*
X0009640Y0127675D01*
X0009415Y0127499D01*
X0009195Y0127317D01*
X0008979Y0127131D01*
X0008768Y0126939D01*
X0008561Y0126742D01*
X0008359Y0126540D01*
X0008162Y0126333D01*
X0007970Y0126122D01*
X0007784Y0125906D01*
X0007602Y0125686D01*
X0007426Y0125461D01*
X0007256Y0125232D01*
X0007091Y0124999D01*
X0006931Y0124763D01*
X0006778Y0124522D01*
X0006630Y0124278D01*
X0006489Y0124030D01*
X0006353Y0123779D01*
X0006223Y0123525D01*
X0006100Y0123267D01*
X0005983Y0123007D01*
X0005872Y0122744D01*
X0005768Y0122478D01*
X0005670Y0122210D01*
X0005578Y0121940D01*
X0005493Y0121667D01*
X0005415Y0121393D01*
X0005343Y0121117D01*
X0005278Y0120839D01*
X0005220Y0120559D01*
X0005169Y0120278D01*
X0005124Y0119997D01*
X0005086Y0119714D01*
X0005055Y0119430D01*
X0005031Y0119146D01*
X0005014Y0118861D01*
X0005003Y0118575D01*
X0005000Y0118290D01*
X0005000Y0023802D01*
X0005003Y0023517D01*
X0005014Y0023231D01*
X0005031Y0022946D01*
X0005055Y0022662D01*
X0005086Y0022378D01*
X0005124Y0022095D01*
X0005169Y0021814D01*
X0005220Y0021533D01*
X0005278Y0021253D01*
X0005343Y0020975D01*
X0005415Y0020699D01*
X0005493Y0020425D01*
X0005578Y0020152D01*
X0005670Y0019882D01*
X0005768Y0019614D01*
X0005872Y0019348D01*
X0005983Y0019085D01*
X0006100Y0018825D01*
X0006223Y0018567D01*
X0006353Y0018313D01*
X0006489Y0018062D01*
X0006630Y0017814D01*
X0006778Y0017570D01*
X0006931Y0017329D01*
X0007091Y0017093D01*
X0007256Y0016860D01*
X0007426Y0016631D01*
X0007602Y0016406D01*
X0007784Y0016186D01*
X0007970Y0015970D01*
X0008162Y0015759D01*
X0008359Y0015552D01*
X0008561Y0015350D01*
X0008768Y0015153D01*
X0008979Y0014961D01*
X0009195Y0014775D01*
X0009415Y0014593D01*
X0009640Y0014417D01*
X0009869Y0014247D01*
X0010102Y0014082D01*
X0010338Y0013922D01*
X0010579Y0013769D01*
X0010823Y0013621D01*
X0011071Y0013480D01*
X0011322Y0013344D01*
X0011576Y0013214D01*
X0011834Y0013091D01*
X0012094Y0012974D01*
X0012357Y0012863D01*
X0012623Y0012759D01*
X0012891Y0012661D01*
X0013161Y0012569D01*
X0013434Y0012484D01*
X0013708Y0012406D01*
X0013984Y0012334D01*
X0014262Y0012269D01*
X0014542Y0012211D01*
X0014823Y0012160D01*
X0015104Y0012115D01*
X0015387Y0012077D01*
X0015671Y0012046D01*
X0015955Y0012022D01*
X0016240Y0012005D01*
X0016526Y0011994D01*
X0016811Y0011991D01*
D11*
X0013367Y0025770D02*
X0013369Y0025917D01*
X0013375Y0026063D01*
X0013385Y0026209D01*
X0013399Y0026355D01*
X0013417Y0026501D01*
X0013438Y0026646D01*
X0013464Y0026790D01*
X0013494Y0026934D01*
X0013527Y0027076D01*
X0013564Y0027218D01*
X0013605Y0027359D01*
X0013650Y0027498D01*
X0013699Y0027637D01*
X0013751Y0027774D01*
X0013808Y0027909D01*
X0013867Y0028043D01*
X0013931Y0028175D01*
X0013998Y0028305D01*
X0014068Y0028434D01*
X0014142Y0028561D01*
X0014219Y0028685D01*
X0014300Y0028808D01*
X0014384Y0028928D01*
X0014471Y0029046D01*
X0014561Y0029161D01*
X0014654Y0029274D01*
X0014751Y0029385D01*
X0014850Y0029493D01*
X0014952Y0029598D01*
X0015057Y0029700D01*
X0015165Y0029799D01*
X0015276Y0029896D01*
X0015389Y0029989D01*
X0015504Y0030079D01*
X0015622Y0030166D01*
X0015742Y0030250D01*
X0015865Y0030331D01*
X0015989Y0030408D01*
X0016116Y0030482D01*
X0016245Y0030552D01*
X0016375Y0030619D01*
X0016507Y0030683D01*
X0016641Y0030742D01*
X0016776Y0030799D01*
X0016913Y0030851D01*
X0017052Y0030900D01*
X0017191Y0030945D01*
X0017332Y0030986D01*
X0017474Y0031023D01*
X0017616Y0031056D01*
X0017760Y0031086D01*
X0017904Y0031112D01*
X0018049Y0031133D01*
X0018195Y0031151D01*
X0018341Y0031165D01*
X0018487Y0031175D01*
X0018633Y0031181D01*
X0018780Y0031183D01*
X0018927Y0031181D01*
X0019073Y0031175D01*
X0019219Y0031165D01*
X0019365Y0031151D01*
X0019511Y0031133D01*
X0019656Y0031112D01*
X0019800Y0031086D01*
X0019944Y0031056D01*
X0020086Y0031023D01*
X0020228Y0030986D01*
X0020369Y0030945D01*
X0020508Y0030900D01*
X0020647Y0030851D01*
X0020784Y0030799D01*
X0020919Y0030742D01*
X0021053Y0030683D01*
X0021185Y0030619D01*
X0021315Y0030552D01*
X0021444Y0030482D01*
X0021571Y0030408D01*
X0021695Y0030331D01*
X0021818Y0030250D01*
X0021938Y0030166D01*
X0022056Y0030079D01*
X0022171Y0029989D01*
X0022284Y0029896D01*
X0022395Y0029799D01*
X0022503Y0029700D01*
X0022608Y0029598D01*
X0022710Y0029493D01*
X0022809Y0029385D01*
X0022906Y0029274D01*
X0022999Y0029161D01*
X0023089Y0029046D01*
X0023176Y0028928D01*
X0023260Y0028808D01*
X0023341Y0028685D01*
X0023418Y0028561D01*
X0023492Y0028434D01*
X0023562Y0028305D01*
X0023629Y0028175D01*
X0023693Y0028043D01*
X0023752Y0027909D01*
X0023809Y0027774D01*
X0023861Y0027637D01*
X0023910Y0027498D01*
X0023955Y0027359D01*
X0023996Y0027218D01*
X0024033Y0027076D01*
X0024066Y0026934D01*
X0024096Y0026790D01*
X0024122Y0026646D01*
X0024143Y0026501D01*
X0024161Y0026355D01*
X0024175Y0026209D01*
X0024185Y0026063D01*
X0024191Y0025917D01*
X0024193Y0025770D01*
X0024191Y0025623D01*
X0024185Y0025477D01*
X0024175Y0025331D01*
X0024161Y0025185D01*
X0024143Y0025039D01*
X0024122Y0024894D01*
X0024096Y0024750D01*
X0024066Y0024606D01*
X0024033Y0024464D01*
X0023996Y0024322D01*
X0023955Y0024181D01*
X0023910Y0024042D01*
X0023861Y0023903D01*
X0023809Y0023766D01*
X0023752Y0023631D01*
X0023693Y0023497D01*
X0023629Y0023365D01*
X0023562Y0023235D01*
X0023492Y0023106D01*
X0023418Y0022979D01*
X0023341Y0022855D01*
X0023260Y0022732D01*
X0023176Y0022612D01*
X0023089Y0022494D01*
X0022999Y0022379D01*
X0022906Y0022266D01*
X0022809Y0022155D01*
X0022710Y0022047D01*
X0022608Y0021942D01*
X0022503Y0021840D01*
X0022395Y0021741D01*
X0022284Y0021644D01*
X0022171Y0021551D01*
X0022056Y0021461D01*
X0021938Y0021374D01*
X0021818Y0021290D01*
X0021695Y0021209D01*
X0021571Y0021132D01*
X0021444Y0021058D01*
X0021315Y0020988D01*
X0021185Y0020921D01*
X0021053Y0020857D01*
X0020919Y0020798D01*
X0020784Y0020741D01*
X0020647Y0020689D01*
X0020508Y0020640D01*
X0020369Y0020595D01*
X0020228Y0020554D01*
X0020086Y0020517D01*
X0019944Y0020484D01*
X0019800Y0020454D01*
X0019656Y0020428D01*
X0019511Y0020407D01*
X0019365Y0020389D01*
X0019219Y0020375D01*
X0019073Y0020365D01*
X0018927Y0020359D01*
X0018780Y0020357D01*
X0018633Y0020359D01*
X0018487Y0020365D01*
X0018341Y0020375D01*
X0018195Y0020389D01*
X0018049Y0020407D01*
X0017904Y0020428D01*
X0017760Y0020454D01*
X0017616Y0020484D01*
X0017474Y0020517D01*
X0017332Y0020554D01*
X0017191Y0020595D01*
X0017052Y0020640D01*
X0016913Y0020689D01*
X0016776Y0020741D01*
X0016641Y0020798D01*
X0016507Y0020857D01*
X0016375Y0020921D01*
X0016245Y0020988D01*
X0016116Y0021058D01*
X0015989Y0021132D01*
X0015865Y0021209D01*
X0015742Y0021290D01*
X0015622Y0021374D01*
X0015504Y0021461D01*
X0015389Y0021551D01*
X0015276Y0021644D01*
X0015165Y0021741D01*
X0015057Y0021840D01*
X0014952Y0021942D01*
X0014850Y0022047D01*
X0014751Y0022155D01*
X0014654Y0022266D01*
X0014561Y0022379D01*
X0014471Y0022494D01*
X0014384Y0022612D01*
X0014300Y0022732D01*
X0014219Y0022855D01*
X0014142Y0022979D01*
X0014068Y0023106D01*
X0013998Y0023235D01*
X0013931Y0023365D01*
X0013867Y0023497D01*
X0013808Y0023631D01*
X0013751Y0023766D01*
X0013699Y0023903D01*
X0013650Y0024042D01*
X0013605Y0024181D01*
X0013564Y0024322D01*
X0013527Y0024464D01*
X0013494Y0024606D01*
X0013464Y0024750D01*
X0013438Y0024894D01*
X0013417Y0025039D01*
X0013399Y0025185D01*
X0013385Y0025331D01*
X0013375Y0025477D01*
X0013369Y0025623D01*
X0013367Y0025770D01*
X0013367Y0116321D02*
X0013369Y0116468D01*
X0013375Y0116614D01*
X0013385Y0116760D01*
X0013399Y0116906D01*
X0013417Y0117052D01*
X0013438Y0117197D01*
X0013464Y0117341D01*
X0013494Y0117485D01*
X0013527Y0117627D01*
X0013564Y0117769D01*
X0013605Y0117910D01*
X0013650Y0118049D01*
X0013699Y0118188D01*
X0013751Y0118325D01*
X0013808Y0118460D01*
X0013867Y0118594D01*
X0013931Y0118726D01*
X0013998Y0118856D01*
X0014068Y0118985D01*
X0014142Y0119112D01*
X0014219Y0119236D01*
X0014300Y0119359D01*
X0014384Y0119479D01*
X0014471Y0119597D01*
X0014561Y0119712D01*
X0014654Y0119825D01*
X0014751Y0119936D01*
X0014850Y0120044D01*
X0014952Y0120149D01*
X0015057Y0120251D01*
X0015165Y0120350D01*
X0015276Y0120447D01*
X0015389Y0120540D01*
X0015504Y0120630D01*
X0015622Y0120717D01*
X0015742Y0120801D01*
X0015865Y0120882D01*
X0015989Y0120959D01*
X0016116Y0121033D01*
X0016245Y0121103D01*
X0016375Y0121170D01*
X0016507Y0121234D01*
X0016641Y0121293D01*
X0016776Y0121350D01*
X0016913Y0121402D01*
X0017052Y0121451D01*
X0017191Y0121496D01*
X0017332Y0121537D01*
X0017474Y0121574D01*
X0017616Y0121607D01*
X0017760Y0121637D01*
X0017904Y0121663D01*
X0018049Y0121684D01*
X0018195Y0121702D01*
X0018341Y0121716D01*
X0018487Y0121726D01*
X0018633Y0121732D01*
X0018780Y0121734D01*
X0018927Y0121732D01*
X0019073Y0121726D01*
X0019219Y0121716D01*
X0019365Y0121702D01*
X0019511Y0121684D01*
X0019656Y0121663D01*
X0019800Y0121637D01*
X0019944Y0121607D01*
X0020086Y0121574D01*
X0020228Y0121537D01*
X0020369Y0121496D01*
X0020508Y0121451D01*
X0020647Y0121402D01*
X0020784Y0121350D01*
X0020919Y0121293D01*
X0021053Y0121234D01*
X0021185Y0121170D01*
X0021315Y0121103D01*
X0021444Y0121033D01*
X0021571Y0120959D01*
X0021695Y0120882D01*
X0021818Y0120801D01*
X0021938Y0120717D01*
X0022056Y0120630D01*
X0022171Y0120540D01*
X0022284Y0120447D01*
X0022395Y0120350D01*
X0022503Y0120251D01*
X0022608Y0120149D01*
X0022710Y0120044D01*
X0022809Y0119936D01*
X0022906Y0119825D01*
X0022999Y0119712D01*
X0023089Y0119597D01*
X0023176Y0119479D01*
X0023260Y0119359D01*
X0023341Y0119236D01*
X0023418Y0119112D01*
X0023492Y0118985D01*
X0023562Y0118856D01*
X0023629Y0118726D01*
X0023693Y0118594D01*
X0023752Y0118460D01*
X0023809Y0118325D01*
X0023861Y0118188D01*
X0023910Y0118049D01*
X0023955Y0117910D01*
X0023996Y0117769D01*
X0024033Y0117627D01*
X0024066Y0117485D01*
X0024096Y0117341D01*
X0024122Y0117197D01*
X0024143Y0117052D01*
X0024161Y0116906D01*
X0024175Y0116760D01*
X0024185Y0116614D01*
X0024191Y0116468D01*
X0024193Y0116321D01*
X0024191Y0116174D01*
X0024185Y0116028D01*
X0024175Y0115882D01*
X0024161Y0115736D01*
X0024143Y0115590D01*
X0024122Y0115445D01*
X0024096Y0115301D01*
X0024066Y0115157D01*
X0024033Y0115015D01*
X0023996Y0114873D01*
X0023955Y0114732D01*
X0023910Y0114593D01*
X0023861Y0114454D01*
X0023809Y0114317D01*
X0023752Y0114182D01*
X0023693Y0114048D01*
X0023629Y0113916D01*
X0023562Y0113786D01*
X0023492Y0113657D01*
X0023418Y0113530D01*
X0023341Y0113406D01*
X0023260Y0113283D01*
X0023176Y0113163D01*
X0023089Y0113045D01*
X0022999Y0112930D01*
X0022906Y0112817D01*
X0022809Y0112706D01*
X0022710Y0112598D01*
X0022608Y0112493D01*
X0022503Y0112391D01*
X0022395Y0112292D01*
X0022284Y0112195D01*
X0022171Y0112102D01*
X0022056Y0112012D01*
X0021938Y0111925D01*
X0021818Y0111841D01*
X0021695Y0111760D01*
X0021571Y0111683D01*
X0021444Y0111609D01*
X0021315Y0111539D01*
X0021185Y0111472D01*
X0021053Y0111408D01*
X0020919Y0111349D01*
X0020784Y0111292D01*
X0020647Y0111240D01*
X0020508Y0111191D01*
X0020369Y0111146D01*
X0020228Y0111105D01*
X0020086Y0111068D01*
X0019944Y0111035D01*
X0019800Y0111005D01*
X0019656Y0110979D01*
X0019511Y0110958D01*
X0019365Y0110940D01*
X0019219Y0110926D01*
X0019073Y0110916D01*
X0018927Y0110910D01*
X0018780Y0110908D01*
X0018633Y0110910D01*
X0018487Y0110916D01*
X0018341Y0110926D01*
X0018195Y0110940D01*
X0018049Y0110958D01*
X0017904Y0110979D01*
X0017760Y0111005D01*
X0017616Y0111035D01*
X0017474Y0111068D01*
X0017332Y0111105D01*
X0017191Y0111146D01*
X0017052Y0111191D01*
X0016913Y0111240D01*
X0016776Y0111292D01*
X0016641Y0111349D01*
X0016507Y0111408D01*
X0016375Y0111472D01*
X0016245Y0111539D01*
X0016116Y0111609D01*
X0015989Y0111683D01*
X0015865Y0111760D01*
X0015742Y0111841D01*
X0015622Y0111925D01*
X0015504Y0112012D01*
X0015389Y0112102D01*
X0015276Y0112195D01*
X0015165Y0112292D01*
X0015057Y0112391D01*
X0014952Y0112493D01*
X0014850Y0112598D01*
X0014751Y0112706D01*
X0014654Y0112817D01*
X0014561Y0112930D01*
X0014471Y0113045D01*
X0014384Y0113163D01*
X0014300Y0113283D01*
X0014219Y0113406D01*
X0014142Y0113530D01*
X0014068Y0113657D01*
X0013998Y0113786D01*
X0013931Y0113916D01*
X0013867Y0114048D01*
X0013808Y0114182D01*
X0013751Y0114317D01*
X0013699Y0114454D01*
X0013650Y0114593D01*
X0013605Y0114732D01*
X0013564Y0114873D01*
X0013527Y0115015D01*
X0013494Y0115157D01*
X0013464Y0115301D01*
X0013438Y0115445D01*
X0013417Y0115590D01*
X0013399Y0115736D01*
X0013385Y0115882D01*
X0013375Y0116028D01*
X0013369Y0116174D01*
X0013367Y0116321D01*
X0192953Y0026991D02*
X0192955Y0027088D01*
X0192961Y0027185D01*
X0192971Y0027281D01*
X0192985Y0027377D01*
X0193003Y0027473D01*
X0193024Y0027567D01*
X0193050Y0027661D01*
X0193079Y0027753D01*
X0193113Y0027844D01*
X0193149Y0027934D01*
X0193190Y0028022D01*
X0193234Y0028108D01*
X0193282Y0028193D01*
X0193333Y0028275D01*
X0193387Y0028356D01*
X0193445Y0028434D01*
X0193506Y0028509D01*
X0193569Y0028582D01*
X0193636Y0028653D01*
X0193706Y0028720D01*
X0193778Y0028785D01*
X0193853Y0028846D01*
X0193931Y0028905D01*
X0194010Y0028960D01*
X0194092Y0029012D01*
X0194176Y0029060D01*
X0194262Y0029105D01*
X0194350Y0029147D01*
X0194439Y0029185D01*
X0194530Y0029219D01*
X0194622Y0029249D01*
X0194715Y0029276D01*
X0194810Y0029298D01*
X0194905Y0029317D01*
X0195001Y0029332D01*
X0195097Y0029343D01*
X0195194Y0029350D01*
X0195291Y0029353D01*
X0195388Y0029352D01*
X0195485Y0029347D01*
X0195581Y0029338D01*
X0195677Y0029325D01*
X0195773Y0029308D01*
X0195868Y0029287D01*
X0195961Y0029263D01*
X0196054Y0029234D01*
X0196146Y0029202D01*
X0196236Y0029166D01*
X0196324Y0029127D01*
X0196411Y0029083D01*
X0196496Y0029037D01*
X0196579Y0028986D01*
X0196660Y0028933D01*
X0196738Y0028876D01*
X0196815Y0028816D01*
X0196888Y0028753D01*
X0196959Y0028687D01*
X0197027Y0028618D01*
X0197093Y0028546D01*
X0197155Y0028472D01*
X0197214Y0028395D01*
X0197270Y0028316D01*
X0197323Y0028234D01*
X0197373Y0028151D01*
X0197418Y0028065D01*
X0197461Y0027978D01*
X0197500Y0027889D01*
X0197535Y0027799D01*
X0197566Y0027707D01*
X0197593Y0027614D01*
X0197617Y0027520D01*
X0197637Y0027425D01*
X0197653Y0027329D01*
X0197665Y0027233D01*
X0197673Y0027136D01*
X0197677Y0027039D01*
X0197677Y0026943D01*
X0197673Y0026846D01*
X0197665Y0026749D01*
X0197653Y0026653D01*
X0197637Y0026557D01*
X0197617Y0026462D01*
X0197593Y0026368D01*
X0197566Y0026275D01*
X0197535Y0026183D01*
X0197500Y0026093D01*
X0197461Y0026004D01*
X0197418Y0025917D01*
X0197373Y0025831D01*
X0197323Y0025748D01*
X0197270Y0025666D01*
X0197214Y0025587D01*
X0197155Y0025510D01*
X0197093Y0025436D01*
X0197027Y0025364D01*
X0196959Y0025295D01*
X0196888Y0025229D01*
X0196815Y0025166D01*
X0196738Y0025106D01*
X0196660Y0025049D01*
X0196579Y0024996D01*
X0196496Y0024945D01*
X0196411Y0024899D01*
X0196324Y0024855D01*
X0196236Y0024816D01*
X0196146Y0024780D01*
X0196054Y0024748D01*
X0195961Y0024719D01*
X0195868Y0024695D01*
X0195773Y0024674D01*
X0195677Y0024657D01*
X0195581Y0024644D01*
X0195485Y0024635D01*
X0195388Y0024630D01*
X0195291Y0024629D01*
X0195194Y0024632D01*
X0195097Y0024639D01*
X0195001Y0024650D01*
X0194905Y0024665D01*
X0194810Y0024684D01*
X0194715Y0024706D01*
X0194622Y0024733D01*
X0194530Y0024763D01*
X0194439Y0024797D01*
X0194350Y0024835D01*
X0194262Y0024877D01*
X0194176Y0024922D01*
X0194092Y0024970D01*
X0194010Y0025022D01*
X0193931Y0025077D01*
X0193853Y0025136D01*
X0193778Y0025197D01*
X0193706Y0025262D01*
X0193636Y0025329D01*
X0193569Y0025400D01*
X0193506Y0025473D01*
X0193445Y0025548D01*
X0193387Y0025626D01*
X0193333Y0025707D01*
X0193282Y0025789D01*
X0193234Y0025874D01*
X0193190Y0025960D01*
X0193149Y0026048D01*
X0193113Y0026138D01*
X0193079Y0026229D01*
X0193050Y0026321D01*
X0193024Y0026415D01*
X0193003Y0026509D01*
X0192985Y0026605D01*
X0192971Y0026701D01*
X0192961Y0026797D01*
X0192955Y0026894D01*
X0192953Y0026991D01*
X0192953Y0017148D02*
X0192955Y0017245D01*
X0192961Y0017342D01*
X0192971Y0017438D01*
X0192985Y0017534D01*
X0193003Y0017630D01*
X0193024Y0017724D01*
X0193050Y0017818D01*
X0193079Y0017910D01*
X0193113Y0018001D01*
X0193149Y0018091D01*
X0193190Y0018179D01*
X0193234Y0018265D01*
X0193282Y0018350D01*
X0193333Y0018432D01*
X0193387Y0018513D01*
X0193445Y0018591D01*
X0193506Y0018666D01*
X0193569Y0018739D01*
X0193636Y0018810D01*
X0193706Y0018877D01*
X0193778Y0018942D01*
X0193853Y0019003D01*
X0193931Y0019062D01*
X0194010Y0019117D01*
X0194092Y0019169D01*
X0194176Y0019217D01*
X0194262Y0019262D01*
X0194350Y0019304D01*
X0194439Y0019342D01*
X0194530Y0019376D01*
X0194622Y0019406D01*
X0194715Y0019433D01*
X0194810Y0019455D01*
X0194905Y0019474D01*
X0195001Y0019489D01*
X0195097Y0019500D01*
X0195194Y0019507D01*
X0195291Y0019510D01*
X0195388Y0019509D01*
X0195485Y0019504D01*
X0195581Y0019495D01*
X0195677Y0019482D01*
X0195773Y0019465D01*
X0195868Y0019444D01*
X0195961Y0019420D01*
X0196054Y0019391D01*
X0196146Y0019359D01*
X0196236Y0019323D01*
X0196324Y0019284D01*
X0196411Y0019240D01*
X0196496Y0019194D01*
X0196579Y0019143D01*
X0196660Y0019090D01*
X0196738Y0019033D01*
X0196815Y0018973D01*
X0196888Y0018910D01*
X0196959Y0018844D01*
X0197027Y0018775D01*
X0197093Y0018703D01*
X0197155Y0018629D01*
X0197214Y0018552D01*
X0197270Y0018473D01*
X0197323Y0018391D01*
X0197373Y0018308D01*
X0197418Y0018222D01*
X0197461Y0018135D01*
X0197500Y0018046D01*
X0197535Y0017956D01*
X0197566Y0017864D01*
X0197593Y0017771D01*
X0197617Y0017677D01*
X0197637Y0017582D01*
X0197653Y0017486D01*
X0197665Y0017390D01*
X0197673Y0017293D01*
X0197677Y0017196D01*
X0197677Y0017100D01*
X0197673Y0017003D01*
X0197665Y0016906D01*
X0197653Y0016810D01*
X0197637Y0016714D01*
X0197617Y0016619D01*
X0197593Y0016525D01*
X0197566Y0016432D01*
X0197535Y0016340D01*
X0197500Y0016250D01*
X0197461Y0016161D01*
X0197418Y0016074D01*
X0197373Y0015988D01*
X0197323Y0015905D01*
X0197270Y0015823D01*
X0197214Y0015744D01*
X0197155Y0015667D01*
X0197093Y0015593D01*
X0197027Y0015521D01*
X0196959Y0015452D01*
X0196888Y0015386D01*
X0196815Y0015323D01*
X0196738Y0015263D01*
X0196660Y0015206D01*
X0196579Y0015153D01*
X0196496Y0015102D01*
X0196411Y0015056D01*
X0196324Y0015012D01*
X0196236Y0014973D01*
X0196146Y0014937D01*
X0196054Y0014905D01*
X0195961Y0014876D01*
X0195868Y0014852D01*
X0195773Y0014831D01*
X0195677Y0014814D01*
X0195581Y0014801D01*
X0195485Y0014792D01*
X0195388Y0014787D01*
X0195291Y0014786D01*
X0195194Y0014789D01*
X0195097Y0014796D01*
X0195001Y0014807D01*
X0194905Y0014822D01*
X0194810Y0014841D01*
X0194715Y0014863D01*
X0194622Y0014890D01*
X0194530Y0014920D01*
X0194439Y0014954D01*
X0194350Y0014992D01*
X0194262Y0015034D01*
X0194176Y0015079D01*
X0194092Y0015127D01*
X0194010Y0015179D01*
X0193931Y0015234D01*
X0193853Y0015293D01*
X0193778Y0015354D01*
X0193706Y0015419D01*
X0193636Y0015486D01*
X0193569Y0015557D01*
X0193506Y0015630D01*
X0193445Y0015705D01*
X0193387Y0015783D01*
X0193333Y0015864D01*
X0193282Y0015946D01*
X0193234Y0016031D01*
X0193190Y0016117D01*
X0193149Y0016205D01*
X0193113Y0016295D01*
X0193079Y0016386D01*
X0193050Y0016478D01*
X0193024Y0016572D01*
X0193003Y0016666D01*
X0192985Y0016762D01*
X0192971Y0016858D01*
X0192961Y0016954D01*
X0192955Y0017051D01*
X0192953Y0017148D01*
X0232323Y0017148D02*
X0232325Y0017245D01*
X0232331Y0017342D01*
X0232341Y0017438D01*
X0232355Y0017534D01*
X0232373Y0017630D01*
X0232394Y0017724D01*
X0232420Y0017818D01*
X0232449Y0017910D01*
X0232483Y0018001D01*
X0232519Y0018091D01*
X0232560Y0018179D01*
X0232604Y0018265D01*
X0232652Y0018350D01*
X0232703Y0018432D01*
X0232757Y0018513D01*
X0232815Y0018591D01*
X0232876Y0018666D01*
X0232939Y0018739D01*
X0233006Y0018810D01*
X0233076Y0018877D01*
X0233148Y0018942D01*
X0233223Y0019003D01*
X0233301Y0019062D01*
X0233380Y0019117D01*
X0233462Y0019169D01*
X0233546Y0019217D01*
X0233632Y0019262D01*
X0233720Y0019304D01*
X0233809Y0019342D01*
X0233900Y0019376D01*
X0233992Y0019406D01*
X0234085Y0019433D01*
X0234180Y0019455D01*
X0234275Y0019474D01*
X0234371Y0019489D01*
X0234467Y0019500D01*
X0234564Y0019507D01*
X0234661Y0019510D01*
X0234758Y0019509D01*
X0234855Y0019504D01*
X0234951Y0019495D01*
X0235047Y0019482D01*
X0235143Y0019465D01*
X0235238Y0019444D01*
X0235331Y0019420D01*
X0235424Y0019391D01*
X0235516Y0019359D01*
X0235606Y0019323D01*
X0235694Y0019284D01*
X0235781Y0019240D01*
X0235866Y0019194D01*
X0235949Y0019143D01*
X0236030Y0019090D01*
X0236108Y0019033D01*
X0236185Y0018973D01*
X0236258Y0018910D01*
X0236329Y0018844D01*
X0236397Y0018775D01*
X0236463Y0018703D01*
X0236525Y0018629D01*
X0236584Y0018552D01*
X0236640Y0018473D01*
X0236693Y0018391D01*
X0236743Y0018308D01*
X0236788Y0018222D01*
X0236831Y0018135D01*
X0236870Y0018046D01*
X0236905Y0017956D01*
X0236936Y0017864D01*
X0236963Y0017771D01*
X0236987Y0017677D01*
X0237007Y0017582D01*
X0237023Y0017486D01*
X0237035Y0017390D01*
X0237043Y0017293D01*
X0237047Y0017196D01*
X0237047Y0017100D01*
X0237043Y0017003D01*
X0237035Y0016906D01*
X0237023Y0016810D01*
X0237007Y0016714D01*
X0236987Y0016619D01*
X0236963Y0016525D01*
X0236936Y0016432D01*
X0236905Y0016340D01*
X0236870Y0016250D01*
X0236831Y0016161D01*
X0236788Y0016074D01*
X0236743Y0015988D01*
X0236693Y0015905D01*
X0236640Y0015823D01*
X0236584Y0015744D01*
X0236525Y0015667D01*
X0236463Y0015593D01*
X0236397Y0015521D01*
X0236329Y0015452D01*
X0236258Y0015386D01*
X0236185Y0015323D01*
X0236108Y0015263D01*
X0236030Y0015206D01*
X0235949Y0015153D01*
X0235866Y0015102D01*
X0235781Y0015056D01*
X0235694Y0015012D01*
X0235606Y0014973D01*
X0235516Y0014937D01*
X0235424Y0014905D01*
X0235331Y0014876D01*
X0235238Y0014852D01*
X0235143Y0014831D01*
X0235047Y0014814D01*
X0234951Y0014801D01*
X0234855Y0014792D01*
X0234758Y0014787D01*
X0234661Y0014786D01*
X0234564Y0014789D01*
X0234467Y0014796D01*
X0234371Y0014807D01*
X0234275Y0014822D01*
X0234180Y0014841D01*
X0234085Y0014863D01*
X0233992Y0014890D01*
X0233900Y0014920D01*
X0233809Y0014954D01*
X0233720Y0014992D01*
X0233632Y0015034D01*
X0233546Y0015079D01*
X0233462Y0015127D01*
X0233380Y0015179D01*
X0233301Y0015234D01*
X0233223Y0015293D01*
X0233148Y0015354D01*
X0233076Y0015419D01*
X0233006Y0015486D01*
X0232939Y0015557D01*
X0232876Y0015630D01*
X0232815Y0015705D01*
X0232757Y0015783D01*
X0232703Y0015864D01*
X0232652Y0015946D01*
X0232604Y0016031D01*
X0232560Y0016117D01*
X0232519Y0016205D01*
X0232483Y0016295D01*
X0232449Y0016386D01*
X0232420Y0016478D01*
X0232394Y0016572D01*
X0232373Y0016666D01*
X0232355Y0016762D01*
X0232341Y0016858D01*
X0232331Y0016954D01*
X0232325Y0017051D01*
X0232323Y0017148D01*
X0241713Y0025770D02*
X0241715Y0025917D01*
X0241721Y0026063D01*
X0241731Y0026209D01*
X0241745Y0026355D01*
X0241763Y0026501D01*
X0241784Y0026646D01*
X0241810Y0026790D01*
X0241840Y0026934D01*
X0241873Y0027076D01*
X0241910Y0027218D01*
X0241951Y0027359D01*
X0241996Y0027498D01*
X0242045Y0027637D01*
X0242097Y0027774D01*
X0242154Y0027909D01*
X0242213Y0028043D01*
X0242277Y0028175D01*
X0242344Y0028305D01*
X0242414Y0028434D01*
X0242488Y0028561D01*
X0242565Y0028685D01*
X0242646Y0028808D01*
X0242730Y0028928D01*
X0242817Y0029046D01*
X0242907Y0029161D01*
X0243000Y0029274D01*
X0243097Y0029385D01*
X0243196Y0029493D01*
X0243298Y0029598D01*
X0243403Y0029700D01*
X0243511Y0029799D01*
X0243622Y0029896D01*
X0243735Y0029989D01*
X0243850Y0030079D01*
X0243968Y0030166D01*
X0244088Y0030250D01*
X0244211Y0030331D01*
X0244335Y0030408D01*
X0244462Y0030482D01*
X0244591Y0030552D01*
X0244721Y0030619D01*
X0244853Y0030683D01*
X0244987Y0030742D01*
X0245122Y0030799D01*
X0245259Y0030851D01*
X0245398Y0030900D01*
X0245537Y0030945D01*
X0245678Y0030986D01*
X0245820Y0031023D01*
X0245962Y0031056D01*
X0246106Y0031086D01*
X0246250Y0031112D01*
X0246395Y0031133D01*
X0246541Y0031151D01*
X0246687Y0031165D01*
X0246833Y0031175D01*
X0246979Y0031181D01*
X0247126Y0031183D01*
X0247273Y0031181D01*
X0247419Y0031175D01*
X0247565Y0031165D01*
X0247711Y0031151D01*
X0247857Y0031133D01*
X0248002Y0031112D01*
X0248146Y0031086D01*
X0248290Y0031056D01*
X0248432Y0031023D01*
X0248574Y0030986D01*
X0248715Y0030945D01*
X0248854Y0030900D01*
X0248993Y0030851D01*
X0249130Y0030799D01*
X0249265Y0030742D01*
X0249399Y0030683D01*
X0249531Y0030619D01*
X0249661Y0030552D01*
X0249790Y0030482D01*
X0249917Y0030408D01*
X0250041Y0030331D01*
X0250164Y0030250D01*
X0250284Y0030166D01*
X0250402Y0030079D01*
X0250517Y0029989D01*
X0250630Y0029896D01*
X0250741Y0029799D01*
X0250849Y0029700D01*
X0250954Y0029598D01*
X0251056Y0029493D01*
X0251155Y0029385D01*
X0251252Y0029274D01*
X0251345Y0029161D01*
X0251435Y0029046D01*
X0251522Y0028928D01*
X0251606Y0028808D01*
X0251687Y0028685D01*
X0251764Y0028561D01*
X0251838Y0028434D01*
X0251908Y0028305D01*
X0251975Y0028175D01*
X0252039Y0028043D01*
X0252098Y0027909D01*
X0252155Y0027774D01*
X0252207Y0027637D01*
X0252256Y0027498D01*
X0252301Y0027359D01*
X0252342Y0027218D01*
X0252379Y0027076D01*
X0252412Y0026934D01*
X0252442Y0026790D01*
X0252468Y0026646D01*
X0252489Y0026501D01*
X0252507Y0026355D01*
X0252521Y0026209D01*
X0252531Y0026063D01*
X0252537Y0025917D01*
X0252539Y0025770D01*
X0252537Y0025623D01*
X0252531Y0025477D01*
X0252521Y0025331D01*
X0252507Y0025185D01*
X0252489Y0025039D01*
X0252468Y0024894D01*
X0252442Y0024750D01*
X0252412Y0024606D01*
X0252379Y0024464D01*
X0252342Y0024322D01*
X0252301Y0024181D01*
X0252256Y0024042D01*
X0252207Y0023903D01*
X0252155Y0023766D01*
X0252098Y0023631D01*
X0252039Y0023497D01*
X0251975Y0023365D01*
X0251908Y0023235D01*
X0251838Y0023106D01*
X0251764Y0022979D01*
X0251687Y0022855D01*
X0251606Y0022732D01*
X0251522Y0022612D01*
X0251435Y0022494D01*
X0251345Y0022379D01*
X0251252Y0022266D01*
X0251155Y0022155D01*
X0251056Y0022047D01*
X0250954Y0021942D01*
X0250849Y0021840D01*
X0250741Y0021741D01*
X0250630Y0021644D01*
X0250517Y0021551D01*
X0250402Y0021461D01*
X0250284Y0021374D01*
X0250164Y0021290D01*
X0250041Y0021209D01*
X0249917Y0021132D01*
X0249790Y0021058D01*
X0249661Y0020988D01*
X0249531Y0020921D01*
X0249399Y0020857D01*
X0249265Y0020798D01*
X0249130Y0020741D01*
X0248993Y0020689D01*
X0248854Y0020640D01*
X0248715Y0020595D01*
X0248574Y0020554D01*
X0248432Y0020517D01*
X0248290Y0020484D01*
X0248146Y0020454D01*
X0248002Y0020428D01*
X0247857Y0020407D01*
X0247711Y0020389D01*
X0247565Y0020375D01*
X0247419Y0020365D01*
X0247273Y0020359D01*
X0247126Y0020357D01*
X0246979Y0020359D01*
X0246833Y0020365D01*
X0246687Y0020375D01*
X0246541Y0020389D01*
X0246395Y0020407D01*
X0246250Y0020428D01*
X0246106Y0020454D01*
X0245962Y0020484D01*
X0245820Y0020517D01*
X0245678Y0020554D01*
X0245537Y0020595D01*
X0245398Y0020640D01*
X0245259Y0020689D01*
X0245122Y0020741D01*
X0244987Y0020798D01*
X0244853Y0020857D01*
X0244721Y0020921D01*
X0244591Y0020988D01*
X0244462Y0021058D01*
X0244335Y0021132D01*
X0244211Y0021209D01*
X0244088Y0021290D01*
X0243968Y0021374D01*
X0243850Y0021461D01*
X0243735Y0021551D01*
X0243622Y0021644D01*
X0243511Y0021741D01*
X0243403Y0021840D01*
X0243298Y0021942D01*
X0243196Y0022047D01*
X0243097Y0022155D01*
X0243000Y0022266D01*
X0242907Y0022379D01*
X0242817Y0022494D01*
X0242730Y0022612D01*
X0242646Y0022732D01*
X0242565Y0022855D01*
X0242488Y0022979D01*
X0242414Y0023106D01*
X0242344Y0023235D01*
X0242277Y0023365D01*
X0242213Y0023497D01*
X0242154Y0023631D01*
X0242097Y0023766D01*
X0242045Y0023903D01*
X0241996Y0024042D01*
X0241951Y0024181D01*
X0241910Y0024322D01*
X0241873Y0024464D01*
X0241840Y0024606D01*
X0241810Y0024750D01*
X0241784Y0024894D01*
X0241763Y0025039D01*
X0241745Y0025185D01*
X0241731Y0025331D01*
X0241721Y0025477D01*
X0241715Y0025623D01*
X0241713Y0025770D01*
X0232323Y0026991D02*
X0232325Y0027088D01*
X0232331Y0027185D01*
X0232341Y0027281D01*
X0232355Y0027377D01*
X0232373Y0027473D01*
X0232394Y0027567D01*
X0232420Y0027661D01*
X0232449Y0027753D01*
X0232483Y0027844D01*
X0232519Y0027934D01*
X0232560Y0028022D01*
X0232604Y0028108D01*
X0232652Y0028193D01*
X0232703Y0028275D01*
X0232757Y0028356D01*
X0232815Y0028434D01*
X0232876Y0028509D01*
X0232939Y0028582D01*
X0233006Y0028653D01*
X0233076Y0028720D01*
X0233148Y0028785D01*
X0233223Y0028846D01*
X0233301Y0028905D01*
X0233380Y0028960D01*
X0233462Y0029012D01*
X0233546Y0029060D01*
X0233632Y0029105D01*
X0233720Y0029147D01*
X0233809Y0029185D01*
X0233900Y0029219D01*
X0233992Y0029249D01*
X0234085Y0029276D01*
X0234180Y0029298D01*
X0234275Y0029317D01*
X0234371Y0029332D01*
X0234467Y0029343D01*
X0234564Y0029350D01*
X0234661Y0029353D01*
X0234758Y0029352D01*
X0234855Y0029347D01*
X0234951Y0029338D01*
X0235047Y0029325D01*
X0235143Y0029308D01*
X0235238Y0029287D01*
X0235331Y0029263D01*
X0235424Y0029234D01*
X0235516Y0029202D01*
X0235606Y0029166D01*
X0235694Y0029127D01*
X0235781Y0029083D01*
X0235866Y0029037D01*
X0235949Y0028986D01*
X0236030Y0028933D01*
X0236108Y0028876D01*
X0236185Y0028816D01*
X0236258Y0028753D01*
X0236329Y0028687D01*
X0236397Y0028618D01*
X0236463Y0028546D01*
X0236525Y0028472D01*
X0236584Y0028395D01*
X0236640Y0028316D01*
X0236693Y0028234D01*
X0236743Y0028151D01*
X0236788Y0028065D01*
X0236831Y0027978D01*
X0236870Y0027889D01*
X0236905Y0027799D01*
X0236936Y0027707D01*
X0236963Y0027614D01*
X0236987Y0027520D01*
X0237007Y0027425D01*
X0237023Y0027329D01*
X0237035Y0027233D01*
X0237043Y0027136D01*
X0237047Y0027039D01*
X0237047Y0026943D01*
X0237043Y0026846D01*
X0237035Y0026749D01*
X0237023Y0026653D01*
X0237007Y0026557D01*
X0236987Y0026462D01*
X0236963Y0026368D01*
X0236936Y0026275D01*
X0236905Y0026183D01*
X0236870Y0026093D01*
X0236831Y0026004D01*
X0236788Y0025917D01*
X0236743Y0025831D01*
X0236693Y0025748D01*
X0236640Y0025666D01*
X0236584Y0025587D01*
X0236525Y0025510D01*
X0236463Y0025436D01*
X0236397Y0025364D01*
X0236329Y0025295D01*
X0236258Y0025229D01*
X0236185Y0025166D01*
X0236108Y0025106D01*
X0236030Y0025049D01*
X0235949Y0024996D01*
X0235866Y0024945D01*
X0235781Y0024899D01*
X0235694Y0024855D01*
X0235606Y0024816D01*
X0235516Y0024780D01*
X0235424Y0024748D01*
X0235331Y0024719D01*
X0235238Y0024695D01*
X0235143Y0024674D01*
X0235047Y0024657D01*
X0234951Y0024644D01*
X0234855Y0024635D01*
X0234758Y0024630D01*
X0234661Y0024629D01*
X0234564Y0024632D01*
X0234467Y0024639D01*
X0234371Y0024650D01*
X0234275Y0024665D01*
X0234180Y0024684D01*
X0234085Y0024706D01*
X0233992Y0024733D01*
X0233900Y0024763D01*
X0233809Y0024797D01*
X0233720Y0024835D01*
X0233632Y0024877D01*
X0233546Y0024922D01*
X0233462Y0024970D01*
X0233380Y0025022D01*
X0233301Y0025077D01*
X0233223Y0025136D01*
X0233148Y0025197D01*
X0233076Y0025262D01*
X0233006Y0025329D01*
X0232939Y0025400D01*
X0232876Y0025473D01*
X0232815Y0025548D01*
X0232757Y0025626D01*
X0232703Y0025707D01*
X0232652Y0025789D01*
X0232604Y0025874D01*
X0232560Y0025960D01*
X0232519Y0026048D01*
X0232483Y0026138D01*
X0232449Y0026229D01*
X0232420Y0026321D01*
X0232394Y0026415D01*
X0232373Y0026509D01*
X0232355Y0026605D01*
X0232341Y0026701D01*
X0232331Y0026797D01*
X0232325Y0026894D01*
X0232323Y0026991D01*
X0212638Y0046676D02*
X0212640Y0046773D01*
X0212646Y0046870D01*
X0212656Y0046966D01*
X0212670Y0047062D01*
X0212688Y0047158D01*
X0212709Y0047252D01*
X0212735Y0047346D01*
X0212764Y0047438D01*
X0212798Y0047529D01*
X0212834Y0047619D01*
X0212875Y0047707D01*
X0212919Y0047793D01*
X0212967Y0047878D01*
X0213018Y0047960D01*
X0213072Y0048041D01*
X0213130Y0048119D01*
X0213191Y0048194D01*
X0213254Y0048267D01*
X0213321Y0048338D01*
X0213391Y0048405D01*
X0213463Y0048470D01*
X0213538Y0048531D01*
X0213616Y0048590D01*
X0213695Y0048645D01*
X0213777Y0048697D01*
X0213861Y0048745D01*
X0213947Y0048790D01*
X0214035Y0048832D01*
X0214124Y0048870D01*
X0214215Y0048904D01*
X0214307Y0048934D01*
X0214400Y0048961D01*
X0214495Y0048983D01*
X0214590Y0049002D01*
X0214686Y0049017D01*
X0214782Y0049028D01*
X0214879Y0049035D01*
X0214976Y0049038D01*
X0215073Y0049037D01*
X0215170Y0049032D01*
X0215266Y0049023D01*
X0215362Y0049010D01*
X0215458Y0048993D01*
X0215553Y0048972D01*
X0215646Y0048948D01*
X0215739Y0048919D01*
X0215831Y0048887D01*
X0215921Y0048851D01*
X0216009Y0048812D01*
X0216096Y0048768D01*
X0216181Y0048722D01*
X0216264Y0048671D01*
X0216345Y0048618D01*
X0216423Y0048561D01*
X0216500Y0048501D01*
X0216573Y0048438D01*
X0216644Y0048372D01*
X0216712Y0048303D01*
X0216778Y0048231D01*
X0216840Y0048157D01*
X0216899Y0048080D01*
X0216955Y0048001D01*
X0217008Y0047919D01*
X0217058Y0047836D01*
X0217103Y0047750D01*
X0217146Y0047663D01*
X0217185Y0047574D01*
X0217220Y0047484D01*
X0217251Y0047392D01*
X0217278Y0047299D01*
X0217302Y0047205D01*
X0217322Y0047110D01*
X0217338Y0047014D01*
X0217350Y0046918D01*
X0217358Y0046821D01*
X0217362Y0046724D01*
X0217362Y0046628D01*
X0217358Y0046531D01*
X0217350Y0046434D01*
X0217338Y0046338D01*
X0217322Y0046242D01*
X0217302Y0046147D01*
X0217278Y0046053D01*
X0217251Y0045960D01*
X0217220Y0045868D01*
X0217185Y0045778D01*
X0217146Y0045689D01*
X0217103Y0045602D01*
X0217058Y0045516D01*
X0217008Y0045433D01*
X0216955Y0045351D01*
X0216899Y0045272D01*
X0216840Y0045195D01*
X0216778Y0045121D01*
X0216712Y0045049D01*
X0216644Y0044980D01*
X0216573Y0044914D01*
X0216500Y0044851D01*
X0216423Y0044791D01*
X0216345Y0044734D01*
X0216264Y0044681D01*
X0216181Y0044630D01*
X0216096Y0044584D01*
X0216009Y0044540D01*
X0215921Y0044501D01*
X0215831Y0044465D01*
X0215739Y0044433D01*
X0215646Y0044404D01*
X0215553Y0044380D01*
X0215458Y0044359D01*
X0215362Y0044342D01*
X0215266Y0044329D01*
X0215170Y0044320D01*
X0215073Y0044315D01*
X0214976Y0044314D01*
X0214879Y0044317D01*
X0214782Y0044324D01*
X0214686Y0044335D01*
X0214590Y0044350D01*
X0214495Y0044369D01*
X0214400Y0044391D01*
X0214307Y0044418D01*
X0214215Y0044448D01*
X0214124Y0044482D01*
X0214035Y0044520D01*
X0213947Y0044562D01*
X0213861Y0044607D01*
X0213777Y0044655D01*
X0213695Y0044707D01*
X0213616Y0044762D01*
X0213538Y0044821D01*
X0213463Y0044882D01*
X0213391Y0044947D01*
X0213321Y0045014D01*
X0213254Y0045085D01*
X0213191Y0045158D01*
X0213130Y0045233D01*
X0213072Y0045311D01*
X0213018Y0045392D01*
X0212967Y0045474D01*
X0212919Y0045559D01*
X0212875Y0045645D01*
X0212834Y0045733D01*
X0212798Y0045823D01*
X0212764Y0045914D01*
X0212735Y0046006D01*
X0212709Y0046100D01*
X0212688Y0046194D01*
X0212670Y0046290D01*
X0212656Y0046386D01*
X0212646Y0046482D01*
X0212640Y0046579D01*
X0212638Y0046676D01*
X0241713Y0116321D02*
X0241715Y0116468D01*
X0241721Y0116614D01*
X0241731Y0116760D01*
X0241745Y0116906D01*
X0241763Y0117052D01*
X0241784Y0117197D01*
X0241810Y0117341D01*
X0241840Y0117485D01*
X0241873Y0117627D01*
X0241910Y0117769D01*
X0241951Y0117910D01*
X0241996Y0118049D01*
X0242045Y0118188D01*
X0242097Y0118325D01*
X0242154Y0118460D01*
X0242213Y0118594D01*
X0242277Y0118726D01*
X0242344Y0118856D01*
X0242414Y0118985D01*
X0242488Y0119112D01*
X0242565Y0119236D01*
X0242646Y0119359D01*
X0242730Y0119479D01*
X0242817Y0119597D01*
X0242907Y0119712D01*
X0243000Y0119825D01*
X0243097Y0119936D01*
X0243196Y0120044D01*
X0243298Y0120149D01*
X0243403Y0120251D01*
X0243511Y0120350D01*
X0243622Y0120447D01*
X0243735Y0120540D01*
X0243850Y0120630D01*
X0243968Y0120717D01*
X0244088Y0120801D01*
X0244211Y0120882D01*
X0244335Y0120959D01*
X0244462Y0121033D01*
X0244591Y0121103D01*
X0244721Y0121170D01*
X0244853Y0121234D01*
X0244987Y0121293D01*
X0245122Y0121350D01*
X0245259Y0121402D01*
X0245398Y0121451D01*
X0245537Y0121496D01*
X0245678Y0121537D01*
X0245820Y0121574D01*
X0245962Y0121607D01*
X0246106Y0121637D01*
X0246250Y0121663D01*
X0246395Y0121684D01*
X0246541Y0121702D01*
X0246687Y0121716D01*
X0246833Y0121726D01*
X0246979Y0121732D01*
X0247126Y0121734D01*
X0247273Y0121732D01*
X0247419Y0121726D01*
X0247565Y0121716D01*
X0247711Y0121702D01*
X0247857Y0121684D01*
X0248002Y0121663D01*
X0248146Y0121637D01*
X0248290Y0121607D01*
X0248432Y0121574D01*
X0248574Y0121537D01*
X0248715Y0121496D01*
X0248854Y0121451D01*
X0248993Y0121402D01*
X0249130Y0121350D01*
X0249265Y0121293D01*
X0249399Y0121234D01*
X0249531Y0121170D01*
X0249661Y0121103D01*
X0249790Y0121033D01*
X0249917Y0120959D01*
X0250041Y0120882D01*
X0250164Y0120801D01*
X0250284Y0120717D01*
X0250402Y0120630D01*
X0250517Y0120540D01*
X0250630Y0120447D01*
X0250741Y0120350D01*
X0250849Y0120251D01*
X0250954Y0120149D01*
X0251056Y0120044D01*
X0251155Y0119936D01*
X0251252Y0119825D01*
X0251345Y0119712D01*
X0251435Y0119597D01*
X0251522Y0119479D01*
X0251606Y0119359D01*
X0251687Y0119236D01*
X0251764Y0119112D01*
X0251838Y0118985D01*
X0251908Y0118856D01*
X0251975Y0118726D01*
X0252039Y0118594D01*
X0252098Y0118460D01*
X0252155Y0118325D01*
X0252207Y0118188D01*
X0252256Y0118049D01*
X0252301Y0117910D01*
X0252342Y0117769D01*
X0252379Y0117627D01*
X0252412Y0117485D01*
X0252442Y0117341D01*
X0252468Y0117197D01*
X0252489Y0117052D01*
X0252507Y0116906D01*
X0252521Y0116760D01*
X0252531Y0116614D01*
X0252537Y0116468D01*
X0252539Y0116321D01*
X0252537Y0116174D01*
X0252531Y0116028D01*
X0252521Y0115882D01*
X0252507Y0115736D01*
X0252489Y0115590D01*
X0252468Y0115445D01*
X0252442Y0115301D01*
X0252412Y0115157D01*
X0252379Y0115015D01*
X0252342Y0114873D01*
X0252301Y0114732D01*
X0252256Y0114593D01*
X0252207Y0114454D01*
X0252155Y0114317D01*
X0252098Y0114182D01*
X0252039Y0114048D01*
X0251975Y0113916D01*
X0251908Y0113786D01*
X0251838Y0113657D01*
X0251764Y0113530D01*
X0251687Y0113406D01*
X0251606Y0113283D01*
X0251522Y0113163D01*
X0251435Y0113045D01*
X0251345Y0112930D01*
X0251252Y0112817D01*
X0251155Y0112706D01*
X0251056Y0112598D01*
X0250954Y0112493D01*
X0250849Y0112391D01*
X0250741Y0112292D01*
X0250630Y0112195D01*
X0250517Y0112102D01*
X0250402Y0112012D01*
X0250284Y0111925D01*
X0250164Y0111841D01*
X0250041Y0111760D01*
X0249917Y0111683D01*
X0249790Y0111609D01*
X0249661Y0111539D01*
X0249531Y0111472D01*
X0249399Y0111408D01*
X0249265Y0111349D01*
X0249130Y0111292D01*
X0248993Y0111240D01*
X0248854Y0111191D01*
X0248715Y0111146D01*
X0248574Y0111105D01*
X0248432Y0111068D01*
X0248290Y0111035D01*
X0248146Y0111005D01*
X0248002Y0110979D01*
X0247857Y0110958D01*
X0247711Y0110940D01*
X0247565Y0110926D01*
X0247419Y0110916D01*
X0247273Y0110910D01*
X0247126Y0110908D01*
X0246979Y0110910D01*
X0246833Y0110916D01*
X0246687Y0110926D01*
X0246541Y0110940D01*
X0246395Y0110958D01*
X0246250Y0110979D01*
X0246106Y0111005D01*
X0245962Y0111035D01*
X0245820Y0111068D01*
X0245678Y0111105D01*
X0245537Y0111146D01*
X0245398Y0111191D01*
X0245259Y0111240D01*
X0245122Y0111292D01*
X0244987Y0111349D01*
X0244853Y0111408D01*
X0244721Y0111472D01*
X0244591Y0111539D01*
X0244462Y0111609D01*
X0244335Y0111683D01*
X0244211Y0111760D01*
X0244088Y0111841D01*
X0243968Y0111925D01*
X0243850Y0112012D01*
X0243735Y0112102D01*
X0243622Y0112195D01*
X0243511Y0112292D01*
X0243403Y0112391D01*
X0243298Y0112493D01*
X0243196Y0112598D01*
X0243097Y0112706D01*
X0243000Y0112817D01*
X0242907Y0112930D01*
X0242817Y0113045D01*
X0242730Y0113163D01*
X0242646Y0113283D01*
X0242565Y0113406D01*
X0242488Y0113530D01*
X0242414Y0113657D01*
X0242344Y0113786D01*
X0242277Y0113916D01*
X0242213Y0114048D01*
X0242154Y0114182D01*
X0242097Y0114317D01*
X0242045Y0114454D01*
X0241996Y0114593D01*
X0241951Y0114732D01*
X0241910Y0114873D01*
X0241873Y0115015D01*
X0241840Y0115157D01*
X0241810Y0115301D01*
X0241784Y0115445D01*
X0241763Y0115590D01*
X0241745Y0115736D01*
X0241731Y0115882D01*
X0241721Y0116028D01*
X0241715Y0116174D01*
X0241713Y0116321D01*
D12*
X0037953Y0111361D03*
D13*
X0047953Y0111361D03*
X0057953Y0111361D03*
X0067953Y0111361D03*
X0077953Y0111361D03*
X0087953Y0111361D03*
X0097953Y0111361D03*
X0107953Y0111361D03*
X0117953Y0111361D03*
X0127953Y0111361D03*
X0137953Y0111361D03*
X0147953Y0111361D03*
X0157953Y0111361D03*
X0167953Y0111361D03*
X0177953Y0111361D03*
X0187953Y0111361D03*
X0197953Y0111361D03*
X0207953Y0111361D03*
X0217953Y0111361D03*
X0227953Y0111361D03*
X0227953Y0121361D03*
X0217953Y0121361D03*
X0207953Y0121361D03*
X0197953Y0121361D03*
X0187953Y0121361D03*
X0177953Y0121361D03*
X0167953Y0121361D03*
X0157953Y0121361D03*
X0147953Y0121361D03*
X0137953Y0121361D03*
X0127953Y0121361D03*
X0117953Y0121361D03*
X0107953Y0121361D03*
X0097953Y0121361D03*
X0087953Y0121361D03*
X0077953Y0121361D03*
X0067953Y0121361D03*
X0057953Y0121361D03*
X0047953Y0121361D03*
X0037953Y0121361D03*
D14*
X0047800Y0076091D03*
X0047800Y0066991D03*
X0047800Y0057891D03*
D15*
X0072201Y0066991D03*
D16*
X0195315Y0046676D03*
X0205157Y0046676D03*
X0224843Y0046676D03*
X0234685Y0046676D03*
X0215000Y0026991D03*
D17*
X0205000Y0054894D03*
X0205000Y0061587D03*
X0225000Y0061587D03*
X0225000Y0054894D03*
X0152500Y0059894D03*
X0143750Y0059894D03*
X0143750Y0066587D03*
X0152500Y0066587D03*
X0152500Y0073644D03*
X0143750Y0073644D03*
X0143750Y0080337D03*
X0152500Y0080337D03*
X0040000Y0080337D03*
X0040000Y0073644D03*
X0040000Y0065337D03*
X0040000Y0058644D03*
D18*
X0195000Y0061587D03*
X0195000Y0054894D03*
X0235000Y0054894D03*
X0235000Y0061587D03*
D19*
X0215000Y0059491D03*
X0192500Y0071991D03*
X0171250Y0071991D03*
X0170000Y0066991D03*
X0157500Y0069491D03*
X0157500Y0074491D03*
X0157500Y0080741D03*
X0171250Y0078241D03*
X0157500Y0061991D03*
X0170000Y0043241D03*
X0156250Y0023241D03*
X0186250Y0023241D03*
X0246250Y0043241D03*
X0246250Y0073241D03*
X0246250Y0103241D03*
X0127500Y0090741D03*
X0123750Y0095741D03*
X0080000Y0076991D03*
X0041250Y0088241D03*
X0080000Y0054491D03*
X0041250Y0048241D03*
X0081250Y0023241D03*
X0121250Y0023241D03*
D20*
X0170000Y0041991D02*
X0170000Y0043241D01*
X0157500Y0054491D02*
X0135000Y0054491D01*
X0125000Y0059491D01*
X0125000Y0070741D01*
X0092500Y0108241D01*
X0092500Y0116813D01*
X0087953Y0121361D01*
X0097953Y0111361D02*
X0100000Y0109313D01*
X0100000Y0106991D01*
X0115000Y0091991D01*
X0123750Y0095741D02*
X0123750Y0096991D01*
X0113750Y0106991D01*
X0113750Y0115563D01*
X0107953Y0121361D01*
X0117953Y0121361D02*
X0122500Y0116813D01*
X0122500Y0105741D01*
X0127500Y0100741D01*
X0127500Y0090741D01*
X0125000Y0088241D02*
X0108750Y0105741D01*
X0108750Y0110563D01*
X0107953Y0111361D01*
X0132500Y0116991D02*
X0132500Y0079491D01*
X0130000Y0076991D01*
X0131250Y0071991D02*
X0136250Y0076991D01*
X0136250Y0096991D01*
X0141250Y0101991D01*
X0191250Y0101991D01*
X0192500Y0095908D02*
X0207953Y0111361D01*
X0222500Y0115908D02*
X0227953Y0121361D01*
X0222500Y0115908D02*
X0222500Y0088241D01*
X0206250Y0071991D01*
X0205000Y0071991D01*
X0192500Y0071991D02*
X0192500Y0095908D01*
X0157500Y0080741D02*
X0152904Y0080741D01*
X0152500Y0080337D01*
X0143750Y0080337D01*
X0143750Y0073644D02*
X0152500Y0073644D01*
X0152096Y0074491D01*
X0157500Y0074491D01*
X0157500Y0069491D02*
X0156250Y0066991D01*
X0152904Y0066991D01*
X0152500Y0066587D01*
X0143750Y0066587D01*
X0131250Y0069491D02*
X0131250Y0071991D01*
X0126250Y0081991D02*
X0125000Y0088241D01*
X0170000Y0066991D02*
X0171250Y0064491D01*
X0192096Y0064491D01*
X0195000Y0061587D01*
X0195000Y0054894D02*
X0195000Y0046991D01*
X0195315Y0046676D01*
X0195000Y0054894D02*
X0205000Y0054894D01*
X0225000Y0054894D02*
X0235000Y0054894D01*
X0235000Y0046991D01*
X0234685Y0046676D01*
X0235000Y0061587D02*
X0229596Y0066991D01*
X0175000Y0066991D01*
X0172500Y0069491D01*
X0171250Y0071991D01*
X0180000Y0060741D02*
X0180000Y0056991D01*
X0160000Y0056991D01*
X0157500Y0054491D01*
X0132500Y0116991D02*
X0136870Y0121361D01*
X0137953Y0121361D01*
D21*
X0191250Y0101991D03*
X0205000Y0071991D03*
X0180000Y0060741D03*
X0131250Y0069491D03*
X0130000Y0076991D03*
X0126250Y0081991D03*
X0115000Y0091991D03*
D22*
X0118581Y0091920D02*
X0118581Y0089347D01*
X0117644Y0088409D01*
X0112598Y0088409D01*
X0126611Y0072241D01*
X0127200Y0071652D01*
X0127200Y0071561D01*
X0127259Y0071493D01*
X0127200Y0070662D01*
X0127200Y0060850D01*
X0135519Y0056691D01*
X0140302Y0056691D01*
X0140104Y0057034D01*
X0139981Y0057492D01*
X0139981Y0059710D01*
X0143566Y0059710D01*
X0143566Y0060078D01*
X0139981Y0060078D01*
X0139981Y0062296D01*
X0140104Y0062754D01*
X0140341Y0063165D01*
X0140558Y0063382D01*
X0140181Y0063759D01*
X0140181Y0069415D01*
X0140882Y0070116D01*
X0140181Y0070816D01*
X0140181Y0076472D01*
X0140700Y0076991D01*
X0140181Y0077509D01*
X0140181Y0083165D01*
X0141119Y0084102D01*
X0146381Y0084102D01*
X0147318Y0083165D01*
X0147318Y0082537D01*
X0148931Y0082537D01*
X0148931Y0083165D01*
X0149869Y0084102D01*
X0155131Y0084102D01*
X0155464Y0083769D01*
X0156017Y0084322D01*
X0158983Y0084322D01*
X0161081Y0082224D01*
X0161081Y0079257D01*
X0159439Y0077616D01*
X0161081Y0075974D01*
X0161081Y0073007D01*
X0160064Y0071991D01*
X0161081Y0070974D01*
X0161081Y0068007D01*
X0158983Y0065909D01*
X0158280Y0065909D01*
X0158058Y0065687D01*
X0157810Y0065192D01*
X0157438Y0065068D01*
X0157161Y0064791D01*
X0156607Y0064791D01*
X0156081Y0064615D01*
X0156068Y0064622D01*
X0156068Y0063759D01*
X0155692Y0063382D01*
X0155909Y0063165D01*
X0156146Y0062754D01*
X0156268Y0062296D01*
X0156268Y0060078D01*
X0152684Y0060078D01*
X0152684Y0059710D01*
X0156268Y0059710D01*
X0156268Y0057492D01*
X0156146Y0057034D01*
X0155948Y0056691D01*
X0156589Y0056691D01*
X0159089Y0059191D01*
X0176419Y0059191D01*
X0176419Y0062291D01*
X0171769Y0062291D01*
X0171419Y0062115D01*
X0170893Y0062291D01*
X0170339Y0062291D01*
X0170062Y0062568D01*
X0169690Y0062692D01*
X0169442Y0063187D01*
X0169220Y0063409D01*
X0168517Y0063409D01*
X0166419Y0065507D01*
X0166419Y0068474D01*
X0168061Y0070116D01*
X0167669Y0070507D01*
X0167669Y0073474D01*
X0169767Y0075572D01*
X0172733Y0075572D01*
X0174831Y0073474D01*
X0174831Y0070507D01*
X0174713Y0070389D01*
X0175911Y0069191D01*
X0190236Y0069191D01*
X0188919Y0070507D01*
X0188919Y0073474D01*
X0190300Y0074855D01*
X0190300Y0096819D01*
X0191890Y0098409D01*
X0188606Y0098409D01*
X0187669Y0099347D01*
X0187669Y0099791D01*
X0142161Y0099791D01*
X0138450Y0096079D01*
X0138450Y0076079D01*
X0137161Y0074791D01*
X0134668Y0072297D01*
X0134831Y0072134D01*
X0134831Y0066847D01*
X0133894Y0065909D01*
X0128606Y0065909D01*
X0127669Y0066847D01*
X0127669Y0072134D01*
X0128606Y0073072D01*
X0129220Y0073072D01*
X0129558Y0073409D01*
X0127356Y0073409D01*
X0126419Y0074347D01*
X0126419Y0078409D01*
X0123606Y0078409D01*
X0122669Y0079347D01*
X0122669Y0084634D01*
X0123343Y0085308D01*
X0122965Y0087199D01*
X0118581Y0091920D01*
X0118581Y0091916D02*
X0118585Y0091916D01*
X0118581Y0090318D02*
X0120069Y0090318D01*
X0121553Y0088719D02*
X0117953Y0088719D01*
X0113715Y0087121D02*
X0122980Y0087121D01*
X0123300Y0085522D02*
X0115101Y0085522D01*
X0116486Y0083924D02*
X0122669Y0083924D01*
X0122669Y0082325D02*
X0117871Y0082325D01*
X0119257Y0080727D02*
X0122669Y0080727D01*
X0122888Y0079128D02*
X0120642Y0079128D01*
X0122027Y0077530D02*
X0126419Y0077530D01*
X0126419Y0075931D02*
X0123413Y0075931D01*
X0124798Y0074332D02*
X0126433Y0074332D01*
X0126184Y0072734D02*
X0128268Y0072734D01*
X0127669Y0071135D02*
X0127234Y0071135D01*
X0127200Y0069537D02*
X0127669Y0069537D01*
X0127669Y0067938D02*
X0127200Y0067938D01*
X0127200Y0066340D02*
X0128176Y0066340D01*
X0127200Y0064741D02*
X0140181Y0064741D01*
X0140181Y0066340D02*
X0134324Y0066340D01*
X0134831Y0067938D02*
X0140181Y0067938D01*
X0140303Y0069537D02*
X0134831Y0069537D01*
X0134831Y0071135D02*
X0140181Y0071135D01*
X0140181Y0072734D02*
X0135105Y0072734D01*
X0136703Y0074332D02*
X0140181Y0074332D01*
X0140181Y0075931D02*
X0138302Y0075931D01*
X0138450Y0077530D02*
X0140181Y0077530D01*
X0140181Y0079128D02*
X0138450Y0079128D01*
X0138450Y0080727D02*
X0140181Y0080727D01*
X0140181Y0082325D02*
X0138450Y0082325D01*
X0138450Y0083924D02*
X0140940Y0083924D01*
X0138450Y0085522D02*
X0190300Y0085522D01*
X0190300Y0087121D02*
X0138450Y0087121D01*
X0138450Y0088719D02*
X0190300Y0088719D01*
X0190300Y0090318D02*
X0138450Y0090318D01*
X0138450Y0091916D02*
X0190300Y0091916D01*
X0190300Y0093515D02*
X0138450Y0093515D01*
X0138450Y0095113D02*
X0190300Y0095113D01*
X0190300Y0096712D02*
X0139082Y0096712D01*
X0140681Y0098310D02*
X0191791Y0098310D01*
X0196415Y0096712D02*
X0220300Y0096712D01*
X0220300Y0098310D02*
X0198014Y0098310D01*
X0199612Y0099909D02*
X0220300Y0099909D01*
X0220300Y0101507D02*
X0201211Y0101507D01*
X0202809Y0103106D02*
X0220300Y0103106D01*
X0220300Y0104704D02*
X0204408Y0104704D01*
X0206006Y0106303D02*
X0220300Y0106303D01*
X0219858Y0106761D02*
X0220300Y0107203D01*
X0220300Y0089152D01*
X0206720Y0075572D01*
X0202356Y0075572D01*
X0201419Y0074634D01*
X0201419Y0069347D01*
X0201575Y0069191D01*
X0194764Y0069191D01*
X0196081Y0070507D01*
X0196081Y0073474D01*
X0194700Y0074855D01*
X0194700Y0094997D01*
X0206464Y0106761D01*
X0209858Y0106761D01*
X0212553Y0109455D01*
X0212553Y0113266D01*
X0209858Y0115961D01*
X0206047Y0115961D01*
X0203353Y0113266D01*
X0203353Y0109872D01*
X0194831Y0101350D01*
X0194831Y0104634D01*
X0193894Y0105572D01*
X0188606Y0105572D01*
X0187669Y0104634D01*
X0187669Y0104191D01*
X0140339Y0104191D01*
X0139050Y0102902D01*
X0134700Y0098552D01*
X0134700Y0108108D01*
X0136047Y0106761D01*
X0139858Y0106761D01*
X0142553Y0109455D01*
X0142553Y0113266D01*
X0139858Y0115961D01*
X0136047Y0115961D01*
X0134700Y0114613D01*
X0134700Y0116079D01*
X0135714Y0117094D01*
X0136047Y0116761D01*
X0139858Y0116761D01*
X0142553Y0119455D01*
X0142553Y0123266D01*
X0140768Y0125051D01*
X0145138Y0125051D01*
X0143353Y0123266D01*
X0143353Y0119455D01*
X0146047Y0116761D01*
X0149858Y0116761D01*
X0152553Y0119455D01*
X0152553Y0123266D01*
X0150768Y0125051D01*
X0155138Y0125051D01*
X0153353Y0123266D01*
X0153353Y0119455D01*
X0156047Y0116761D01*
X0159858Y0116761D01*
X0162553Y0119455D01*
X0162553Y0123266D01*
X0160768Y0125051D01*
X0165138Y0125051D01*
X0163353Y0123266D01*
X0163353Y0119455D01*
X0166047Y0116761D01*
X0169858Y0116761D01*
X0172553Y0119455D01*
X0172553Y0123266D01*
X0170768Y0125051D01*
X0174855Y0125051D01*
X0173153Y0123349D01*
X0173153Y0121561D01*
X0177753Y0121561D01*
X0177753Y0121161D01*
X0173153Y0121161D01*
X0173153Y0119372D01*
X0175965Y0116561D01*
X0177753Y0116561D01*
X0177753Y0121161D01*
X0178153Y0121161D01*
X0178153Y0121561D01*
X0182753Y0121561D01*
X0182753Y0123349D01*
X0181051Y0125051D01*
X0185138Y0125051D01*
X0183353Y0123266D01*
X0183353Y0119455D01*
X0186047Y0116761D01*
X0189858Y0116761D01*
X0192553Y0119455D01*
X0192553Y0123266D01*
X0190768Y0125051D01*
X0194855Y0125051D01*
X0193153Y0123349D01*
X0193153Y0121561D01*
X0197753Y0121561D01*
X0197753Y0121161D01*
X0193153Y0121161D01*
X0193153Y0119372D01*
X0195965Y0116561D01*
X0197753Y0116561D01*
X0197753Y0121161D01*
X0198153Y0121161D01*
X0198153Y0121561D01*
X0202753Y0121561D01*
X0202753Y0123349D01*
X0201051Y0125051D01*
X0205138Y0125051D01*
X0203353Y0123266D01*
X0203353Y0119455D01*
X0206047Y0116761D01*
X0209858Y0116761D01*
X0212553Y0119455D01*
X0212553Y0123266D01*
X0210768Y0125051D01*
X0215138Y0125051D01*
X0213353Y0123266D01*
X0213353Y0119455D01*
X0216047Y0116761D01*
X0219858Y0116761D01*
X0222553Y0119455D01*
X0222553Y0123266D01*
X0220768Y0125051D01*
X0225138Y0125051D01*
X0223353Y0123266D01*
X0223353Y0119872D01*
X0220300Y0116819D01*
X0220300Y0115519D01*
X0219858Y0115961D01*
X0216047Y0115961D01*
X0213353Y0113266D01*
X0213353Y0109455D01*
X0216047Y0106761D01*
X0219858Y0106761D01*
X0224700Y0106303D02*
X0245054Y0106303D01*
X0245781Y0106108D02*
X0248471Y0106108D01*
X0251068Y0106804D01*
X0253397Y0108149D01*
X0255299Y0110050D01*
X0255856Y0111015D01*
X0255856Y0031077D01*
X0255299Y0032041D01*
X0253397Y0033943D01*
X0251068Y0035287D01*
X0248471Y0035983D01*
X0245781Y0035983D01*
X0243184Y0035287D01*
X0240855Y0033943D01*
X0239358Y0032446D01*
X0238742Y0033062D01*
X0236110Y0034153D01*
X0233260Y0034153D01*
X0230628Y0033062D01*
X0228613Y0031048D01*
X0227523Y0028415D01*
X0227523Y0025566D01*
X0228613Y0022933D01*
X0229477Y0022069D01*
X0228613Y0021205D01*
X0227523Y0018573D01*
X0227523Y0017041D01*
X0202477Y0017041D01*
X0202477Y0018573D01*
X0201387Y0021205D01*
X0200523Y0022069D01*
X0201387Y0022933D01*
X0202477Y0025566D01*
X0202477Y0028415D01*
X0201387Y0031048D01*
X0199372Y0033062D01*
X0196740Y0034153D01*
X0193890Y0034153D01*
X0191258Y0033062D01*
X0189243Y0031048D01*
X0188153Y0028415D01*
X0188153Y0025566D01*
X0189243Y0022933D01*
X0190107Y0022069D01*
X0189243Y0021205D01*
X0188153Y0018573D01*
X0188153Y0017041D01*
X0039899Y0017041D01*
X0038964Y0017419D01*
X0037902Y0018060D01*
X0036952Y0018858D01*
X0036140Y0019795D01*
X0035483Y0020848D01*
X0035000Y0021991D01*
X0035000Y0081377D01*
X0036431Y0079946D01*
X0036431Y0077509D01*
X0036808Y0077132D01*
X0036591Y0076915D01*
X0036354Y0076504D01*
X0036231Y0076046D01*
X0036231Y0073828D01*
X0039816Y0073828D01*
X0039816Y0073460D01*
X0040184Y0073460D01*
X0040184Y0069679D01*
X0041466Y0069679D01*
X0041270Y0069483D01*
X0041112Y0069102D01*
X0037369Y0069102D01*
X0036431Y0068165D01*
X0036431Y0062509D01*
X0036808Y0062132D01*
X0036591Y0061915D01*
X0036354Y0061504D01*
X0036231Y0061046D01*
X0036231Y0058828D01*
X0039816Y0058828D01*
X0039816Y0058460D01*
X0040184Y0058460D01*
X0040184Y0054679D01*
X0041790Y0054679D01*
X0041960Y0054385D01*
X0042295Y0054050D01*
X0042705Y0053813D01*
X0043163Y0053691D01*
X0047400Y0053691D01*
X0047400Y0057490D01*
X0048200Y0057490D01*
X0048200Y0053691D01*
X0052437Y0053691D01*
X0052895Y0053813D01*
X0053305Y0054050D01*
X0053640Y0054385D01*
X0053877Y0054796D01*
X0054000Y0055254D01*
X0054000Y0057491D01*
X0048200Y0057491D01*
X0048200Y0058291D01*
X0047400Y0058291D01*
X0047400Y0062091D01*
X0043233Y0062091D01*
X0043192Y0062132D01*
X0043568Y0062509D01*
X0043568Y0062537D01*
X0046703Y0062537D01*
X0046833Y0062591D01*
X0058575Y0062591D01*
X0058875Y0061471D01*
X0060758Y0058210D01*
X0063420Y0055548D01*
X0065700Y0054232D01*
X0065700Y0052608D01*
X0066675Y0048971D01*
X0068557Y0045710D01*
X0071220Y0043048D01*
X0074480Y0041165D01*
X0078117Y0040191D01*
X0081883Y0040191D01*
X0085520Y0041165D01*
X0088780Y0043048D01*
X0091443Y0045710D01*
X0093325Y0048971D01*
X0094300Y0052608D01*
X0094300Y0078873D01*
X0093325Y0082510D01*
X0091443Y0085771D01*
X0088780Y0088433D01*
X0085520Y0090316D01*
X0081883Y0091291D01*
X0078117Y0091291D01*
X0074480Y0090316D01*
X0071220Y0088433D01*
X0068557Y0085771D01*
X0066675Y0082510D01*
X0065978Y0079910D01*
X0063420Y0078433D01*
X0060758Y0075771D01*
X0058875Y0072510D01*
X0058575Y0071391D01*
X0044125Y0071391D01*
X0043768Y0071243D01*
X0043768Y0072091D01*
X0052863Y0072091D01*
X0053800Y0073028D01*
X0053800Y0079153D01*
X0052863Y0080091D01*
X0049610Y0080091D01*
X0047374Y0082327D01*
X0046586Y0083114D01*
X0045557Y0083541D01*
X0043193Y0083541D01*
X0042631Y0084102D01*
X0040194Y0084102D01*
X0035000Y0089297D01*
X0035000Y0106761D01*
X0041615Y0106761D01*
X0042553Y0107698D01*
X0042553Y0115023D01*
X0041615Y0115961D01*
X0035000Y0115961D01*
X0035000Y0116727D01*
X0035386Y0117422D01*
X0036047Y0116761D01*
X0039858Y0116761D01*
X0041658Y0118561D01*
X0044247Y0118561D01*
X0046047Y0116761D01*
X0049858Y0116761D01*
X0052553Y0119455D01*
X0052553Y0123266D01*
X0050768Y0125051D01*
X0054855Y0125051D01*
X0053153Y0123349D01*
X0053153Y0121561D01*
X0057753Y0121561D01*
X0057753Y0121161D01*
X0053153Y0121161D01*
X0053153Y0119372D01*
X0055965Y0116561D01*
X0057753Y0116561D01*
X0057753Y0121161D01*
X0058153Y0121161D01*
X0058153Y0121561D01*
X0062753Y0121561D01*
X0062753Y0123349D01*
X0061051Y0125051D01*
X0065138Y0125051D01*
X0063353Y0123266D01*
X0063353Y0119455D01*
X0066047Y0116761D01*
X0069858Y0116761D01*
X0072553Y0119455D01*
X0072553Y0123266D01*
X0070768Y0125051D01*
X0075138Y0125051D01*
X0073353Y0123266D01*
X0073353Y0119455D01*
X0076047Y0116761D01*
X0079858Y0116761D01*
X0082553Y0119455D01*
X0082553Y0123266D01*
X0080768Y0125051D01*
X0085138Y0125051D01*
X0083353Y0123266D01*
X0083353Y0119455D01*
X0086047Y0116761D01*
X0089441Y0116761D01*
X0090300Y0115902D01*
X0090300Y0115519D01*
X0089858Y0115961D01*
X0086047Y0115961D01*
X0083353Y0113266D01*
X0083353Y0109455D01*
X0086047Y0106761D01*
X0089858Y0106761D01*
X0090363Y0107266D01*
X0090889Y0106740D01*
X0122800Y0069920D01*
X0122800Y0060010D01*
X0122625Y0059659D01*
X0122800Y0059134D01*
X0122800Y0058579D01*
X0123077Y0058302D01*
X0123201Y0057930D01*
X0123697Y0057682D01*
X0124089Y0057291D01*
X0124481Y0057291D01*
X0133697Y0052682D01*
X0134089Y0052291D01*
X0134481Y0052291D01*
X0134831Y0052115D01*
X0135357Y0052291D01*
X0158411Y0052291D01*
X0159700Y0053579D01*
X0160911Y0054791D01*
X0180911Y0054791D01*
X0182200Y0056079D01*
X0182200Y0057159D01*
X0182644Y0057159D01*
X0183581Y0058097D01*
X0183581Y0062291D01*
X0191185Y0062291D01*
X0191235Y0062241D01*
X0191235Y0058956D01*
X0191950Y0058241D01*
X0191235Y0057525D01*
X0191235Y0052263D01*
X0191897Y0051601D01*
X0190313Y0050018D01*
X0189415Y0047849D01*
X0189415Y0045502D01*
X0190313Y0043334D01*
X0191973Y0041674D01*
X0194141Y0040776D01*
X0196489Y0040776D01*
X0198657Y0041674D01*
X0200236Y0043253D01*
X0201815Y0041674D01*
X0203984Y0040776D01*
X0206331Y0040776D01*
X0208500Y0041674D01*
X0209186Y0042360D01*
X0210943Y0040604D01*
X0213575Y0039513D01*
X0216425Y0039513D01*
X0219057Y0040604D01*
X0220814Y0042360D01*
X0221500Y0041674D01*
X0223669Y0040776D01*
X0226016Y0040776D01*
X0228185Y0041674D01*
X0229764Y0043253D01*
X0231343Y0041674D01*
X0233511Y0040776D01*
X0235859Y0040776D01*
X0238027Y0041674D01*
X0239687Y0043334D01*
X0240585Y0045502D01*
X0240585Y0047849D01*
X0239687Y0050018D01*
X0238103Y0051601D01*
X0238765Y0052263D01*
X0238765Y0057525D01*
X0238050Y0058241D01*
X0238765Y0058956D01*
X0238765Y0064218D01*
X0237828Y0065155D01*
X0234543Y0065155D01*
X0230508Y0069191D01*
X0208425Y0069191D01*
X0208581Y0069347D01*
X0208581Y0071210D01*
X0223411Y0086041D01*
X0223411Y0086041D01*
X0224700Y0087329D01*
X0224700Y0107825D01*
X0225965Y0106561D01*
X0227753Y0106561D01*
X0227753Y0111161D01*
X0228153Y0111161D01*
X0228153Y0111561D01*
X0227753Y0111561D01*
X0227753Y0116161D01*
X0225965Y0116161D01*
X0224700Y0114896D01*
X0224700Y0114997D01*
X0226464Y0116761D01*
X0229858Y0116761D01*
X0232553Y0119455D01*
X0232553Y0123266D01*
X0230768Y0125051D01*
X0241819Y0125051D01*
X0240855Y0124494D01*
X0238953Y0122592D01*
X0237609Y0120263D01*
X0236913Y0117666D01*
X0236913Y0114977D01*
X0237609Y0112379D01*
X0238953Y0110050D01*
X0240855Y0108149D01*
X0243184Y0106804D01*
X0245781Y0106108D01*
X0249198Y0106303D02*
X0255856Y0106303D01*
X0255856Y0104704D02*
X0224700Y0104704D01*
X0224700Y0103106D02*
X0255856Y0103106D01*
X0255856Y0101507D02*
X0224700Y0101507D01*
X0224700Y0099909D02*
X0255856Y0099909D01*
X0255856Y0098310D02*
X0224700Y0098310D01*
X0224700Y0096712D02*
X0255856Y0096712D01*
X0255856Y0095113D02*
X0224700Y0095113D01*
X0224700Y0093515D02*
X0255856Y0093515D01*
X0255856Y0091916D02*
X0224700Y0091916D01*
X0224700Y0090318D02*
X0255856Y0090318D01*
X0255856Y0088719D02*
X0224700Y0088719D01*
X0224491Y0087121D02*
X0255856Y0087121D01*
X0255856Y0085522D02*
X0222893Y0085522D01*
X0221294Y0083924D02*
X0255856Y0083924D01*
X0255856Y0082325D02*
X0219696Y0082325D01*
X0218097Y0080727D02*
X0255856Y0080727D01*
X0255856Y0079128D02*
X0216499Y0079128D01*
X0214900Y0077530D02*
X0255856Y0077530D01*
X0255856Y0075931D02*
X0213302Y0075931D01*
X0211703Y0074332D02*
X0255856Y0074332D01*
X0255856Y0072734D02*
X0210105Y0072734D01*
X0208581Y0071135D02*
X0255856Y0071135D01*
X0255856Y0069537D02*
X0208581Y0069537D01*
X0208448Y0064791D02*
X0221552Y0064791D01*
X0221354Y0064447D01*
X0221231Y0063989D01*
X0221231Y0061771D01*
X0224816Y0061771D01*
X0224816Y0061403D01*
X0221231Y0061403D01*
X0221231Y0059185D01*
X0221354Y0058727D01*
X0221591Y0058316D01*
X0221808Y0058099D01*
X0221431Y0057722D01*
X0221431Y0052066D01*
X0221727Y0051771D01*
X0221500Y0051677D01*
X0220814Y0050991D01*
X0219057Y0052747D01*
X0216425Y0053838D01*
X0213575Y0053838D01*
X0210943Y0052747D01*
X0209186Y0050991D01*
X0208500Y0051677D01*
X0208273Y0051771D01*
X0208568Y0052066D01*
X0208568Y0057722D01*
X0208192Y0058099D01*
X0208409Y0058316D01*
X0208646Y0058727D01*
X0208768Y0059185D01*
X0208768Y0061403D01*
X0205184Y0061403D01*
X0205184Y0061771D01*
X0208768Y0061771D01*
X0208768Y0063989D01*
X0208646Y0064447D01*
X0208448Y0064791D01*
X0208476Y0064741D02*
X0221524Y0064741D01*
X0221231Y0063143D02*
X0208768Y0063143D01*
X0204816Y0061771D02*
X0204816Y0061403D01*
X0201231Y0061403D01*
X0201231Y0059185D01*
X0201354Y0058727D01*
X0201591Y0058316D01*
X0201808Y0058099D01*
X0201431Y0057722D01*
X0201431Y0057094D01*
X0198765Y0057094D01*
X0198765Y0057525D01*
X0198050Y0058241D01*
X0198765Y0058956D01*
X0198765Y0064218D01*
X0198193Y0064791D01*
X0201552Y0064791D01*
X0201354Y0064447D01*
X0201231Y0063989D01*
X0201231Y0061771D01*
X0204816Y0061771D01*
X0204816Y0061544D02*
X0198765Y0061544D01*
X0198765Y0059946D02*
X0201231Y0059946D01*
X0201573Y0058347D02*
X0198157Y0058347D01*
X0191843Y0058347D02*
X0183581Y0058347D01*
X0183581Y0059946D02*
X0191235Y0059946D01*
X0191235Y0061544D02*
X0183581Y0061544D01*
X0182200Y0056749D02*
X0191235Y0056749D01*
X0191235Y0055150D02*
X0181271Y0055150D01*
X0191235Y0053552D02*
X0159673Y0053552D01*
X0156647Y0056749D02*
X0155981Y0056749D01*
X0156268Y0058347D02*
X0158246Y0058347D01*
X0156268Y0061544D02*
X0176419Y0061544D01*
X0176419Y0059946D02*
X0152684Y0059946D01*
X0152316Y0059946D02*
X0143934Y0059946D01*
X0143934Y0060078D02*
X0147518Y0060078D01*
X0147518Y0062296D01*
X0147396Y0062754D01*
X0147159Y0063165D01*
X0146942Y0063382D01*
X0147318Y0063759D01*
X0147318Y0064387D01*
X0148931Y0064387D01*
X0148931Y0063759D01*
X0149308Y0063382D01*
X0149091Y0063165D01*
X0148854Y0062754D01*
X0148731Y0062296D01*
X0148731Y0060078D01*
X0152316Y0060078D01*
X0152316Y0059710D01*
X0148731Y0059710D01*
X0148731Y0057492D01*
X0148854Y0057034D01*
X0149052Y0056691D01*
X0147198Y0056691D01*
X0147396Y0057034D01*
X0147518Y0057492D01*
X0147518Y0059710D01*
X0143934Y0059710D01*
X0143934Y0060078D01*
X0143566Y0059946D02*
X0129009Y0059946D01*
X0127200Y0061544D02*
X0139981Y0061544D01*
X0140329Y0063143D02*
X0127200Y0063143D01*
X0122800Y0063143D02*
X0094300Y0063143D01*
X0094300Y0064741D02*
X0122800Y0064741D01*
X0122800Y0066340D02*
X0094300Y0066340D01*
X0094300Y0067938D02*
X0122800Y0067938D01*
X0122800Y0069537D02*
X0094300Y0069537D01*
X0094300Y0071135D02*
X0121746Y0071135D01*
X0120361Y0072734D02*
X0094300Y0072734D01*
X0094300Y0074332D02*
X0118976Y0074332D01*
X0117590Y0075931D02*
X0094300Y0075931D01*
X0094300Y0077530D02*
X0116205Y0077530D01*
X0114820Y0079128D02*
X0094232Y0079128D01*
X0093803Y0080727D02*
X0113434Y0080727D01*
X0112049Y0082325D02*
X0093375Y0082325D01*
X0092509Y0083924D02*
X0110663Y0083924D01*
X0109278Y0085522D02*
X0091587Y0085522D01*
X0090093Y0087121D02*
X0107893Y0087121D01*
X0106507Y0088719D02*
X0088286Y0088719D01*
X0085514Y0090318D02*
X0105122Y0090318D01*
X0103737Y0091916D02*
X0035000Y0091916D01*
X0035000Y0090318D02*
X0074486Y0090318D01*
X0071714Y0088719D02*
X0035578Y0088719D01*
X0037176Y0087121D02*
X0069907Y0087121D01*
X0068413Y0085522D02*
X0038775Y0085522D01*
X0042810Y0083924D02*
X0067491Y0083924D01*
X0066625Y0082325D02*
X0047375Y0082325D01*
X0048974Y0080727D02*
X0066197Y0080727D01*
X0064624Y0079128D02*
X0053800Y0079128D01*
X0053800Y0077530D02*
X0062516Y0077530D01*
X0060918Y0075931D02*
X0053800Y0075931D01*
X0053800Y0074332D02*
X0059927Y0074332D01*
X0059005Y0072734D02*
X0053506Y0072734D01*
X0041324Y0069537D02*
X0035000Y0069537D01*
X0035000Y0067938D02*
X0036431Y0067938D01*
X0036431Y0066340D02*
X0035000Y0066340D01*
X0035000Y0064741D02*
X0036431Y0064741D01*
X0036431Y0063143D02*
X0035000Y0063143D01*
X0035000Y0061544D02*
X0036377Y0061544D01*
X0036231Y0059946D02*
X0035000Y0059946D01*
X0035000Y0058347D02*
X0036231Y0058347D01*
X0036231Y0058460D02*
X0036231Y0056242D01*
X0036354Y0055784D01*
X0036591Y0055374D01*
X0036926Y0055038D01*
X0037337Y0054801D01*
X0037795Y0054679D01*
X0039816Y0054679D01*
X0039816Y0058460D01*
X0036231Y0058460D01*
X0036231Y0056749D02*
X0035000Y0056749D01*
X0035000Y0055150D02*
X0036814Y0055150D01*
X0035000Y0053552D02*
X0065700Y0053552D01*
X0065875Y0051953D02*
X0035000Y0051953D01*
X0035000Y0050355D02*
X0066304Y0050355D01*
X0066798Y0048756D02*
X0035000Y0048756D01*
X0035000Y0047158D02*
X0067721Y0047158D01*
X0068708Y0045559D02*
X0035000Y0045559D01*
X0035000Y0043961D02*
X0070307Y0043961D01*
X0072407Y0042362D02*
X0035000Y0042362D01*
X0035000Y0040764D02*
X0075978Y0040764D01*
X0084022Y0040764D02*
X0210783Y0040764D01*
X0219217Y0040764D02*
X0255856Y0040764D01*
X0255856Y0042362D02*
X0238716Y0042362D01*
X0239947Y0043961D02*
X0255856Y0043961D01*
X0255856Y0045559D02*
X0240585Y0045559D01*
X0240585Y0047158D02*
X0255856Y0047158D01*
X0255856Y0048756D02*
X0240209Y0048756D01*
X0239350Y0050355D02*
X0255856Y0050355D01*
X0255856Y0051953D02*
X0238456Y0051953D01*
X0238765Y0053552D02*
X0255856Y0053552D01*
X0255856Y0055150D02*
X0238765Y0055150D01*
X0238765Y0056749D02*
X0255856Y0056749D01*
X0255856Y0058347D02*
X0238157Y0058347D01*
X0238765Y0059946D02*
X0255856Y0059946D01*
X0255856Y0061544D02*
X0238765Y0061544D01*
X0238765Y0063143D02*
X0255856Y0063143D01*
X0255856Y0064741D02*
X0238242Y0064741D01*
X0233358Y0066340D02*
X0255856Y0066340D01*
X0255856Y0067938D02*
X0231760Y0067938D01*
X0228685Y0064791D02*
X0231235Y0062241D01*
X0231235Y0058956D01*
X0231950Y0058241D01*
X0231235Y0057525D01*
X0231235Y0057094D01*
X0228568Y0057094D01*
X0228568Y0057722D01*
X0228192Y0058099D01*
X0228409Y0058316D01*
X0228646Y0058727D01*
X0228768Y0059185D01*
X0228768Y0061403D01*
X0225184Y0061403D01*
X0225184Y0061771D01*
X0228768Y0061771D01*
X0228768Y0063989D01*
X0228646Y0064447D01*
X0228448Y0064791D01*
X0228685Y0064791D01*
X0228734Y0064741D02*
X0228476Y0064741D01*
X0228768Y0063143D02*
X0230333Y0063143D01*
X0231235Y0061544D02*
X0225184Y0061544D01*
X0224816Y0061544D02*
X0205184Y0061544D01*
X0208768Y0059946D02*
X0221231Y0059946D01*
X0221573Y0058347D02*
X0208427Y0058347D01*
X0208568Y0056749D02*
X0221431Y0056749D01*
X0221431Y0055150D02*
X0208568Y0055150D01*
X0208568Y0053552D02*
X0212885Y0053552D01*
X0210149Y0051953D02*
X0208456Y0051953D01*
X0217115Y0053552D02*
X0221431Y0053552D01*
X0221544Y0051953D02*
X0219851Y0051953D01*
X0228427Y0058347D02*
X0231843Y0058347D01*
X0231235Y0059946D02*
X0228768Y0059946D01*
X0201524Y0064741D02*
X0198242Y0064741D01*
X0198765Y0063143D02*
X0201231Y0063143D01*
X0201419Y0069537D02*
X0195111Y0069537D01*
X0196081Y0071135D02*
X0201419Y0071135D01*
X0201419Y0072734D02*
X0196081Y0072734D01*
X0195222Y0074332D02*
X0201419Y0074332D01*
X0207079Y0075931D02*
X0194700Y0075931D01*
X0194700Y0077530D02*
X0208678Y0077530D01*
X0210276Y0079128D02*
X0194700Y0079128D01*
X0194700Y0080727D02*
X0211875Y0080727D01*
X0213473Y0082325D02*
X0194700Y0082325D01*
X0194700Y0083924D02*
X0215072Y0083924D01*
X0216670Y0085522D02*
X0194700Y0085522D01*
X0194700Y0087121D02*
X0218269Y0087121D01*
X0219867Y0088719D02*
X0194700Y0088719D01*
X0194700Y0090318D02*
X0220300Y0090318D01*
X0220300Y0091916D02*
X0194700Y0091916D01*
X0194700Y0093515D02*
X0220300Y0093515D01*
X0220300Y0095113D02*
X0194817Y0095113D01*
X0194831Y0101507D02*
X0194988Y0101507D01*
X0194831Y0103106D02*
X0196587Y0103106D01*
X0198185Y0104704D02*
X0194761Y0104704D01*
X0196047Y0106761D02*
X0199858Y0106761D01*
X0202553Y0109455D01*
X0202553Y0113266D01*
X0199858Y0115961D01*
X0196047Y0115961D01*
X0193353Y0113266D01*
X0193353Y0109455D01*
X0196047Y0106761D01*
X0194907Y0107901D02*
X0190999Y0107901D01*
X0189858Y0106761D02*
X0192553Y0109455D01*
X0192553Y0113266D01*
X0189858Y0115961D01*
X0186047Y0115961D01*
X0183353Y0113266D01*
X0183353Y0109455D01*
X0186047Y0106761D01*
X0189858Y0106761D01*
X0187739Y0104704D02*
X0134700Y0104704D01*
X0134700Y0103106D02*
X0139254Y0103106D01*
X0137655Y0101507D02*
X0134700Y0101507D01*
X0134700Y0099909D02*
X0136057Y0099909D01*
X0134700Y0106303D02*
X0199784Y0106303D01*
X0200999Y0107901D02*
X0201382Y0107901D01*
X0202553Y0109500D02*
X0202981Y0109500D01*
X0203353Y0111098D02*
X0202553Y0111098D01*
X0202553Y0112697D02*
X0203353Y0112697D01*
X0204382Y0114295D02*
X0201523Y0114295D01*
X0199925Y0115894D02*
X0205981Y0115894D01*
X0205316Y0117492D02*
X0200873Y0117492D01*
X0199941Y0116561D02*
X0198153Y0116561D01*
X0198153Y0121161D01*
X0202753Y0121161D01*
X0202753Y0119372D01*
X0199941Y0116561D01*
X0198153Y0117492D02*
X0197753Y0117492D01*
X0197753Y0119091D02*
X0198153Y0119091D01*
X0198153Y0120689D02*
X0197753Y0120689D01*
X0195033Y0117492D02*
X0190590Y0117492D01*
X0189925Y0115894D02*
X0195981Y0115894D01*
X0194382Y0114295D02*
X0191523Y0114295D01*
X0192553Y0112697D02*
X0193353Y0112697D01*
X0193353Y0111098D02*
X0192553Y0111098D01*
X0192553Y0109500D02*
X0193353Y0109500D01*
X0184907Y0107901D02*
X0180999Y0107901D01*
X0179858Y0106761D02*
X0182553Y0109455D01*
X0182553Y0113266D01*
X0179858Y0115961D01*
X0176047Y0115961D01*
X0173353Y0113266D01*
X0173353Y0109455D01*
X0176047Y0106761D01*
X0179858Y0106761D01*
X0182553Y0109500D02*
X0183353Y0109500D01*
X0183353Y0111098D02*
X0182553Y0111098D01*
X0182553Y0112697D02*
X0183353Y0112697D01*
X0184382Y0114295D02*
X0181523Y0114295D01*
X0179925Y0115894D02*
X0185981Y0115894D01*
X0185316Y0117492D02*
X0180873Y0117492D01*
X0179941Y0116561D02*
X0178153Y0116561D01*
X0178153Y0121161D01*
X0182753Y0121161D01*
X0182753Y0119372D01*
X0179941Y0116561D01*
X0178153Y0117492D02*
X0177753Y0117492D01*
X0177753Y0119091D02*
X0178153Y0119091D01*
X0178153Y0120689D02*
X0177753Y0120689D01*
X0173153Y0120689D02*
X0172553Y0120689D01*
X0172188Y0119091D02*
X0173434Y0119091D01*
X0175033Y0117492D02*
X0170590Y0117492D01*
X0169858Y0115961D02*
X0166047Y0115961D01*
X0163353Y0113266D01*
X0163353Y0109455D01*
X0166047Y0106761D01*
X0169858Y0106761D01*
X0172553Y0109455D01*
X0172553Y0113266D01*
X0169858Y0115961D01*
X0169925Y0115894D02*
X0175981Y0115894D01*
X0174382Y0114295D02*
X0171523Y0114295D01*
X0172553Y0112697D02*
X0173353Y0112697D01*
X0173353Y0111098D02*
X0172553Y0111098D01*
X0172553Y0109500D02*
X0173353Y0109500D01*
X0174907Y0107901D02*
X0170999Y0107901D01*
X0164907Y0107901D02*
X0161282Y0107901D01*
X0159941Y0106561D02*
X0158153Y0106561D01*
X0158153Y0111161D01*
X0158153Y0111561D01*
X0157753Y0111561D01*
X0157753Y0116161D01*
X0155965Y0116161D01*
X0153153Y0113349D01*
X0153153Y0111561D01*
X0157753Y0111561D01*
X0157753Y0111161D01*
X0153153Y0111161D01*
X0153153Y0109372D01*
X0155965Y0106561D01*
X0157753Y0106561D01*
X0157753Y0111161D01*
X0158153Y0111161D01*
X0162753Y0111161D01*
X0162753Y0109372D01*
X0159941Y0106561D01*
X0158153Y0107901D02*
X0157753Y0107901D01*
X0157753Y0109500D02*
X0158153Y0109500D01*
X0158153Y0111098D02*
X0157753Y0111098D01*
X0158153Y0111561D02*
X0162753Y0111561D01*
X0162753Y0113349D01*
X0159941Y0116161D01*
X0158153Y0116161D01*
X0158153Y0111561D01*
X0158153Y0112697D02*
X0157753Y0112697D01*
X0157753Y0114295D02*
X0158153Y0114295D01*
X0158153Y0115894D02*
X0157753Y0115894D01*
X0155698Y0115894D02*
X0149925Y0115894D01*
X0149858Y0115961D02*
X0146047Y0115961D01*
X0143353Y0113266D01*
X0143353Y0109455D01*
X0146047Y0106761D01*
X0149858Y0106761D01*
X0152553Y0109455D01*
X0152553Y0113266D01*
X0149858Y0115961D01*
X0150590Y0117492D02*
X0155316Y0117492D01*
X0153717Y0119091D02*
X0152188Y0119091D01*
X0152553Y0120689D02*
X0153353Y0120689D01*
X0153353Y0122288D02*
X0152553Y0122288D01*
X0151932Y0123886D02*
X0153973Y0123886D01*
X0161932Y0123886D02*
X0163973Y0123886D01*
X0163353Y0122288D02*
X0162553Y0122288D01*
X0162553Y0120689D02*
X0163353Y0120689D01*
X0163717Y0119091D02*
X0162188Y0119091D01*
X0160590Y0117492D02*
X0165316Y0117492D01*
X0165981Y0115894D02*
X0160208Y0115894D01*
X0161806Y0114295D02*
X0164382Y0114295D01*
X0163353Y0112697D02*
X0162753Y0112697D01*
X0162753Y0111098D02*
X0163353Y0111098D01*
X0163353Y0109500D02*
X0162753Y0109500D01*
X0154624Y0107901D02*
X0150999Y0107901D01*
X0152553Y0109500D02*
X0153153Y0109500D01*
X0153153Y0111098D02*
X0152553Y0111098D01*
X0152553Y0112697D02*
X0153153Y0112697D01*
X0154099Y0114295D02*
X0151523Y0114295D01*
X0145981Y0115894D02*
X0139925Y0115894D01*
X0140590Y0117492D02*
X0145316Y0117492D01*
X0143717Y0119091D02*
X0142188Y0119091D01*
X0142553Y0120689D02*
X0143353Y0120689D01*
X0143353Y0122288D02*
X0142553Y0122288D01*
X0141932Y0123886D02*
X0143973Y0123886D01*
X0135138Y0125051D02*
X0133353Y0123266D01*
X0133353Y0120955D01*
X0132753Y0120355D01*
X0132753Y0121161D01*
X0128153Y0121161D01*
X0128153Y0121561D01*
X0132753Y0121561D01*
X0132753Y0123349D01*
X0131051Y0125051D01*
X0135138Y0125051D01*
X0133973Y0123886D02*
X0132215Y0123886D01*
X0132753Y0122288D02*
X0133353Y0122288D01*
X0133088Y0120689D02*
X0132753Y0120689D01*
X0130300Y0116920D02*
X0130300Y0115519D01*
X0129858Y0115961D01*
X0126047Y0115961D01*
X0124700Y0114613D01*
X0124700Y0117725D01*
X0122553Y0119872D01*
X0122553Y0123266D01*
X0120768Y0125051D01*
X0124855Y0125051D01*
X0123153Y0123349D01*
X0123153Y0121561D01*
X0127753Y0121561D01*
X0127753Y0121161D01*
X0123153Y0121161D01*
X0123153Y0119372D01*
X0125965Y0116561D01*
X0127753Y0116561D01*
X0127753Y0121161D01*
X0128153Y0121161D01*
X0128153Y0116561D01*
X0129941Y0116561D01*
X0130300Y0116920D01*
X0130300Y0115894D02*
X0129925Y0115894D01*
X0128153Y0117492D02*
X0127753Y0117492D01*
X0127753Y0119091D02*
X0128153Y0119091D01*
X0128153Y0120689D02*
X0127753Y0120689D01*
X0123434Y0119091D02*
X0123334Y0119091D01*
X0123153Y0120689D02*
X0122553Y0120689D01*
X0122553Y0122288D02*
X0123153Y0122288D01*
X0123690Y0123886D02*
X0121932Y0123886D01*
X0124700Y0117492D02*
X0125033Y0117492D01*
X0124700Y0115894D02*
X0125981Y0115894D01*
X0134700Y0115894D02*
X0135981Y0115894D01*
X0141523Y0114295D02*
X0144382Y0114295D01*
X0143353Y0112697D02*
X0142553Y0112697D01*
X0142553Y0111098D02*
X0143353Y0111098D01*
X0143353Y0109500D02*
X0142553Y0109500D01*
X0140999Y0107901D02*
X0144907Y0107901D01*
X0134907Y0107901D02*
X0134700Y0107901D01*
X0114132Y0096712D02*
X0113390Y0096712D01*
X0114530Y0095572D02*
X0102200Y0107902D01*
X0102200Y0109102D01*
X0102553Y0109455D01*
X0102553Y0113266D01*
X0099858Y0115961D01*
X0096047Y0115961D01*
X0094700Y0114613D01*
X0094700Y0117725D01*
X0092553Y0119872D01*
X0092553Y0123266D01*
X0090768Y0125051D01*
X0094855Y0125051D01*
X0093153Y0123349D01*
X0093153Y0121561D01*
X0097753Y0121561D01*
X0097753Y0121161D01*
X0093153Y0121161D01*
X0093153Y0119372D01*
X0095965Y0116561D01*
X0097753Y0116561D01*
X0097753Y0121161D01*
X0098153Y0121161D01*
X0098153Y0121561D01*
X0102753Y0121561D01*
X0102753Y0123349D01*
X0101051Y0125051D01*
X0105138Y0125051D01*
X0103353Y0123266D01*
X0103353Y0119455D01*
X0106047Y0116761D01*
X0109441Y0116761D01*
X0111550Y0114652D01*
X0111550Y0114269D01*
X0109858Y0115961D01*
X0106047Y0115961D01*
X0103353Y0113266D01*
X0103353Y0109455D01*
X0106047Y0106761D01*
X0106550Y0106761D01*
X0106550Y0105781D01*
X0106518Y0104911D01*
X0106550Y0104877D01*
X0106550Y0104829D01*
X0107166Y0104214D01*
X0115190Y0095572D01*
X0114530Y0095572D01*
X0112647Y0098310D02*
X0111792Y0098310D01*
X0111163Y0099909D02*
X0110193Y0099909D01*
X0109679Y0101507D02*
X0108595Y0101507D01*
X0108194Y0103106D02*
X0106996Y0103106D01*
X0106675Y0104704D02*
X0105398Y0104704D01*
X0106550Y0106303D02*
X0103799Y0106303D01*
X0104907Y0107901D02*
X0102201Y0107901D01*
X0102553Y0109500D02*
X0103353Y0109500D01*
X0103353Y0111098D02*
X0102553Y0111098D01*
X0102553Y0112697D02*
X0103353Y0112697D01*
X0104382Y0114295D02*
X0101523Y0114295D01*
X0099925Y0115894D02*
X0105981Y0115894D01*
X0105316Y0117492D02*
X0100873Y0117492D01*
X0099941Y0116561D02*
X0098153Y0116561D01*
X0098153Y0121161D01*
X0102753Y0121161D01*
X0102753Y0119372D01*
X0099941Y0116561D01*
X0098153Y0117492D02*
X0097753Y0117492D01*
X0097753Y0119091D02*
X0098153Y0119091D01*
X0098153Y0120689D02*
X0097753Y0120689D01*
X0095033Y0117492D02*
X0094700Y0117492D01*
X0094700Y0115894D02*
X0095981Y0115894D01*
X0093434Y0119091D02*
X0093334Y0119091D01*
X0093153Y0120689D02*
X0092553Y0120689D01*
X0092553Y0122288D02*
X0093153Y0122288D01*
X0093690Y0123886D02*
X0091932Y0123886D01*
X0083973Y0123886D02*
X0081932Y0123886D01*
X0082553Y0122288D02*
X0083353Y0122288D01*
X0083353Y0120689D02*
X0082553Y0120689D01*
X0082188Y0119091D02*
X0083717Y0119091D01*
X0085316Y0117492D02*
X0080590Y0117492D01*
X0079941Y0116161D02*
X0078153Y0116161D01*
X0078153Y0111561D01*
X0077753Y0111561D01*
X0077753Y0116161D01*
X0075965Y0116161D01*
X0073153Y0113349D01*
X0073153Y0111561D01*
X0077753Y0111561D01*
X0077753Y0111161D01*
X0073153Y0111161D01*
X0073153Y0109372D01*
X0075965Y0106561D01*
X0077753Y0106561D01*
X0077753Y0111161D01*
X0078153Y0111161D01*
X0078153Y0111561D01*
X0082753Y0111561D01*
X0082753Y0113349D01*
X0079941Y0116161D01*
X0080208Y0115894D02*
X0085981Y0115894D01*
X0084382Y0114295D02*
X0081806Y0114295D01*
X0082753Y0112697D02*
X0083353Y0112697D01*
X0083353Y0111098D02*
X0082753Y0111098D01*
X0082753Y0111161D02*
X0078153Y0111161D01*
X0078153Y0106561D01*
X0079941Y0106561D01*
X0082753Y0109372D01*
X0082753Y0111161D01*
X0082753Y0109500D02*
X0083353Y0109500D01*
X0084907Y0107901D02*
X0081282Y0107901D01*
X0078153Y0107901D02*
X0077753Y0107901D01*
X0077753Y0109500D02*
X0078153Y0109500D01*
X0078153Y0111098D02*
X0077753Y0111098D01*
X0077753Y0112697D02*
X0078153Y0112697D01*
X0078153Y0114295D02*
X0077753Y0114295D01*
X0077753Y0115894D02*
X0078153Y0115894D01*
X0075698Y0115894D02*
X0069925Y0115894D01*
X0069858Y0115961D02*
X0066047Y0115961D01*
X0063353Y0113266D01*
X0063353Y0109455D01*
X0066047Y0106761D01*
X0069858Y0106761D01*
X0072553Y0109455D01*
X0072553Y0113266D01*
X0069858Y0115961D01*
X0070590Y0117492D02*
X0075316Y0117492D01*
X0073717Y0119091D02*
X0072188Y0119091D01*
X0072553Y0120689D02*
X0073353Y0120689D01*
X0073353Y0122288D02*
X0072553Y0122288D01*
X0071932Y0123886D02*
X0073973Y0123886D01*
X0063973Y0123886D02*
X0062215Y0123886D01*
X0062753Y0122288D02*
X0063353Y0122288D01*
X0062753Y0121161D02*
X0058153Y0121161D01*
X0058153Y0116561D01*
X0059941Y0116561D01*
X0062753Y0119372D01*
X0062753Y0121161D01*
X0062753Y0120689D02*
X0063353Y0120689D01*
X0063717Y0119091D02*
X0062471Y0119091D01*
X0060873Y0117492D02*
X0065316Y0117492D01*
X0065981Y0115894D02*
X0059925Y0115894D01*
X0059858Y0115961D02*
X0056047Y0115961D01*
X0053353Y0113266D01*
X0053353Y0109455D01*
X0056047Y0106761D01*
X0059858Y0106761D01*
X0062553Y0109455D01*
X0062553Y0113266D01*
X0059858Y0115961D01*
X0058153Y0117492D02*
X0057753Y0117492D01*
X0057753Y0119091D02*
X0058153Y0119091D01*
X0058153Y0120689D02*
X0057753Y0120689D01*
X0055033Y0117492D02*
X0050590Y0117492D01*
X0049858Y0115961D02*
X0046047Y0115961D01*
X0043353Y0113266D01*
X0043353Y0109455D01*
X0046047Y0106761D01*
X0049858Y0106761D01*
X0052553Y0109455D01*
X0052553Y0113266D01*
X0049858Y0115961D01*
X0049925Y0115894D02*
X0055981Y0115894D01*
X0054382Y0114295D02*
X0051523Y0114295D01*
X0052553Y0112697D02*
X0053353Y0112697D01*
X0053353Y0111098D02*
X0052553Y0111098D01*
X0052553Y0109500D02*
X0053353Y0109500D01*
X0054907Y0107901D02*
X0050999Y0107901D01*
X0044907Y0107901D02*
X0042553Y0107901D01*
X0042553Y0109500D02*
X0043353Y0109500D01*
X0043353Y0111098D02*
X0042553Y0111098D01*
X0042553Y0112697D02*
X0043353Y0112697D01*
X0042553Y0114295D02*
X0044382Y0114295D01*
X0045981Y0115894D02*
X0041682Y0115894D01*
X0040590Y0117492D02*
X0045316Y0117492D01*
X0052188Y0119091D02*
X0053434Y0119091D01*
X0053153Y0120689D02*
X0052553Y0120689D01*
X0052553Y0122288D02*
X0053153Y0122288D01*
X0053690Y0123886D02*
X0051932Y0123886D01*
X0061523Y0114295D02*
X0064382Y0114295D01*
X0063353Y0112697D02*
X0062553Y0112697D01*
X0062553Y0111098D02*
X0063353Y0111098D01*
X0063353Y0109500D02*
X0062553Y0109500D01*
X0060999Y0107901D02*
X0064907Y0107901D01*
X0070999Y0107901D02*
X0074624Y0107901D01*
X0073153Y0109500D02*
X0072553Y0109500D01*
X0072553Y0111098D02*
X0073153Y0111098D01*
X0073153Y0112697D02*
X0072553Y0112697D01*
X0071523Y0114295D02*
X0074099Y0114295D01*
X0089925Y0115894D02*
X0090300Y0115894D01*
X0102471Y0119091D02*
X0103717Y0119091D01*
X0103353Y0120689D02*
X0102753Y0120689D01*
X0102753Y0122288D02*
X0103353Y0122288D01*
X0103973Y0123886D02*
X0102215Y0123886D01*
X0109925Y0115894D02*
X0110308Y0115894D01*
X0111523Y0114295D02*
X0111550Y0114295D01*
X0092654Y0104704D02*
X0035000Y0104704D01*
X0035000Y0103106D02*
X0094039Y0103106D01*
X0095424Y0101507D02*
X0035000Y0101507D01*
X0035000Y0099909D02*
X0096810Y0099909D01*
X0098195Y0098310D02*
X0035000Y0098310D01*
X0035000Y0096712D02*
X0099580Y0096712D01*
X0100966Y0095113D02*
X0035000Y0095113D01*
X0035000Y0093515D02*
X0102351Y0093515D01*
X0091268Y0106303D02*
X0035000Y0106303D01*
X0035000Y0080727D02*
X0035651Y0080727D01*
X0035000Y0079128D02*
X0036431Y0079128D01*
X0036431Y0077530D02*
X0035000Y0077530D01*
X0035000Y0075931D02*
X0036231Y0075931D01*
X0036231Y0074332D02*
X0035000Y0074332D01*
X0036231Y0073460D02*
X0036231Y0071242D01*
X0036354Y0070784D01*
X0036591Y0070374D01*
X0036926Y0070038D01*
X0037337Y0069801D01*
X0037795Y0069679D01*
X0039816Y0069679D01*
X0039816Y0073460D01*
X0036231Y0073460D01*
X0036231Y0072734D02*
X0035000Y0072734D01*
X0035000Y0071135D02*
X0036260Y0071135D01*
X0039816Y0071135D02*
X0040184Y0071135D01*
X0040184Y0072734D02*
X0039816Y0072734D01*
X0048200Y0062091D02*
X0048200Y0058291D01*
X0054000Y0058291D01*
X0054000Y0060528D01*
X0053877Y0060985D01*
X0053640Y0061396D01*
X0053305Y0061731D01*
X0052895Y0061968D01*
X0052437Y0062091D01*
X0048200Y0062091D01*
X0048200Y0061544D02*
X0047400Y0061544D01*
X0047400Y0059946D02*
X0048200Y0059946D01*
X0048200Y0058347D02*
X0047400Y0058347D01*
X0047400Y0056749D02*
X0048200Y0056749D01*
X0048200Y0055150D02*
X0047400Y0055150D01*
X0053972Y0055150D02*
X0064109Y0055150D01*
X0062219Y0056749D02*
X0054000Y0056749D01*
X0054000Y0058347D02*
X0060679Y0058347D01*
X0059756Y0059946D02*
X0054000Y0059946D01*
X0053492Y0061544D02*
X0058856Y0061544D01*
X0040184Y0058347D02*
X0039816Y0058347D01*
X0039816Y0056749D02*
X0040184Y0056749D01*
X0040184Y0055150D02*
X0039816Y0055150D01*
X0035000Y0039165D02*
X0255856Y0039165D01*
X0255856Y0037567D02*
X0035000Y0037567D01*
X0035000Y0035968D02*
X0245725Y0035968D01*
X0248527Y0035968D02*
X0255856Y0035968D01*
X0255856Y0034370D02*
X0252658Y0034370D01*
X0254569Y0032771D02*
X0255856Y0032771D01*
X0255800Y0031173D02*
X0255856Y0031173D01*
X0241594Y0034370D02*
X0035000Y0034370D01*
X0035000Y0032771D02*
X0190967Y0032771D01*
X0189368Y0031173D02*
X0035000Y0031173D01*
X0035000Y0029574D02*
X0188633Y0029574D01*
X0188153Y0027976D02*
X0035000Y0027976D01*
X0035000Y0026377D02*
X0188153Y0026377D01*
X0188479Y0024779D02*
X0035000Y0024779D01*
X0035000Y0023180D02*
X0189141Y0023180D01*
X0189620Y0021582D02*
X0035173Y0021582D01*
X0036023Y0019983D02*
X0188737Y0019983D01*
X0188153Y0018385D02*
X0037515Y0018385D01*
X0087593Y0042362D02*
X0191284Y0042362D01*
X0190053Y0043961D02*
X0089693Y0043961D01*
X0091292Y0045559D02*
X0189415Y0045559D01*
X0189415Y0047158D02*
X0092279Y0047158D01*
X0093202Y0048756D02*
X0189791Y0048756D01*
X0190650Y0050355D02*
X0093696Y0050355D01*
X0094125Y0051953D02*
X0191544Y0051953D01*
X0199345Y0042362D02*
X0201127Y0042362D01*
X0212658Y0032644D02*
X0213572Y0032940D01*
X0214520Y0033091D01*
X0214520Y0033091D01*
X0214520Y0027470D01*
X0214520Y0026511D01*
X0208900Y0026511D01*
X0208900Y0026510D01*
X0209050Y0025562D01*
X0209347Y0024649D01*
X0209783Y0023793D01*
X0210347Y0023017D01*
X0211026Y0022338D01*
X0211803Y0021773D01*
X0212658Y0021337D01*
X0213572Y0021041D01*
X0214520Y0020891D01*
X0214520Y0020891D01*
X0214520Y0026511D01*
X0215480Y0026511D01*
X0215480Y0027470D01*
X0221100Y0027470D01*
X0221100Y0027471D01*
X0220950Y0028419D01*
X0220653Y0029332D01*
X0220217Y0030188D01*
X0219653Y0030964D01*
X0218974Y0031643D01*
X0218197Y0032208D01*
X0217342Y0032644D01*
X0216428Y0032940D01*
X0215480Y0033091D01*
X0215480Y0033091D01*
X0215480Y0027470D01*
X0214520Y0027470D01*
X0208900Y0027470D01*
X0208900Y0027471D01*
X0209050Y0028419D01*
X0209347Y0029332D01*
X0209783Y0030188D01*
X0210347Y0030964D01*
X0211026Y0031643D01*
X0211803Y0032208D01*
X0212658Y0032644D01*
X0213051Y0032771D02*
X0199663Y0032771D01*
X0201262Y0031173D02*
X0210555Y0031173D01*
X0209470Y0029574D02*
X0201997Y0029574D01*
X0202477Y0027976D02*
X0208980Y0027976D01*
X0208921Y0026377D02*
X0202477Y0026377D01*
X0202151Y0024779D02*
X0209305Y0024779D01*
X0210228Y0023180D02*
X0201489Y0023180D01*
X0201010Y0021582D02*
X0212179Y0021582D01*
X0214520Y0021582D02*
X0215480Y0021582D01*
X0215480Y0020891D02*
X0216428Y0021041D01*
X0217342Y0021337D01*
X0218197Y0021773D01*
X0218974Y0022338D01*
X0219653Y0023017D01*
X0220217Y0023793D01*
X0220653Y0024649D01*
X0220950Y0025562D01*
X0221100Y0026510D01*
X0221100Y0026511D01*
X0215480Y0026511D01*
X0215480Y0020891D01*
X0215480Y0020891D01*
X0217821Y0021582D02*
X0228990Y0021582D01*
X0228511Y0023180D02*
X0219772Y0023180D01*
X0220695Y0024779D02*
X0227849Y0024779D01*
X0227523Y0026377D02*
X0221079Y0026377D01*
X0221020Y0027976D02*
X0227523Y0027976D01*
X0228003Y0029574D02*
X0220530Y0029574D01*
X0219445Y0031173D02*
X0228738Y0031173D01*
X0230337Y0032771D02*
X0216949Y0032771D01*
X0215480Y0032771D02*
X0214520Y0032771D01*
X0214520Y0031173D02*
X0215480Y0031173D01*
X0215480Y0029574D02*
X0214520Y0029574D01*
X0214520Y0027976D02*
X0215480Y0027976D01*
X0215480Y0026377D02*
X0214520Y0026377D01*
X0214520Y0024779D02*
X0215480Y0024779D01*
X0215480Y0023180D02*
X0214520Y0023180D01*
X0202477Y0018385D02*
X0227523Y0018385D01*
X0228107Y0019983D02*
X0201893Y0019983D01*
X0239033Y0032771D02*
X0239683Y0032771D01*
X0230654Y0042362D02*
X0228873Y0042362D01*
X0189889Y0069537D02*
X0175565Y0069537D01*
X0174831Y0071135D02*
X0188919Y0071135D01*
X0188919Y0072734D02*
X0174831Y0072734D01*
X0173972Y0074332D02*
X0189778Y0074332D01*
X0190300Y0075931D02*
X0161081Y0075931D01*
X0161081Y0074332D02*
X0168528Y0074332D01*
X0167669Y0072734D02*
X0160808Y0072734D01*
X0160920Y0071135D02*
X0167669Y0071135D01*
X0167482Y0069537D02*
X0161081Y0069537D01*
X0161012Y0067938D02*
X0166419Y0067938D01*
X0166419Y0066340D02*
X0159414Y0066340D01*
X0156460Y0064741D02*
X0167185Y0064741D01*
X0169464Y0063143D02*
X0155921Y0063143D01*
X0149079Y0063143D02*
X0147171Y0063143D01*
X0147518Y0061544D02*
X0148731Y0061544D01*
X0148731Y0058347D02*
X0147518Y0058347D01*
X0147231Y0056749D02*
X0149019Y0056749D01*
X0140269Y0056749D02*
X0135403Y0056749D01*
X0132206Y0058347D02*
X0139981Y0058347D01*
X0131958Y0053552D02*
X0094300Y0053552D01*
X0094300Y0055150D02*
X0128761Y0055150D01*
X0125564Y0056749D02*
X0094300Y0056749D01*
X0094300Y0058347D02*
X0123032Y0058347D01*
X0122768Y0059946D02*
X0094300Y0059946D01*
X0094300Y0061544D02*
X0122800Y0061544D01*
X0159525Y0077530D02*
X0190300Y0077530D01*
X0190300Y0079128D02*
X0160952Y0079128D01*
X0161081Y0080727D02*
X0190300Y0080727D01*
X0190300Y0082325D02*
X0160980Y0082325D01*
X0159381Y0083924D02*
X0190300Y0083924D01*
X0155619Y0083924D02*
X0155310Y0083924D01*
X0149690Y0083924D02*
X0146560Y0083924D01*
X0210999Y0107901D02*
X0214907Y0107901D01*
X0213353Y0109500D02*
X0212553Y0109500D01*
X0212553Y0111098D02*
X0213353Y0111098D01*
X0213353Y0112697D02*
X0212553Y0112697D01*
X0211523Y0114295D02*
X0214382Y0114295D01*
X0215981Y0115894D02*
X0209925Y0115894D01*
X0210590Y0117492D02*
X0215316Y0117492D01*
X0213717Y0119091D02*
X0212188Y0119091D01*
X0212553Y0120689D02*
X0213353Y0120689D01*
X0213353Y0122288D02*
X0212553Y0122288D01*
X0211932Y0123886D02*
X0213973Y0123886D01*
X0221932Y0123886D02*
X0223973Y0123886D01*
X0223353Y0122288D02*
X0222553Y0122288D01*
X0222553Y0120689D02*
X0223353Y0120689D01*
X0222572Y0119091D02*
X0222188Y0119091D01*
X0220973Y0117492D02*
X0220590Y0117492D01*
X0220300Y0115894D02*
X0219925Y0115894D01*
X0225597Y0115894D02*
X0225698Y0115894D01*
X0227753Y0115894D02*
X0228153Y0115894D01*
X0228153Y0116161D02*
X0228153Y0111561D01*
X0232753Y0111561D01*
X0232753Y0113349D01*
X0229941Y0116161D01*
X0228153Y0116161D01*
X0228153Y0114295D02*
X0227753Y0114295D01*
X0230208Y0115894D02*
X0236913Y0115894D01*
X0236913Y0117492D02*
X0230590Y0117492D01*
X0232188Y0119091D02*
X0237294Y0119091D01*
X0237854Y0120689D02*
X0232553Y0120689D01*
X0232553Y0122288D02*
X0238777Y0122288D01*
X0240247Y0123886D02*
X0231932Y0123886D01*
X0231806Y0114295D02*
X0237095Y0114295D01*
X0237523Y0112697D02*
X0232753Y0112697D01*
X0232753Y0111161D02*
X0228153Y0111161D01*
X0228153Y0106561D01*
X0229941Y0106561D01*
X0232753Y0109372D01*
X0232753Y0111161D01*
X0232753Y0111098D02*
X0238348Y0111098D01*
X0239504Y0109500D02*
X0232753Y0109500D01*
X0231282Y0107901D02*
X0241283Y0107901D01*
X0252969Y0107901D02*
X0255856Y0107901D01*
X0255856Y0109500D02*
X0254748Y0109500D01*
X0228153Y0109500D02*
X0227753Y0109500D01*
X0227753Y0111098D02*
X0228153Y0111098D01*
X0228153Y0112697D02*
X0227753Y0112697D01*
X0227753Y0107901D02*
X0228153Y0107901D01*
X0203717Y0119091D02*
X0202471Y0119091D01*
X0202753Y0120689D02*
X0203353Y0120689D01*
X0203353Y0122288D02*
X0202753Y0122288D01*
X0202215Y0123886D02*
X0203973Y0123886D01*
X0193690Y0123886D02*
X0191932Y0123886D01*
X0192553Y0122288D02*
X0193153Y0122288D01*
X0193153Y0120689D02*
X0192553Y0120689D01*
X0192188Y0119091D02*
X0193434Y0119091D01*
X0183717Y0119091D02*
X0182471Y0119091D01*
X0182753Y0120689D02*
X0183353Y0120689D01*
X0183353Y0122288D02*
X0182753Y0122288D01*
X0182215Y0123886D02*
X0183973Y0123886D01*
X0173690Y0123886D02*
X0171932Y0123886D01*
X0172553Y0122288D02*
X0173153Y0122288D01*
D23*
X0072201Y0066991D02*
X0070000Y0066991D01*
X0047800Y0066991D01*
X0046146Y0065337D01*
X0040000Y0065337D01*
X0047800Y0076091D02*
X0047800Y0077941D01*
X0045000Y0080741D01*
X0040404Y0080741D01*
X0040000Y0080337D01*
X0031250Y0089087D01*
X0031250Y0115741D01*
X0034370Y0121361D01*
X0037953Y0121361D01*
X0047953Y0121361D01*
D24*
X0080000Y0076991D02*
X0080000Y0066991D01*
X0080000Y0054491D01*
X0080000Y0066991D02*
X0072201Y0066991D01*
D25*
X0070000Y0066991D02*
X0045000Y0066991D01*
X0070000Y0066991D02*
X0080000Y0076991D01*
M02*
