G75*
%MOIN*%
%OFA0B0*%
%FSLAX25Y25*%
%IPPOS*%
%LPD*%
%AMOC8*
5,1,8,0,0,1.08239X$1,22.5*
%
%ADD10C,0.00500*%
%ADD11C,0.00000*%
%ADD12R,0.06000X0.06000*%
%ADD13OC8,0.06000*%
%ADD14R,0.03900X0.01200*%
%ADD15R,0.04724X0.07874*%
%ADD16R,0.07874X0.04724*%
%ADD17C,0.08600*%
%ADD18R,0.03937X0.04331*%
%ADD19R,0.04331X0.03937*%
%ADD20R,0.10236X0.06299*%
%ADD21C,0.01200*%
%ADD22OC8,0.03962*%
%ADD23R,0.03962X0.03962*%
%ADD24C,0.01600*%
%ADD25C,0.04000*%
%ADD26C,0.02400*%
D10*
X0016811Y0011991D02*
X0249094Y0011991D01*
X0249379Y0011994D01*
X0249665Y0012005D01*
X0249950Y0012022D01*
X0250234Y0012046D01*
X0250518Y0012077D01*
X0250801Y0012115D01*
X0251082Y0012160D01*
X0251363Y0012211D01*
X0251643Y0012269D01*
X0251921Y0012334D01*
X0252197Y0012406D01*
X0252471Y0012484D01*
X0252744Y0012569D01*
X0253014Y0012661D01*
X0253282Y0012759D01*
X0253548Y0012863D01*
X0253811Y0012974D01*
X0254071Y0013091D01*
X0254329Y0013214D01*
X0254583Y0013344D01*
X0254834Y0013480D01*
X0255082Y0013621D01*
X0255326Y0013769D01*
X0255567Y0013922D01*
X0255803Y0014082D01*
X0256036Y0014247D01*
X0256265Y0014417D01*
X0256490Y0014593D01*
X0256710Y0014775D01*
X0256926Y0014961D01*
X0257137Y0015153D01*
X0257344Y0015350D01*
X0257546Y0015552D01*
X0257743Y0015759D01*
X0257935Y0015970D01*
X0258121Y0016186D01*
X0258303Y0016406D01*
X0258479Y0016631D01*
X0258649Y0016860D01*
X0258814Y0017093D01*
X0258974Y0017329D01*
X0259127Y0017570D01*
X0259275Y0017814D01*
X0259416Y0018062D01*
X0259552Y0018313D01*
X0259682Y0018567D01*
X0259805Y0018825D01*
X0259922Y0019085D01*
X0260033Y0019348D01*
X0260137Y0019614D01*
X0260235Y0019882D01*
X0260327Y0020152D01*
X0260412Y0020425D01*
X0260490Y0020699D01*
X0260562Y0020975D01*
X0260627Y0021253D01*
X0260685Y0021533D01*
X0260736Y0021814D01*
X0260781Y0022095D01*
X0260819Y0022378D01*
X0260850Y0022662D01*
X0260874Y0022946D01*
X0260891Y0023231D01*
X0260902Y0023517D01*
X0260905Y0023802D01*
X0260906Y0023802D02*
X0260906Y0118290D01*
X0260905Y0118290D02*
X0260902Y0118575D01*
X0260891Y0118861D01*
X0260874Y0119146D01*
X0260850Y0119430D01*
X0260819Y0119714D01*
X0260781Y0119997D01*
X0260736Y0120278D01*
X0260685Y0120559D01*
X0260627Y0120839D01*
X0260562Y0121117D01*
X0260490Y0121393D01*
X0260412Y0121667D01*
X0260327Y0121940D01*
X0260235Y0122210D01*
X0260137Y0122478D01*
X0260033Y0122744D01*
X0259922Y0123007D01*
X0259805Y0123267D01*
X0259682Y0123525D01*
X0259552Y0123779D01*
X0259416Y0124030D01*
X0259275Y0124278D01*
X0259127Y0124522D01*
X0258974Y0124763D01*
X0258814Y0124999D01*
X0258649Y0125232D01*
X0258479Y0125461D01*
X0258303Y0125686D01*
X0258121Y0125906D01*
X0257935Y0126122D01*
X0257743Y0126333D01*
X0257546Y0126540D01*
X0257344Y0126742D01*
X0257137Y0126939D01*
X0256926Y0127131D01*
X0256710Y0127317D01*
X0256490Y0127499D01*
X0256265Y0127675D01*
X0256036Y0127845D01*
X0255803Y0128010D01*
X0255567Y0128170D01*
X0255326Y0128323D01*
X0255082Y0128471D01*
X0254834Y0128612D01*
X0254583Y0128748D01*
X0254329Y0128878D01*
X0254071Y0129001D01*
X0253811Y0129118D01*
X0253548Y0129229D01*
X0253282Y0129333D01*
X0253014Y0129431D01*
X0252744Y0129523D01*
X0252471Y0129608D01*
X0252197Y0129686D01*
X0251921Y0129758D01*
X0251643Y0129823D01*
X0251363Y0129881D01*
X0251082Y0129932D01*
X0250801Y0129977D01*
X0250518Y0130015D01*
X0250234Y0130046D01*
X0249950Y0130070D01*
X0249665Y0130087D01*
X0249379Y0130098D01*
X0249094Y0130101D01*
X0016811Y0130101D01*
X0016526Y0130098D01*
X0016240Y0130087D01*
X0015955Y0130070D01*
X0015671Y0130046D01*
X0015387Y0130015D01*
X0015104Y0129977D01*
X0014823Y0129932D01*
X0014542Y0129881D01*
X0014262Y0129823D01*
X0013984Y0129758D01*
X0013708Y0129686D01*
X0013434Y0129608D01*
X0013161Y0129523D01*
X0012891Y0129431D01*
X0012623Y0129333D01*
X0012357Y0129229D01*
X0012094Y0129118D01*
X0011834Y0129001D01*
X0011576Y0128878D01*
X0011322Y0128748D01*
X0011071Y0128612D01*
X0010823Y0128471D01*
X0010579Y0128323D01*
X0010338Y0128170D01*
X0010102Y0128010D01*
X0009869Y0127845D01*
X0009640Y0127675D01*
X0009415Y0127499D01*
X0009195Y0127317D01*
X0008979Y0127131D01*
X0008768Y0126939D01*
X0008561Y0126742D01*
X0008359Y0126540D01*
X0008162Y0126333D01*
X0007970Y0126122D01*
X0007784Y0125906D01*
X0007602Y0125686D01*
X0007426Y0125461D01*
X0007256Y0125232D01*
X0007091Y0124999D01*
X0006931Y0124763D01*
X0006778Y0124522D01*
X0006630Y0124278D01*
X0006489Y0124030D01*
X0006353Y0123779D01*
X0006223Y0123525D01*
X0006100Y0123267D01*
X0005983Y0123007D01*
X0005872Y0122744D01*
X0005768Y0122478D01*
X0005670Y0122210D01*
X0005578Y0121940D01*
X0005493Y0121667D01*
X0005415Y0121393D01*
X0005343Y0121117D01*
X0005278Y0120839D01*
X0005220Y0120559D01*
X0005169Y0120278D01*
X0005124Y0119997D01*
X0005086Y0119714D01*
X0005055Y0119430D01*
X0005031Y0119146D01*
X0005014Y0118861D01*
X0005003Y0118575D01*
X0005000Y0118290D01*
X0005000Y0023802D01*
X0005003Y0023517D01*
X0005014Y0023231D01*
X0005031Y0022946D01*
X0005055Y0022662D01*
X0005086Y0022378D01*
X0005124Y0022095D01*
X0005169Y0021814D01*
X0005220Y0021533D01*
X0005278Y0021253D01*
X0005343Y0020975D01*
X0005415Y0020699D01*
X0005493Y0020425D01*
X0005578Y0020152D01*
X0005670Y0019882D01*
X0005768Y0019614D01*
X0005872Y0019348D01*
X0005983Y0019085D01*
X0006100Y0018825D01*
X0006223Y0018567D01*
X0006353Y0018313D01*
X0006489Y0018062D01*
X0006630Y0017814D01*
X0006778Y0017570D01*
X0006931Y0017329D01*
X0007091Y0017093D01*
X0007256Y0016860D01*
X0007426Y0016631D01*
X0007602Y0016406D01*
X0007784Y0016186D01*
X0007970Y0015970D01*
X0008162Y0015759D01*
X0008359Y0015552D01*
X0008561Y0015350D01*
X0008768Y0015153D01*
X0008979Y0014961D01*
X0009195Y0014775D01*
X0009415Y0014593D01*
X0009640Y0014417D01*
X0009869Y0014247D01*
X0010102Y0014082D01*
X0010338Y0013922D01*
X0010579Y0013769D01*
X0010823Y0013621D01*
X0011071Y0013480D01*
X0011322Y0013344D01*
X0011576Y0013214D01*
X0011834Y0013091D01*
X0012094Y0012974D01*
X0012357Y0012863D01*
X0012623Y0012759D01*
X0012891Y0012661D01*
X0013161Y0012569D01*
X0013434Y0012484D01*
X0013708Y0012406D01*
X0013984Y0012334D01*
X0014262Y0012269D01*
X0014542Y0012211D01*
X0014823Y0012160D01*
X0015104Y0012115D01*
X0015387Y0012077D01*
X0015671Y0012046D01*
X0015955Y0012022D01*
X0016240Y0012005D01*
X0016526Y0011994D01*
X0016811Y0011991D01*
D11*
X0013367Y0025770D02*
X0013369Y0025917D01*
X0013375Y0026063D01*
X0013385Y0026209D01*
X0013399Y0026355D01*
X0013417Y0026501D01*
X0013438Y0026646D01*
X0013464Y0026790D01*
X0013494Y0026934D01*
X0013527Y0027076D01*
X0013564Y0027218D01*
X0013605Y0027359D01*
X0013650Y0027498D01*
X0013699Y0027637D01*
X0013751Y0027774D01*
X0013808Y0027909D01*
X0013867Y0028043D01*
X0013931Y0028175D01*
X0013998Y0028305D01*
X0014068Y0028434D01*
X0014142Y0028561D01*
X0014219Y0028685D01*
X0014300Y0028808D01*
X0014384Y0028928D01*
X0014471Y0029046D01*
X0014561Y0029161D01*
X0014654Y0029274D01*
X0014751Y0029385D01*
X0014850Y0029493D01*
X0014952Y0029598D01*
X0015057Y0029700D01*
X0015165Y0029799D01*
X0015276Y0029896D01*
X0015389Y0029989D01*
X0015504Y0030079D01*
X0015622Y0030166D01*
X0015742Y0030250D01*
X0015865Y0030331D01*
X0015989Y0030408D01*
X0016116Y0030482D01*
X0016245Y0030552D01*
X0016375Y0030619D01*
X0016507Y0030683D01*
X0016641Y0030742D01*
X0016776Y0030799D01*
X0016913Y0030851D01*
X0017052Y0030900D01*
X0017191Y0030945D01*
X0017332Y0030986D01*
X0017474Y0031023D01*
X0017616Y0031056D01*
X0017760Y0031086D01*
X0017904Y0031112D01*
X0018049Y0031133D01*
X0018195Y0031151D01*
X0018341Y0031165D01*
X0018487Y0031175D01*
X0018633Y0031181D01*
X0018780Y0031183D01*
X0018927Y0031181D01*
X0019073Y0031175D01*
X0019219Y0031165D01*
X0019365Y0031151D01*
X0019511Y0031133D01*
X0019656Y0031112D01*
X0019800Y0031086D01*
X0019944Y0031056D01*
X0020086Y0031023D01*
X0020228Y0030986D01*
X0020369Y0030945D01*
X0020508Y0030900D01*
X0020647Y0030851D01*
X0020784Y0030799D01*
X0020919Y0030742D01*
X0021053Y0030683D01*
X0021185Y0030619D01*
X0021315Y0030552D01*
X0021444Y0030482D01*
X0021571Y0030408D01*
X0021695Y0030331D01*
X0021818Y0030250D01*
X0021938Y0030166D01*
X0022056Y0030079D01*
X0022171Y0029989D01*
X0022284Y0029896D01*
X0022395Y0029799D01*
X0022503Y0029700D01*
X0022608Y0029598D01*
X0022710Y0029493D01*
X0022809Y0029385D01*
X0022906Y0029274D01*
X0022999Y0029161D01*
X0023089Y0029046D01*
X0023176Y0028928D01*
X0023260Y0028808D01*
X0023341Y0028685D01*
X0023418Y0028561D01*
X0023492Y0028434D01*
X0023562Y0028305D01*
X0023629Y0028175D01*
X0023693Y0028043D01*
X0023752Y0027909D01*
X0023809Y0027774D01*
X0023861Y0027637D01*
X0023910Y0027498D01*
X0023955Y0027359D01*
X0023996Y0027218D01*
X0024033Y0027076D01*
X0024066Y0026934D01*
X0024096Y0026790D01*
X0024122Y0026646D01*
X0024143Y0026501D01*
X0024161Y0026355D01*
X0024175Y0026209D01*
X0024185Y0026063D01*
X0024191Y0025917D01*
X0024193Y0025770D01*
X0024191Y0025623D01*
X0024185Y0025477D01*
X0024175Y0025331D01*
X0024161Y0025185D01*
X0024143Y0025039D01*
X0024122Y0024894D01*
X0024096Y0024750D01*
X0024066Y0024606D01*
X0024033Y0024464D01*
X0023996Y0024322D01*
X0023955Y0024181D01*
X0023910Y0024042D01*
X0023861Y0023903D01*
X0023809Y0023766D01*
X0023752Y0023631D01*
X0023693Y0023497D01*
X0023629Y0023365D01*
X0023562Y0023235D01*
X0023492Y0023106D01*
X0023418Y0022979D01*
X0023341Y0022855D01*
X0023260Y0022732D01*
X0023176Y0022612D01*
X0023089Y0022494D01*
X0022999Y0022379D01*
X0022906Y0022266D01*
X0022809Y0022155D01*
X0022710Y0022047D01*
X0022608Y0021942D01*
X0022503Y0021840D01*
X0022395Y0021741D01*
X0022284Y0021644D01*
X0022171Y0021551D01*
X0022056Y0021461D01*
X0021938Y0021374D01*
X0021818Y0021290D01*
X0021695Y0021209D01*
X0021571Y0021132D01*
X0021444Y0021058D01*
X0021315Y0020988D01*
X0021185Y0020921D01*
X0021053Y0020857D01*
X0020919Y0020798D01*
X0020784Y0020741D01*
X0020647Y0020689D01*
X0020508Y0020640D01*
X0020369Y0020595D01*
X0020228Y0020554D01*
X0020086Y0020517D01*
X0019944Y0020484D01*
X0019800Y0020454D01*
X0019656Y0020428D01*
X0019511Y0020407D01*
X0019365Y0020389D01*
X0019219Y0020375D01*
X0019073Y0020365D01*
X0018927Y0020359D01*
X0018780Y0020357D01*
X0018633Y0020359D01*
X0018487Y0020365D01*
X0018341Y0020375D01*
X0018195Y0020389D01*
X0018049Y0020407D01*
X0017904Y0020428D01*
X0017760Y0020454D01*
X0017616Y0020484D01*
X0017474Y0020517D01*
X0017332Y0020554D01*
X0017191Y0020595D01*
X0017052Y0020640D01*
X0016913Y0020689D01*
X0016776Y0020741D01*
X0016641Y0020798D01*
X0016507Y0020857D01*
X0016375Y0020921D01*
X0016245Y0020988D01*
X0016116Y0021058D01*
X0015989Y0021132D01*
X0015865Y0021209D01*
X0015742Y0021290D01*
X0015622Y0021374D01*
X0015504Y0021461D01*
X0015389Y0021551D01*
X0015276Y0021644D01*
X0015165Y0021741D01*
X0015057Y0021840D01*
X0014952Y0021942D01*
X0014850Y0022047D01*
X0014751Y0022155D01*
X0014654Y0022266D01*
X0014561Y0022379D01*
X0014471Y0022494D01*
X0014384Y0022612D01*
X0014300Y0022732D01*
X0014219Y0022855D01*
X0014142Y0022979D01*
X0014068Y0023106D01*
X0013998Y0023235D01*
X0013931Y0023365D01*
X0013867Y0023497D01*
X0013808Y0023631D01*
X0013751Y0023766D01*
X0013699Y0023903D01*
X0013650Y0024042D01*
X0013605Y0024181D01*
X0013564Y0024322D01*
X0013527Y0024464D01*
X0013494Y0024606D01*
X0013464Y0024750D01*
X0013438Y0024894D01*
X0013417Y0025039D01*
X0013399Y0025185D01*
X0013385Y0025331D01*
X0013375Y0025477D01*
X0013369Y0025623D01*
X0013367Y0025770D01*
X0013367Y0116321D02*
X0013369Y0116468D01*
X0013375Y0116614D01*
X0013385Y0116760D01*
X0013399Y0116906D01*
X0013417Y0117052D01*
X0013438Y0117197D01*
X0013464Y0117341D01*
X0013494Y0117485D01*
X0013527Y0117627D01*
X0013564Y0117769D01*
X0013605Y0117910D01*
X0013650Y0118049D01*
X0013699Y0118188D01*
X0013751Y0118325D01*
X0013808Y0118460D01*
X0013867Y0118594D01*
X0013931Y0118726D01*
X0013998Y0118856D01*
X0014068Y0118985D01*
X0014142Y0119112D01*
X0014219Y0119236D01*
X0014300Y0119359D01*
X0014384Y0119479D01*
X0014471Y0119597D01*
X0014561Y0119712D01*
X0014654Y0119825D01*
X0014751Y0119936D01*
X0014850Y0120044D01*
X0014952Y0120149D01*
X0015057Y0120251D01*
X0015165Y0120350D01*
X0015276Y0120447D01*
X0015389Y0120540D01*
X0015504Y0120630D01*
X0015622Y0120717D01*
X0015742Y0120801D01*
X0015865Y0120882D01*
X0015989Y0120959D01*
X0016116Y0121033D01*
X0016245Y0121103D01*
X0016375Y0121170D01*
X0016507Y0121234D01*
X0016641Y0121293D01*
X0016776Y0121350D01*
X0016913Y0121402D01*
X0017052Y0121451D01*
X0017191Y0121496D01*
X0017332Y0121537D01*
X0017474Y0121574D01*
X0017616Y0121607D01*
X0017760Y0121637D01*
X0017904Y0121663D01*
X0018049Y0121684D01*
X0018195Y0121702D01*
X0018341Y0121716D01*
X0018487Y0121726D01*
X0018633Y0121732D01*
X0018780Y0121734D01*
X0018927Y0121732D01*
X0019073Y0121726D01*
X0019219Y0121716D01*
X0019365Y0121702D01*
X0019511Y0121684D01*
X0019656Y0121663D01*
X0019800Y0121637D01*
X0019944Y0121607D01*
X0020086Y0121574D01*
X0020228Y0121537D01*
X0020369Y0121496D01*
X0020508Y0121451D01*
X0020647Y0121402D01*
X0020784Y0121350D01*
X0020919Y0121293D01*
X0021053Y0121234D01*
X0021185Y0121170D01*
X0021315Y0121103D01*
X0021444Y0121033D01*
X0021571Y0120959D01*
X0021695Y0120882D01*
X0021818Y0120801D01*
X0021938Y0120717D01*
X0022056Y0120630D01*
X0022171Y0120540D01*
X0022284Y0120447D01*
X0022395Y0120350D01*
X0022503Y0120251D01*
X0022608Y0120149D01*
X0022710Y0120044D01*
X0022809Y0119936D01*
X0022906Y0119825D01*
X0022999Y0119712D01*
X0023089Y0119597D01*
X0023176Y0119479D01*
X0023260Y0119359D01*
X0023341Y0119236D01*
X0023418Y0119112D01*
X0023492Y0118985D01*
X0023562Y0118856D01*
X0023629Y0118726D01*
X0023693Y0118594D01*
X0023752Y0118460D01*
X0023809Y0118325D01*
X0023861Y0118188D01*
X0023910Y0118049D01*
X0023955Y0117910D01*
X0023996Y0117769D01*
X0024033Y0117627D01*
X0024066Y0117485D01*
X0024096Y0117341D01*
X0024122Y0117197D01*
X0024143Y0117052D01*
X0024161Y0116906D01*
X0024175Y0116760D01*
X0024185Y0116614D01*
X0024191Y0116468D01*
X0024193Y0116321D01*
X0024191Y0116174D01*
X0024185Y0116028D01*
X0024175Y0115882D01*
X0024161Y0115736D01*
X0024143Y0115590D01*
X0024122Y0115445D01*
X0024096Y0115301D01*
X0024066Y0115157D01*
X0024033Y0115015D01*
X0023996Y0114873D01*
X0023955Y0114732D01*
X0023910Y0114593D01*
X0023861Y0114454D01*
X0023809Y0114317D01*
X0023752Y0114182D01*
X0023693Y0114048D01*
X0023629Y0113916D01*
X0023562Y0113786D01*
X0023492Y0113657D01*
X0023418Y0113530D01*
X0023341Y0113406D01*
X0023260Y0113283D01*
X0023176Y0113163D01*
X0023089Y0113045D01*
X0022999Y0112930D01*
X0022906Y0112817D01*
X0022809Y0112706D01*
X0022710Y0112598D01*
X0022608Y0112493D01*
X0022503Y0112391D01*
X0022395Y0112292D01*
X0022284Y0112195D01*
X0022171Y0112102D01*
X0022056Y0112012D01*
X0021938Y0111925D01*
X0021818Y0111841D01*
X0021695Y0111760D01*
X0021571Y0111683D01*
X0021444Y0111609D01*
X0021315Y0111539D01*
X0021185Y0111472D01*
X0021053Y0111408D01*
X0020919Y0111349D01*
X0020784Y0111292D01*
X0020647Y0111240D01*
X0020508Y0111191D01*
X0020369Y0111146D01*
X0020228Y0111105D01*
X0020086Y0111068D01*
X0019944Y0111035D01*
X0019800Y0111005D01*
X0019656Y0110979D01*
X0019511Y0110958D01*
X0019365Y0110940D01*
X0019219Y0110926D01*
X0019073Y0110916D01*
X0018927Y0110910D01*
X0018780Y0110908D01*
X0018633Y0110910D01*
X0018487Y0110916D01*
X0018341Y0110926D01*
X0018195Y0110940D01*
X0018049Y0110958D01*
X0017904Y0110979D01*
X0017760Y0111005D01*
X0017616Y0111035D01*
X0017474Y0111068D01*
X0017332Y0111105D01*
X0017191Y0111146D01*
X0017052Y0111191D01*
X0016913Y0111240D01*
X0016776Y0111292D01*
X0016641Y0111349D01*
X0016507Y0111408D01*
X0016375Y0111472D01*
X0016245Y0111539D01*
X0016116Y0111609D01*
X0015989Y0111683D01*
X0015865Y0111760D01*
X0015742Y0111841D01*
X0015622Y0111925D01*
X0015504Y0112012D01*
X0015389Y0112102D01*
X0015276Y0112195D01*
X0015165Y0112292D01*
X0015057Y0112391D01*
X0014952Y0112493D01*
X0014850Y0112598D01*
X0014751Y0112706D01*
X0014654Y0112817D01*
X0014561Y0112930D01*
X0014471Y0113045D01*
X0014384Y0113163D01*
X0014300Y0113283D01*
X0014219Y0113406D01*
X0014142Y0113530D01*
X0014068Y0113657D01*
X0013998Y0113786D01*
X0013931Y0113916D01*
X0013867Y0114048D01*
X0013808Y0114182D01*
X0013751Y0114317D01*
X0013699Y0114454D01*
X0013650Y0114593D01*
X0013605Y0114732D01*
X0013564Y0114873D01*
X0013527Y0115015D01*
X0013494Y0115157D01*
X0013464Y0115301D01*
X0013438Y0115445D01*
X0013417Y0115590D01*
X0013399Y0115736D01*
X0013385Y0115882D01*
X0013375Y0116028D01*
X0013369Y0116174D01*
X0013367Y0116321D01*
X0192953Y0026991D02*
X0192955Y0027088D01*
X0192961Y0027185D01*
X0192971Y0027281D01*
X0192985Y0027377D01*
X0193003Y0027473D01*
X0193024Y0027567D01*
X0193050Y0027661D01*
X0193079Y0027753D01*
X0193113Y0027844D01*
X0193149Y0027934D01*
X0193190Y0028022D01*
X0193234Y0028108D01*
X0193282Y0028193D01*
X0193333Y0028275D01*
X0193387Y0028356D01*
X0193445Y0028434D01*
X0193506Y0028509D01*
X0193569Y0028582D01*
X0193636Y0028653D01*
X0193706Y0028720D01*
X0193778Y0028785D01*
X0193853Y0028846D01*
X0193931Y0028905D01*
X0194010Y0028960D01*
X0194092Y0029012D01*
X0194176Y0029060D01*
X0194262Y0029105D01*
X0194350Y0029147D01*
X0194439Y0029185D01*
X0194530Y0029219D01*
X0194622Y0029249D01*
X0194715Y0029276D01*
X0194810Y0029298D01*
X0194905Y0029317D01*
X0195001Y0029332D01*
X0195097Y0029343D01*
X0195194Y0029350D01*
X0195291Y0029353D01*
X0195388Y0029352D01*
X0195485Y0029347D01*
X0195581Y0029338D01*
X0195677Y0029325D01*
X0195773Y0029308D01*
X0195868Y0029287D01*
X0195961Y0029263D01*
X0196054Y0029234D01*
X0196146Y0029202D01*
X0196236Y0029166D01*
X0196324Y0029127D01*
X0196411Y0029083D01*
X0196496Y0029037D01*
X0196579Y0028986D01*
X0196660Y0028933D01*
X0196738Y0028876D01*
X0196815Y0028816D01*
X0196888Y0028753D01*
X0196959Y0028687D01*
X0197027Y0028618D01*
X0197093Y0028546D01*
X0197155Y0028472D01*
X0197214Y0028395D01*
X0197270Y0028316D01*
X0197323Y0028234D01*
X0197373Y0028151D01*
X0197418Y0028065D01*
X0197461Y0027978D01*
X0197500Y0027889D01*
X0197535Y0027799D01*
X0197566Y0027707D01*
X0197593Y0027614D01*
X0197617Y0027520D01*
X0197637Y0027425D01*
X0197653Y0027329D01*
X0197665Y0027233D01*
X0197673Y0027136D01*
X0197677Y0027039D01*
X0197677Y0026943D01*
X0197673Y0026846D01*
X0197665Y0026749D01*
X0197653Y0026653D01*
X0197637Y0026557D01*
X0197617Y0026462D01*
X0197593Y0026368D01*
X0197566Y0026275D01*
X0197535Y0026183D01*
X0197500Y0026093D01*
X0197461Y0026004D01*
X0197418Y0025917D01*
X0197373Y0025831D01*
X0197323Y0025748D01*
X0197270Y0025666D01*
X0197214Y0025587D01*
X0197155Y0025510D01*
X0197093Y0025436D01*
X0197027Y0025364D01*
X0196959Y0025295D01*
X0196888Y0025229D01*
X0196815Y0025166D01*
X0196738Y0025106D01*
X0196660Y0025049D01*
X0196579Y0024996D01*
X0196496Y0024945D01*
X0196411Y0024899D01*
X0196324Y0024855D01*
X0196236Y0024816D01*
X0196146Y0024780D01*
X0196054Y0024748D01*
X0195961Y0024719D01*
X0195868Y0024695D01*
X0195773Y0024674D01*
X0195677Y0024657D01*
X0195581Y0024644D01*
X0195485Y0024635D01*
X0195388Y0024630D01*
X0195291Y0024629D01*
X0195194Y0024632D01*
X0195097Y0024639D01*
X0195001Y0024650D01*
X0194905Y0024665D01*
X0194810Y0024684D01*
X0194715Y0024706D01*
X0194622Y0024733D01*
X0194530Y0024763D01*
X0194439Y0024797D01*
X0194350Y0024835D01*
X0194262Y0024877D01*
X0194176Y0024922D01*
X0194092Y0024970D01*
X0194010Y0025022D01*
X0193931Y0025077D01*
X0193853Y0025136D01*
X0193778Y0025197D01*
X0193706Y0025262D01*
X0193636Y0025329D01*
X0193569Y0025400D01*
X0193506Y0025473D01*
X0193445Y0025548D01*
X0193387Y0025626D01*
X0193333Y0025707D01*
X0193282Y0025789D01*
X0193234Y0025874D01*
X0193190Y0025960D01*
X0193149Y0026048D01*
X0193113Y0026138D01*
X0193079Y0026229D01*
X0193050Y0026321D01*
X0193024Y0026415D01*
X0193003Y0026509D01*
X0192985Y0026605D01*
X0192971Y0026701D01*
X0192961Y0026797D01*
X0192955Y0026894D01*
X0192953Y0026991D01*
X0192953Y0017148D02*
X0192955Y0017245D01*
X0192961Y0017342D01*
X0192971Y0017438D01*
X0192985Y0017534D01*
X0193003Y0017630D01*
X0193024Y0017724D01*
X0193050Y0017818D01*
X0193079Y0017910D01*
X0193113Y0018001D01*
X0193149Y0018091D01*
X0193190Y0018179D01*
X0193234Y0018265D01*
X0193282Y0018350D01*
X0193333Y0018432D01*
X0193387Y0018513D01*
X0193445Y0018591D01*
X0193506Y0018666D01*
X0193569Y0018739D01*
X0193636Y0018810D01*
X0193706Y0018877D01*
X0193778Y0018942D01*
X0193853Y0019003D01*
X0193931Y0019062D01*
X0194010Y0019117D01*
X0194092Y0019169D01*
X0194176Y0019217D01*
X0194262Y0019262D01*
X0194350Y0019304D01*
X0194439Y0019342D01*
X0194530Y0019376D01*
X0194622Y0019406D01*
X0194715Y0019433D01*
X0194810Y0019455D01*
X0194905Y0019474D01*
X0195001Y0019489D01*
X0195097Y0019500D01*
X0195194Y0019507D01*
X0195291Y0019510D01*
X0195388Y0019509D01*
X0195485Y0019504D01*
X0195581Y0019495D01*
X0195677Y0019482D01*
X0195773Y0019465D01*
X0195868Y0019444D01*
X0195961Y0019420D01*
X0196054Y0019391D01*
X0196146Y0019359D01*
X0196236Y0019323D01*
X0196324Y0019284D01*
X0196411Y0019240D01*
X0196496Y0019194D01*
X0196579Y0019143D01*
X0196660Y0019090D01*
X0196738Y0019033D01*
X0196815Y0018973D01*
X0196888Y0018910D01*
X0196959Y0018844D01*
X0197027Y0018775D01*
X0197093Y0018703D01*
X0197155Y0018629D01*
X0197214Y0018552D01*
X0197270Y0018473D01*
X0197323Y0018391D01*
X0197373Y0018308D01*
X0197418Y0018222D01*
X0197461Y0018135D01*
X0197500Y0018046D01*
X0197535Y0017956D01*
X0197566Y0017864D01*
X0197593Y0017771D01*
X0197617Y0017677D01*
X0197637Y0017582D01*
X0197653Y0017486D01*
X0197665Y0017390D01*
X0197673Y0017293D01*
X0197677Y0017196D01*
X0197677Y0017100D01*
X0197673Y0017003D01*
X0197665Y0016906D01*
X0197653Y0016810D01*
X0197637Y0016714D01*
X0197617Y0016619D01*
X0197593Y0016525D01*
X0197566Y0016432D01*
X0197535Y0016340D01*
X0197500Y0016250D01*
X0197461Y0016161D01*
X0197418Y0016074D01*
X0197373Y0015988D01*
X0197323Y0015905D01*
X0197270Y0015823D01*
X0197214Y0015744D01*
X0197155Y0015667D01*
X0197093Y0015593D01*
X0197027Y0015521D01*
X0196959Y0015452D01*
X0196888Y0015386D01*
X0196815Y0015323D01*
X0196738Y0015263D01*
X0196660Y0015206D01*
X0196579Y0015153D01*
X0196496Y0015102D01*
X0196411Y0015056D01*
X0196324Y0015012D01*
X0196236Y0014973D01*
X0196146Y0014937D01*
X0196054Y0014905D01*
X0195961Y0014876D01*
X0195868Y0014852D01*
X0195773Y0014831D01*
X0195677Y0014814D01*
X0195581Y0014801D01*
X0195485Y0014792D01*
X0195388Y0014787D01*
X0195291Y0014786D01*
X0195194Y0014789D01*
X0195097Y0014796D01*
X0195001Y0014807D01*
X0194905Y0014822D01*
X0194810Y0014841D01*
X0194715Y0014863D01*
X0194622Y0014890D01*
X0194530Y0014920D01*
X0194439Y0014954D01*
X0194350Y0014992D01*
X0194262Y0015034D01*
X0194176Y0015079D01*
X0194092Y0015127D01*
X0194010Y0015179D01*
X0193931Y0015234D01*
X0193853Y0015293D01*
X0193778Y0015354D01*
X0193706Y0015419D01*
X0193636Y0015486D01*
X0193569Y0015557D01*
X0193506Y0015630D01*
X0193445Y0015705D01*
X0193387Y0015783D01*
X0193333Y0015864D01*
X0193282Y0015946D01*
X0193234Y0016031D01*
X0193190Y0016117D01*
X0193149Y0016205D01*
X0193113Y0016295D01*
X0193079Y0016386D01*
X0193050Y0016478D01*
X0193024Y0016572D01*
X0193003Y0016666D01*
X0192985Y0016762D01*
X0192971Y0016858D01*
X0192961Y0016954D01*
X0192955Y0017051D01*
X0192953Y0017148D01*
X0232323Y0017148D02*
X0232325Y0017245D01*
X0232331Y0017342D01*
X0232341Y0017438D01*
X0232355Y0017534D01*
X0232373Y0017630D01*
X0232394Y0017724D01*
X0232420Y0017818D01*
X0232449Y0017910D01*
X0232483Y0018001D01*
X0232519Y0018091D01*
X0232560Y0018179D01*
X0232604Y0018265D01*
X0232652Y0018350D01*
X0232703Y0018432D01*
X0232757Y0018513D01*
X0232815Y0018591D01*
X0232876Y0018666D01*
X0232939Y0018739D01*
X0233006Y0018810D01*
X0233076Y0018877D01*
X0233148Y0018942D01*
X0233223Y0019003D01*
X0233301Y0019062D01*
X0233380Y0019117D01*
X0233462Y0019169D01*
X0233546Y0019217D01*
X0233632Y0019262D01*
X0233720Y0019304D01*
X0233809Y0019342D01*
X0233900Y0019376D01*
X0233992Y0019406D01*
X0234085Y0019433D01*
X0234180Y0019455D01*
X0234275Y0019474D01*
X0234371Y0019489D01*
X0234467Y0019500D01*
X0234564Y0019507D01*
X0234661Y0019510D01*
X0234758Y0019509D01*
X0234855Y0019504D01*
X0234951Y0019495D01*
X0235047Y0019482D01*
X0235143Y0019465D01*
X0235238Y0019444D01*
X0235331Y0019420D01*
X0235424Y0019391D01*
X0235516Y0019359D01*
X0235606Y0019323D01*
X0235694Y0019284D01*
X0235781Y0019240D01*
X0235866Y0019194D01*
X0235949Y0019143D01*
X0236030Y0019090D01*
X0236108Y0019033D01*
X0236185Y0018973D01*
X0236258Y0018910D01*
X0236329Y0018844D01*
X0236397Y0018775D01*
X0236463Y0018703D01*
X0236525Y0018629D01*
X0236584Y0018552D01*
X0236640Y0018473D01*
X0236693Y0018391D01*
X0236743Y0018308D01*
X0236788Y0018222D01*
X0236831Y0018135D01*
X0236870Y0018046D01*
X0236905Y0017956D01*
X0236936Y0017864D01*
X0236963Y0017771D01*
X0236987Y0017677D01*
X0237007Y0017582D01*
X0237023Y0017486D01*
X0237035Y0017390D01*
X0237043Y0017293D01*
X0237047Y0017196D01*
X0237047Y0017100D01*
X0237043Y0017003D01*
X0237035Y0016906D01*
X0237023Y0016810D01*
X0237007Y0016714D01*
X0236987Y0016619D01*
X0236963Y0016525D01*
X0236936Y0016432D01*
X0236905Y0016340D01*
X0236870Y0016250D01*
X0236831Y0016161D01*
X0236788Y0016074D01*
X0236743Y0015988D01*
X0236693Y0015905D01*
X0236640Y0015823D01*
X0236584Y0015744D01*
X0236525Y0015667D01*
X0236463Y0015593D01*
X0236397Y0015521D01*
X0236329Y0015452D01*
X0236258Y0015386D01*
X0236185Y0015323D01*
X0236108Y0015263D01*
X0236030Y0015206D01*
X0235949Y0015153D01*
X0235866Y0015102D01*
X0235781Y0015056D01*
X0235694Y0015012D01*
X0235606Y0014973D01*
X0235516Y0014937D01*
X0235424Y0014905D01*
X0235331Y0014876D01*
X0235238Y0014852D01*
X0235143Y0014831D01*
X0235047Y0014814D01*
X0234951Y0014801D01*
X0234855Y0014792D01*
X0234758Y0014787D01*
X0234661Y0014786D01*
X0234564Y0014789D01*
X0234467Y0014796D01*
X0234371Y0014807D01*
X0234275Y0014822D01*
X0234180Y0014841D01*
X0234085Y0014863D01*
X0233992Y0014890D01*
X0233900Y0014920D01*
X0233809Y0014954D01*
X0233720Y0014992D01*
X0233632Y0015034D01*
X0233546Y0015079D01*
X0233462Y0015127D01*
X0233380Y0015179D01*
X0233301Y0015234D01*
X0233223Y0015293D01*
X0233148Y0015354D01*
X0233076Y0015419D01*
X0233006Y0015486D01*
X0232939Y0015557D01*
X0232876Y0015630D01*
X0232815Y0015705D01*
X0232757Y0015783D01*
X0232703Y0015864D01*
X0232652Y0015946D01*
X0232604Y0016031D01*
X0232560Y0016117D01*
X0232519Y0016205D01*
X0232483Y0016295D01*
X0232449Y0016386D01*
X0232420Y0016478D01*
X0232394Y0016572D01*
X0232373Y0016666D01*
X0232355Y0016762D01*
X0232341Y0016858D01*
X0232331Y0016954D01*
X0232325Y0017051D01*
X0232323Y0017148D01*
X0241713Y0025770D02*
X0241715Y0025917D01*
X0241721Y0026063D01*
X0241731Y0026209D01*
X0241745Y0026355D01*
X0241763Y0026501D01*
X0241784Y0026646D01*
X0241810Y0026790D01*
X0241840Y0026934D01*
X0241873Y0027076D01*
X0241910Y0027218D01*
X0241951Y0027359D01*
X0241996Y0027498D01*
X0242045Y0027637D01*
X0242097Y0027774D01*
X0242154Y0027909D01*
X0242213Y0028043D01*
X0242277Y0028175D01*
X0242344Y0028305D01*
X0242414Y0028434D01*
X0242488Y0028561D01*
X0242565Y0028685D01*
X0242646Y0028808D01*
X0242730Y0028928D01*
X0242817Y0029046D01*
X0242907Y0029161D01*
X0243000Y0029274D01*
X0243097Y0029385D01*
X0243196Y0029493D01*
X0243298Y0029598D01*
X0243403Y0029700D01*
X0243511Y0029799D01*
X0243622Y0029896D01*
X0243735Y0029989D01*
X0243850Y0030079D01*
X0243968Y0030166D01*
X0244088Y0030250D01*
X0244211Y0030331D01*
X0244335Y0030408D01*
X0244462Y0030482D01*
X0244591Y0030552D01*
X0244721Y0030619D01*
X0244853Y0030683D01*
X0244987Y0030742D01*
X0245122Y0030799D01*
X0245259Y0030851D01*
X0245398Y0030900D01*
X0245537Y0030945D01*
X0245678Y0030986D01*
X0245820Y0031023D01*
X0245962Y0031056D01*
X0246106Y0031086D01*
X0246250Y0031112D01*
X0246395Y0031133D01*
X0246541Y0031151D01*
X0246687Y0031165D01*
X0246833Y0031175D01*
X0246979Y0031181D01*
X0247126Y0031183D01*
X0247273Y0031181D01*
X0247419Y0031175D01*
X0247565Y0031165D01*
X0247711Y0031151D01*
X0247857Y0031133D01*
X0248002Y0031112D01*
X0248146Y0031086D01*
X0248290Y0031056D01*
X0248432Y0031023D01*
X0248574Y0030986D01*
X0248715Y0030945D01*
X0248854Y0030900D01*
X0248993Y0030851D01*
X0249130Y0030799D01*
X0249265Y0030742D01*
X0249399Y0030683D01*
X0249531Y0030619D01*
X0249661Y0030552D01*
X0249790Y0030482D01*
X0249917Y0030408D01*
X0250041Y0030331D01*
X0250164Y0030250D01*
X0250284Y0030166D01*
X0250402Y0030079D01*
X0250517Y0029989D01*
X0250630Y0029896D01*
X0250741Y0029799D01*
X0250849Y0029700D01*
X0250954Y0029598D01*
X0251056Y0029493D01*
X0251155Y0029385D01*
X0251252Y0029274D01*
X0251345Y0029161D01*
X0251435Y0029046D01*
X0251522Y0028928D01*
X0251606Y0028808D01*
X0251687Y0028685D01*
X0251764Y0028561D01*
X0251838Y0028434D01*
X0251908Y0028305D01*
X0251975Y0028175D01*
X0252039Y0028043D01*
X0252098Y0027909D01*
X0252155Y0027774D01*
X0252207Y0027637D01*
X0252256Y0027498D01*
X0252301Y0027359D01*
X0252342Y0027218D01*
X0252379Y0027076D01*
X0252412Y0026934D01*
X0252442Y0026790D01*
X0252468Y0026646D01*
X0252489Y0026501D01*
X0252507Y0026355D01*
X0252521Y0026209D01*
X0252531Y0026063D01*
X0252537Y0025917D01*
X0252539Y0025770D01*
X0252537Y0025623D01*
X0252531Y0025477D01*
X0252521Y0025331D01*
X0252507Y0025185D01*
X0252489Y0025039D01*
X0252468Y0024894D01*
X0252442Y0024750D01*
X0252412Y0024606D01*
X0252379Y0024464D01*
X0252342Y0024322D01*
X0252301Y0024181D01*
X0252256Y0024042D01*
X0252207Y0023903D01*
X0252155Y0023766D01*
X0252098Y0023631D01*
X0252039Y0023497D01*
X0251975Y0023365D01*
X0251908Y0023235D01*
X0251838Y0023106D01*
X0251764Y0022979D01*
X0251687Y0022855D01*
X0251606Y0022732D01*
X0251522Y0022612D01*
X0251435Y0022494D01*
X0251345Y0022379D01*
X0251252Y0022266D01*
X0251155Y0022155D01*
X0251056Y0022047D01*
X0250954Y0021942D01*
X0250849Y0021840D01*
X0250741Y0021741D01*
X0250630Y0021644D01*
X0250517Y0021551D01*
X0250402Y0021461D01*
X0250284Y0021374D01*
X0250164Y0021290D01*
X0250041Y0021209D01*
X0249917Y0021132D01*
X0249790Y0021058D01*
X0249661Y0020988D01*
X0249531Y0020921D01*
X0249399Y0020857D01*
X0249265Y0020798D01*
X0249130Y0020741D01*
X0248993Y0020689D01*
X0248854Y0020640D01*
X0248715Y0020595D01*
X0248574Y0020554D01*
X0248432Y0020517D01*
X0248290Y0020484D01*
X0248146Y0020454D01*
X0248002Y0020428D01*
X0247857Y0020407D01*
X0247711Y0020389D01*
X0247565Y0020375D01*
X0247419Y0020365D01*
X0247273Y0020359D01*
X0247126Y0020357D01*
X0246979Y0020359D01*
X0246833Y0020365D01*
X0246687Y0020375D01*
X0246541Y0020389D01*
X0246395Y0020407D01*
X0246250Y0020428D01*
X0246106Y0020454D01*
X0245962Y0020484D01*
X0245820Y0020517D01*
X0245678Y0020554D01*
X0245537Y0020595D01*
X0245398Y0020640D01*
X0245259Y0020689D01*
X0245122Y0020741D01*
X0244987Y0020798D01*
X0244853Y0020857D01*
X0244721Y0020921D01*
X0244591Y0020988D01*
X0244462Y0021058D01*
X0244335Y0021132D01*
X0244211Y0021209D01*
X0244088Y0021290D01*
X0243968Y0021374D01*
X0243850Y0021461D01*
X0243735Y0021551D01*
X0243622Y0021644D01*
X0243511Y0021741D01*
X0243403Y0021840D01*
X0243298Y0021942D01*
X0243196Y0022047D01*
X0243097Y0022155D01*
X0243000Y0022266D01*
X0242907Y0022379D01*
X0242817Y0022494D01*
X0242730Y0022612D01*
X0242646Y0022732D01*
X0242565Y0022855D01*
X0242488Y0022979D01*
X0242414Y0023106D01*
X0242344Y0023235D01*
X0242277Y0023365D01*
X0242213Y0023497D01*
X0242154Y0023631D01*
X0242097Y0023766D01*
X0242045Y0023903D01*
X0241996Y0024042D01*
X0241951Y0024181D01*
X0241910Y0024322D01*
X0241873Y0024464D01*
X0241840Y0024606D01*
X0241810Y0024750D01*
X0241784Y0024894D01*
X0241763Y0025039D01*
X0241745Y0025185D01*
X0241731Y0025331D01*
X0241721Y0025477D01*
X0241715Y0025623D01*
X0241713Y0025770D01*
X0232323Y0026991D02*
X0232325Y0027088D01*
X0232331Y0027185D01*
X0232341Y0027281D01*
X0232355Y0027377D01*
X0232373Y0027473D01*
X0232394Y0027567D01*
X0232420Y0027661D01*
X0232449Y0027753D01*
X0232483Y0027844D01*
X0232519Y0027934D01*
X0232560Y0028022D01*
X0232604Y0028108D01*
X0232652Y0028193D01*
X0232703Y0028275D01*
X0232757Y0028356D01*
X0232815Y0028434D01*
X0232876Y0028509D01*
X0232939Y0028582D01*
X0233006Y0028653D01*
X0233076Y0028720D01*
X0233148Y0028785D01*
X0233223Y0028846D01*
X0233301Y0028905D01*
X0233380Y0028960D01*
X0233462Y0029012D01*
X0233546Y0029060D01*
X0233632Y0029105D01*
X0233720Y0029147D01*
X0233809Y0029185D01*
X0233900Y0029219D01*
X0233992Y0029249D01*
X0234085Y0029276D01*
X0234180Y0029298D01*
X0234275Y0029317D01*
X0234371Y0029332D01*
X0234467Y0029343D01*
X0234564Y0029350D01*
X0234661Y0029353D01*
X0234758Y0029352D01*
X0234855Y0029347D01*
X0234951Y0029338D01*
X0235047Y0029325D01*
X0235143Y0029308D01*
X0235238Y0029287D01*
X0235331Y0029263D01*
X0235424Y0029234D01*
X0235516Y0029202D01*
X0235606Y0029166D01*
X0235694Y0029127D01*
X0235781Y0029083D01*
X0235866Y0029037D01*
X0235949Y0028986D01*
X0236030Y0028933D01*
X0236108Y0028876D01*
X0236185Y0028816D01*
X0236258Y0028753D01*
X0236329Y0028687D01*
X0236397Y0028618D01*
X0236463Y0028546D01*
X0236525Y0028472D01*
X0236584Y0028395D01*
X0236640Y0028316D01*
X0236693Y0028234D01*
X0236743Y0028151D01*
X0236788Y0028065D01*
X0236831Y0027978D01*
X0236870Y0027889D01*
X0236905Y0027799D01*
X0236936Y0027707D01*
X0236963Y0027614D01*
X0236987Y0027520D01*
X0237007Y0027425D01*
X0237023Y0027329D01*
X0237035Y0027233D01*
X0237043Y0027136D01*
X0237047Y0027039D01*
X0237047Y0026943D01*
X0237043Y0026846D01*
X0237035Y0026749D01*
X0237023Y0026653D01*
X0237007Y0026557D01*
X0236987Y0026462D01*
X0236963Y0026368D01*
X0236936Y0026275D01*
X0236905Y0026183D01*
X0236870Y0026093D01*
X0236831Y0026004D01*
X0236788Y0025917D01*
X0236743Y0025831D01*
X0236693Y0025748D01*
X0236640Y0025666D01*
X0236584Y0025587D01*
X0236525Y0025510D01*
X0236463Y0025436D01*
X0236397Y0025364D01*
X0236329Y0025295D01*
X0236258Y0025229D01*
X0236185Y0025166D01*
X0236108Y0025106D01*
X0236030Y0025049D01*
X0235949Y0024996D01*
X0235866Y0024945D01*
X0235781Y0024899D01*
X0235694Y0024855D01*
X0235606Y0024816D01*
X0235516Y0024780D01*
X0235424Y0024748D01*
X0235331Y0024719D01*
X0235238Y0024695D01*
X0235143Y0024674D01*
X0235047Y0024657D01*
X0234951Y0024644D01*
X0234855Y0024635D01*
X0234758Y0024630D01*
X0234661Y0024629D01*
X0234564Y0024632D01*
X0234467Y0024639D01*
X0234371Y0024650D01*
X0234275Y0024665D01*
X0234180Y0024684D01*
X0234085Y0024706D01*
X0233992Y0024733D01*
X0233900Y0024763D01*
X0233809Y0024797D01*
X0233720Y0024835D01*
X0233632Y0024877D01*
X0233546Y0024922D01*
X0233462Y0024970D01*
X0233380Y0025022D01*
X0233301Y0025077D01*
X0233223Y0025136D01*
X0233148Y0025197D01*
X0233076Y0025262D01*
X0233006Y0025329D01*
X0232939Y0025400D01*
X0232876Y0025473D01*
X0232815Y0025548D01*
X0232757Y0025626D01*
X0232703Y0025707D01*
X0232652Y0025789D01*
X0232604Y0025874D01*
X0232560Y0025960D01*
X0232519Y0026048D01*
X0232483Y0026138D01*
X0232449Y0026229D01*
X0232420Y0026321D01*
X0232394Y0026415D01*
X0232373Y0026509D01*
X0232355Y0026605D01*
X0232341Y0026701D01*
X0232331Y0026797D01*
X0232325Y0026894D01*
X0232323Y0026991D01*
X0212638Y0046676D02*
X0212640Y0046773D01*
X0212646Y0046870D01*
X0212656Y0046966D01*
X0212670Y0047062D01*
X0212688Y0047158D01*
X0212709Y0047252D01*
X0212735Y0047346D01*
X0212764Y0047438D01*
X0212798Y0047529D01*
X0212834Y0047619D01*
X0212875Y0047707D01*
X0212919Y0047793D01*
X0212967Y0047878D01*
X0213018Y0047960D01*
X0213072Y0048041D01*
X0213130Y0048119D01*
X0213191Y0048194D01*
X0213254Y0048267D01*
X0213321Y0048338D01*
X0213391Y0048405D01*
X0213463Y0048470D01*
X0213538Y0048531D01*
X0213616Y0048590D01*
X0213695Y0048645D01*
X0213777Y0048697D01*
X0213861Y0048745D01*
X0213947Y0048790D01*
X0214035Y0048832D01*
X0214124Y0048870D01*
X0214215Y0048904D01*
X0214307Y0048934D01*
X0214400Y0048961D01*
X0214495Y0048983D01*
X0214590Y0049002D01*
X0214686Y0049017D01*
X0214782Y0049028D01*
X0214879Y0049035D01*
X0214976Y0049038D01*
X0215073Y0049037D01*
X0215170Y0049032D01*
X0215266Y0049023D01*
X0215362Y0049010D01*
X0215458Y0048993D01*
X0215553Y0048972D01*
X0215646Y0048948D01*
X0215739Y0048919D01*
X0215831Y0048887D01*
X0215921Y0048851D01*
X0216009Y0048812D01*
X0216096Y0048768D01*
X0216181Y0048722D01*
X0216264Y0048671D01*
X0216345Y0048618D01*
X0216423Y0048561D01*
X0216500Y0048501D01*
X0216573Y0048438D01*
X0216644Y0048372D01*
X0216712Y0048303D01*
X0216778Y0048231D01*
X0216840Y0048157D01*
X0216899Y0048080D01*
X0216955Y0048001D01*
X0217008Y0047919D01*
X0217058Y0047836D01*
X0217103Y0047750D01*
X0217146Y0047663D01*
X0217185Y0047574D01*
X0217220Y0047484D01*
X0217251Y0047392D01*
X0217278Y0047299D01*
X0217302Y0047205D01*
X0217322Y0047110D01*
X0217338Y0047014D01*
X0217350Y0046918D01*
X0217358Y0046821D01*
X0217362Y0046724D01*
X0217362Y0046628D01*
X0217358Y0046531D01*
X0217350Y0046434D01*
X0217338Y0046338D01*
X0217322Y0046242D01*
X0217302Y0046147D01*
X0217278Y0046053D01*
X0217251Y0045960D01*
X0217220Y0045868D01*
X0217185Y0045778D01*
X0217146Y0045689D01*
X0217103Y0045602D01*
X0217058Y0045516D01*
X0217008Y0045433D01*
X0216955Y0045351D01*
X0216899Y0045272D01*
X0216840Y0045195D01*
X0216778Y0045121D01*
X0216712Y0045049D01*
X0216644Y0044980D01*
X0216573Y0044914D01*
X0216500Y0044851D01*
X0216423Y0044791D01*
X0216345Y0044734D01*
X0216264Y0044681D01*
X0216181Y0044630D01*
X0216096Y0044584D01*
X0216009Y0044540D01*
X0215921Y0044501D01*
X0215831Y0044465D01*
X0215739Y0044433D01*
X0215646Y0044404D01*
X0215553Y0044380D01*
X0215458Y0044359D01*
X0215362Y0044342D01*
X0215266Y0044329D01*
X0215170Y0044320D01*
X0215073Y0044315D01*
X0214976Y0044314D01*
X0214879Y0044317D01*
X0214782Y0044324D01*
X0214686Y0044335D01*
X0214590Y0044350D01*
X0214495Y0044369D01*
X0214400Y0044391D01*
X0214307Y0044418D01*
X0214215Y0044448D01*
X0214124Y0044482D01*
X0214035Y0044520D01*
X0213947Y0044562D01*
X0213861Y0044607D01*
X0213777Y0044655D01*
X0213695Y0044707D01*
X0213616Y0044762D01*
X0213538Y0044821D01*
X0213463Y0044882D01*
X0213391Y0044947D01*
X0213321Y0045014D01*
X0213254Y0045085D01*
X0213191Y0045158D01*
X0213130Y0045233D01*
X0213072Y0045311D01*
X0213018Y0045392D01*
X0212967Y0045474D01*
X0212919Y0045559D01*
X0212875Y0045645D01*
X0212834Y0045733D01*
X0212798Y0045823D01*
X0212764Y0045914D01*
X0212735Y0046006D01*
X0212709Y0046100D01*
X0212688Y0046194D01*
X0212670Y0046290D01*
X0212656Y0046386D01*
X0212646Y0046482D01*
X0212640Y0046579D01*
X0212638Y0046676D01*
X0241713Y0116321D02*
X0241715Y0116468D01*
X0241721Y0116614D01*
X0241731Y0116760D01*
X0241745Y0116906D01*
X0241763Y0117052D01*
X0241784Y0117197D01*
X0241810Y0117341D01*
X0241840Y0117485D01*
X0241873Y0117627D01*
X0241910Y0117769D01*
X0241951Y0117910D01*
X0241996Y0118049D01*
X0242045Y0118188D01*
X0242097Y0118325D01*
X0242154Y0118460D01*
X0242213Y0118594D01*
X0242277Y0118726D01*
X0242344Y0118856D01*
X0242414Y0118985D01*
X0242488Y0119112D01*
X0242565Y0119236D01*
X0242646Y0119359D01*
X0242730Y0119479D01*
X0242817Y0119597D01*
X0242907Y0119712D01*
X0243000Y0119825D01*
X0243097Y0119936D01*
X0243196Y0120044D01*
X0243298Y0120149D01*
X0243403Y0120251D01*
X0243511Y0120350D01*
X0243622Y0120447D01*
X0243735Y0120540D01*
X0243850Y0120630D01*
X0243968Y0120717D01*
X0244088Y0120801D01*
X0244211Y0120882D01*
X0244335Y0120959D01*
X0244462Y0121033D01*
X0244591Y0121103D01*
X0244721Y0121170D01*
X0244853Y0121234D01*
X0244987Y0121293D01*
X0245122Y0121350D01*
X0245259Y0121402D01*
X0245398Y0121451D01*
X0245537Y0121496D01*
X0245678Y0121537D01*
X0245820Y0121574D01*
X0245962Y0121607D01*
X0246106Y0121637D01*
X0246250Y0121663D01*
X0246395Y0121684D01*
X0246541Y0121702D01*
X0246687Y0121716D01*
X0246833Y0121726D01*
X0246979Y0121732D01*
X0247126Y0121734D01*
X0247273Y0121732D01*
X0247419Y0121726D01*
X0247565Y0121716D01*
X0247711Y0121702D01*
X0247857Y0121684D01*
X0248002Y0121663D01*
X0248146Y0121637D01*
X0248290Y0121607D01*
X0248432Y0121574D01*
X0248574Y0121537D01*
X0248715Y0121496D01*
X0248854Y0121451D01*
X0248993Y0121402D01*
X0249130Y0121350D01*
X0249265Y0121293D01*
X0249399Y0121234D01*
X0249531Y0121170D01*
X0249661Y0121103D01*
X0249790Y0121033D01*
X0249917Y0120959D01*
X0250041Y0120882D01*
X0250164Y0120801D01*
X0250284Y0120717D01*
X0250402Y0120630D01*
X0250517Y0120540D01*
X0250630Y0120447D01*
X0250741Y0120350D01*
X0250849Y0120251D01*
X0250954Y0120149D01*
X0251056Y0120044D01*
X0251155Y0119936D01*
X0251252Y0119825D01*
X0251345Y0119712D01*
X0251435Y0119597D01*
X0251522Y0119479D01*
X0251606Y0119359D01*
X0251687Y0119236D01*
X0251764Y0119112D01*
X0251838Y0118985D01*
X0251908Y0118856D01*
X0251975Y0118726D01*
X0252039Y0118594D01*
X0252098Y0118460D01*
X0252155Y0118325D01*
X0252207Y0118188D01*
X0252256Y0118049D01*
X0252301Y0117910D01*
X0252342Y0117769D01*
X0252379Y0117627D01*
X0252412Y0117485D01*
X0252442Y0117341D01*
X0252468Y0117197D01*
X0252489Y0117052D01*
X0252507Y0116906D01*
X0252521Y0116760D01*
X0252531Y0116614D01*
X0252537Y0116468D01*
X0252539Y0116321D01*
X0252537Y0116174D01*
X0252531Y0116028D01*
X0252521Y0115882D01*
X0252507Y0115736D01*
X0252489Y0115590D01*
X0252468Y0115445D01*
X0252442Y0115301D01*
X0252412Y0115157D01*
X0252379Y0115015D01*
X0252342Y0114873D01*
X0252301Y0114732D01*
X0252256Y0114593D01*
X0252207Y0114454D01*
X0252155Y0114317D01*
X0252098Y0114182D01*
X0252039Y0114048D01*
X0251975Y0113916D01*
X0251908Y0113786D01*
X0251838Y0113657D01*
X0251764Y0113530D01*
X0251687Y0113406D01*
X0251606Y0113283D01*
X0251522Y0113163D01*
X0251435Y0113045D01*
X0251345Y0112930D01*
X0251252Y0112817D01*
X0251155Y0112706D01*
X0251056Y0112598D01*
X0250954Y0112493D01*
X0250849Y0112391D01*
X0250741Y0112292D01*
X0250630Y0112195D01*
X0250517Y0112102D01*
X0250402Y0112012D01*
X0250284Y0111925D01*
X0250164Y0111841D01*
X0250041Y0111760D01*
X0249917Y0111683D01*
X0249790Y0111609D01*
X0249661Y0111539D01*
X0249531Y0111472D01*
X0249399Y0111408D01*
X0249265Y0111349D01*
X0249130Y0111292D01*
X0248993Y0111240D01*
X0248854Y0111191D01*
X0248715Y0111146D01*
X0248574Y0111105D01*
X0248432Y0111068D01*
X0248290Y0111035D01*
X0248146Y0111005D01*
X0248002Y0110979D01*
X0247857Y0110958D01*
X0247711Y0110940D01*
X0247565Y0110926D01*
X0247419Y0110916D01*
X0247273Y0110910D01*
X0247126Y0110908D01*
X0246979Y0110910D01*
X0246833Y0110916D01*
X0246687Y0110926D01*
X0246541Y0110940D01*
X0246395Y0110958D01*
X0246250Y0110979D01*
X0246106Y0111005D01*
X0245962Y0111035D01*
X0245820Y0111068D01*
X0245678Y0111105D01*
X0245537Y0111146D01*
X0245398Y0111191D01*
X0245259Y0111240D01*
X0245122Y0111292D01*
X0244987Y0111349D01*
X0244853Y0111408D01*
X0244721Y0111472D01*
X0244591Y0111539D01*
X0244462Y0111609D01*
X0244335Y0111683D01*
X0244211Y0111760D01*
X0244088Y0111841D01*
X0243968Y0111925D01*
X0243850Y0112012D01*
X0243735Y0112102D01*
X0243622Y0112195D01*
X0243511Y0112292D01*
X0243403Y0112391D01*
X0243298Y0112493D01*
X0243196Y0112598D01*
X0243097Y0112706D01*
X0243000Y0112817D01*
X0242907Y0112930D01*
X0242817Y0113045D01*
X0242730Y0113163D01*
X0242646Y0113283D01*
X0242565Y0113406D01*
X0242488Y0113530D01*
X0242414Y0113657D01*
X0242344Y0113786D01*
X0242277Y0113916D01*
X0242213Y0114048D01*
X0242154Y0114182D01*
X0242097Y0114317D01*
X0242045Y0114454D01*
X0241996Y0114593D01*
X0241951Y0114732D01*
X0241910Y0114873D01*
X0241873Y0115015D01*
X0241840Y0115157D01*
X0241810Y0115301D01*
X0241784Y0115445D01*
X0241763Y0115590D01*
X0241745Y0115736D01*
X0241731Y0115882D01*
X0241721Y0116028D01*
X0241715Y0116174D01*
X0241713Y0116321D01*
D12*
X0037953Y0111361D03*
D13*
X0047953Y0111361D03*
X0057953Y0111361D03*
X0067953Y0111361D03*
X0077953Y0111361D03*
X0087953Y0111361D03*
X0097953Y0111361D03*
X0107953Y0111361D03*
X0117953Y0111361D03*
X0127953Y0111361D03*
X0137953Y0111361D03*
X0147953Y0111361D03*
X0157953Y0111361D03*
X0167953Y0111361D03*
X0177953Y0111361D03*
X0187953Y0111361D03*
X0197953Y0111361D03*
X0207953Y0111361D03*
X0217953Y0111361D03*
X0227953Y0111361D03*
X0227953Y0121361D03*
X0217953Y0121361D03*
X0207953Y0121361D03*
X0197953Y0121361D03*
X0187953Y0121361D03*
X0177953Y0121361D03*
X0167953Y0121361D03*
X0157953Y0121361D03*
X0147953Y0121361D03*
X0137953Y0121361D03*
X0127953Y0121361D03*
X0117953Y0121361D03*
X0107953Y0121361D03*
X0097953Y0121361D03*
X0087953Y0121361D03*
X0077953Y0121361D03*
X0067953Y0121361D03*
X0057953Y0121361D03*
X0047953Y0121361D03*
X0037953Y0121361D03*
D14*
X0163513Y0083506D03*
X0163513Y0080947D03*
X0163513Y0078388D03*
X0163513Y0075829D03*
X0163513Y0073270D03*
X0163513Y0070711D03*
X0163513Y0068152D03*
X0163513Y0065593D03*
X0163513Y0063034D03*
X0163513Y0060475D03*
X0186487Y0060475D03*
X0186487Y0063034D03*
X0186487Y0065593D03*
X0186487Y0068152D03*
X0186487Y0070711D03*
X0186487Y0073270D03*
X0186487Y0075829D03*
X0186487Y0078388D03*
X0186487Y0080947D03*
X0186487Y0083506D03*
D15*
X0092126Y0098270D03*
X0084252Y0098270D03*
X0076378Y0098270D03*
X0068504Y0098270D03*
X0060630Y0098270D03*
X0052756Y0098270D03*
X0044882Y0098270D03*
X0037008Y0098270D03*
X0037008Y0034491D03*
X0044882Y0034491D03*
X0052756Y0034491D03*
X0060630Y0034491D03*
X0068504Y0034491D03*
X0076378Y0034491D03*
X0084252Y0034491D03*
X0092126Y0034491D03*
D16*
X0100000Y0046302D03*
X0100000Y0054176D03*
X0100000Y0062050D03*
X0100000Y0069924D03*
X0100000Y0077798D03*
X0100000Y0085672D03*
D17*
X0195315Y0046676D03*
X0205157Y0046676D03*
X0224843Y0046676D03*
X0234685Y0046676D03*
X0215000Y0026991D03*
D18*
X0198750Y0073644D03*
X0198750Y0080337D03*
X0118346Y0079491D03*
X0111654Y0079491D03*
X0111654Y0086991D03*
X0118346Y0086991D03*
X0118346Y0071991D03*
X0111654Y0071991D03*
X0111654Y0064491D03*
X0118346Y0064491D03*
X0118346Y0056991D03*
X0111654Y0056991D03*
X0111654Y0049491D03*
X0118346Y0049491D03*
D19*
X0165000Y0050337D03*
X0175000Y0050337D03*
X0185000Y0050337D03*
X0185000Y0043644D03*
X0175000Y0043644D03*
X0165000Y0043644D03*
X0161654Y0091991D03*
X0168346Y0091991D03*
X0181654Y0091991D03*
X0188346Y0091991D03*
D20*
X0197913Y0091991D03*
X0212087Y0091991D03*
X0152087Y0091991D03*
X0137913Y0091991D03*
D21*
X0137313Y0092291D02*
X0130731Y0092291D01*
X0130881Y0092141D02*
X0128900Y0094122D01*
X0126913Y0094122D01*
X0127131Y0094340D01*
X0127131Y0097141D01*
X0126982Y0097291D01*
X0146267Y0097291D01*
X0146726Y0096540D01*
X0146389Y0096540D01*
X0145569Y0095720D01*
X0145569Y0088261D01*
X0146389Y0087441D01*
X0153525Y0087441D01*
X0156844Y0084122D01*
X0156099Y0084122D01*
X0154119Y0082141D01*
X0154119Y0079340D01*
X0155843Y0077616D01*
X0154119Y0075891D01*
X0154119Y0073090D01*
X0155218Y0071991D01*
X0154119Y0070891D01*
X0154119Y0068090D01*
X0156099Y0066109D01*
X0158900Y0066109D01*
X0160163Y0067372D01*
X0160163Y0066972D01*
X0160262Y0066872D01*
X0160163Y0066773D01*
X0160163Y0064413D01*
X0160164Y0064412D01*
X0160072Y0064251D01*
X0159963Y0063845D01*
X0159963Y0063034D01*
X0163512Y0063034D01*
X0163512Y0063034D01*
X0159963Y0063034D01*
X0159963Y0062223D01*
X0160072Y0061816D01*
X0160164Y0061656D01*
X0160163Y0061655D01*
X0160163Y0059295D01*
X0160983Y0058475D01*
X0162684Y0058475D01*
X0163000Y0058159D01*
X0163000Y0053705D01*
X0162255Y0053705D01*
X0161435Y0052885D01*
X0161435Y0047789D01*
X0162155Y0047068D01*
X0161852Y0046893D01*
X0161554Y0046595D01*
X0161344Y0046230D01*
X0161235Y0045823D01*
X0161235Y0044028D01*
X0164616Y0044028D01*
X0164616Y0043260D01*
X0165384Y0043260D01*
X0165384Y0040076D01*
X0167376Y0040076D01*
X0167783Y0040185D01*
X0168148Y0040395D01*
X0168446Y0040693D01*
X0168656Y0041058D01*
X0168765Y0041465D01*
X0168765Y0043260D01*
X0165384Y0043260D01*
X0165384Y0044028D01*
X0168765Y0044028D01*
X0168765Y0045823D01*
X0168656Y0046230D01*
X0168446Y0046595D01*
X0168148Y0046893D01*
X0167845Y0047068D01*
X0168565Y0047789D01*
X0168565Y0052885D01*
X0167745Y0053705D01*
X0167000Y0053705D01*
X0167000Y0059816D01*
X0166863Y0059953D01*
X0166863Y0061655D01*
X0166861Y0061656D01*
X0166954Y0061816D01*
X0167036Y0062126D01*
X0167922Y0061241D01*
X0173328Y0061241D01*
X0173789Y0061701D01*
X0173230Y0053705D01*
X0172255Y0053705D01*
X0171435Y0052885D01*
X0171435Y0047789D01*
X0172155Y0047068D01*
X0171852Y0046893D01*
X0171554Y0046595D01*
X0171344Y0046230D01*
X0171235Y0045823D01*
X0171235Y0044028D01*
X0174616Y0044028D01*
X0174616Y0043260D01*
X0175384Y0043260D01*
X0175384Y0040076D01*
X0177376Y0040076D01*
X0177783Y0040185D01*
X0178148Y0040395D01*
X0178446Y0040693D01*
X0178656Y0041058D01*
X0178765Y0041465D01*
X0178765Y0043260D01*
X0175384Y0043260D01*
X0175384Y0044028D01*
X0178765Y0044028D01*
X0178765Y0045823D01*
X0178656Y0046230D01*
X0178446Y0046595D01*
X0178148Y0046893D01*
X0177845Y0047068D01*
X0178565Y0047789D01*
X0178565Y0052885D01*
X0177745Y0053705D01*
X0177240Y0053705D01*
X0177495Y0057359D01*
X0182561Y0057359D01*
X0183381Y0058180D01*
X0183381Y0059051D01*
X0183957Y0058475D01*
X0184487Y0058475D01*
X0184487Y0053705D01*
X0182255Y0053705D01*
X0181435Y0052885D01*
X0181435Y0047789D01*
X0182155Y0047068D01*
X0181852Y0046893D01*
X0181554Y0046595D01*
X0181344Y0046230D01*
X0181235Y0045823D01*
X0181235Y0044028D01*
X0184616Y0044028D01*
X0184616Y0043260D01*
X0185384Y0043260D01*
X0185384Y0040076D01*
X0187376Y0040076D01*
X0187783Y0040185D01*
X0188148Y0040395D01*
X0188446Y0040693D01*
X0188656Y0041058D01*
X0188765Y0041465D01*
X0188765Y0043260D01*
X0185384Y0043260D01*
X0185384Y0044028D01*
X0188765Y0044028D01*
X0188765Y0045823D01*
X0188656Y0046230D01*
X0188446Y0046595D01*
X0188148Y0046893D01*
X0187845Y0047068D01*
X0188565Y0047789D01*
X0188565Y0052885D01*
X0188487Y0052963D01*
X0188487Y0058475D01*
X0189017Y0058475D01*
X0189837Y0059295D01*
X0189837Y0061655D01*
X0189738Y0061754D01*
X0189837Y0061854D01*
X0189837Y0064214D01*
X0189738Y0064313D01*
X0189837Y0064413D01*
X0189837Y0066152D01*
X0201990Y0066152D01*
X0204447Y0068609D01*
X0207561Y0068609D01*
X0208381Y0069430D01*
X0208381Y0074552D01*
X0207561Y0075372D01*
X0202439Y0075372D01*
X0202118Y0075051D01*
X0202118Y0076389D01*
X0201647Y0076860D01*
X0201701Y0076891D01*
X0201999Y0077189D01*
X0202209Y0077554D01*
X0202318Y0077961D01*
X0202318Y0079953D01*
X0199134Y0079953D01*
X0199134Y0080721D01*
X0198366Y0080721D01*
X0198366Y0079953D01*
X0195181Y0079953D01*
X0195181Y0077961D01*
X0195291Y0077554D01*
X0195501Y0077189D01*
X0195799Y0076891D01*
X0195853Y0076860D01*
X0195814Y0076822D01*
X0194001Y0077472D01*
X0193732Y0077741D01*
X0193476Y0077741D01*
X0193328Y0077888D01*
X0190828Y0080388D01*
X0190037Y0080388D01*
X0190037Y0080947D01*
X0186488Y0080947D01*
X0186488Y0080947D01*
X0190037Y0080947D01*
X0190037Y0081306D01*
X0190340Y0081306D01*
X0191629Y0082595D01*
X0196475Y0087441D01*
X0203611Y0087441D01*
X0204431Y0088261D01*
X0204431Y0095720D01*
X0203611Y0096540D01*
X0192215Y0096540D01*
X0191395Y0095720D01*
X0191395Y0095055D01*
X0191092Y0095359D01*
X0185601Y0095359D01*
X0185130Y0094888D01*
X0185099Y0094941D01*
X0184801Y0095239D01*
X0184436Y0095450D01*
X0184030Y0095559D01*
X0182038Y0095559D01*
X0182038Y0092375D01*
X0181269Y0092375D01*
X0181269Y0091606D01*
X0182038Y0091606D01*
X0182038Y0088422D01*
X0184030Y0088422D01*
X0184436Y0088531D01*
X0184801Y0088742D01*
X0185099Y0089040D01*
X0185130Y0089093D01*
X0185601Y0088622D01*
X0187229Y0088622D01*
X0187229Y0085706D01*
X0165713Y0085706D01*
X0165713Y0088491D01*
X0165970Y0088422D01*
X0167962Y0088422D01*
X0167962Y0091606D01*
X0168731Y0091606D01*
X0168731Y0092375D01*
X0172112Y0092375D01*
X0172112Y0094170D01*
X0172003Y0094577D01*
X0171792Y0094941D01*
X0171494Y0095239D01*
X0171129Y0095450D01*
X0170722Y0095559D01*
X0168731Y0095559D01*
X0168731Y0092375D01*
X0167962Y0092375D01*
X0167962Y0095559D01*
X0165970Y0095559D01*
X0165564Y0095450D01*
X0165199Y0095239D01*
X0164901Y0094941D01*
X0164870Y0094888D01*
X0164399Y0095359D01*
X0158908Y0095359D01*
X0158605Y0095055D01*
X0158605Y0095720D01*
X0157785Y0096540D01*
X0154127Y0096540D01*
X0153559Y0097108D01*
X0152604Y0097504D01*
X0151569Y0097504D01*
X0151349Y0097413D01*
X0149700Y0100110D01*
X0149700Y0100402D01*
X0149240Y0100861D01*
X0149009Y0101241D01*
X0160661Y0101241D01*
X0166381Y0106961D01*
X0169775Y0106961D01*
X0172353Y0109538D01*
X0172353Y0113183D01*
X0169775Y0115761D01*
X0166130Y0115761D01*
X0163553Y0113183D01*
X0163553Y0109789D01*
X0159004Y0105241D01*
X0108892Y0105241D01*
X0108213Y0105338D01*
X0108083Y0105241D01*
X0107922Y0105241D01*
X0107436Y0104755D01*
X0096088Y0096244D01*
X0096088Y0097689D01*
X0092707Y0097689D01*
X0092707Y0098851D01*
X0096088Y0098851D01*
X0096088Y0102418D01*
X0095979Y0102825D01*
X0095768Y0103190D01*
X0095471Y0103487D01*
X0095106Y0103698D01*
X0094699Y0103807D01*
X0092707Y0103807D01*
X0092707Y0098851D01*
X0091545Y0098851D01*
X0091545Y0097689D01*
X0088164Y0097689D01*
X0088164Y0094122D01*
X0088199Y0093991D01*
X0088014Y0093991D01*
X0088014Y0102787D01*
X0087194Y0103607D01*
X0081310Y0103607D01*
X0080490Y0102787D01*
X0080490Y0093991D01*
X0080140Y0093991D01*
X0080140Y0102787D01*
X0079320Y0103607D01*
X0073436Y0103607D01*
X0072616Y0102787D01*
X0072616Y0093991D01*
X0072266Y0093991D01*
X0072266Y0102787D01*
X0071446Y0103607D01*
X0065562Y0103607D01*
X0064742Y0102787D01*
X0064742Y0093991D01*
X0064392Y0093991D01*
X0064392Y0102787D01*
X0063572Y0103607D01*
X0057688Y0103607D01*
X0056868Y0102787D01*
X0056868Y0093753D01*
X0057688Y0092933D01*
X0061864Y0092933D01*
X0061750Y0092819D01*
X0050756Y0081825D01*
X0050756Y0039828D01*
X0049814Y0039828D01*
X0048994Y0039007D01*
X0048994Y0029974D01*
X0049814Y0029154D01*
X0055698Y0029154D01*
X0056518Y0029974D01*
X0056518Y0039007D01*
X0055698Y0039828D01*
X0054756Y0039828D01*
X0054756Y0080168D01*
X0064578Y0089991D01*
X0092176Y0089991D01*
X0081535Y0080237D01*
X0081400Y0080372D01*
X0078599Y0080372D01*
X0076619Y0078391D01*
X0076619Y0075590D01*
X0078599Y0073609D01*
X0081400Y0073609D01*
X0083381Y0075590D01*
X0083381Y0075960D01*
X0094663Y0086301D01*
X0094663Y0082730D01*
X0095483Y0081909D01*
X0104517Y0081909D01*
X0105337Y0082730D01*
X0105337Y0084991D01*
X0108285Y0084991D01*
X0108285Y0084245D01*
X0109105Y0083425D01*
X0114202Y0083425D01*
X0115000Y0084223D01*
X0115798Y0083425D01*
X0118606Y0083425D01*
X0118237Y0083056D01*
X0115798Y0083056D01*
X0115000Y0082258D01*
X0114202Y0083056D01*
X0109105Y0083056D01*
X0108285Y0082236D01*
X0108285Y0081760D01*
X0105060Y0081016D01*
X0104517Y0081560D01*
X0095483Y0081560D01*
X0094663Y0080740D01*
X0094663Y0074856D01*
X0095483Y0074035D01*
X0104517Y0074035D01*
X0105337Y0074856D01*
X0105337Y0076975D01*
X0108285Y0077655D01*
X0108285Y0076745D01*
X0109105Y0075925D01*
X0114202Y0075925D01*
X0115000Y0076723D01*
X0115798Y0075925D01*
X0120895Y0075925D01*
X0121068Y0076098D01*
X0120797Y0075556D01*
X0115798Y0075556D01*
X0115000Y0074758D01*
X0114202Y0075556D01*
X0109105Y0075556D01*
X0108285Y0074736D01*
X0108285Y0073289D01*
X0105337Y0072632D01*
X0105337Y0072866D01*
X0104517Y0073686D01*
X0095483Y0073686D01*
X0094663Y0072866D01*
X0094663Y0066982D01*
X0095483Y0066161D01*
X0104517Y0066161D01*
X0105337Y0066982D01*
X0105337Y0068534D01*
X0108329Y0069201D01*
X0109105Y0068425D01*
X0114202Y0068425D01*
X0115000Y0069223D01*
X0115798Y0068425D01*
X0119453Y0068425D01*
X0119083Y0068056D01*
X0115798Y0068056D01*
X0115000Y0067258D01*
X0114202Y0068056D01*
X0109105Y0068056D01*
X0108285Y0067236D01*
X0108285Y0065882D01*
X0105128Y0065201D01*
X0104517Y0065812D01*
X0095483Y0065812D01*
X0094663Y0064992D01*
X0094663Y0059107D01*
X0095483Y0058287D01*
X0104517Y0058287D01*
X0105337Y0059107D01*
X0105337Y0061154D01*
X0108285Y0061790D01*
X0108285Y0061745D01*
X0109105Y0060925D01*
X0114202Y0060925D01*
X0115000Y0061723D01*
X0115798Y0060925D01*
X0119856Y0060925D01*
X0119487Y0060556D01*
X0115798Y0060556D01*
X0115000Y0059758D01*
X0114202Y0060556D01*
X0109105Y0060556D01*
X0108285Y0059736D01*
X0108285Y0058296D01*
X0104904Y0057550D01*
X0104517Y0057938D01*
X0095483Y0057938D01*
X0094663Y0057118D01*
X0094663Y0051233D01*
X0095483Y0050413D01*
X0104517Y0050413D01*
X0105337Y0051233D01*
X0105337Y0053550D01*
X0108322Y0054208D01*
X0109105Y0053425D01*
X0114202Y0053425D01*
X0115000Y0054223D01*
X0115798Y0053425D01*
X0120895Y0053425D01*
X0121715Y0054245D01*
X0121715Y0057127D01*
X0130697Y0066109D01*
X0133000Y0066109D01*
X0133000Y0062819D01*
X0121715Y0051534D01*
X0121715Y0052236D01*
X0120895Y0053056D01*
X0115798Y0053056D01*
X0115000Y0052258D01*
X0114202Y0053056D01*
X0109105Y0053056D01*
X0108285Y0052236D01*
X0108285Y0050242D01*
X0105071Y0049509D01*
X0104517Y0050064D01*
X0095483Y0050064D01*
X0094663Y0049244D01*
X0094663Y0044636D01*
X0081926Y0057373D01*
X0081880Y0057392D01*
X0081400Y0057872D01*
X0080722Y0057872D01*
X0080676Y0057891D01*
X0079324Y0057891D01*
X0079278Y0057872D01*
X0078599Y0057872D01*
X0078120Y0057392D01*
X0078074Y0057373D01*
X0077118Y0056416D01*
X0077099Y0056371D01*
X0076619Y0055891D01*
X0076619Y0055212D01*
X0076600Y0055167D01*
X0076600Y0053814D01*
X0076619Y0053769D01*
X0076619Y0053090D01*
X0077099Y0052610D01*
X0077118Y0052565D01*
X0088726Y0040956D01*
X0088726Y0039370D01*
X0088364Y0039007D01*
X0088364Y0029974D01*
X0089184Y0029154D01*
X0095068Y0029154D01*
X0095888Y0029974D01*
X0095888Y0039007D01*
X0095526Y0039370D01*
X0095526Y0042539D01*
X0104517Y0042539D01*
X0105337Y0043359D01*
X0105337Y0045467D01*
X0108779Y0046252D01*
X0109105Y0045925D01*
X0114202Y0045925D01*
X0115000Y0046723D01*
X0115798Y0045925D01*
X0120895Y0045925D01*
X0121715Y0046745D01*
X0121715Y0047491D01*
X0123328Y0047491D01*
X0135828Y0059991D01*
X0137000Y0061162D01*
X0137000Y0082819D01*
X0132576Y0087243D01*
X0132585Y0087241D01*
X0137313Y0087241D01*
X0137313Y0091391D01*
X0131195Y0091391D01*
X0131195Y0089874D01*
X0130881Y0090188D01*
X0130881Y0092141D01*
X0131195Y0092591D02*
X0137313Y0092591D01*
X0137313Y0096740D01*
X0132585Y0096740D01*
X0132178Y0096631D01*
X0131813Y0096420D01*
X0131515Y0096123D01*
X0131304Y0095758D01*
X0131195Y0095351D01*
X0131195Y0092591D01*
X0131195Y0093489D02*
X0129533Y0093489D01*
X0131195Y0094688D02*
X0127131Y0094688D01*
X0127131Y0095886D02*
X0131379Y0095886D01*
X0127131Y0097085D02*
X0146392Y0097085D01*
X0145735Y0095886D02*
X0144448Y0095886D01*
X0144522Y0095758D02*
X0144312Y0096123D01*
X0144014Y0096420D01*
X0143649Y0096631D01*
X0143242Y0096740D01*
X0138513Y0096740D01*
X0138513Y0092591D01*
X0137313Y0092591D01*
X0137313Y0091391D01*
X0138513Y0091391D01*
X0138513Y0092591D01*
X0144631Y0092591D01*
X0144631Y0095351D01*
X0144522Y0095758D01*
X0144631Y0094688D02*
X0145569Y0094688D01*
X0145569Y0093489D02*
X0144631Y0093489D01*
X0145569Y0092291D02*
X0138513Y0092291D01*
X0138513Y0091391D02*
X0144631Y0091391D01*
X0144631Y0088630D01*
X0144522Y0088223D01*
X0144312Y0087859D01*
X0144014Y0087561D01*
X0143649Y0087350D01*
X0143242Y0087241D01*
X0138513Y0087241D01*
X0138513Y0091391D01*
X0138513Y0091092D02*
X0137313Y0091092D01*
X0137313Y0089894D02*
X0138513Y0089894D01*
X0138513Y0088695D02*
X0137313Y0088695D01*
X0137313Y0087497D02*
X0138513Y0087497D01*
X0134719Y0085100D02*
X0155866Y0085100D01*
X0155879Y0083901D02*
X0135918Y0083901D01*
X0137000Y0082703D02*
X0154681Y0082703D01*
X0154119Y0081504D02*
X0137000Y0081504D01*
X0137000Y0080306D02*
X0154119Y0080306D01*
X0154352Y0079107D02*
X0137000Y0079107D01*
X0137000Y0077909D02*
X0155550Y0077909D01*
X0154938Y0076710D02*
X0137000Y0076710D01*
X0137000Y0075512D02*
X0154119Y0075512D01*
X0154119Y0074313D02*
X0137000Y0074313D01*
X0137000Y0073115D02*
X0154119Y0073115D01*
X0155144Y0071916D02*
X0137000Y0071916D01*
X0137000Y0070718D02*
X0154119Y0070718D01*
X0154119Y0069519D02*
X0137000Y0069519D01*
X0137000Y0068321D02*
X0154119Y0068321D01*
X0155087Y0067122D02*
X0137000Y0067122D01*
X0137000Y0065924D02*
X0160163Y0065924D01*
X0160163Y0067122D02*
X0159913Y0067122D01*
X0157500Y0069491D02*
X0158750Y0070770D01*
X0161250Y0073270D01*
X0163513Y0073270D01*
X0166863Y0073115D02*
X0167869Y0073115D01*
X0167869Y0073391D02*
X0167869Y0072711D01*
X0166863Y0072711D01*
X0166863Y0074450D01*
X0166763Y0074550D01*
X0166863Y0074649D01*
X0166863Y0077009D01*
X0166861Y0077010D01*
X0166954Y0077171D01*
X0167063Y0077578D01*
X0167063Y0078388D01*
X0163513Y0078388D01*
X0163513Y0078388D01*
X0167063Y0078388D01*
X0167063Y0079199D01*
X0166954Y0079606D01*
X0166861Y0079766D01*
X0166863Y0079767D01*
X0166863Y0081306D01*
X0179250Y0081306D01*
X0179250Y0077819D01*
X0174631Y0073200D01*
X0174631Y0073391D01*
X0172650Y0075372D01*
X0169849Y0075372D01*
X0167869Y0073391D01*
X0168791Y0074313D02*
X0166863Y0074313D01*
X0166863Y0075512D02*
X0176943Y0075512D01*
X0178141Y0076710D02*
X0166863Y0076710D01*
X0167063Y0077909D02*
X0179250Y0077909D01*
X0179250Y0079107D02*
X0167063Y0079107D01*
X0166863Y0080306D02*
X0179250Y0080306D01*
X0181250Y0083506D02*
X0181250Y0076991D01*
X0173750Y0069491D01*
X0173750Y0064491D01*
X0172500Y0063241D01*
X0168750Y0063241D01*
X0166398Y0065593D01*
X0163513Y0065593D01*
X0160163Y0064725D02*
X0137000Y0064725D01*
X0137000Y0063527D02*
X0159963Y0063527D01*
X0159963Y0062328D02*
X0137000Y0062328D01*
X0136967Y0061130D02*
X0160163Y0061130D01*
X0160163Y0059931D02*
X0135769Y0059931D01*
X0134570Y0058732D02*
X0160725Y0058732D01*
X0163000Y0057534D02*
X0133372Y0057534D01*
X0132173Y0056335D02*
X0163000Y0056335D01*
X0163000Y0055137D02*
X0130975Y0055137D01*
X0129776Y0053938D02*
X0163000Y0053938D01*
X0161435Y0052740D02*
X0128578Y0052740D01*
X0127379Y0051541D02*
X0161435Y0051541D01*
X0161435Y0050343D02*
X0126181Y0050343D01*
X0124982Y0049144D02*
X0161435Y0049144D01*
X0161435Y0047946D02*
X0123784Y0047946D01*
X0122500Y0049491D02*
X0135000Y0061991D01*
X0135000Y0081991D01*
X0130000Y0086991D01*
X0130000Y0088241D01*
X0127500Y0090741D01*
X0130881Y0091092D02*
X0131195Y0091092D01*
X0131175Y0089894D02*
X0131195Y0089894D01*
X0133521Y0086298D02*
X0154668Y0086298D01*
X0146333Y0087497D02*
X0143903Y0087497D01*
X0144631Y0088695D02*
X0145569Y0088695D01*
X0145569Y0089894D02*
X0144631Y0089894D01*
X0144631Y0091092D02*
X0145569Y0091092D01*
X0138513Y0093489D02*
X0137313Y0093489D01*
X0137313Y0094688D02*
X0138513Y0094688D01*
X0138513Y0095886D02*
X0137313Y0095886D01*
X0149421Y0100680D02*
X0187869Y0100680D01*
X0187869Y0099482D02*
X0150084Y0099482D01*
X0150817Y0098283D02*
X0256056Y0098283D01*
X0256056Y0097085D02*
X0153583Y0097085D01*
X0158438Y0095886D02*
X0191562Y0095886D01*
X0193811Y0098609D02*
X0188689Y0098609D01*
X0187869Y0099430D01*
X0187869Y0104552D01*
X0188689Y0105372D01*
X0193811Y0105372D01*
X0194631Y0104552D01*
X0194631Y0103991D01*
X0207754Y0103991D01*
X0213553Y0109789D01*
X0213553Y0113183D01*
X0216130Y0115761D01*
X0219775Y0115761D01*
X0222353Y0113183D01*
X0222353Y0109538D01*
X0219775Y0106961D01*
X0216381Y0106961D01*
X0209411Y0099991D01*
X0194631Y0099991D01*
X0194631Y0099430D01*
X0193811Y0098609D01*
X0194631Y0099482D02*
X0256056Y0099482D01*
X0256056Y0100680D02*
X0210101Y0100680D01*
X0211299Y0101879D02*
X0256056Y0101879D01*
X0256056Y0103077D02*
X0212498Y0103077D01*
X0213696Y0104276D02*
X0256056Y0104276D01*
X0256056Y0105474D02*
X0214895Y0105474D01*
X0216093Y0106673D02*
X0244253Y0106673D01*
X0245134Y0106308D02*
X0241454Y0107832D01*
X0238637Y0110649D01*
X0237113Y0114329D01*
X0237113Y0118313D01*
X0238637Y0121993D01*
X0241454Y0124810D01*
X0242518Y0125251D01*
X0230285Y0125251D01*
X0232353Y0123183D01*
X0232353Y0119538D01*
X0229775Y0116961D01*
X0226130Y0116961D01*
X0223553Y0119538D01*
X0223553Y0123183D01*
X0225620Y0125251D01*
X0220285Y0125251D01*
X0222353Y0123183D01*
X0222353Y0119538D01*
X0219775Y0116961D01*
X0216130Y0116961D01*
X0213553Y0119538D01*
X0213553Y0123183D01*
X0215620Y0125251D01*
X0210285Y0125251D01*
X0212353Y0123183D01*
X0212353Y0119538D01*
X0209775Y0116961D01*
X0206130Y0116961D01*
X0203553Y0119538D01*
X0203553Y0123183D01*
X0205620Y0125251D01*
X0200568Y0125251D01*
X0202553Y0123266D01*
X0202553Y0121761D01*
X0198353Y0121761D01*
X0198353Y0120961D01*
X0202553Y0120961D01*
X0202553Y0119455D01*
X0199858Y0116761D01*
X0198353Y0116761D01*
X0198353Y0120961D01*
X0197553Y0120961D01*
X0193353Y0120961D01*
X0193353Y0119455D01*
X0196047Y0116761D01*
X0197553Y0116761D01*
X0197553Y0120961D01*
X0197553Y0121761D01*
X0193353Y0121761D01*
X0193353Y0123266D01*
X0195338Y0125251D01*
X0190285Y0125251D01*
X0192353Y0123183D01*
X0192353Y0119538D01*
X0189775Y0116961D01*
X0186130Y0116961D01*
X0183553Y0119538D01*
X0183553Y0123183D01*
X0185620Y0125251D01*
X0180568Y0125251D01*
X0182553Y0123266D01*
X0182553Y0121761D01*
X0178353Y0121761D01*
X0178353Y0120961D01*
X0182553Y0120961D01*
X0182553Y0119455D01*
X0179858Y0116761D01*
X0178353Y0116761D01*
X0178353Y0120961D01*
X0177553Y0120961D01*
X0173353Y0120961D01*
X0173353Y0119455D01*
X0176047Y0116761D01*
X0177553Y0116761D01*
X0177553Y0120961D01*
X0177553Y0121761D01*
X0173353Y0121761D01*
X0173353Y0123266D01*
X0175338Y0125251D01*
X0170285Y0125251D01*
X0172353Y0123183D01*
X0172353Y0119538D01*
X0169775Y0116961D01*
X0166130Y0116961D01*
X0163553Y0119538D01*
X0163553Y0123183D01*
X0165620Y0125251D01*
X0160285Y0125251D01*
X0162353Y0123183D01*
X0162353Y0119538D01*
X0159775Y0116961D01*
X0156130Y0116961D01*
X0153553Y0119538D01*
X0153553Y0123183D01*
X0155620Y0125251D01*
X0150285Y0125251D01*
X0152353Y0123183D01*
X0152353Y0119538D01*
X0149775Y0116961D01*
X0146130Y0116961D01*
X0143553Y0119538D01*
X0143553Y0123183D01*
X0145620Y0125251D01*
X0140285Y0125251D01*
X0142353Y0123183D01*
X0142353Y0119538D01*
X0139775Y0116961D01*
X0136130Y0116961D01*
X0133553Y0119538D01*
X0133553Y0123183D01*
X0135620Y0125251D01*
X0130568Y0125251D01*
X0132553Y0123266D01*
X0132553Y0121761D01*
X0128353Y0121761D01*
X0128353Y0120961D01*
X0132553Y0120961D01*
X0132553Y0119455D01*
X0129858Y0116761D01*
X0128353Y0116761D01*
X0128353Y0120961D01*
X0127553Y0120961D01*
X0123353Y0120961D01*
X0123353Y0119455D01*
X0126047Y0116761D01*
X0127553Y0116761D01*
X0127553Y0120961D01*
X0127553Y0121761D01*
X0123353Y0121761D01*
X0123353Y0123266D01*
X0125338Y0125251D01*
X0120285Y0125251D01*
X0122353Y0123183D01*
X0122353Y0119538D01*
X0119775Y0116961D01*
X0116130Y0116961D01*
X0113553Y0119538D01*
X0113553Y0123183D01*
X0115620Y0125251D01*
X0110285Y0125251D01*
X0112353Y0123183D01*
X0112353Y0119538D01*
X0109775Y0116961D01*
X0106130Y0116961D01*
X0103553Y0119538D01*
X0103553Y0123183D01*
X0105620Y0125251D01*
X0100568Y0125251D01*
X0102553Y0123266D01*
X0102553Y0121761D01*
X0098353Y0121761D01*
X0098353Y0120961D01*
X0102553Y0120961D01*
X0102553Y0119455D01*
X0099858Y0116761D01*
X0098353Y0116761D01*
X0098353Y0120961D01*
X0097553Y0120961D01*
X0093353Y0120961D01*
X0093353Y0119455D01*
X0096047Y0116761D01*
X0097553Y0116761D01*
X0097553Y0120961D01*
X0097553Y0121761D01*
X0093353Y0121761D01*
X0093353Y0123266D01*
X0095338Y0125251D01*
X0090285Y0125251D01*
X0092353Y0123183D01*
X0092353Y0119538D01*
X0089775Y0116961D01*
X0086130Y0116961D01*
X0083553Y0119538D01*
X0083553Y0123183D01*
X0085620Y0125251D01*
X0080285Y0125251D01*
X0082353Y0123183D01*
X0082353Y0119538D01*
X0079775Y0116961D01*
X0076130Y0116961D01*
X0073553Y0119538D01*
X0073553Y0123183D01*
X0075620Y0125251D01*
X0070285Y0125251D01*
X0072353Y0123183D01*
X0072353Y0119538D01*
X0069775Y0116961D01*
X0066130Y0116961D01*
X0063553Y0119538D01*
X0063553Y0123183D01*
X0065620Y0125251D01*
X0060568Y0125251D01*
X0062553Y0123266D01*
X0062553Y0121761D01*
X0058353Y0121761D01*
X0058353Y0120961D01*
X0062553Y0120961D01*
X0062553Y0119455D01*
X0059858Y0116761D01*
X0058353Y0116761D01*
X0058353Y0120961D01*
X0057553Y0120961D01*
X0053353Y0120961D01*
X0053353Y0119455D01*
X0056047Y0116761D01*
X0057553Y0116761D01*
X0057553Y0120961D01*
X0057553Y0121761D01*
X0053353Y0121761D01*
X0053353Y0123266D01*
X0055338Y0125251D01*
X0050285Y0125251D01*
X0052353Y0123183D01*
X0052353Y0119538D01*
X0049775Y0116961D01*
X0046130Y0116961D01*
X0043553Y0119538D01*
X0043553Y0123183D01*
X0045620Y0125251D01*
X0040285Y0125251D01*
X0042353Y0123183D01*
X0042353Y0119538D01*
X0039775Y0116961D01*
X0036130Y0116961D01*
X0035073Y0118017D01*
X0035000Y0116991D01*
X0035000Y0115761D01*
X0041533Y0115761D01*
X0042353Y0114941D01*
X0042353Y0107781D01*
X0041533Y0106961D01*
X0035000Y0106961D01*
X0035000Y0103607D01*
X0039950Y0103607D01*
X0040770Y0102787D01*
X0040770Y0093753D01*
X0039950Y0092933D01*
X0035000Y0092933D01*
X0035000Y0039828D01*
X0039950Y0039828D01*
X0040770Y0039007D01*
X0040770Y0029974D01*
X0039950Y0029154D01*
X0035000Y0029154D01*
X0035000Y0020741D01*
X0035057Y0020089D01*
X0035226Y0019458D01*
X0035502Y0018866D01*
X0035877Y0018330D01*
X0036340Y0017868D01*
X0036875Y0017493D01*
X0037467Y0017217D01*
X0038099Y0017048D01*
X0038750Y0016991D01*
X0188353Y0016991D01*
X0188353Y0018533D01*
X0189413Y0021092D01*
X0190390Y0022069D01*
X0189413Y0023047D01*
X0188353Y0025606D01*
X0188353Y0028375D01*
X0189413Y0030934D01*
X0191371Y0032893D01*
X0193930Y0033953D01*
X0196700Y0033953D01*
X0199259Y0032893D01*
X0201217Y0030934D01*
X0202277Y0028375D01*
X0202277Y0025606D01*
X0201217Y0023047D01*
X0200240Y0022069D01*
X0201217Y0021092D01*
X0202277Y0018533D01*
X0202277Y0016991D01*
X0227723Y0016991D01*
X0227723Y0018533D01*
X0228783Y0021092D01*
X0229760Y0022069D01*
X0228783Y0023047D01*
X0227723Y0025606D01*
X0227723Y0028375D01*
X0228783Y0030934D01*
X0230741Y0032893D01*
X0233300Y0033953D01*
X0236070Y0033953D01*
X0238629Y0032893D01*
X0239358Y0032163D01*
X0241454Y0034259D01*
X0245134Y0035783D01*
X0249118Y0035783D01*
X0252798Y0034259D01*
X0255615Y0031442D01*
X0256056Y0030378D01*
X0256056Y0111713D01*
X0255615Y0110649D01*
X0252798Y0107832D01*
X0249118Y0106308D01*
X0245134Y0106308D01*
X0241415Y0107871D02*
X0230969Y0107871D01*
X0229858Y0106761D02*
X0232553Y0109455D01*
X0232553Y0110961D01*
X0228353Y0110961D01*
X0228353Y0111761D01*
X0227553Y0111761D01*
X0227553Y0115961D01*
X0226047Y0115961D01*
X0223353Y0113266D01*
X0223353Y0111761D01*
X0227553Y0111761D01*
X0227553Y0110961D01*
X0223353Y0110961D01*
X0223353Y0109455D01*
X0226047Y0106761D01*
X0227553Y0106761D01*
X0227553Y0110961D01*
X0228353Y0110961D01*
X0228353Y0106761D01*
X0229858Y0106761D01*
X0228353Y0107871D02*
X0227553Y0107871D01*
X0227553Y0109070D02*
X0228353Y0109070D01*
X0228353Y0110268D02*
X0227553Y0110268D01*
X0227553Y0111467D02*
X0222353Y0111467D01*
X0222353Y0112666D02*
X0223353Y0112666D01*
X0223951Y0113864D02*
X0221672Y0113864D01*
X0220473Y0115063D02*
X0225149Y0115063D01*
X0227553Y0115063D02*
X0228353Y0115063D01*
X0228353Y0115961D02*
X0229858Y0115961D01*
X0232553Y0113266D01*
X0232553Y0111761D01*
X0228353Y0111761D01*
X0228353Y0115961D01*
X0230274Y0117460D02*
X0237113Y0117460D01*
X0237113Y0116261D02*
X0035000Y0116261D01*
X0035034Y0117460D02*
X0035631Y0117460D01*
X0040274Y0117460D02*
X0045631Y0117460D01*
X0044433Y0118658D02*
X0041473Y0118658D01*
X0042353Y0119857D02*
X0043553Y0119857D01*
X0043553Y0121055D02*
X0042353Y0121055D01*
X0042353Y0122254D02*
X0043553Y0122254D01*
X0043822Y0123452D02*
X0042084Y0123452D01*
X0040885Y0124651D02*
X0045020Y0124651D01*
X0050885Y0124651D02*
X0054737Y0124651D01*
X0053539Y0123452D02*
X0052084Y0123452D01*
X0052353Y0122254D02*
X0053353Y0122254D01*
X0052353Y0121055D02*
X0057553Y0121055D01*
X0058353Y0121055D02*
X0063553Y0121055D01*
X0063553Y0119857D02*
X0062553Y0119857D01*
X0061756Y0118658D02*
X0064433Y0118658D01*
X0065631Y0117460D02*
X0060557Y0117460D01*
X0059775Y0115761D02*
X0056130Y0115761D01*
X0053553Y0113183D01*
X0053553Y0109538D01*
X0056130Y0106961D01*
X0059775Y0106961D01*
X0062353Y0109538D01*
X0062353Y0113183D01*
X0059775Y0115761D01*
X0060473Y0115063D02*
X0065432Y0115063D01*
X0066130Y0115761D02*
X0063553Y0113183D01*
X0063553Y0109538D01*
X0066130Y0106961D01*
X0069775Y0106961D01*
X0072353Y0109538D01*
X0072353Y0113183D01*
X0069775Y0115761D01*
X0066130Y0115761D01*
X0070473Y0115063D02*
X0075149Y0115063D01*
X0076047Y0115961D02*
X0073353Y0113266D01*
X0073353Y0111761D01*
X0077553Y0111761D01*
X0077553Y0115961D01*
X0076047Y0115961D01*
X0075631Y0117460D02*
X0070274Y0117460D01*
X0071473Y0118658D02*
X0074433Y0118658D01*
X0073553Y0119857D02*
X0072353Y0119857D01*
X0072353Y0121055D02*
X0073553Y0121055D01*
X0073553Y0122254D02*
X0072353Y0122254D01*
X0072084Y0123452D02*
X0073822Y0123452D01*
X0075020Y0124651D02*
X0070885Y0124651D01*
X0065020Y0124651D02*
X0061168Y0124651D01*
X0062367Y0123452D02*
X0063822Y0123452D01*
X0063553Y0122254D02*
X0062553Y0122254D01*
X0058353Y0119857D02*
X0057553Y0119857D01*
X0057553Y0118658D02*
X0058353Y0118658D01*
X0058353Y0117460D02*
X0057553Y0117460D01*
X0055348Y0117460D02*
X0050274Y0117460D01*
X0051473Y0118658D02*
X0054150Y0118658D01*
X0053353Y0119857D02*
X0052353Y0119857D01*
X0049775Y0115761D02*
X0046130Y0115761D01*
X0043553Y0113183D01*
X0043553Y0109538D01*
X0046130Y0106961D01*
X0049775Y0106961D01*
X0052353Y0109538D01*
X0052353Y0113183D01*
X0049775Y0115761D01*
X0050473Y0115063D02*
X0055432Y0115063D01*
X0054234Y0113864D02*
X0051672Y0113864D01*
X0052353Y0112666D02*
X0053553Y0112666D01*
X0053553Y0111467D02*
X0052353Y0111467D01*
X0052353Y0110268D02*
X0053553Y0110268D01*
X0054021Y0109070D02*
X0051885Y0109070D01*
X0050686Y0107871D02*
X0055219Y0107871D01*
X0060686Y0107871D02*
X0065219Y0107871D01*
X0064021Y0109070D02*
X0061885Y0109070D01*
X0062353Y0110268D02*
X0063553Y0110268D01*
X0063553Y0111467D02*
X0062353Y0111467D01*
X0062353Y0112666D02*
X0063553Y0112666D01*
X0064234Y0113864D02*
X0061672Y0113864D01*
X0071672Y0113864D02*
X0073951Y0113864D01*
X0073353Y0112666D02*
X0072353Y0112666D01*
X0072353Y0111467D02*
X0077553Y0111467D01*
X0077553Y0111761D02*
X0077553Y0110961D01*
X0073353Y0110961D01*
X0073353Y0109455D01*
X0076047Y0106761D01*
X0077553Y0106761D01*
X0077553Y0110961D01*
X0078353Y0110961D01*
X0078353Y0111761D01*
X0077553Y0111761D01*
X0078353Y0111761D02*
X0078353Y0115961D01*
X0079858Y0115961D01*
X0082553Y0113266D01*
X0082553Y0111761D01*
X0078353Y0111761D01*
X0078353Y0111467D02*
X0083553Y0111467D01*
X0082553Y0110961D02*
X0078353Y0110961D01*
X0078353Y0106761D01*
X0079858Y0106761D01*
X0082553Y0109455D01*
X0082553Y0110961D01*
X0082553Y0110268D02*
X0083553Y0110268D01*
X0083553Y0109538D02*
X0086130Y0106961D01*
X0089775Y0106961D01*
X0092353Y0109538D01*
X0092353Y0113183D01*
X0089775Y0115761D01*
X0086130Y0115761D01*
X0083553Y0113183D01*
X0083553Y0109538D01*
X0084021Y0109070D02*
X0082167Y0109070D01*
X0080969Y0107871D02*
X0085219Y0107871D01*
X0090686Y0107871D02*
X0095219Y0107871D01*
X0096130Y0106961D02*
X0093553Y0109538D01*
X0093553Y0113183D01*
X0096130Y0115761D01*
X0099775Y0115761D01*
X0102353Y0113183D01*
X0102353Y0109538D01*
X0099775Y0106961D01*
X0096130Y0106961D01*
X0094021Y0109070D02*
X0091885Y0109070D01*
X0092353Y0110268D02*
X0093553Y0110268D01*
X0093553Y0111467D02*
X0092353Y0111467D01*
X0092353Y0112666D02*
X0093553Y0112666D01*
X0094234Y0113864D02*
X0091672Y0113864D01*
X0090473Y0115063D02*
X0095432Y0115063D01*
X0095348Y0117460D02*
X0090274Y0117460D01*
X0091473Y0118658D02*
X0094150Y0118658D01*
X0093353Y0119857D02*
X0092353Y0119857D01*
X0092353Y0121055D02*
X0097553Y0121055D01*
X0098353Y0121055D02*
X0103553Y0121055D01*
X0103553Y0119857D02*
X0102553Y0119857D01*
X0101756Y0118658D02*
X0104433Y0118658D01*
X0105631Y0117460D02*
X0100557Y0117460D01*
X0098353Y0117460D02*
X0097553Y0117460D01*
X0097553Y0118658D02*
X0098353Y0118658D01*
X0098353Y0119857D02*
X0097553Y0119857D01*
X0093353Y0122254D02*
X0092353Y0122254D01*
X0092084Y0123452D02*
X0093539Y0123452D01*
X0094737Y0124651D02*
X0090885Y0124651D01*
X0085020Y0124651D02*
X0080885Y0124651D01*
X0082084Y0123452D02*
X0083822Y0123452D01*
X0083553Y0122254D02*
X0082353Y0122254D01*
X0082353Y0121055D02*
X0083553Y0121055D01*
X0083553Y0119857D02*
X0082353Y0119857D01*
X0081473Y0118658D02*
X0084433Y0118658D01*
X0085631Y0117460D02*
X0080274Y0117460D01*
X0080756Y0115063D02*
X0085432Y0115063D01*
X0084234Y0113864D02*
X0081955Y0113864D01*
X0082553Y0112666D02*
X0083553Y0112666D01*
X0078353Y0112666D02*
X0077553Y0112666D01*
X0077553Y0113864D02*
X0078353Y0113864D01*
X0078353Y0115063D02*
X0077553Y0115063D01*
X0077553Y0110268D02*
X0078353Y0110268D01*
X0078353Y0109070D02*
X0077553Y0109070D01*
X0077553Y0107871D02*
X0078353Y0107871D01*
X0074937Y0107871D02*
X0070686Y0107871D01*
X0071885Y0109070D02*
X0073738Y0109070D01*
X0073353Y0110268D02*
X0072353Y0110268D01*
X0071976Y0103077D02*
X0072906Y0103077D01*
X0072616Y0101879D02*
X0072266Y0101879D01*
X0072266Y0100680D02*
X0072616Y0100680D01*
X0072616Y0099482D02*
X0072266Y0099482D01*
X0072266Y0098283D02*
X0072616Y0098283D01*
X0072616Y0097085D02*
X0072266Y0097085D01*
X0072266Y0095886D02*
X0072616Y0095886D01*
X0072616Y0094688D02*
X0072266Y0094688D01*
X0064742Y0094688D02*
X0064392Y0094688D01*
X0064392Y0095886D02*
X0064742Y0095886D01*
X0064742Y0097085D02*
X0064392Y0097085D01*
X0064392Y0098283D02*
X0064742Y0098283D01*
X0064742Y0099482D02*
X0064392Y0099482D01*
X0064392Y0100680D02*
X0064742Y0100680D01*
X0064742Y0101879D02*
X0064392Y0101879D01*
X0064102Y0103077D02*
X0065032Y0103077D01*
X0057158Y0103077D02*
X0056228Y0103077D01*
X0056518Y0102787D02*
X0055698Y0103607D01*
X0049814Y0103607D01*
X0048994Y0102787D01*
X0048994Y0093753D01*
X0049814Y0092933D01*
X0055698Y0092933D01*
X0056518Y0093753D01*
X0056518Y0102787D01*
X0056518Y0101879D02*
X0056868Y0101879D01*
X0056868Y0100680D02*
X0056518Y0100680D01*
X0056518Y0099482D02*
X0056868Y0099482D01*
X0056868Y0098283D02*
X0056518Y0098283D01*
X0056518Y0097085D02*
X0056868Y0097085D01*
X0056868Y0095886D02*
X0056518Y0095886D01*
X0056518Y0094688D02*
X0056868Y0094688D01*
X0057132Y0093489D02*
X0056254Y0093489D01*
X0060023Y0091092D02*
X0035000Y0091092D01*
X0035000Y0089894D02*
X0058825Y0089894D01*
X0057626Y0088695D02*
X0035000Y0088695D01*
X0035000Y0087497D02*
X0056428Y0087497D01*
X0055229Y0086298D02*
X0035000Y0086298D01*
X0035000Y0085100D02*
X0054031Y0085100D01*
X0052832Y0083901D02*
X0035000Y0083901D01*
X0035000Y0082703D02*
X0051634Y0082703D01*
X0050756Y0081504D02*
X0035000Y0081504D01*
X0035000Y0080306D02*
X0050756Y0080306D01*
X0050756Y0079107D02*
X0035000Y0079107D01*
X0035000Y0077909D02*
X0050756Y0077909D01*
X0050756Y0076710D02*
X0035000Y0076710D01*
X0035000Y0075512D02*
X0050756Y0075512D01*
X0050756Y0074313D02*
X0035000Y0074313D01*
X0035000Y0073115D02*
X0050756Y0073115D01*
X0050756Y0071916D02*
X0035000Y0071916D01*
X0035000Y0070718D02*
X0050756Y0070718D01*
X0050756Y0069519D02*
X0035000Y0069519D01*
X0035000Y0068321D02*
X0050756Y0068321D01*
X0050756Y0067122D02*
X0035000Y0067122D01*
X0035000Y0065924D02*
X0050756Y0065924D01*
X0050756Y0064725D02*
X0035000Y0064725D01*
X0035000Y0063527D02*
X0050756Y0063527D01*
X0050756Y0062328D02*
X0035000Y0062328D01*
X0035000Y0061130D02*
X0050756Y0061130D01*
X0050756Y0059931D02*
X0035000Y0059931D01*
X0035000Y0058732D02*
X0050756Y0058732D01*
X0050756Y0057534D02*
X0035000Y0057534D01*
X0035000Y0056335D02*
X0050756Y0056335D01*
X0050756Y0055137D02*
X0035000Y0055137D01*
X0035000Y0053938D02*
X0050756Y0053938D01*
X0050756Y0052740D02*
X0035000Y0052740D01*
X0035000Y0051541D02*
X0050756Y0051541D01*
X0050756Y0050343D02*
X0035000Y0050343D01*
X0035000Y0049144D02*
X0050756Y0049144D01*
X0050756Y0047946D02*
X0035000Y0047946D01*
X0035000Y0046747D02*
X0050756Y0046747D01*
X0050756Y0045549D02*
X0035000Y0045549D01*
X0035000Y0044350D02*
X0050756Y0044350D01*
X0050756Y0043152D02*
X0035000Y0043152D01*
X0035000Y0041953D02*
X0050756Y0041953D01*
X0050756Y0040755D02*
X0035000Y0040755D01*
X0040221Y0039556D02*
X0041669Y0039556D01*
X0041940Y0039828D02*
X0041120Y0039007D01*
X0041120Y0029974D01*
X0041940Y0029154D01*
X0047824Y0029154D01*
X0048644Y0029974D01*
X0048644Y0039007D01*
X0047824Y0039828D01*
X0041940Y0039828D01*
X0041120Y0038358D02*
X0040770Y0038358D01*
X0040770Y0037159D02*
X0041120Y0037159D01*
X0041120Y0035961D02*
X0040770Y0035961D01*
X0040770Y0034762D02*
X0041120Y0034762D01*
X0041120Y0033564D02*
X0040770Y0033564D01*
X0040770Y0032365D02*
X0041120Y0032365D01*
X0041120Y0031167D02*
X0040770Y0031167D01*
X0040765Y0029968D02*
X0041125Y0029968D01*
X0035000Y0028770D02*
X0188516Y0028770D01*
X0188353Y0027571D02*
X0035000Y0027571D01*
X0035000Y0026373D02*
X0188353Y0026373D01*
X0188531Y0025174D02*
X0035000Y0025174D01*
X0035000Y0023976D02*
X0189028Y0023976D01*
X0189682Y0022777D02*
X0035000Y0022777D01*
X0035000Y0021579D02*
X0189900Y0021579D01*
X0189118Y0020380D02*
X0035032Y0020380D01*
X0035355Y0019182D02*
X0188621Y0019182D01*
X0188353Y0017983D02*
X0036224Y0017983D01*
X0048639Y0029968D02*
X0048999Y0029968D01*
X0048994Y0031167D02*
X0048644Y0031167D01*
X0048644Y0032365D02*
X0048994Y0032365D01*
X0048994Y0033564D02*
X0048644Y0033564D01*
X0048644Y0034762D02*
X0048994Y0034762D01*
X0048994Y0035961D02*
X0048644Y0035961D01*
X0048644Y0037159D02*
X0048994Y0037159D01*
X0048994Y0038358D02*
X0048644Y0038358D01*
X0048095Y0039556D02*
X0049543Y0039556D01*
X0054756Y0040755D02*
X0088726Y0040755D01*
X0088726Y0039556D02*
X0087465Y0039556D01*
X0087194Y0039828D02*
X0088014Y0039007D01*
X0088014Y0029974D01*
X0087194Y0029154D01*
X0081310Y0029154D01*
X0080490Y0029974D01*
X0080490Y0039007D01*
X0081310Y0039828D01*
X0087194Y0039828D01*
X0088014Y0038358D02*
X0088364Y0038358D01*
X0088364Y0037159D02*
X0088014Y0037159D01*
X0088014Y0035961D02*
X0088364Y0035961D01*
X0088364Y0034762D02*
X0088014Y0034762D01*
X0088014Y0033564D02*
X0088364Y0033564D01*
X0088364Y0032365D02*
X0088014Y0032365D01*
X0088014Y0031167D02*
X0088364Y0031167D01*
X0088369Y0029968D02*
X0088009Y0029968D01*
X0080495Y0029968D02*
X0080135Y0029968D01*
X0080140Y0029974D02*
X0080140Y0039007D01*
X0079320Y0039828D01*
X0073436Y0039828D01*
X0072616Y0039007D01*
X0072616Y0029974D01*
X0073436Y0029154D01*
X0079320Y0029154D01*
X0080140Y0029974D01*
X0080140Y0031167D02*
X0080490Y0031167D01*
X0080490Y0032365D02*
X0080140Y0032365D01*
X0080140Y0033564D02*
X0080490Y0033564D01*
X0080490Y0034762D02*
X0080140Y0034762D01*
X0080140Y0035961D02*
X0080490Y0035961D01*
X0080490Y0037159D02*
X0080140Y0037159D01*
X0080140Y0038358D02*
X0080490Y0038358D01*
X0081039Y0039556D02*
X0079591Y0039556D01*
X0073165Y0039556D02*
X0071717Y0039556D01*
X0071446Y0039828D02*
X0072266Y0039007D01*
X0072266Y0029974D01*
X0071446Y0029154D01*
X0065562Y0029154D01*
X0064742Y0029974D01*
X0064742Y0039007D01*
X0065562Y0039828D01*
X0071446Y0039828D01*
X0072266Y0038358D02*
X0072616Y0038358D01*
X0072616Y0037159D02*
X0072266Y0037159D01*
X0072266Y0035961D02*
X0072616Y0035961D01*
X0072616Y0034762D02*
X0072266Y0034762D01*
X0072266Y0033564D02*
X0072616Y0033564D01*
X0072616Y0032365D02*
X0072266Y0032365D01*
X0072266Y0031167D02*
X0072616Y0031167D01*
X0072621Y0029968D02*
X0072261Y0029968D01*
X0064747Y0029968D02*
X0064387Y0029968D01*
X0064392Y0029974D02*
X0064392Y0039007D01*
X0063572Y0039828D01*
X0057688Y0039828D01*
X0056868Y0039007D01*
X0056868Y0029974D01*
X0057688Y0029154D01*
X0063572Y0029154D01*
X0064392Y0029974D01*
X0064392Y0031167D02*
X0064742Y0031167D01*
X0064742Y0032365D02*
X0064392Y0032365D01*
X0064392Y0033564D02*
X0064742Y0033564D01*
X0064742Y0034762D02*
X0064392Y0034762D01*
X0064392Y0035961D02*
X0064742Y0035961D01*
X0064742Y0037159D02*
X0064392Y0037159D01*
X0064392Y0038358D02*
X0064742Y0038358D01*
X0065291Y0039556D02*
X0063843Y0039556D01*
X0057417Y0039556D02*
X0055969Y0039556D01*
X0056518Y0038358D02*
X0056868Y0038358D01*
X0056868Y0037159D02*
X0056518Y0037159D01*
X0056518Y0035961D02*
X0056868Y0035961D01*
X0056868Y0034762D02*
X0056518Y0034762D01*
X0056518Y0033564D02*
X0056868Y0033564D01*
X0056868Y0032365D02*
X0056518Y0032365D01*
X0056518Y0031167D02*
X0056868Y0031167D01*
X0056873Y0029968D02*
X0056513Y0029968D01*
X0052756Y0034491D02*
X0052756Y0080996D01*
X0063750Y0091991D01*
X0093750Y0091991D01*
X0108750Y0103241D01*
X0159833Y0103241D01*
X0167953Y0111361D01*
X0172353Y0111467D02*
X0173553Y0111467D01*
X0173553Y0112666D02*
X0172353Y0112666D01*
X0173553Y0113183D02*
X0173553Y0109538D01*
X0176130Y0106961D01*
X0179775Y0106961D01*
X0182353Y0109538D01*
X0182353Y0113183D01*
X0179775Y0115761D01*
X0176130Y0115761D01*
X0173553Y0113183D01*
X0174234Y0113864D02*
X0171672Y0113864D01*
X0170473Y0115063D02*
X0175432Y0115063D01*
X0175348Y0117460D02*
X0170274Y0117460D01*
X0171473Y0118658D02*
X0174150Y0118658D01*
X0173353Y0119857D02*
X0172353Y0119857D01*
X0172353Y0121055D02*
X0177553Y0121055D01*
X0178353Y0121055D02*
X0183553Y0121055D01*
X0183553Y0119857D02*
X0182553Y0119857D01*
X0181756Y0118658D02*
X0184433Y0118658D01*
X0185631Y0117460D02*
X0180557Y0117460D01*
X0178353Y0117460D02*
X0177553Y0117460D01*
X0177553Y0118658D02*
X0178353Y0118658D01*
X0178353Y0119857D02*
X0177553Y0119857D01*
X0173353Y0122254D02*
X0172353Y0122254D01*
X0172084Y0123452D02*
X0173539Y0123452D01*
X0174737Y0124651D02*
X0170885Y0124651D01*
X0165020Y0124651D02*
X0160885Y0124651D01*
X0162084Y0123452D02*
X0163822Y0123452D01*
X0163553Y0122254D02*
X0162353Y0122254D01*
X0162353Y0121055D02*
X0163553Y0121055D01*
X0163553Y0119857D02*
X0162353Y0119857D01*
X0161473Y0118658D02*
X0164433Y0118658D01*
X0165631Y0117460D02*
X0160274Y0117460D01*
X0159858Y0115961D02*
X0158353Y0115961D01*
X0158353Y0111761D01*
X0157553Y0111761D01*
X0157553Y0115961D01*
X0156047Y0115961D01*
X0153353Y0113266D01*
X0153353Y0111761D01*
X0157553Y0111761D01*
X0157553Y0110961D01*
X0153353Y0110961D01*
X0153353Y0109455D01*
X0156047Y0106761D01*
X0157553Y0106761D01*
X0157553Y0110961D01*
X0158353Y0110961D01*
X0158353Y0111761D01*
X0162553Y0111761D01*
X0162553Y0113266D01*
X0159858Y0115961D01*
X0160756Y0115063D02*
X0165432Y0115063D01*
X0164234Y0113864D02*
X0161955Y0113864D01*
X0162553Y0112666D02*
X0163553Y0112666D01*
X0163553Y0111467D02*
X0158353Y0111467D01*
X0158353Y0110961D02*
X0162553Y0110961D01*
X0162553Y0109455D01*
X0159858Y0106761D01*
X0158353Y0106761D01*
X0158353Y0110961D01*
X0158353Y0110268D02*
X0157553Y0110268D01*
X0157553Y0109070D02*
X0158353Y0109070D01*
X0158353Y0107871D02*
X0157553Y0107871D01*
X0154937Y0107871D02*
X0150686Y0107871D01*
X0149775Y0106961D02*
X0152353Y0109538D01*
X0152353Y0113183D01*
X0149775Y0115761D01*
X0146130Y0115761D01*
X0143553Y0113183D01*
X0143553Y0109538D01*
X0146130Y0106961D01*
X0149775Y0106961D01*
X0151885Y0109070D02*
X0153738Y0109070D01*
X0153353Y0110268D02*
X0152353Y0110268D01*
X0152353Y0111467D02*
X0157553Y0111467D01*
X0157553Y0112666D02*
X0158353Y0112666D01*
X0158353Y0113864D02*
X0157553Y0113864D01*
X0157553Y0115063D02*
X0158353Y0115063D01*
X0155149Y0115063D02*
X0150473Y0115063D01*
X0151672Y0113864D02*
X0153951Y0113864D01*
X0153353Y0112666D02*
X0152353Y0112666D01*
X0145432Y0115063D02*
X0140473Y0115063D01*
X0139775Y0115761D02*
X0136130Y0115761D01*
X0133553Y0113183D01*
X0133553Y0109538D01*
X0136130Y0106961D01*
X0139775Y0106961D01*
X0142353Y0109538D01*
X0142353Y0113183D01*
X0139775Y0115761D01*
X0140274Y0117460D02*
X0145631Y0117460D01*
X0144433Y0118658D02*
X0141473Y0118658D01*
X0142353Y0119857D02*
X0143553Y0119857D01*
X0143553Y0121055D02*
X0142353Y0121055D01*
X0142353Y0122254D02*
X0143553Y0122254D01*
X0143822Y0123452D02*
X0142084Y0123452D01*
X0140885Y0124651D02*
X0145020Y0124651D01*
X0150885Y0124651D02*
X0155020Y0124651D01*
X0153822Y0123452D02*
X0152084Y0123452D01*
X0152353Y0122254D02*
X0153553Y0122254D01*
X0153553Y0121055D02*
X0152353Y0121055D01*
X0152353Y0119857D02*
X0153553Y0119857D01*
X0154433Y0118658D02*
X0151473Y0118658D01*
X0150274Y0117460D02*
X0155631Y0117460D01*
X0144234Y0113864D02*
X0141672Y0113864D01*
X0142353Y0112666D02*
X0143553Y0112666D01*
X0143553Y0111467D02*
X0142353Y0111467D01*
X0142353Y0110268D02*
X0143553Y0110268D01*
X0144021Y0109070D02*
X0141885Y0109070D01*
X0140686Y0107871D02*
X0145219Y0107871D01*
X0135219Y0107871D02*
X0130686Y0107871D01*
X0129775Y0106961D02*
X0126130Y0106961D01*
X0123553Y0109538D01*
X0123553Y0113183D01*
X0126130Y0115761D01*
X0129775Y0115761D01*
X0132353Y0113183D01*
X0132353Y0109538D01*
X0129775Y0106961D01*
X0131885Y0109070D02*
X0134021Y0109070D01*
X0133553Y0110268D02*
X0132353Y0110268D01*
X0132353Y0111467D02*
X0133553Y0111467D01*
X0133553Y0112666D02*
X0132353Y0112666D01*
X0131672Y0113864D02*
X0134234Y0113864D01*
X0135432Y0115063D02*
X0130473Y0115063D01*
X0130557Y0117460D02*
X0135631Y0117460D01*
X0134433Y0118658D02*
X0131756Y0118658D01*
X0132553Y0119857D02*
X0133553Y0119857D01*
X0133553Y0121055D02*
X0128353Y0121055D01*
X0127553Y0121055D02*
X0122353Y0121055D01*
X0122353Y0119857D02*
X0123353Y0119857D01*
X0124150Y0118658D02*
X0121473Y0118658D01*
X0120274Y0117460D02*
X0125348Y0117460D01*
X0127553Y0117460D02*
X0128353Y0117460D01*
X0128353Y0118658D02*
X0127553Y0118658D01*
X0127553Y0119857D02*
X0128353Y0119857D01*
X0132553Y0122254D02*
X0133553Y0122254D01*
X0133822Y0123452D02*
X0132367Y0123452D01*
X0131168Y0124651D02*
X0135020Y0124651D01*
X0124737Y0124651D02*
X0120885Y0124651D01*
X0122084Y0123452D02*
X0123539Y0123452D01*
X0123353Y0122254D02*
X0122353Y0122254D01*
X0115020Y0124651D02*
X0110885Y0124651D01*
X0112084Y0123452D02*
X0113822Y0123452D01*
X0113553Y0122254D02*
X0112353Y0122254D01*
X0112353Y0121055D02*
X0113553Y0121055D01*
X0113553Y0119857D02*
X0112353Y0119857D01*
X0111473Y0118658D02*
X0114433Y0118658D01*
X0115631Y0117460D02*
X0110274Y0117460D01*
X0109775Y0115761D02*
X0106130Y0115761D01*
X0103553Y0113183D01*
X0103553Y0109538D01*
X0106130Y0106961D01*
X0109775Y0106961D01*
X0112353Y0109538D01*
X0112353Y0113183D01*
X0109775Y0115761D01*
X0110473Y0115063D02*
X0115432Y0115063D01*
X0116130Y0115761D02*
X0113553Y0113183D01*
X0113553Y0109538D01*
X0116130Y0106961D01*
X0119775Y0106961D01*
X0122353Y0109538D01*
X0122353Y0113183D01*
X0119775Y0115761D01*
X0116130Y0115761D01*
X0120473Y0115063D02*
X0125432Y0115063D01*
X0124234Y0113864D02*
X0121672Y0113864D01*
X0122353Y0112666D02*
X0123553Y0112666D01*
X0123553Y0111467D02*
X0122353Y0111467D01*
X0122353Y0110268D02*
X0123553Y0110268D01*
X0124021Y0109070D02*
X0121885Y0109070D01*
X0120686Y0107871D02*
X0125219Y0107871D01*
X0115219Y0107871D02*
X0110686Y0107871D01*
X0111885Y0109070D02*
X0114021Y0109070D01*
X0113553Y0110268D02*
X0112353Y0110268D01*
X0112353Y0111467D02*
X0113553Y0111467D01*
X0113553Y0112666D02*
X0112353Y0112666D01*
X0111672Y0113864D02*
X0114234Y0113864D01*
X0105432Y0115063D02*
X0100473Y0115063D01*
X0101672Y0113864D02*
X0104234Y0113864D01*
X0103553Y0112666D02*
X0102353Y0112666D01*
X0102353Y0111467D02*
X0103553Y0111467D01*
X0103553Y0110268D02*
X0102353Y0110268D01*
X0101885Y0109070D02*
X0104021Y0109070D01*
X0105219Y0107871D02*
X0100686Y0107871D01*
X0106797Y0104276D02*
X0035000Y0104276D01*
X0035000Y0105474D02*
X0159238Y0105474D01*
X0160437Y0106673D02*
X0035000Y0106673D01*
X0040480Y0103077D02*
X0041410Y0103077D01*
X0041120Y0102787D02*
X0041120Y0093753D01*
X0041940Y0092933D01*
X0047824Y0092933D01*
X0048644Y0093753D01*
X0048644Y0102787D01*
X0047824Y0103607D01*
X0041940Y0103607D01*
X0041120Y0102787D01*
X0041120Y0101879D02*
X0040770Y0101879D01*
X0040770Y0100680D02*
X0041120Y0100680D01*
X0041120Y0099482D02*
X0040770Y0099482D01*
X0040770Y0098283D02*
X0041120Y0098283D01*
X0041120Y0097085D02*
X0040770Y0097085D01*
X0040770Y0095886D02*
X0041120Y0095886D01*
X0041120Y0094688D02*
X0040770Y0094688D01*
X0040506Y0093489D02*
X0041384Y0093489D01*
X0035000Y0092291D02*
X0061222Y0092291D01*
X0064482Y0089894D02*
X0092071Y0089894D01*
X0090763Y0088695D02*
X0063283Y0088695D01*
X0062085Y0087497D02*
X0089456Y0087497D01*
X0088148Y0086298D02*
X0060886Y0086298D01*
X0059688Y0085100D02*
X0086841Y0085100D01*
X0085533Y0083901D02*
X0058489Y0083901D01*
X0057291Y0082703D02*
X0084226Y0082703D01*
X0082918Y0081504D02*
X0056092Y0081504D01*
X0054894Y0080306D02*
X0078534Y0080306D01*
X0077335Y0079107D02*
X0054756Y0079107D01*
X0054756Y0077909D02*
X0076619Y0077909D01*
X0076619Y0076710D02*
X0054756Y0076710D01*
X0054756Y0075512D02*
X0076697Y0075512D01*
X0077896Y0074313D02*
X0054756Y0074313D01*
X0054756Y0073115D02*
X0094912Y0073115D01*
X0094663Y0071916D02*
X0054756Y0071916D01*
X0054756Y0070718D02*
X0094663Y0070718D01*
X0094663Y0069519D02*
X0054756Y0069519D01*
X0054756Y0068321D02*
X0094663Y0068321D01*
X0094663Y0067122D02*
X0054756Y0067122D01*
X0054756Y0065924D02*
X0108285Y0065924D01*
X0108285Y0067122D02*
X0105337Y0067122D01*
X0105337Y0068321D02*
X0119348Y0068321D01*
X0118346Y0071991D02*
X0121250Y0071991D01*
X0126250Y0081991D01*
X0123750Y0085741D02*
X0123750Y0095741D01*
X0118346Y0088644D02*
X0115000Y0091991D01*
X0118346Y0088644D02*
X0118346Y0086991D01*
X0123750Y0085741D02*
X0118346Y0080337D01*
X0118346Y0079491D01*
X0115445Y0082703D02*
X0114555Y0082703D01*
X0114678Y0083901D02*
X0115322Y0083901D01*
X0111654Y0079491D02*
X0110846Y0080298D01*
X0100000Y0077798D01*
X0094663Y0077909D02*
X0085507Y0077909D01*
X0084200Y0076710D02*
X0094663Y0076710D01*
X0094663Y0075512D02*
X0083303Y0075512D01*
X0082104Y0074313D02*
X0095205Y0074313D01*
X0100000Y0069924D02*
X0100433Y0069491D01*
X0111654Y0071991D01*
X0107502Y0073115D02*
X0105088Y0073115D01*
X0104795Y0074313D02*
X0108285Y0074313D01*
X0109061Y0075512D02*
X0105337Y0075512D01*
X0105337Y0076710D02*
X0108320Y0076710D01*
X0114246Y0075512D02*
X0115754Y0075512D01*
X0115013Y0076710D02*
X0114987Y0076710D01*
X0108752Y0082703D02*
X0105310Y0082703D01*
X0105337Y0083901D02*
X0108629Y0083901D01*
X0107177Y0081504D02*
X0104573Y0081504D01*
X0100000Y0085672D02*
X0101181Y0086991D01*
X0111654Y0086991D01*
X0094663Y0086298D02*
X0094660Y0086298D01*
X0094663Y0085100D02*
X0093352Y0085100D01*
X0092045Y0083901D02*
X0094663Y0083901D01*
X0094690Y0082703D02*
X0090737Y0082703D01*
X0089430Y0081504D02*
X0095427Y0081504D01*
X0094663Y0080306D02*
X0088122Y0080306D01*
X0086815Y0079107D02*
X0094663Y0079107D01*
X0081611Y0080306D02*
X0081466Y0080306D01*
X0080490Y0094688D02*
X0080140Y0094688D01*
X0080140Y0095886D02*
X0080490Y0095886D01*
X0080490Y0097085D02*
X0080140Y0097085D01*
X0080140Y0098283D02*
X0080490Y0098283D01*
X0080490Y0099482D02*
X0080140Y0099482D01*
X0080140Y0100680D02*
X0080490Y0100680D01*
X0080490Y0101879D02*
X0080140Y0101879D01*
X0079850Y0103077D02*
X0080780Y0103077D01*
X0087724Y0103077D02*
X0088419Y0103077D01*
X0088483Y0103190D02*
X0088273Y0102825D01*
X0088164Y0102418D01*
X0088164Y0098851D01*
X0091545Y0098851D01*
X0091545Y0103807D01*
X0089553Y0103807D01*
X0089146Y0103698D01*
X0088781Y0103487D01*
X0088483Y0103190D01*
X0088164Y0101879D02*
X0088014Y0101879D01*
X0088014Y0100680D02*
X0088164Y0100680D01*
X0088164Y0099482D02*
X0088014Y0099482D01*
X0088014Y0098283D02*
X0091545Y0098283D01*
X0092707Y0098283D02*
X0098807Y0098283D01*
X0097209Y0097085D02*
X0096088Y0097085D01*
X0096088Y0099482D02*
X0100405Y0099482D01*
X0102003Y0100680D02*
X0096088Y0100680D01*
X0096088Y0101879D02*
X0103601Y0101879D01*
X0105199Y0103077D02*
X0095833Y0103077D01*
X0092707Y0103077D02*
X0091545Y0103077D01*
X0091545Y0101879D02*
X0092707Y0101879D01*
X0092707Y0100680D02*
X0091545Y0100680D01*
X0091545Y0099482D02*
X0092707Y0099482D01*
X0088164Y0097085D02*
X0088014Y0097085D01*
X0088014Y0095886D02*
X0088164Y0095886D01*
X0088164Y0094688D02*
X0088014Y0094688D01*
X0049258Y0093489D02*
X0048380Y0093489D01*
X0048644Y0094688D02*
X0048994Y0094688D01*
X0048994Y0095886D02*
X0048644Y0095886D01*
X0048644Y0097085D02*
X0048994Y0097085D01*
X0048994Y0098283D02*
X0048644Y0098283D01*
X0048644Y0099482D02*
X0048994Y0099482D01*
X0048994Y0100680D02*
X0048644Y0100680D01*
X0048644Y0101879D02*
X0048994Y0101879D01*
X0049284Y0103077D02*
X0048354Y0103077D01*
X0045219Y0107871D02*
X0042353Y0107871D01*
X0042353Y0109070D02*
X0044021Y0109070D01*
X0043553Y0110268D02*
X0042353Y0110268D01*
X0042353Y0111467D02*
X0043553Y0111467D01*
X0043553Y0112666D02*
X0042353Y0112666D01*
X0042353Y0113864D02*
X0044234Y0113864D01*
X0045432Y0115063D02*
X0042231Y0115063D01*
X0101168Y0124651D02*
X0105020Y0124651D01*
X0103822Y0123452D02*
X0102367Y0123452D01*
X0102553Y0122254D02*
X0103553Y0122254D01*
X0160969Y0107871D02*
X0161635Y0107871D01*
X0162167Y0109070D02*
X0162834Y0109070D01*
X0162553Y0110268D02*
X0163553Y0110268D01*
X0166093Y0106673D02*
X0210437Y0106673D01*
X0209775Y0106961D02*
X0212353Y0109538D01*
X0212353Y0113183D01*
X0209775Y0115761D01*
X0206130Y0115761D01*
X0203553Y0113183D01*
X0203553Y0109538D01*
X0206130Y0106961D01*
X0209775Y0106961D01*
X0210686Y0107871D02*
X0211635Y0107871D01*
X0211885Y0109070D02*
X0212834Y0109070D01*
X0212353Y0110268D02*
X0213553Y0110268D01*
X0213553Y0111467D02*
X0212353Y0111467D01*
X0212353Y0112666D02*
X0213553Y0112666D01*
X0214234Y0113864D02*
X0211672Y0113864D01*
X0210473Y0115063D02*
X0215432Y0115063D01*
X0215631Y0117460D02*
X0210274Y0117460D01*
X0211473Y0118658D02*
X0214433Y0118658D01*
X0213553Y0119857D02*
X0212353Y0119857D01*
X0212353Y0121055D02*
X0213553Y0121055D01*
X0213553Y0122254D02*
X0212353Y0122254D01*
X0212084Y0123452D02*
X0213822Y0123452D01*
X0215020Y0124651D02*
X0210885Y0124651D01*
X0205020Y0124651D02*
X0201168Y0124651D01*
X0202367Y0123452D02*
X0203822Y0123452D01*
X0203553Y0122254D02*
X0202553Y0122254D01*
X0203553Y0121055D02*
X0198353Y0121055D01*
X0197553Y0121055D02*
X0192353Y0121055D01*
X0192353Y0119857D02*
X0193353Y0119857D01*
X0194150Y0118658D02*
X0191473Y0118658D01*
X0190274Y0117460D02*
X0195348Y0117460D01*
X0196130Y0115761D02*
X0193553Y0113183D01*
X0193553Y0109538D01*
X0196130Y0106961D01*
X0199775Y0106961D01*
X0202353Y0109538D01*
X0202353Y0113183D01*
X0199775Y0115761D01*
X0196130Y0115761D01*
X0195432Y0115063D02*
X0190473Y0115063D01*
X0189775Y0115761D02*
X0186130Y0115761D01*
X0183553Y0113183D01*
X0183553Y0109538D01*
X0186130Y0106961D01*
X0189775Y0106961D01*
X0192353Y0109538D01*
X0192353Y0113183D01*
X0189775Y0115761D01*
X0191672Y0113864D02*
X0194234Y0113864D01*
X0193553Y0112666D02*
X0192353Y0112666D01*
X0192353Y0111467D02*
X0193553Y0111467D01*
X0193553Y0110268D02*
X0192353Y0110268D01*
X0191885Y0109070D02*
X0194021Y0109070D01*
X0195219Y0107871D02*
X0190686Y0107871D01*
X0185219Y0107871D02*
X0180686Y0107871D01*
X0181885Y0109070D02*
X0184021Y0109070D01*
X0183553Y0110268D02*
X0182353Y0110268D01*
X0182353Y0111467D02*
X0183553Y0111467D01*
X0183553Y0112666D02*
X0182353Y0112666D01*
X0181672Y0113864D02*
X0184234Y0113864D01*
X0185432Y0115063D02*
X0180473Y0115063D01*
X0173553Y0110268D02*
X0172353Y0110268D01*
X0171885Y0109070D02*
X0174021Y0109070D01*
X0175219Y0107871D02*
X0170686Y0107871D01*
X0164895Y0105474D02*
X0209238Y0105474D01*
X0208040Y0104276D02*
X0194631Y0104276D01*
X0191250Y0101991D02*
X0208583Y0101991D01*
X0217953Y0111361D01*
X0222353Y0110268D02*
X0223353Y0110268D01*
X0223738Y0109070D02*
X0221885Y0109070D01*
X0220686Y0107871D02*
X0224937Y0107871D01*
X0228353Y0111467D02*
X0238298Y0111467D01*
X0237802Y0112666D02*
X0232553Y0112666D01*
X0231955Y0113864D02*
X0237305Y0113864D01*
X0237113Y0115063D02*
X0230756Y0115063D01*
X0228353Y0113864D02*
X0227553Y0113864D01*
X0227553Y0112666D02*
X0228353Y0112666D01*
X0232553Y0110268D02*
X0239018Y0110268D01*
X0240216Y0109070D02*
X0232167Y0109070D01*
X0225631Y0117460D02*
X0220274Y0117460D01*
X0221473Y0118658D02*
X0224433Y0118658D01*
X0223553Y0119857D02*
X0222353Y0119857D01*
X0222353Y0121055D02*
X0223553Y0121055D01*
X0223553Y0122254D02*
X0222353Y0122254D01*
X0222084Y0123452D02*
X0223822Y0123452D01*
X0225020Y0124651D02*
X0220885Y0124651D01*
X0230885Y0124651D02*
X0241294Y0124651D01*
X0240096Y0123452D02*
X0232084Y0123452D01*
X0232353Y0122254D02*
X0238897Y0122254D01*
X0238248Y0121055D02*
X0232353Y0121055D01*
X0232353Y0119857D02*
X0237752Y0119857D01*
X0237256Y0118658D02*
X0231473Y0118658D01*
X0252837Y0107871D02*
X0256056Y0107871D01*
X0256056Y0106673D02*
X0249999Y0106673D01*
X0254036Y0109070D02*
X0256056Y0109070D01*
X0256056Y0110268D02*
X0255234Y0110268D01*
X0255954Y0111467D02*
X0256056Y0111467D01*
X0256056Y0095886D02*
X0218621Y0095886D01*
X0218696Y0095758D02*
X0218485Y0096123D01*
X0218187Y0096420D01*
X0217822Y0096631D01*
X0217415Y0096740D01*
X0212687Y0096740D01*
X0212687Y0092591D01*
X0211487Y0092591D01*
X0211487Y0096740D01*
X0206758Y0096740D01*
X0206351Y0096631D01*
X0205986Y0096420D01*
X0205688Y0096123D01*
X0205478Y0095758D01*
X0205369Y0095351D01*
X0205369Y0092591D01*
X0211487Y0092591D01*
X0211487Y0091391D01*
X0205369Y0091391D01*
X0205369Y0088630D01*
X0205478Y0088223D01*
X0205688Y0087859D01*
X0205986Y0087561D01*
X0206351Y0087350D01*
X0206758Y0087241D01*
X0211487Y0087241D01*
X0211487Y0091391D01*
X0212687Y0091391D01*
X0212687Y0092591D01*
X0218805Y0092591D01*
X0218805Y0095351D01*
X0218696Y0095758D01*
X0218805Y0094688D02*
X0256056Y0094688D01*
X0256056Y0093489D02*
X0218805Y0093489D01*
X0218805Y0091391D02*
X0212687Y0091391D01*
X0212687Y0087241D01*
X0217415Y0087241D01*
X0217822Y0087350D01*
X0218187Y0087561D01*
X0218485Y0087859D01*
X0218696Y0088223D01*
X0218805Y0088630D01*
X0218805Y0091391D01*
X0218805Y0091092D02*
X0256056Y0091092D01*
X0256056Y0089894D02*
X0218805Y0089894D01*
X0218805Y0088695D02*
X0256056Y0088695D01*
X0256056Y0087497D02*
X0218077Y0087497D01*
X0212687Y0087497D02*
X0211487Y0087497D01*
X0211487Y0088695D02*
X0212687Y0088695D01*
X0212687Y0089894D02*
X0211487Y0089894D01*
X0211487Y0091092D02*
X0212687Y0091092D01*
X0212687Y0092291D02*
X0256056Y0092291D01*
X0256056Y0086298D02*
X0195332Y0086298D01*
X0194134Y0085100D02*
X0256056Y0085100D01*
X0256056Y0083901D02*
X0201496Y0083901D01*
X0201336Y0083993D02*
X0200929Y0084102D01*
X0199134Y0084102D01*
X0199134Y0080721D01*
X0202318Y0080721D01*
X0202318Y0082713D01*
X0202209Y0083120D01*
X0201999Y0083485D01*
X0201701Y0083783D01*
X0201336Y0083993D01*
X0202318Y0082703D02*
X0256056Y0082703D01*
X0256056Y0081504D02*
X0202318Y0081504D01*
X0202318Y0079107D02*
X0256056Y0079107D01*
X0256056Y0077909D02*
X0202304Y0077909D01*
X0201798Y0076710D02*
X0256056Y0076710D01*
X0256056Y0075512D02*
X0202118Y0075512D01*
X0198750Y0073644D02*
X0192904Y0075741D01*
X0192500Y0075741D01*
X0192500Y0075888D01*
X0190000Y0078388D01*
X0186487Y0078388D01*
X0186487Y0075829D02*
X0182411Y0075829D01*
X0181250Y0076991D01*
X0175744Y0074313D02*
X0173709Y0074313D01*
X0171250Y0071991D02*
X0171220Y0071961D01*
X0168750Y0070741D01*
X0168750Y0070711D01*
X0163513Y0070711D01*
X0163513Y0068152D02*
X0167589Y0068152D01*
X0170000Y0066991D01*
X0176250Y0068241D02*
X0175000Y0050337D01*
X0171435Y0050343D02*
X0168565Y0050343D01*
X0168565Y0051541D02*
X0171435Y0051541D01*
X0171435Y0052740D02*
X0168565Y0052740D01*
X0167000Y0053938D02*
X0173247Y0053938D01*
X0173330Y0055137D02*
X0167000Y0055137D01*
X0167000Y0056335D02*
X0173414Y0056335D01*
X0173498Y0057534D02*
X0167000Y0057534D01*
X0167000Y0058732D02*
X0173581Y0058732D01*
X0173665Y0059931D02*
X0166885Y0059931D01*
X0166863Y0061130D02*
X0173749Y0061130D01*
X0180000Y0060741D02*
X0180000Y0061991D01*
X0183602Y0065593D01*
X0186487Y0065593D01*
X0189837Y0065924D02*
X0256056Y0065924D01*
X0256056Y0067122D02*
X0202960Y0067122D01*
X0204158Y0068321D02*
X0256056Y0068321D01*
X0256056Y0069519D02*
X0208381Y0069519D01*
X0208381Y0070718D02*
X0256056Y0070718D01*
X0256056Y0071916D02*
X0208381Y0071916D01*
X0208381Y0073115D02*
X0256056Y0073115D01*
X0256056Y0074313D02*
X0208381Y0074313D01*
X0205000Y0071991D02*
X0201161Y0068152D01*
X0186487Y0068152D01*
X0186487Y0070711D02*
X0191220Y0070711D01*
X0192500Y0071991D01*
X0186487Y0073270D02*
X0181280Y0073270D01*
X0176250Y0068241D01*
X0186487Y0060475D02*
X0186487Y0051824D01*
X0185000Y0050337D01*
X0188565Y0050343D02*
X0190921Y0050343D01*
X0190483Y0049904D02*
X0189615Y0047809D01*
X0189615Y0045542D01*
X0190483Y0043447D01*
X0192086Y0041843D01*
X0194181Y0040976D01*
X0196449Y0040976D01*
X0198544Y0041843D01*
X0200147Y0043447D01*
X0200236Y0043662D01*
X0200325Y0043447D01*
X0201929Y0041843D01*
X0204024Y0040976D01*
X0206291Y0040976D01*
X0208386Y0041843D01*
X0209186Y0042643D01*
X0211056Y0040773D01*
X0213615Y0039713D01*
X0216385Y0039713D01*
X0218944Y0040773D01*
X0220814Y0042643D01*
X0221614Y0041843D01*
X0223709Y0040976D01*
X0225976Y0040976D01*
X0228071Y0041843D01*
X0229675Y0043447D01*
X0229764Y0043662D01*
X0229853Y0043447D01*
X0231456Y0041843D01*
X0233551Y0040976D01*
X0235819Y0040976D01*
X0237914Y0041843D01*
X0239517Y0043447D01*
X0240385Y0045542D01*
X0240385Y0047809D01*
X0239517Y0049904D01*
X0237914Y0051508D01*
X0235819Y0052376D01*
X0233551Y0052376D01*
X0231456Y0051508D01*
X0229853Y0049904D01*
X0229764Y0049689D01*
X0229675Y0049904D01*
X0228071Y0051508D01*
X0225976Y0052376D01*
X0223709Y0052376D01*
X0221614Y0051508D01*
X0220814Y0050708D01*
X0218944Y0052578D01*
X0216385Y0053638D01*
X0213615Y0053638D01*
X0211056Y0052578D01*
X0209186Y0050708D01*
X0208386Y0051508D01*
X0206291Y0052376D01*
X0204024Y0052376D01*
X0201929Y0051508D01*
X0200325Y0049904D01*
X0200236Y0049689D01*
X0200147Y0049904D01*
X0198544Y0051508D01*
X0196449Y0052376D01*
X0194181Y0052376D01*
X0192086Y0051508D01*
X0190483Y0049904D01*
X0190168Y0049144D02*
X0188565Y0049144D01*
X0188565Y0047946D02*
X0189672Y0047946D01*
X0189615Y0046747D02*
X0188293Y0046747D01*
X0188765Y0045549D02*
X0189615Y0045549D01*
X0190108Y0044350D02*
X0188765Y0044350D01*
X0188765Y0043152D02*
X0190778Y0043152D01*
X0191976Y0041953D02*
X0188765Y0041953D01*
X0188481Y0040755D02*
X0211101Y0040755D01*
X0209876Y0041953D02*
X0208496Y0041953D01*
X0201819Y0041953D02*
X0198654Y0041953D01*
X0199852Y0043152D02*
X0200620Y0043152D01*
X0200764Y0050343D02*
X0199709Y0050343D01*
X0198463Y0051541D02*
X0202010Y0051541D01*
X0208305Y0051541D02*
X0210020Y0051541D01*
X0211448Y0052740D02*
X0188565Y0052740D01*
X0188565Y0051541D02*
X0192167Y0051541D01*
X0188487Y0053938D02*
X0256056Y0053938D01*
X0256056Y0052740D02*
X0218552Y0052740D01*
X0219980Y0051541D02*
X0221695Y0051541D01*
X0227990Y0051541D02*
X0231537Y0051541D01*
X0230291Y0050343D02*
X0229236Y0050343D01*
X0237833Y0051541D02*
X0256056Y0051541D01*
X0256056Y0050343D02*
X0239079Y0050343D01*
X0239832Y0049144D02*
X0256056Y0049144D01*
X0256056Y0047946D02*
X0240328Y0047946D01*
X0240385Y0046747D02*
X0256056Y0046747D01*
X0256056Y0045549D02*
X0240385Y0045549D01*
X0239892Y0044350D02*
X0256056Y0044350D01*
X0256056Y0043152D02*
X0239222Y0043152D01*
X0238024Y0041953D02*
X0256056Y0041953D01*
X0256056Y0040755D02*
X0218899Y0040755D01*
X0220124Y0041953D02*
X0221504Y0041953D01*
X0228181Y0041953D02*
X0231346Y0041953D01*
X0230148Y0043152D02*
X0229380Y0043152D01*
X0242669Y0034762D02*
X0095888Y0034762D01*
X0095888Y0033564D02*
X0192991Y0033564D01*
X0190844Y0032365D02*
X0095888Y0032365D01*
X0095888Y0031167D02*
X0189645Y0031167D01*
X0189013Y0029968D02*
X0095883Y0029968D01*
X0095888Y0035961D02*
X0256056Y0035961D01*
X0256056Y0037159D02*
X0095888Y0037159D01*
X0095888Y0038358D02*
X0256056Y0038358D01*
X0256056Y0039556D02*
X0095526Y0039556D01*
X0095526Y0040755D02*
X0161519Y0040755D01*
X0161554Y0040693D02*
X0161344Y0041058D01*
X0161235Y0041465D01*
X0161235Y0043260D01*
X0164616Y0043260D01*
X0164616Y0040076D01*
X0162624Y0040076D01*
X0162217Y0040185D01*
X0161852Y0040395D01*
X0161554Y0040693D01*
X0161235Y0041953D02*
X0095526Y0041953D01*
X0094663Y0045549D02*
X0093750Y0045549D01*
X0094663Y0046747D02*
X0092551Y0046747D01*
X0091353Y0047946D02*
X0094663Y0047946D01*
X0094663Y0049144D02*
X0090154Y0049144D01*
X0088956Y0050343D02*
X0108285Y0050343D01*
X0108285Y0051541D02*
X0105337Y0051541D01*
X0105337Y0052740D02*
X0108789Y0052740D01*
X0108592Y0053938D02*
X0107100Y0053938D01*
X0111654Y0056991D02*
X0100315Y0054491D01*
X0100000Y0054176D01*
X0094663Y0053938D02*
X0085360Y0053938D01*
X0086559Y0052740D02*
X0094663Y0052740D01*
X0094663Y0051541D02*
X0087757Y0051541D01*
X0084162Y0055137D02*
X0094663Y0055137D01*
X0094663Y0056335D02*
X0082963Y0056335D01*
X0081738Y0057534D02*
X0095079Y0057534D01*
X0095038Y0058732D02*
X0054756Y0058732D01*
X0054756Y0057534D02*
X0078262Y0057534D01*
X0077063Y0056335D02*
X0054756Y0056335D01*
X0054756Y0055137D02*
X0076600Y0055137D01*
X0076600Y0053938D02*
X0054756Y0053938D01*
X0054756Y0052740D02*
X0076969Y0052740D01*
X0078141Y0051541D02*
X0054756Y0051541D01*
X0054756Y0050343D02*
X0079339Y0050343D01*
X0080538Y0049144D02*
X0054756Y0049144D01*
X0054756Y0047946D02*
X0081736Y0047946D01*
X0082935Y0046747D02*
X0054756Y0046747D01*
X0054756Y0045549D02*
X0084133Y0045549D01*
X0085332Y0044350D02*
X0054756Y0044350D01*
X0054756Y0043152D02*
X0086530Y0043152D01*
X0087729Y0041953D02*
X0054756Y0041953D01*
X0054756Y0059931D02*
X0094663Y0059931D01*
X0094663Y0061130D02*
X0054756Y0061130D01*
X0054756Y0062328D02*
X0094663Y0062328D01*
X0094663Y0063527D02*
X0054756Y0063527D01*
X0054756Y0064725D02*
X0094663Y0064725D01*
X0100000Y0062050D02*
X0111594Y0064550D01*
X0111654Y0064491D01*
X0114406Y0061130D02*
X0115594Y0061130D01*
X0115173Y0059931D02*
X0114827Y0059931D01*
X0118346Y0056991D02*
X0118750Y0056991D01*
X0131250Y0069491D01*
X0130511Y0065924D02*
X0133000Y0065924D01*
X0133000Y0064725D02*
X0129313Y0064725D01*
X0128114Y0063527D02*
X0133000Y0063527D01*
X0132509Y0062328D02*
X0126916Y0062328D01*
X0125717Y0061130D02*
X0131311Y0061130D01*
X0130112Y0059931D02*
X0124519Y0059931D01*
X0123320Y0058732D02*
X0128914Y0058732D01*
X0127715Y0057534D02*
X0122122Y0057534D01*
X0121715Y0056335D02*
X0126517Y0056335D01*
X0125318Y0055137D02*
X0121715Y0055137D01*
X0121408Y0053938D02*
X0124119Y0053938D01*
X0122921Y0052740D02*
X0121211Y0052740D01*
X0121715Y0051541D02*
X0121722Y0051541D01*
X0122500Y0049491D02*
X0118346Y0049491D01*
X0121715Y0046747D02*
X0161707Y0046747D01*
X0161235Y0045549D02*
X0105695Y0045549D01*
X0105337Y0044350D02*
X0161235Y0044350D01*
X0161235Y0043152D02*
X0105129Y0043152D01*
X0100000Y0046302D02*
X0110965Y0048802D01*
X0111654Y0049491D01*
X0114518Y0052740D02*
X0115482Y0052740D01*
X0115285Y0053938D02*
X0114715Y0053938D01*
X0108285Y0058732D02*
X0104962Y0058732D01*
X0105337Y0059931D02*
X0108480Y0059931D01*
X0108901Y0061130D02*
X0105337Y0061130D01*
X0118346Y0064491D02*
X0130000Y0076144D01*
X0130000Y0076991D01*
X0157500Y0074491D02*
X0160089Y0075829D01*
X0163513Y0075829D01*
X0163512Y0078388D02*
X0159963Y0078388D01*
X0159963Y0077968D01*
X0159906Y0077986D01*
X0159602Y0077829D01*
X0159370Y0077829D01*
X0159963Y0078422D01*
X0159963Y0078388D01*
X0163512Y0078388D01*
X0163512Y0078388D01*
X0163513Y0080947D02*
X0158957Y0080947D01*
X0157500Y0080741D01*
X0159450Y0077909D02*
X0159756Y0077909D01*
X0165713Y0086298D02*
X0187229Y0086298D01*
X0187229Y0087497D02*
X0165713Y0087497D01*
X0167962Y0088695D02*
X0168731Y0088695D01*
X0168731Y0088422D02*
X0170722Y0088422D01*
X0171129Y0088531D01*
X0171494Y0088742D01*
X0171792Y0089040D01*
X0172003Y0089404D01*
X0172112Y0089811D01*
X0172112Y0091606D01*
X0168731Y0091606D01*
X0168731Y0088422D01*
X0168731Y0089894D02*
X0167962Y0089894D01*
X0167962Y0091092D02*
X0168731Y0091092D01*
X0168731Y0092291D02*
X0181269Y0092291D01*
X0181269Y0092375D02*
X0177888Y0092375D01*
X0177888Y0094170D01*
X0177997Y0094577D01*
X0178208Y0094941D01*
X0178506Y0095239D01*
X0178871Y0095450D01*
X0179278Y0095559D01*
X0181269Y0095559D01*
X0181269Y0092375D01*
X0181269Y0091606D02*
X0177888Y0091606D01*
X0177888Y0089811D01*
X0177997Y0089404D01*
X0178208Y0089040D01*
X0178506Y0088742D01*
X0178871Y0088531D01*
X0179278Y0088422D01*
X0181269Y0088422D01*
X0181269Y0091606D01*
X0181269Y0091092D02*
X0182038Y0091092D01*
X0182038Y0089894D02*
X0181269Y0089894D01*
X0181269Y0088695D02*
X0182038Y0088695D01*
X0184721Y0088695D02*
X0185528Y0088695D01*
X0178586Y0088695D02*
X0171414Y0088695D01*
X0172112Y0089894D02*
X0177888Y0089894D01*
X0177888Y0091092D02*
X0172112Y0091092D01*
X0172112Y0093489D02*
X0177888Y0093489D01*
X0178061Y0094688D02*
X0171939Y0094688D01*
X0168731Y0094688D02*
X0167962Y0094688D01*
X0167962Y0093489D02*
X0168731Y0093489D01*
X0181269Y0093489D02*
X0182038Y0093489D01*
X0182038Y0094688D02*
X0181269Y0094688D01*
X0187869Y0101879D02*
X0161299Y0101879D01*
X0162498Y0103077D02*
X0187869Y0103077D01*
X0187869Y0104276D02*
X0163696Y0104276D01*
X0197553Y0117460D02*
X0198353Y0117460D01*
X0198353Y0118658D02*
X0197553Y0118658D01*
X0197553Y0119857D02*
X0198353Y0119857D01*
X0201756Y0118658D02*
X0204433Y0118658D01*
X0203553Y0119857D02*
X0202553Y0119857D01*
X0200557Y0117460D02*
X0205631Y0117460D01*
X0205432Y0115063D02*
X0200473Y0115063D01*
X0201672Y0113864D02*
X0204234Y0113864D01*
X0203553Y0112666D02*
X0202353Y0112666D01*
X0202353Y0111467D02*
X0203553Y0111467D01*
X0203553Y0110268D02*
X0202353Y0110268D01*
X0201885Y0109070D02*
X0204021Y0109070D01*
X0205219Y0107871D02*
X0200686Y0107871D01*
X0204265Y0095886D02*
X0205552Y0095886D01*
X0205369Y0094688D02*
X0204431Y0094688D01*
X0204431Y0093489D02*
X0205369Y0093489D01*
X0204431Y0092291D02*
X0211487Y0092291D01*
X0211487Y0093489D02*
X0212687Y0093489D01*
X0212687Y0094688D02*
X0211487Y0094688D01*
X0211487Y0095886D02*
X0212687Y0095886D01*
X0205369Y0091092D02*
X0204431Y0091092D01*
X0204431Y0089894D02*
X0205369Y0089894D01*
X0205369Y0088695D02*
X0204431Y0088695D01*
X0203667Y0087497D02*
X0206097Y0087497D01*
X0199134Y0083901D02*
X0198366Y0083901D01*
X0198366Y0084102D02*
X0196571Y0084102D01*
X0196164Y0083993D01*
X0195799Y0083783D01*
X0195501Y0083485D01*
X0195291Y0083120D01*
X0195181Y0082713D01*
X0195181Y0080721D01*
X0198366Y0080721D01*
X0198366Y0084102D01*
X0196004Y0083901D02*
X0192935Y0083901D01*
X0191737Y0082703D02*
X0195181Y0082703D01*
X0195181Y0081504D02*
X0190538Y0081504D01*
X0190911Y0080306D02*
X0198366Y0080306D01*
X0199134Y0080306D02*
X0256056Y0080306D01*
X0256056Y0064725D02*
X0189837Y0064725D01*
X0189837Y0063527D02*
X0256056Y0063527D01*
X0256056Y0062328D02*
X0189837Y0062328D01*
X0189837Y0061130D02*
X0256056Y0061130D01*
X0256056Y0059931D02*
X0189837Y0059931D01*
X0189275Y0058732D02*
X0256056Y0058732D01*
X0256056Y0057534D02*
X0188487Y0057534D01*
X0188487Y0056335D02*
X0256056Y0056335D01*
X0256056Y0055137D02*
X0188487Y0055137D01*
X0184487Y0055137D02*
X0177340Y0055137D01*
X0177424Y0056335D02*
X0184487Y0056335D01*
X0184487Y0057534D02*
X0182736Y0057534D01*
X0183381Y0058732D02*
X0183700Y0058732D01*
X0184487Y0053938D02*
X0177256Y0053938D01*
X0178565Y0052740D02*
X0181435Y0052740D01*
X0181435Y0051541D02*
X0178565Y0051541D01*
X0178565Y0050343D02*
X0181435Y0050343D01*
X0181435Y0049144D02*
X0178565Y0049144D01*
X0178565Y0047946D02*
X0181435Y0047946D01*
X0181707Y0046747D02*
X0178293Y0046747D01*
X0178765Y0045549D02*
X0181235Y0045549D01*
X0181235Y0044350D02*
X0178765Y0044350D01*
X0178765Y0043152D02*
X0181235Y0043152D01*
X0181235Y0043260D02*
X0181235Y0041465D01*
X0181344Y0041058D01*
X0181554Y0040693D01*
X0181852Y0040395D01*
X0182217Y0040185D01*
X0182624Y0040076D01*
X0184616Y0040076D01*
X0184616Y0043260D01*
X0181235Y0043260D01*
X0181235Y0041953D02*
X0178765Y0041953D01*
X0178481Y0040755D02*
X0181519Y0040755D01*
X0184616Y0040755D02*
X0185384Y0040755D01*
X0185384Y0041953D02*
X0184616Y0041953D01*
X0184616Y0043152D02*
X0185384Y0043152D01*
X0185000Y0043644D02*
X0175000Y0043644D01*
X0165000Y0043644D01*
X0169596Y0043644D01*
X0170000Y0043241D01*
X0171235Y0043260D02*
X0171235Y0041465D01*
X0171344Y0041058D01*
X0171554Y0040693D01*
X0171852Y0040395D01*
X0172217Y0040185D01*
X0172624Y0040076D01*
X0174616Y0040076D01*
X0174616Y0043260D01*
X0171235Y0043260D01*
X0171235Y0043152D02*
X0168765Y0043152D01*
X0168765Y0044350D02*
X0171235Y0044350D01*
X0171235Y0045549D02*
X0168765Y0045549D01*
X0168293Y0046747D02*
X0171707Y0046747D01*
X0171435Y0047946D02*
X0168565Y0047946D01*
X0168565Y0049144D02*
X0171435Y0049144D01*
X0165000Y0050337D02*
X0165000Y0058987D01*
X0163513Y0060475D01*
X0193308Y0077909D02*
X0195196Y0077909D01*
X0195181Y0079107D02*
X0192109Y0079107D01*
X0198366Y0081504D02*
X0199134Y0081504D01*
X0199134Y0082703D02*
X0198366Y0082703D01*
X0175384Y0043152D02*
X0174616Y0043152D01*
X0174616Y0041953D02*
X0175384Y0041953D01*
X0175384Y0040755D02*
X0174616Y0040755D01*
X0171519Y0040755D02*
X0168481Y0040755D01*
X0168765Y0041953D02*
X0171235Y0041953D01*
X0165384Y0041953D02*
X0164616Y0041953D01*
X0164616Y0040755D02*
X0165384Y0040755D01*
X0165384Y0043152D02*
X0164616Y0043152D01*
X0197639Y0033564D02*
X0232361Y0033564D01*
X0230214Y0032365D02*
X0217447Y0032365D01*
X0217265Y0032458D02*
X0216382Y0032745D01*
X0215600Y0032869D01*
X0215600Y0027591D01*
X0214400Y0027591D01*
X0214400Y0032869D01*
X0213618Y0032745D01*
X0212735Y0032458D01*
X0211908Y0032037D01*
X0211156Y0031491D01*
X0210500Y0030834D01*
X0209954Y0030083D01*
X0209532Y0029255D01*
X0209245Y0028372D01*
X0209121Y0027591D01*
X0214400Y0027591D01*
X0214400Y0026391D01*
X0209121Y0026391D01*
X0209245Y0025609D01*
X0209532Y0024726D01*
X0209954Y0023898D01*
X0210500Y0023147D01*
X0211156Y0022490D01*
X0211908Y0021944D01*
X0212735Y0021523D01*
X0213618Y0021236D01*
X0214400Y0021112D01*
X0214400Y0026390D01*
X0215600Y0026390D01*
X0215600Y0021112D01*
X0216382Y0021236D01*
X0217265Y0021523D01*
X0218092Y0021944D01*
X0218844Y0022490D01*
X0219500Y0023147D01*
X0220046Y0023898D01*
X0220468Y0024726D01*
X0220755Y0025609D01*
X0220878Y0026391D01*
X0215600Y0026391D01*
X0215600Y0027591D01*
X0220878Y0027591D01*
X0220755Y0028372D01*
X0220468Y0029255D01*
X0220046Y0030083D01*
X0219500Y0030834D01*
X0218844Y0031491D01*
X0218092Y0032037D01*
X0217265Y0032458D01*
X0215600Y0032365D02*
X0214400Y0032365D01*
X0214400Y0031167D02*
X0215600Y0031167D01*
X0215600Y0029968D02*
X0214400Y0029968D01*
X0214400Y0028770D02*
X0215600Y0028770D01*
X0215600Y0027571D02*
X0227723Y0027571D01*
X0227723Y0026373D02*
X0220876Y0026373D01*
X0220613Y0025174D02*
X0227902Y0025174D01*
X0228398Y0023976D02*
X0220086Y0023976D01*
X0219130Y0022777D02*
X0229052Y0022777D01*
X0229270Y0021579D02*
X0217374Y0021579D01*
X0215600Y0021579D02*
X0214400Y0021579D01*
X0214400Y0022777D02*
X0215600Y0022777D01*
X0215600Y0023976D02*
X0214400Y0023976D01*
X0214400Y0025174D02*
X0215600Y0025174D01*
X0215600Y0026373D02*
X0214400Y0026373D01*
X0214400Y0027571D02*
X0202277Y0027571D01*
X0202277Y0026373D02*
X0209124Y0026373D01*
X0209387Y0025174D02*
X0202098Y0025174D01*
X0201602Y0023976D02*
X0209914Y0023976D01*
X0210870Y0022777D02*
X0200948Y0022777D01*
X0200730Y0021579D02*
X0212626Y0021579D01*
X0202008Y0019182D02*
X0227992Y0019182D01*
X0227723Y0017983D02*
X0202277Y0017983D01*
X0201512Y0020380D02*
X0228488Y0020380D01*
X0227886Y0028770D02*
X0220626Y0028770D01*
X0220105Y0029968D02*
X0228383Y0029968D01*
X0229015Y0031167D02*
X0219168Y0031167D01*
X0212553Y0032365D02*
X0199786Y0032365D01*
X0200985Y0031167D02*
X0210832Y0031167D01*
X0209895Y0029968D02*
X0201617Y0029968D01*
X0202114Y0028770D02*
X0209374Y0028770D01*
X0237009Y0033564D02*
X0240759Y0033564D01*
X0239560Y0032365D02*
X0239156Y0032365D01*
X0251583Y0034762D02*
X0256056Y0034762D01*
X0256056Y0033564D02*
X0253493Y0033564D01*
X0254692Y0032365D02*
X0256056Y0032365D01*
X0256056Y0031167D02*
X0255729Y0031167D01*
X0193353Y0122254D02*
X0192353Y0122254D01*
X0192084Y0123452D02*
X0193539Y0123452D01*
X0194737Y0124651D02*
X0190885Y0124651D01*
X0185020Y0124651D02*
X0181168Y0124651D01*
X0182367Y0123452D02*
X0183822Y0123452D01*
X0183553Y0122254D02*
X0182553Y0122254D01*
D22*
X0123750Y0095741D03*
X0127500Y0090741D03*
X0157500Y0080741D03*
X0157500Y0074491D03*
X0157500Y0069491D03*
X0170000Y0066991D03*
X0171250Y0071991D03*
X0171250Y0078241D03*
X0192500Y0071991D03*
X0215000Y0059491D03*
X0246250Y0073241D03*
X0246250Y0103241D03*
X0157500Y0061991D03*
X0170000Y0043241D03*
X0156250Y0023241D03*
X0186250Y0023241D03*
X0246250Y0043241D03*
X0121250Y0023241D03*
X0081250Y0023241D03*
X0041250Y0048241D03*
X0080000Y0054491D03*
X0080000Y0076991D03*
X0041250Y0088241D03*
D23*
X0115000Y0091991D03*
X0126250Y0081991D03*
X0130000Y0076991D03*
X0131250Y0069491D03*
X0180000Y0060741D03*
X0205000Y0071991D03*
X0191250Y0101991D03*
D24*
X0188346Y0091991D02*
X0189429Y0090908D01*
X0189429Y0083506D01*
X0197913Y0091991D01*
X0189429Y0083506D02*
X0186487Y0083506D01*
X0181250Y0083506D01*
X0163513Y0083506D01*
X0160571Y0083506D01*
X0152087Y0091991D01*
X0147500Y0099491D01*
X0110000Y0099491D01*
X0096250Y0090741D01*
X0081250Y0076991D01*
X0080000Y0076991D01*
X0161654Y0091991D02*
X0163513Y0090131D01*
X0163513Y0083506D01*
D25*
X0092126Y0042365D02*
X0080000Y0054491D01*
X0092126Y0042365D02*
X0092126Y0034491D01*
D26*
X0152087Y0091991D02*
X0152087Y0094904D01*
M02*
