%
M48
M72
T01C0.02362
T02C0.04000
T03C0.04724
T04C0.05118
T05C0.10827
%
T01
X41250Y48241
X80000Y54491
X80000Y76991
X115000Y91991
X123750Y95741
X127500Y90741
X126250Y81991
X130000Y76991
X131250Y69491
X157500Y69491
X157500Y74491
X157500Y80741
X171250Y78241
X171250Y71991
X170000Y66991
X157500Y61991
X180000Y60741
X192500Y71991
X205000Y71991
X215000Y59491
X246250Y43241
X186250Y23241
X170000Y43241
X156250Y23241
X121250Y23241
X81250Y23241
X41250Y88241
X191250Y101991
X246250Y103241
X246250Y73241
T02
X37953Y111361
X47953Y111361
X57953Y111361
X67953Y111361
X77953Y111361
X87953Y111361
X97953Y111361
X107953Y111361
X117953Y111361
X127953Y111361
X137953Y111361
X147953Y111361
X157953Y111361
X167953Y111361
X177953Y111361
X187953Y111361
X197953Y111361
X207953Y111361
X217953Y111361
X227953Y111361
X227953Y121361
X217953Y121361
X207953Y121361
X197953Y121361
X187953Y121361
X177953Y121361
X167953Y121361
X157953Y121361
X147953Y121361
X137953Y121361
X127953Y121361
X117953Y121361
X107953Y121361
X97953Y121361
X87953Y121361
X77953Y121361
X67953Y121361
X57953Y121361
X47953Y121361
X37953Y121361
T03
X215000Y46676
X195315Y26991
X195315Y17148
X234685Y17148
X234685Y26991
T04
X195315Y46676
X205157Y46676
X224843Y46676
X234685Y46676
X215000Y26991
T05
X18780Y25770
X18780Y116321
X247126Y25770
X247126Y116321
M30
