G75*
%MOIN*%
%OFA0B0*%
%FSLAX25Y25*%
%IPPOS*%
%LPD*%
%AMOC8*
5,1,8,0,0,1.08239X$1,22.5*
%
%ADD10C,0.01200*%
%ADD11C,0.00400*%
%ADD12C,0.00500*%
%ADD13C,0.00000*%
%ADD14C,0.00600*%
%ADD15R,0.03300X0.00800*%
%ADD16C,0.00800*%
%ADD17C,0.00100*%
%ADD18R,0.01600X0.03400*%
%ADD19R,0.01969X0.03740*%
%ADD20R,0.03740X0.01969*%
%ADD21R,0.03400X0.01600*%
D10*
X0170000Y0091991D02*
X0180000Y0091991D01*
X0195000Y0076991D01*
D11*
X0197049Y0075589D02*
X0197049Y0078392D01*
X0200400Y0078392D02*
X0200400Y0075589D01*
X0203950Y0076708D02*
X0204717Y0075941D01*
X0206252Y0075941D01*
X0207019Y0076708D01*
X0207019Y0077475D01*
X0206252Y0078243D01*
X0205485Y0078243D01*
X0206252Y0078243D02*
X0207019Y0079010D01*
X0207019Y0079777D01*
X0206252Y0080544D01*
X0204717Y0080544D01*
X0203950Y0079777D01*
X0208554Y0079010D02*
X0211623Y0075941D01*
X0208554Y0075941D02*
X0211623Y0079010D01*
X0215196Y0083577D02*
X0217498Y0081275D01*
X0217498Y0084344D01*
X0219033Y0085879D02*
X0219800Y0085879D01*
X0219033Y0085879D02*
X0215963Y0088948D01*
X0215196Y0088948D01*
X0215196Y0085879D01*
X0215196Y0083577D02*
X0219800Y0083577D01*
X0219296Y0080544D02*
X0219296Y0075941D01*
X0217762Y0075941D02*
X0220831Y0075941D01*
X0222366Y0076708D02*
X0225435Y0079777D01*
X0225435Y0076708D01*
X0224668Y0075941D01*
X0223133Y0075941D01*
X0222366Y0076708D01*
X0222366Y0079777D01*
X0223133Y0080544D01*
X0224668Y0080544D01*
X0225435Y0079777D01*
X0226970Y0079777D02*
X0227737Y0080544D01*
X0229272Y0080544D01*
X0230039Y0079777D01*
X0226970Y0076708D01*
X0227737Y0075941D01*
X0229272Y0075941D01*
X0230039Y0076708D01*
X0230039Y0079777D01*
X0231574Y0079010D02*
X0233876Y0079010D01*
X0234643Y0078243D01*
X0234643Y0075941D01*
X0236177Y0075941D02*
X0236177Y0080544D01*
X0239247Y0080544D01*
X0237712Y0078243D02*
X0236177Y0078243D01*
X0231574Y0079010D02*
X0231574Y0075941D01*
X0226970Y0076708D02*
X0226970Y0079777D01*
X0219296Y0080544D02*
X0217762Y0079010D01*
X0216731Y0090483D02*
X0219033Y0090483D01*
X0219800Y0091250D01*
X0219800Y0093552D01*
X0216731Y0093552D01*
X0217498Y0095087D02*
X0217498Y0096621D01*
X0215196Y0095087D02*
X0215196Y0098156D01*
X0215196Y0095087D02*
X0219800Y0095087D01*
X0192007Y0099907D02*
X0188938Y0099907D01*
X0190472Y0099907D02*
X0190472Y0104511D01*
X0188938Y0102976D01*
X0187403Y0102976D02*
X0186636Y0102209D01*
X0187403Y0101442D01*
X0187403Y0100674D01*
X0186636Y0099907D01*
X0185101Y0099907D01*
X0184334Y0100674D01*
X0185868Y0102209D02*
X0186636Y0102209D01*
X0187403Y0102976D02*
X0187403Y0103744D01*
X0186636Y0104511D01*
X0185101Y0104511D01*
X0184334Y0103744D01*
X0183598Y0093640D02*
X0186402Y0093640D01*
X0186402Y0090290D02*
X0183598Y0090290D01*
X0177659Y0084741D02*
X0177659Y0082339D01*
X0175257Y0084741D01*
X0174656Y0084741D01*
X0174056Y0084141D01*
X0174056Y0082940D01*
X0174656Y0082339D01*
X0174656Y0081058D02*
X0177059Y0078656D01*
X0177659Y0079257D01*
X0177659Y0080458D01*
X0177059Y0081058D01*
X0174656Y0081058D01*
X0174056Y0080458D01*
X0174056Y0079257D01*
X0174656Y0078656D01*
X0177059Y0078656D01*
X0177659Y0077375D02*
X0177659Y0074973D01*
X0177659Y0076174D02*
X0174056Y0076174D01*
X0175257Y0074973D01*
X0175858Y0073692D02*
X0177059Y0073692D01*
X0177659Y0073092D01*
X0177659Y0071890D01*
X0177059Y0071290D01*
X0175858Y0071290D02*
X0175257Y0072491D01*
X0175257Y0073092D01*
X0175858Y0073692D01*
X0174056Y0073692D02*
X0174056Y0071290D01*
X0175858Y0071290D01*
X0174056Y0070009D02*
X0177659Y0070009D01*
X0175257Y0068808D02*
X0174056Y0070009D01*
X0175257Y0068808D02*
X0174056Y0067607D01*
X0177659Y0067607D01*
X0177059Y0066326D02*
X0177659Y0065725D01*
X0177659Y0064524D01*
X0177059Y0063924D01*
X0174656Y0063924D01*
X0174056Y0064524D01*
X0174056Y0065725D01*
X0174656Y0066326D01*
X0174656Y0062643D02*
X0175858Y0062643D01*
X0176458Y0062042D01*
X0176458Y0060241D01*
X0177659Y0060241D02*
X0174056Y0060241D01*
X0174056Y0062042D01*
X0174656Y0062643D01*
X0134800Y0083577D02*
X0130196Y0083577D01*
X0132498Y0081275D01*
X0132498Y0084344D01*
X0134033Y0085879D02*
X0134800Y0085879D01*
X0134033Y0085879D02*
X0130963Y0088948D01*
X0130196Y0088948D01*
X0130196Y0085879D01*
X0131731Y0090483D02*
X0134033Y0090483D01*
X0134800Y0091250D01*
X0134800Y0093552D01*
X0131731Y0093552D01*
X0132498Y0095087D02*
X0132498Y0096621D01*
X0130196Y0095087D02*
X0130196Y0098156D01*
X0130196Y0095087D02*
X0134800Y0095087D01*
X0135121Y0099907D02*
X0138191Y0102976D01*
X0138191Y0103744D01*
X0137423Y0104511D01*
X0135889Y0104511D01*
X0135121Y0103744D01*
X0135121Y0099907D02*
X0138191Y0099907D01*
X0139725Y0099907D02*
X0142794Y0099907D01*
X0141260Y0099907D02*
X0141260Y0104511D01*
X0139725Y0102976D01*
X0163598Y0093691D02*
X0166402Y0093691D01*
X0166402Y0090341D02*
X0163598Y0090341D01*
X0127300Y0073279D02*
X0125765Y0071745D01*
X0125765Y0072512D02*
X0125765Y0070210D01*
X0125765Y0068676D02*
X0126533Y0068676D01*
X0127300Y0067908D01*
X0127300Y0066374D01*
X0126533Y0065606D01*
X0126533Y0064072D02*
X0125765Y0064072D01*
X0124998Y0063304D01*
X0124998Y0062537D01*
X0124998Y0063304D02*
X0124231Y0064072D01*
X0123463Y0064072D01*
X0122696Y0063304D01*
X0122696Y0061770D01*
X0123463Y0061002D01*
X0126533Y0061002D02*
X0127300Y0061770D01*
X0127300Y0063304D01*
X0126533Y0064072D01*
X0123463Y0065606D02*
X0122696Y0066374D01*
X0122696Y0067908D01*
X0123463Y0068676D01*
X0124231Y0068676D01*
X0124998Y0067908D01*
X0125765Y0068676D01*
X0124998Y0067908D02*
X0124998Y0067141D01*
X0122696Y0070210D02*
X0122696Y0072512D01*
X0123463Y0073279D01*
X0124998Y0073279D01*
X0125765Y0072512D01*
X0127300Y0070210D02*
X0122696Y0070210D01*
X0094800Y0070606D02*
X0091731Y0073676D01*
X0090963Y0073676D01*
X0090196Y0072908D01*
X0090196Y0071374D01*
X0090963Y0070606D01*
X0090196Y0067537D02*
X0094800Y0067537D01*
X0094800Y0066002D02*
X0094800Y0069072D01*
X0094800Y0070606D02*
X0094800Y0073676D01*
X0094800Y0075210D02*
X0090196Y0075210D01*
X0090196Y0078279D01*
X0092498Y0076745D02*
X0092498Y0075210D01*
X0090196Y0067537D02*
X0091731Y0066002D01*
X0090963Y0064468D02*
X0092498Y0064468D01*
X0093265Y0063700D01*
X0093265Y0061398D01*
X0093265Y0059864D02*
X0094033Y0059864D01*
X0094800Y0059096D01*
X0094800Y0057562D01*
X0094033Y0056794D01*
X0094800Y0055260D02*
X0094800Y0052191D01*
X0090196Y0052191D01*
X0090196Y0055260D01*
X0090963Y0056794D02*
X0091731Y0056794D01*
X0092498Y0057562D01*
X0092498Y0059096D01*
X0093265Y0059864D01*
X0094800Y0061398D02*
X0090196Y0061398D01*
X0090196Y0063700D01*
X0090963Y0064468D01*
X0090963Y0059864D02*
X0090196Y0059096D01*
X0090196Y0057562D01*
X0090963Y0056794D01*
X0092498Y0053725D02*
X0092498Y0052191D01*
X0122696Y0050260D02*
X0123463Y0048725D01*
X0124998Y0047191D01*
X0124998Y0049493D01*
X0125765Y0050260D01*
X0126533Y0050260D01*
X0127300Y0049493D01*
X0127300Y0047958D01*
X0126533Y0047191D01*
X0124998Y0047191D01*
X0124231Y0051794D02*
X0127300Y0054864D01*
X0124231Y0054864D02*
X0127300Y0051794D01*
X0158344Y0038527D02*
X0159111Y0039294D01*
X0160646Y0039294D01*
X0161413Y0038527D01*
X0161413Y0037760D01*
X0160646Y0036993D01*
X0161413Y0036225D01*
X0161413Y0035458D01*
X0160646Y0034691D01*
X0159111Y0034691D01*
X0158344Y0035458D01*
X0159878Y0036993D02*
X0160646Y0036993D01*
X0162948Y0037760D02*
X0166017Y0034691D01*
X0162948Y0034691D02*
X0166017Y0037760D01*
X0172155Y0036993D02*
X0175225Y0036993D01*
X0174457Y0039294D02*
X0172155Y0036993D01*
X0174457Y0039294D02*
X0174457Y0034691D01*
X0176759Y0034691D02*
X0176759Y0035458D01*
X0179829Y0038527D01*
X0179829Y0039294D01*
X0176759Y0039294D01*
X0181363Y0039294D02*
X0181363Y0034691D01*
X0181363Y0036225D02*
X0183665Y0037760D01*
X0181363Y0036225D02*
X0183665Y0034691D01*
X0071093Y0027220D02*
X0069558Y0027220D01*
X0070325Y0027220D02*
X0070325Y0030289D01*
X0069558Y0030289D01*
X0068023Y0029522D02*
X0067256Y0028755D01*
X0064954Y0028755D01*
X0064954Y0027220D02*
X0064954Y0031824D01*
X0067256Y0031824D01*
X0068023Y0031057D01*
X0068023Y0029522D01*
X0070325Y0031824D02*
X0070325Y0032591D01*
X0058816Y0030289D02*
X0058816Y0026453D01*
X0058048Y0025685D01*
X0057281Y0025685D01*
X0056514Y0027220D02*
X0058816Y0027220D01*
X0056514Y0027220D02*
X0055746Y0027987D01*
X0055746Y0030289D01*
X0054212Y0030289D02*
X0053444Y0030289D01*
X0051910Y0028755D01*
X0051910Y0030289D02*
X0051910Y0027220D01*
X0049608Y0030289D02*
X0048073Y0028755D01*
X0048073Y0030289D02*
X0048073Y0027220D01*
X0046539Y0028755D02*
X0043469Y0028755D01*
X0043469Y0029522D02*
X0043469Y0027987D01*
X0044237Y0027220D01*
X0045771Y0027220D01*
X0046539Y0028755D02*
X0046539Y0029522D01*
X0045771Y0030289D01*
X0044237Y0030289D01*
X0043469Y0029522D01*
X0041935Y0029522D02*
X0041935Y0027987D01*
X0041167Y0027220D01*
X0038865Y0027220D01*
X0038865Y0031824D01*
X0038865Y0030289D02*
X0041167Y0030289D01*
X0041935Y0029522D01*
X0037331Y0029522D02*
X0037331Y0027987D01*
X0036563Y0027220D01*
X0034261Y0027220D01*
X0034261Y0025685D02*
X0034261Y0030289D01*
X0036563Y0030289D01*
X0037331Y0029522D01*
X0032727Y0030289D02*
X0030425Y0030289D01*
X0029657Y0029522D01*
X0030425Y0028755D01*
X0031959Y0028755D01*
X0032727Y0027987D01*
X0031959Y0027220D01*
X0029657Y0027220D01*
X0028123Y0027220D02*
X0025821Y0027220D01*
X0025054Y0027987D01*
X0025821Y0028755D01*
X0028123Y0028755D01*
X0028123Y0029522D02*
X0028123Y0027220D01*
X0028123Y0029522D02*
X0027355Y0030289D01*
X0025821Y0030289D01*
X0023519Y0029522D02*
X0022752Y0028755D01*
X0020450Y0028755D01*
X0021984Y0028755D02*
X0023519Y0027220D01*
X0020450Y0027220D02*
X0020450Y0031824D01*
X0022752Y0031824D01*
X0023519Y0031057D01*
X0023519Y0029522D01*
X0037331Y0024324D02*
X0040400Y0024324D01*
X0040400Y0023557D01*
X0037331Y0020487D01*
X0037331Y0019720D01*
X0040400Y0019720D01*
X0041935Y0019720D02*
X0045004Y0019720D01*
X0046539Y0019720D02*
X0046539Y0024324D01*
X0048841Y0024324D01*
X0049608Y0023557D01*
X0049608Y0022022D01*
X0048841Y0021255D01*
X0046539Y0021255D01*
X0048073Y0021255D02*
X0049608Y0019720D01*
X0051142Y0020487D02*
X0051910Y0019720D01*
X0053444Y0019720D01*
X0054212Y0020487D01*
X0054212Y0023557D01*
X0053444Y0024324D01*
X0051910Y0024324D01*
X0051142Y0023557D01*
X0051142Y0020487D01*
X0045004Y0024324D02*
X0041935Y0024324D01*
X0041935Y0019720D01*
X0041935Y0022022D02*
X0043469Y0022022D01*
X0049608Y0030289D02*
X0050375Y0030289D01*
X0039765Y0099907D02*
X0036696Y0099907D01*
X0038231Y0099907D02*
X0038231Y0104511D01*
X0036696Y0102976D01*
X0083940Y0102976D02*
X0085475Y0104511D01*
X0085475Y0099907D01*
X0087009Y0099907D02*
X0083940Y0099907D01*
X0088544Y0099907D02*
X0091613Y0099907D01*
X0090079Y0099907D02*
X0090079Y0104511D01*
X0088544Y0102976D01*
D12*
X0016811Y0011991D02*
X0249094Y0011991D01*
X0249379Y0011994D01*
X0249665Y0012005D01*
X0249950Y0012022D01*
X0250234Y0012046D01*
X0250518Y0012077D01*
X0250801Y0012115D01*
X0251082Y0012160D01*
X0251363Y0012211D01*
X0251643Y0012269D01*
X0251921Y0012334D01*
X0252197Y0012406D01*
X0252471Y0012484D01*
X0252744Y0012569D01*
X0253014Y0012661D01*
X0253282Y0012759D01*
X0253548Y0012863D01*
X0253811Y0012974D01*
X0254071Y0013091D01*
X0254329Y0013214D01*
X0254583Y0013344D01*
X0254834Y0013480D01*
X0255082Y0013621D01*
X0255326Y0013769D01*
X0255567Y0013922D01*
X0255803Y0014082D01*
X0256036Y0014247D01*
X0256265Y0014417D01*
X0256490Y0014593D01*
X0256710Y0014775D01*
X0256926Y0014961D01*
X0257137Y0015153D01*
X0257344Y0015350D01*
X0257546Y0015552D01*
X0257743Y0015759D01*
X0257935Y0015970D01*
X0258121Y0016186D01*
X0258303Y0016406D01*
X0258479Y0016631D01*
X0258649Y0016860D01*
X0258814Y0017093D01*
X0258974Y0017329D01*
X0259127Y0017570D01*
X0259275Y0017814D01*
X0259416Y0018062D01*
X0259552Y0018313D01*
X0259682Y0018567D01*
X0259805Y0018825D01*
X0259922Y0019085D01*
X0260033Y0019348D01*
X0260137Y0019614D01*
X0260235Y0019882D01*
X0260327Y0020152D01*
X0260412Y0020425D01*
X0260490Y0020699D01*
X0260562Y0020975D01*
X0260627Y0021253D01*
X0260685Y0021533D01*
X0260736Y0021814D01*
X0260781Y0022095D01*
X0260819Y0022378D01*
X0260850Y0022662D01*
X0260874Y0022946D01*
X0260891Y0023231D01*
X0260902Y0023517D01*
X0260905Y0023802D01*
X0260906Y0023802D02*
X0260906Y0118290D01*
X0260905Y0118290D02*
X0260902Y0118575D01*
X0260891Y0118861D01*
X0260874Y0119146D01*
X0260850Y0119430D01*
X0260819Y0119714D01*
X0260781Y0119997D01*
X0260736Y0120278D01*
X0260685Y0120559D01*
X0260627Y0120839D01*
X0260562Y0121117D01*
X0260490Y0121393D01*
X0260412Y0121667D01*
X0260327Y0121940D01*
X0260235Y0122210D01*
X0260137Y0122478D01*
X0260033Y0122744D01*
X0259922Y0123007D01*
X0259805Y0123267D01*
X0259682Y0123525D01*
X0259552Y0123779D01*
X0259416Y0124030D01*
X0259275Y0124278D01*
X0259127Y0124522D01*
X0258974Y0124763D01*
X0258814Y0124999D01*
X0258649Y0125232D01*
X0258479Y0125461D01*
X0258303Y0125686D01*
X0258121Y0125906D01*
X0257935Y0126122D01*
X0257743Y0126333D01*
X0257546Y0126540D01*
X0257344Y0126742D01*
X0257137Y0126939D01*
X0256926Y0127131D01*
X0256710Y0127317D01*
X0256490Y0127499D01*
X0256265Y0127675D01*
X0256036Y0127845D01*
X0255803Y0128010D01*
X0255567Y0128170D01*
X0255326Y0128323D01*
X0255082Y0128471D01*
X0254834Y0128612D01*
X0254583Y0128748D01*
X0254329Y0128878D01*
X0254071Y0129001D01*
X0253811Y0129118D01*
X0253548Y0129229D01*
X0253282Y0129333D01*
X0253014Y0129431D01*
X0252744Y0129523D01*
X0252471Y0129608D01*
X0252197Y0129686D01*
X0251921Y0129758D01*
X0251643Y0129823D01*
X0251363Y0129881D01*
X0251082Y0129932D01*
X0250801Y0129977D01*
X0250518Y0130015D01*
X0250234Y0130046D01*
X0249950Y0130070D01*
X0249665Y0130087D01*
X0249379Y0130098D01*
X0249094Y0130101D01*
X0016811Y0130101D01*
X0016526Y0130098D01*
X0016240Y0130087D01*
X0015955Y0130070D01*
X0015671Y0130046D01*
X0015387Y0130015D01*
X0015104Y0129977D01*
X0014823Y0129932D01*
X0014542Y0129881D01*
X0014262Y0129823D01*
X0013984Y0129758D01*
X0013708Y0129686D01*
X0013434Y0129608D01*
X0013161Y0129523D01*
X0012891Y0129431D01*
X0012623Y0129333D01*
X0012357Y0129229D01*
X0012094Y0129118D01*
X0011834Y0129001D01*
X0011576Y0128878D01*
X0011322Y0128748D01*
X0011071Y0128612D01*
X0010823Y0128471D01*
X0010579Y0128323D01*
X0010338Y0128170D01*
X0010102Y0128010D01*
X0009869Y0127845D01*
X0009640Y0127675D01*
X0009415Y0127499D01*
X0009195Y0127317D01*
X0008979Y0127131D01*
X0008768Y0126939D01*
X0008561Y0126742D01*
X0008359Y0126540D01*
X0008162Y0126333D01*
X0007970Y0126122D01*
X0007784Y0125906D01*
X0007602Y0125686D01*
X0007426Y0125461D01*
X0007256Y0125232D01*
X0007091Y0124999D01*
X0006931Y0124763D01*
X0006778Y0124522D01*
X0006630Y0124278D01*
X0006489Y0124030D01*
X0006353Y0123779D01*
X0006223Y0123525D01*
X0006100Y0123267D01*
X0005983Y0123007D01*
X0005872Y0122744D01*
X0005768Y0122478D01*
X0005670Y0122210D01*
X0005578Y0121940D01*
X0005493Y0121667D01*
X0005415Y0121393D01*
X0005343Y0121117D01*
X0005278Y0120839D01*
X0005220Y0120559D01*
X0005169Y0120278D01*
X0005124Y0119997D01*
X0005086Y0119714D01*
X0005055Y0119430D01*
X0005031Y0119146D01*
X0005014Y0118861D01*
X0005003Y0118575D01*
X0005000Y0118290D01*
X0005000Y0023802D01*
X0005003Y0023517D01*
X0005014Y0023231D01*
X0005031Y0022946D01*
X0005055Y0022662D01*
X0005086Y0022378D01*
X0005124Y0022095D01*
X0005169Y0021814D01*
X0005220Y0021533D01*
X0005278Y0021253D01*
X0005343Y0020975D01*
X0005415Y0020699D01*
X0005493Y0020425D01*
X0005578Y0020152D01*
X0005670Y0019882D01*
X0005768Y0019614D01*
X0005872Y0019348D01*
X0005983Y0019085D01*
X0006100Y0018825D01*
X0006223Y0018567D01*
X0006353Y0018313D01*
X0006489Y0018062D01*
X0006630Y0017814D01*
X0006778Y0017570D01*
X0006931Y0017329D01*
X0007091Y0017093D01*
X0007256Y0016860D01*
X0007426Y0016631D01*
X0007602Y0016406D01*
X0007784Y0016186D01*
X0007970Y0015970D01*
X0008162Y0015759D01*
X0008359Y0015552D01*
X0008561Y0015350D01*
X0008768Y0015153D01*
X0008979Y0014961D01*
X0009195Y0014775D01*
X0009415Y0014593D01*
X0009640Y0014417D01*
X0009869Y0014247D01*
X0010102Y0014082D01*
X0010338Y0013922D01*
X0010579Y0013769D01*
X0010823Y0013621D01*
X0011071Y0013480D01*
X0011322Y0013344D01*
X0011576Y0013214D01*
X0011834Y0013091D01*
X0012094Y0012974D01*
X0012357Y0012863D01*
X0012623Y0012759D01*
X0012891Y0012661D01*
X0013161Y0012569D01*
X0013434Y0012484D01*
X0013708Y0012406D01*
X0013984Y0012334D01*
X0014262Y0012269D01*
X0014542Y0012211D01*
X0014823Y0012160D01*
X0015104Y0012115D01*
X0015387Y0012077D01*
X0015671Y0012046D01*
X0015955Y0012022D01*
X0016240Y0012005D01*
X0016526Y0011994D01*
X0016811Y0011991D01*
X0005118Y0034491D02*
X0100000Y0034491D01*
X0100000Y0098270D01*
X0005118Y0098270D01*
X0005118Y0034491D01*
X0010000Y0044491D02*
X0010000Y0049491D01*
X0025000Y0049491D01*
X0025000Y0054491D01*
X0010000Y0054491D01*
X0010000Y0059491D01*
X0025000Y0059491D01*
X0025000Y0064491D01*
X0010000Y0064491D01*
X0010000Y0069491D01*
X0025000Y0069491D01*
X0025000Y0074491D01*
X0010000Y0074491D01*
X0010000Y0089491D01*
X0030000Y0074491D02*
X0030000Y0044491D01*
X0010000Y0044491D01*
X0030000Y0044491D02*
X0035000Y0044491D01*
D13*
X0013367Y0025770D02*
X0013369Y0025917D01*
X0013375Y0026063D01*
X0013385Y0026209D01*
X0013399Y0026355D01*
X0013417Y0026501D01*
X0013438Y0026646D01*
X0013464Y0026790D01*
X0013494Y0026934D01*
X0013527Y0027076D01*
X0013564Y0027218D01*
X0013605Y0027359D01*
X0013650Y0027498D01*
X0013699Y0027637D01*
X0013751Y0027774D01*
X0013808Y0027909D01*
X0013867Y0028043D01*
X0013931Y0028175D01*
X0013998Y0028305D01*
X0014068Y0028434D01*
X0014142Y0028561D01*
X0014219Y0028685D01*
X0014300Y0028808D01*
X0014384Y0028928D01*
X0014471Y0029046D01*
X0014561Y0029161D01*
X0014654Y0029274D01*
X0014751Y0029385D01*
X0014850Y0029493D01*
X0014952Y0029598D01*
X0015057Y0029700D01*
X0015165Y0029799D01*
X0015276Y0029896D01*
X0015389Y0029989D01*
X0015504Y0030079D01*
X0015622Y0030166D01*
X0015742Y0030250D01*
X0015865Y0030331D01*
X0015989Y0030408D01*
X0016116Y0030482D01*
X0016245Y0030552D01*
X0016375Y0030619D01*
X0016507Y0030683D01*
X0016641Y0030742D01*
X0016776Y0030799D01*
X0016913Y0030851D01*
X0017052Y0030900D01*
X0017191Y0030945D01*
X0017332Y0030986D01*
X0017474Y0031023D01*
X0017616Y0031056D01*
X0017760Y0031086D01*
X0017904Y0031112D01*
X0018049Y0031133D01*
X0018195Y0031151D01*
X0018341Y0031165D01*
X0018487Y0031175D01*
X0018633Y0031181D01*
X0018780Y0031183D01*
X0018927Y0031181D01*
X0019073Y0031175D01*
X0019219Y0031165D01*
X0019365Y0031151D01*
X0019511Y0031133D01*
X0019656Y0031112D01*
X0019800Y0031086D01*
X0019944Y0031056D01*
X0020086Y0031023D01*
X0020228Y0030986D01*
X0020369Y0030945D01*
X0020508Y0030900D01*
X0020647Y0030851D01*
X0020784Y0030799D01*
X0020919Y0030742D01*
X0021053Y0030683D01*
X0021185Y0030619D01*
X0021315Y0030552D01*
X0021444Y0030482D01*
X0021571Y0030408D01*
X0021695Y0030331D01*
X0021818Y0030250D01*
X0021938Y0030166D01*
X0022056Y0030079D01*
X0022171Y0029989D01*
X0022284Y0029896D01*
X0022395Y0029799D01*
X0022503Y0029700D01*
X0022608Y0029598D01*
X0022710Y0029493D01*
X0022809Y0029385D01*
X0022906Y0029274D01*
X0022999Y0029161D01*
X0023089Y0029046D01*
X0023176Y0028928D01*
X0023260Y0028808D01*
X0023341Y0028685D01*
X0023418Y0028561D01*
X0023492Y0028434D01*
X0023562Y0028305D01*
X0023629Y0028175D01*
X0023693Y0028043D01*
X0023752Y0027909D01*
X0023809Y0027774D01*
X0023861Y0027637D01*
X0023910Y0027498D01*
X0023955Y0027359D01*
X0023996Y0027218D01*
X0024033Y0027076D01*
X0024066Y0026934D01*
X0024096Y0026790D01*
X0024122Y0026646D01*
X0024143Y0026501D01*
X0024161Y0026355D01*
X0024175Y0026209D01*
X0024185Y0026063D01*
X0024191Y0025917D01*
X0024193Y0025770D01*
X0024191Y0025623D01*
X0024185Y0025477D01*
X0024175Y0025331D01*
X0024161Y0025185D01*
X0024143Y0025039D01*
X0024122Y0024894D01*
X0024096Y0024750D01*
X0024066Y0024606D01*
X0024033Y0024464D01*
X0023996Y0024322D01*
X0023955Y0024181D01*
X0023910Y0024042D01*
X0023861Y0023903D01*
X0023809Y0023766D01*
X0023752Y0023631D01*
X0023693Y0023497D01*
X0023629Y0023365D01*
X0023562Y0023235D01*
X0023492Y0023106D01*
X0023418Y0022979D01*
X0023341Y0022855D01*
X0023260Y0022732D01*
X0023176Y0022612D01*
X0023089Y0022494D01*
X0022999Y0022379D01*
X0022906Y0022266D01*
X0022809Y0022155D01*
X0022710Y0022047D01*
X0022608Y0021942D01*
X0022503Y0021840D01*
X0022395Y0021741D01*
X0022284Y0021644D01*
X0022171Y0021551D01*
X0022056Y0021461D01*
X0021938Y0021374D01*
X0021818Y0021290D01*
X0021695Y0021209D01*
X0021571Y0021132D01*
X0021444Y0021058D01*
X0021315Y0020988D01*
X0021185Y0020921D01*
X0021053Y0020857D01*
X0020919Y0020798D01*
X0020784Y0020741D01*
X0020647Y0020689D01*
X0020508Y0020640D01*
X0020369Y0020595D01*
X0020228Y0020554D01*
X0020086Y0020517D01*
X0019944Y0020484D01*
X0019800Y0020454D01*
X0019656Y0020428D01*
X0019511Y0020407D01*
X0019365Y0020389D01*
X0019219Y0020375D01*
X0019073Y0020365D01*
X0018927Y0020359D01*
X0018780Y0020357D01*
X0018633Y0020359D01*
X0018487Y0020365D01*
X0018341Y0020375D01*
X0018195Y0020389D01*
X0018049Y0020407D01*
X0017904Y0020428D01*
X0017760Y0020454D01*
X0017616Y0020484D01*
X0017474Y0020517D01*
X0017332Y0020554D01*
X0017191Y0020595D01*
X0017052Y0020640D01*
X0016913Y0020689D01*
X0016776Y0020741D01*
X0016641Y0020798D01*
X0016507Y0020857D01*
X0016375Y0020921D01*
X0016245Y0020988D01*
X0016116Y0021058D01*
X0015989Y0021132D01*
X0015865Y0021209D01*
X0015742Y0021290D01*
X0015622Y0021374D01*
X0015504Y0021461D01*
X0015389Y0021551D01*
X0015276Y0021644D01*
X0015165Y0021741D01*
X0015057Y0021840D01*
X0014952Y0021942D01*
X0014850Y0022047D01*
X0014751Y0022155D01*
X0014654Y0022266D01*
X0014561Y0022379D01*
X0014471Y0022494D01*
X0014384Y0022612D01*
X0014300Y0022732D01*
X0014219Y0022855D01*
X0014142Y0022979D01*
X0014068Y0023106D01*
X0013998Y0023235D01*
X0013931Y0023365D01*
X0013867Y0023497D01*
X0013808Y0023631D01*
X0013751Y0023766D01*
X0013699Y0023903D01*
X0013650Y0024042D01*
X0013605Y0024181D01*
X0013564Y0024322D01*
X0013527Y0024464D01*
X0013494Y0024606D01*
X0013464Y0024750D01*
X0013438Y0024894D01*
X0013417Y0025039D01*
X0013399Y0025185D01*
X0013385Y0025331D01*
X0013375Y0025477D01*
X0013369Y0025623D01*
X0013367Y0025770D01*
X0013367Y0116321D02*
X0013369Y0116468D01*
X0013375Y0116614D01*
X0013385Y0116760D01*
X0013399Y0116906D01*
X0013417Y0117052D01*
X0013438Y0117197D01*
X0013464Y0117341D01*
X0013494Y0117485D01*
X0013527Y0117627D01*
X0013564Y0117769D01*
X0013605Y0117910D01*
X0013650Y0118049D01*
X0013699Y0118188D01*
X0013751Y0118325D01*
X0013808Y0118460D01*
X0013867Y0118594D01*
X0013931Y0118726D01*
X0013998Y0118856D01*
X0014068Y0118985D01*
X0014142Y0119112D01*
X0014219Y0119236D01*
X0014300Y0119359D01*
X0014384Y0119479D01*
X0014471Y0119597D01*
X0014561Y0119712D01*
X0014654Y0119825D01*
X0014751Y0119936D01*
X0014850Y0120044D01*
X0014952Y0120149D01*
X0015057Y0120251D01*
X0015165Y0120350D01*
X0015276Y0120447D01*
X0015389Y0120540D01*
X0015504Y0120630D01*
X0015622Y0120717D01*
X0015742Y0120801D01*
X0015865Y0120882D01*
X0015989Y0120959D01*
X0016116Y0121033D01*
X0016245Y0121103D01*
X0016375Y0121170D01*
X0016507Y0121234D01*
X0016641Y0121293D01*
X0016776Y0121350D01*
X0016913Y0121402D01*
X0017052Y0121451D01*
X0017191Y0121496D01*
X0017332Y0121537D01*
X0017474Y0121574D01*
X0017616Y0121607D01*
X0017760Y0121637D01*
X0017904Y0121663D01*
X0018049Y0121684D01*
X0018195Y0121702D01*
X0018341Y0121716D01*
X0018487Y0121726D01*
X0018633Y0121732D01*
X0018780Y0121734D01*
X0018927Y0121732D01*
X0019073Y0121726D01*
X0019219Y0121716D01*
X0019365Y0121702D01*
X0019511Y0121684D01*
X0019656Y0121663D01*
X0019800Y0121637D01*
X0019944Y0121607D01*
X0020086Y0121574D01*
X0020228Y0121537D01*
X0020369Y0121496D01*
X0020508Y0121451D01*
X0020647Y0121402D01*
X0020784Y0121350D01*
X0020919Y0121293D01*
X0021053Y0121234D01*
X0021185Y0121170D01*
X0021315Y0121103D01*
X0021444Y0121033D01*
X0021571Y0120959D01*
X0021695Y0120882D01*
X0021818Y0120801D01*
X0021938Y0120717D01*
X0022056Y0120630D01*
X0022171Y0120540D01*
X0022284Y0120447D01*
X0022395Y0120350D01*
X0022503Y0120251D01*
X0022608Y0120149D01*
X0022710Y0120044D01*
X0022809Y0119936D01*
X0022906Y0119825D01*
X0022999Y0119712D01*
X0023089Y0119597D01*
X0023176Y0119479D01*
X0023260Y0119359D01*
X0023341Y0119236D01*
X0023418Y0119112D01*
X0023492Y0118985D01*
X0023562Y0118856D01*
X0023629Y0118726D01*
X0023693Y0118594D01*
X0023752Y0118460D01*
X0023809Y0118325D01*
X0023861Y0118188D01*
X0023910Y0118049D01*
X0023955Y0117910D01*
X0023996Y0117769D01*
X0024033Y0117627D01*
X0024066Y0117485D01*
X0024096Y0117341D01*
X0024122Y0117197D01*
X0024143Y0117052D01*
X0024161Y0116906D01*
X0024175Y0116760D01*
X0024185Y0116614D01*
X0024191Y0116468D01*
X0024193Y0116321D01*
X0024191Y0116174D01*
X0024185Y0116028D01*
X0024175Y0115882D01*
X0024161Y0115736D01*
X0024143Y0115590D01*
X0024122Y0115445D01*
X0024096Y0115301D01*
X0024066Y0115157D01*
X0024033Y0115015D01*
X0023996Y0114873D01*
X0023955Y0114732D01*
X0023910Y0114593D01*
X0023861Y0114454D01*
X0023809Y0114317D01*
X0023752Y0114182D01*
X0023693Y0114048D01*
X0023629Y0113916D01*
X0023562Y0113786D01*
X0023492Y0113657D01*
X0023418Y0113530D01*
X0023341Y0113406D01*
X0023260Y0113283D01*
X0023176Y0113163D01*
X0023089Y0113045D01*
X0022999Y0112930D01*
X0022906Y0112817D01*
X0022809Y0112706D01*
X0022710Y0112598D01*
X0022608Y0112493D01*
X0022503Y0112391D01*
X0022395Y0112292D01*
X0022284Y0112195D01*
X0022171Y0112102D01*
X0022056Y0112012D01*
X0021938Y0111925D01*
X0021818Y0111841D01*
X0021695Y0111760D01*
X0021571Y0111683D01*
X0021444Y0111609D01*
X0021315Y0111539D01*
X0021185Y0111472D01*
X0021053Y0111408D01*
X0020919Y0111349D01*
X0020784Y0111292D01*
X0020647Y0111240D01*
X0020508Y0111191D01*
X0020369Y0111146D01*
X0020228Y0111105D01*
X0020086Y0111068D01*
X0019944Y0111035D01*
X0019800Y0111005D01*
X0019656Y0110979D01*
X0019511Y0110958D01*
X0019365Y0110940D01*
X0019219Y0110926D01*
X0019073Y0110916D01*
X0018927Y0110910D01*
X0018780Y0110908D01*
X0018633Y0110910D01*
X0018487Y0110916D01*
X0018341Y0110926D01*
X0018195Y0110940D01*
X0018049Y0110958D01*
X0017904Y0110979D01*
X0017760Y0111005D01*
X0017616Y0111035D01*
X0017474Y0111068D01*
X0017332Y0111105D01*
X0017191Y0111146D01*
X0017052Y0111191D01*
X0016913Y0111240D01*
X0016776Y0111292D01*
X0016641Y0111349D01*
X0016507Y0111408D01*
X0016375Y0111472D01*
X0016245Y0111539D01*
X0016116Y0111609D01*
X0015989Y0111683D01*
X0015865Y0111760D01*
X0015742Y0111841D01*
X0015622Y0111925D01*
X0015504Y0112012D01*
X0015389Y0112102D01*
X0015276Y0112195D01*
X0015165Y0112292D01*
X0015057Y0112391D01*
X0014952Y0112493D01*
X0014850Y0112598D01*
X0014751Y0112706D01*
X0014654Y0112817D01*
X0014561Y0112930D01*
X0014471Y0113045D01*
X0014384Y0113163D01*
X0014300Y0113283D01*
X0014219Y0113406D01*
X0014142Y0113530D01*
X0014068Y0113657D01*
X0013998Y0113786D01*
X0013931Y0113916D01*
X0013867Y0114048D01*
X0013808Y0114182D01*
X0013751Y0114317D01*
X0013699Y0114454D01*
X0013650Y0114593D01*
X0013605Y0114732D01*
X0013564Y0114873D01*
X0013527Y0115015D01*
X0013494Y0115157D01*
X0013464Y0115301D01*
X0013438Y0115445D01*
X0013417Y0115590D01*
X0013399Y0115736D01*
X0013385Y0115882D01*
X0013375Y0116028D01*
X0013369Y0116174D01*
X0013367Y0116321D01*
X0192953Y0026991D02*
X0192955Y0027088D01*
X0192961Y0027185D01*
X0192971Y0027281D01*
X0192985Y0027377D01*
X0193003Y0027473D01*
X0193024Y0027567D01*
X0193050Y0027661D01*
X0193079Y0027753D01*
X0193113Y0027844D01*
X0193149Y0027934D01*
X0193190Y0028022D01*
X0193234Y0028108D01*
X0193282Y0028193D01*
X0193333Y0028275D01*
X0193387Y0028356D01*
X0193445Y0028434D01*
X0193506Y0028509D01*
X0193569Y0028582D01*
X0193636Y0028653D01*
X0193706Y0028720D01*
X0193778Y0028785D01*
X0193853Y0028846D01*
X0193931Y0028905D01*
X0194010Y0028960D01*
X0194092Y0029012D01*
X0194176Y0029060D01*
X0194262Y0029105D01*
X0194350Y0029147D01*
X0194439Y0029185D01*
X0194530Y0029219D01*
X0194622Y0029249D01*
X0194715Y0029276D01*
X0194810Y0029298D01*
X0194905Y0029317D01*
X0195001Y0029332D01*
X0195097Y0029343D01*
X0195194Y0029350D01*
X0195291Y0029353D01*
X0195388Y0029352D01*
X0195485Y0029347D01*
X0195581Y0029338D01*
X0195677Y0029325D01*
X0195773Y0029308D01*
X0195868Y0029287D01*
X0195961Y0029263D01*
X0196054Y0029234D01*
X0196146Y0029202D01*
X0196236Y0029166D01*
X0196324Y0029127D01*
X0196411Y0029083D01*
X0196496Y0029037D01*
X0196579Y0028986D01*
X0196660Y0028933D01*
X0196738Y0028876D01*
X0196815Y0028816D01*
X0196888Y0028753D01*
X0196959Y0028687D01*
X0197027Y0028618D01*
X0197093Y0028546D01*
X0197155Y0028472D01*
X0197214Y0028395D01*
X0197270Y0028316D01*
X0197323Y0028234D01*
X0197373Y0028151D01*
X0197418Y0028065D01*
X0197461Y0027978D01*
X0197500Y0027889D01*
X0197535Y0027799D01*
X0197566Y0027707D01*
X0197593Y0027614D01*
X0197617Y0027520D01*
X0197637Y0027425D01*
X0197653Y0027329D01*
X0197665Y0027233D01*
X0197673Y0027136D01*
X0197677Y0027039D01*
X0197677Y0026943D01*
X0197673Y0026846D01*
X0197665Y0026749D01*
X0197653Y0026653D01*
X0197637Y0026557D01*
X0197617Y0026462D01*
X0197593Y0026368D01*
X0197566Y0026275D01*
X0197535Y0026183D01*
X0197500Y0026093D01*
X0197461Y0026004D01*
X0197418Y0025917D01*
X0197373Y0025831D01*
X0197323Y0025748D01*
X0197270Y0025666D01*
X0197214Y0025587D01*
X0197155Y0025510D01*
X0197093Y0025436D01*
X0197027Y0025364D01*
X0196959Y0025295D01*
X0196888Y0025229D01*
X0196815Y0025166D01*
X0196738Y0025106D01*
X0196660Y0025049D01*
X0196579Y0024996D01*
X0196496Y0024945D01*
X0196411Y0024899D01*
X0196324Y0024855D01*
X0196236Y0024816D01*
X0196146Y0024780D01*
X0196054Y0024748D01*
X0195961Y0024719D01*
X0195868Y0024695D01*
X0195773Y0024674D01*
X0195677Y0024657D01*
X0195581Y0024644D01*
X0195485Y0024635D01*
X0195388Y0024630D01*
X0195291Y0024629D01*
X0195194Y0024632D01*
X0195097Y0024639D01*
X0195001Y0024650D01*
X0194905Y0024665D01*
X0194810Y0024684D01*
X0194715Y0024706D01*
X0194622Y0024733D01*
X0194530Y0024763D01*
X0194439Y0024797D01*
X0194350Y0024835D01*
X0194262Y0024877D01*
X0194176Y0024922D01*
X0194092Y0024970D01*
X0194010Y0025022D01*
X0193931Y0025077D01*
X0193853Y0025136D01*
X0193778Y0025197D01*
X0193706Y0025262D01*
X0193636Y0025329D01*
X0193569Y0025400D01*
X0193506Y0025473D01*
X0193445Y0025548D01*
X0193387Y0025626D01*
X0193333Y0025707D01*
X0193282Y0025789D01*
X0193234Y0025874D01*
X0193190Y0025960D01*
X0193149Y0026048D01*
X0193113Y0026138D01*
X0193079Y0026229D01*
X0193050Y0026321D01*
X0193024Y0026415D01*
X0193003Y0026509D01*
X0192985Y0026605D01*
X0192971Y0026701D01*
X0192961Y0026797D01*
X0192955Y0026894D01*
X0192953Y0026991D01*
X0192953Y0017148D02*
X0192955Y0017245D01*
X0192961Y0017342D01*
X0192971Y0017438D01*
X0192985Y0017534D01*
X0193003Y0017630D01*
X0193024Y0017724D01*
X0193050Y0017818D01*
X0193079Y0017910D01*
X0193113Y0018001D01*
X0193149Y0018091D01*
X0193190Y0018179D01*
X0193234Y0018265D01*
X0193282Y0018350D01*
X0193333Y0018432D01*
X0193387Y0018513D01*
X0193445Y0018591D01*
X0193506Y0018666D01*
X0193569Y0018739D01*
X0193636Y0018810D01*
X0193706Y0018877D01*
X0193778Y0018942D01*
X0193853Y0019003D01*
X0193931Y0019062D01*
X0194010Y0019117D01*
X0194092Y0019169D01*
X0194176Y0019217D01*
X0194262Y0019262D01*
X0194350Y0019304D01*
X0194439Y0019342D01*
X0194530Y0019376D01*
X0194622Y0019406D01*
X0194715Y0019433D01*
X0194810Y0019455D01*
X0194905Y0019474D01*
X0195001Y0019489D01*
X0195097Y0019500D01*
X0195194Y0019507D01*
X0195291Y0019510D01*
X0195388Y0019509D01*
X0195485Y0019504D01*
X0195581Y0019495D01*
X0195677Y0019482D01*
X0195773Y0019465D01*
X0195868Y0019444D01*
X0195961Y0019420D01*
X0196054Y0019391D01*
X0196146Y0019359D01*
X0196236Y0019323D01*
X0196324Y0019284D01*
X0196411Y0019240D01*
X0196496Y0019194D01*
X0196579Y0019143D01*
X0196660Y0019090D01*
X0196738Y0019033D01*
X0196815Y0018973D01*
X0196888Y0018910D01*
X0196959Y0018844D01*
X0197027Y0018775D01*
X0197093Y0018703D01*
X0197155Y0018629D01*
X0197214Y0018552D01*
X0197270Y0018473D01*
X0197323Y0018391D01*
X0197373Y0018308D01*
X0197418Y0018222D01*
X0197461Y0018135D01*
X0197500Y0018046D01*
X0197535Y0017956D01*
X0197566Y0017864D01*
X0197593Y0017771D01*
X0197617Y0017677D01*
X0197637Y0017582D01*
X0197653Y0017486D01*
X0197665Y0017390D01*
X0197673Y0017293D01*
X0197677Y0017196D01*
X0197677Y0017100D01*
X0197673Y0017003D01*
X0197665Y0016906D01*
X0197653Y0016810D01*
X0197637Y0016714D01*
X0197617Y0016619D01*
X0197593Y0016525D01*
X0197566Y0016432D01*
X0197535Y0016340D01*
X0197500Y0016250D01*
X0197461Y0016161D01*
X0197418Y0016074D01*
X0197373Y0015988D01*
X0197323Y0015905D01*
X0197270Y0015823D01*
X0197214Y0015744D01*
X0197155Y0015667D01*
X0197093Y0015593D01*
X0197027Y0015521D01*
X0196959Y0015452D01*
X0196888Y0015386D01*
X0196815Y0015323D01*
X0196738Y0015263D01*
X0196660Y0015206D01*
X0196579Y0015153D01*
X0196496Y0015102D01*
X0196411Y0015056D01*
X0196324Y0015012D01*
X0196236Y0014973D01*
X0196146Y0014937D01*
X0196054Y0014905D01*
X0195961Y0014876D01*
X0195868Y0014852D01*
X0195773Y0014831D01*
X0195677Y0014814D01*
X0195581Y0014801D01*
X0195485Y0014792D01*
X0195388Y0014787D01*
X0195291Y0014786D01*
X0195194Y0014789D01*
X0195097Y0014796D01*
X0195001Y0014807D01*
X0194905Y0014822D01*
X0194810Y0014841D01*
X0194715Y0014863D01*
X0194622Y0014890D01*
X0194530Y0014920D01*
X0194439Y0014954D01*
X0194350Y0014992D01*
X0194262Y0015034D01*
X0194176Y0015079D01*
X0194092Y0015127D01*
X0194010Y0015179D01*
X0193931Y0015234D01*
X0193853Y0015293D01*
X0193778Y0015354D01*
X0193706Y0015419D01*
X0193636Y0015486D01*
X0193569Y0015557D01*
X0193506Y0015630D01*
X0193445Y0015705D01*
X0193387Y0015783D01*
X0193333Y0015864D01*
X0193282Y0015946D01*
X0193234Y0016031D01*
X0193190Y0016117D01*
X0193149Y0016205D01*
X0193113Y0016295D01*
X0193079Y0016386D01*
X0193050Y0016478D01*
X0193024Y0016572D01*
X0193003Y0016666D01*
X0192985Y0016762D01*
X0192971Y0016858D01*
X0192961Y0016954D01*
X0192955Y0017051D01*
X0192953Y0017148D01*
X0232323Y0017148D02*
X0232325Y0017245D01*
X0232331Y0017342D01*
X0232341Y0017438D01*
X0232355Y0017534D01*
X0232373Y0017630D01*
X0232394Y0017724D01*
X0232420Y0017818D01*
X0232449Y0017910D01*
X0232483Y0018001D01*
X0232519Y0018091D01*
X0232560Y0018179D01*
X0232604Y0018265D01*
X0232652Y0018350D01*
X0232703Y0018432D01*
X0232757Y0018513D01*
X0232815Y0018591D01*
X0232876Y0018666D01*
X0232939Y0018739D01*
X0233006Y0018810D01*
X0233076Y0018877D01*
X0233148Y0018942D01*
X0233223Y0019003D01*
X0233301Y0019062D01*
X0233380Y0019117D01*
X0233462Y0019169D01*
X0233546Y0019217D01*
X0233632Y0019262D01*
X0233720Y0019304D01*
X0233809Y0019342D01*
X0233900Y0019376D01*
X0233992Y0019406D01*
X0234085Y0019433D01*
X0234180Y0019455D01*
X0234275Y0019474D01*
X0234371Y0019489D01*
X0234467Y0019500D01*
X0234564Y0019507D01*
X0234661Y0019510D01*
X0234758Y0019509D01*
X0234855Y0019504D01*
X0234951Y0019495D01*
X0235047Y0019482D01*
X0235143Y0019465D01*
X0235238Y0019444D01*
X0235331Y0019420D01*
X0235424Y0019391D01*
X0235516Y0019359D01*
X0235606Y0019323D01*
X0235694Y0019284D01*
X0235781Y0019240D01*
X0235866Y0019194D01*
X0235949Y0019143D01*
X0236030Y0019090D01*
X0236108Y0019033D01*
X0236185Y0018973D01*
X0236258Y0018910D01*
X0236329Y0018844D01*
X0236397Y0018775D01*
X0236463Y0018703D01*
X0236525Y0018629D01*
X0236584Y0018552D01*
X0236640Y0018473D01*
X0236693Y0018391D01*
X0236743Y0018308D01*
X0236788Y0018222D01*
X0236831Y0018135D01*
X0236870Y0018046D01*
X0236905Y0017956D01*
X0236936Y0017864D01*
X0236963Y0017771D01*
X0236987Y0017677D01*
X0237007Y0017582D01*
X0237023Y0017486D01*
X0237035Y0017390D01*
X0237043Y0017293D01*
X0237047Y0017196D01*
X0237047Y0017100D01*
X0237043Y0017003D01*
X0237035Y0016906D01*
X0237023Y0016810D01*
X0237007Y0016714D01*
X0236987Y0016619D01*
X0236963Y0016525D01*
X0236936Y0016432D01*
X0236905Y0016340D01*
X0236870Y0016250D01*
X0236831Y0016161D01*
X0236788Y0016074D01*
X0236743Y0015988D01*
X0236693Y0015905D01*
X0236640Y0015823D01*
X0236584Y0015744D01*
X0236525Y0015667D01*
X0236463Y0015593D01*
X0236397Y0015521D01*
X0236329Y0015452D01*
X0236258Y0015386D01*
X0236185Y0015323D01*
X0236108Y0015263D01*
X0236030Y0015206D01*
X0235949Y0015153D01*
X0235866Y0015102D01*
X0235781Y0015056D01*
X0235694Y0015012D01*
X0235606Y0014973D01*
X0235516Y0014937D01*
X0235424Y0014905D01*
X0235331Y0014876D01*
X0235238Y0014852D01*
X0235143Y0014831D01*
X0235047Y0014814D01*
X0234951Y0014801D01*
X0234855Y0014792D01*
X0234758Y0014787D01*
X0234661Y0014786D01*
X0234564Y0014789D01*
X0234467Y0014796D01*
X0234371Y0014807D01*
X0234275Y0014822D01*
X0234180Y0014841D01*
X0234085Y0014863D01*
X0233992Y0014890D01*
X0233900Y0014920D01*
X0233809Y0014954D01*
X0233720Y0014992D01*
X0233632Y0015034D01*
X0233546Y0015079D01*
X0233462Y0015127D01*
X0233380Y0015179D01*
X0233301Y0015234D01*
X0233223Y0015293D01*
X0233148Y0015354D01*
X0233076Y0015419D01*
X0233006Y0015486D01*
X0232939Y0015557D01*
X0232876Y0015630D01*
X0232815Y0015705D01*
X0232757Y0015783D01*
X0232703Y0015864D01*
X0232652Y0015946D01*
X0232604Y0016031D01*
X0232560Y0016117D01*
X0232519Y0016205D01*
X0232483Y0016295D01*
X0232449Y0016386D01*
X0232420Y0016478D01*
X0232394Y0016572D01*
X0232373Y0016666D01*
X0232355Y0016762D01*
X0232341Y0016858D01*
X0232331Y0016954D01*
X0232325Y0017051D01*
X0232323Y0017148D01*
X0241713Y0025770D02*
X0241715Y0025917D01*
X0241721Y0026063D01*
X0241731Y0026209D01*
X0241745Y0026355D01*
X0241763Y0026501D01*
X0241784Y0026646D01*
X0241810Y0026790D01*
X0241840Y0026934D01*
X0241873Y0027076D01*
X0241910Y0027218D01*
X0241951Y0027359D01*
X0241996Y0027498D01*
X0242045Y0027637D01*
X0242097Y0027774D01*
X0242154Y0027909D01*
X0242213Y0028043D01*
X0242277Y0028175D01*
X0242344Y0028305D01*
X0242414Y0028434D01*
X0242488Y0028561D01*
X0242565Y0028685D01*
X0242646Y0028808D01*
X0242730Y0028928D01*
X0242817Y0029046D01*
X0242907Y0029161D01*
X0243000Y0029274D01*
X0243097Y0029385D01*
X0243196Y0029493D01*
X0243298Y0029598D01*
X0243403Y0029700D01*
X0243511Y0029799D01*
X0243622Y0029896D01*
X0243735Y0029989D01*
X0243850Y0030079D01*
X0243968Y0030166D01*
X0244088Y0030250D01*
X0244211Y0030331D01*
X0244335Y0030408D01*
X0244462Y0030482D01*
X0244591Y0030552D01*
X0244721Y0030619D01*
X0244853Y0030683D01*
X0244987Y0030742D01*
X0245122Y0030799D01*
X0245259Y0030851D01*
X0245398Y0030900D01*
X0245537Y0030945D01*
X0245678Y0030986D01*
X0245820Y0031023D01*
X0245962Y0031056D01*
X0246106Y0031086D01*
X0246250Y0031112D01*
X0246395Y0031133D01*
X0246541Y0031151D01*
X0246687Y0031165D01*
X0246833Y0031175D01*
X0246979Y0031181D01*
X0247126Y0031183D01*
X0247273Y0031181D01*
X0247419Y0031175D01*
X0247565Y0031165D01*
X0247711Y0031151D01*
X0247857Y0031133D01*
X0248002Y0031112D01*
X0248146Y0031086D01*
X0248290Y0031056D01*
X0248432Y0031023D01*
X0248574Y0030986D01*
X0248715Y0030945D01*
X0248854Y0030900D01*
X0248993Y0030851D01*
X0249130Y0030799D01*
X0249265Y0030742D01*
X0249399Y0030683D01*
X0249531Y0030619D01*
X0249661Y0030552D01*
X0249790Y0030482D01*
X0249917Y0030408D01*
X0250041Y0030331D01*
X0250164Y0030250D01*
X0250284Y0030166D01*
X0250402Y0030079D01*
X0250517Y0029989D01*
X0250630Y0029896D01*
X0250741Y0029799D01*
X0250849Y0029700D01*
X0250954Y0029598D01*
X0251056Y0029493D01*
X0251155Y0029385D01*
X0251252Y0029274D01*
X0251345Y0029161D01*
X0251435Y0029046D01*
X0251522Y0028928D01*
X0251606Y0028808D01*
X0251687Y0028685D01*
X0251764Y0028561D01*
X0251838Y0028434D01*
X0251908Y0028305D01*
X0251975Y0028175D01*
X0252039Y0028043D01*
X0252098Y0027909D01*
X0252155Y0027774D01*
X0252207Y0027637D01*
X0252256Y0027498D01*
X0252301Y0027359D01*
X0252342Y0027218D01*
X0252379Y0027076D01*
X0252412Y0026934D01*
X0252442Y0026790D01*
X0252468Y0026646D01*
X0252489Y0026501D01*
X0252507Y0026355D01*
X0252521Y0026209D01*
X0252531Y0026063D01*
X0252537Y0025917D01*
X0252539Y0025770D01*
X0252537Y0025623D01*
X0252531Y0025477D01*
X0252521Y0025331D01*
X0252507Y0025185D01*
X0252489Y0025039D01*
X0252468Y0024894D01*
X0252442Y0024750D01*
X0252412Y0024606D01*
X0252379Y0024464D01*
X0252342Y0024322D01*
X0252301Y0024181D01*
X0252256Y0024042D01*
X0252207Y0023903D01*
X0252155Y0023766D01*
X0252098Y0023631D01*
X0252039Y0023497D01*
X0251975Y0023365D01*
X0251908Y0023235D01*
X0251838Y0023106D01*
X0251764Y0022979D01*
X0251687Y0022855D01*
X0251606Y0022732D01*
X0251522Y0022612D01*
X0251435Y0022494D01*
X0251345Y0022379D01*
X0251252Y0022266D01*
X0251155Y0022155D01*
X0251056Y0022047D01*
X0250954Y0021942D01*
X0250849Y0021840D01*
X0250741Y0021741D01*
X0250630Y0021644D01*
X0250517Y0021551D01*
X0250402Y0021461D01*
X0250284Y0021374D01*
X0250164Y0021290D01*
X0250041Y0021209D01*
X0249917Y0021132D01*
X0249790Y0021058D01*
X0249661Y0020988D01*
X0249531Y0020921D01*
X0249399Y0020857D01*
X0249265Y0020798D01*
X0249130Y0020741D01*
X0248993Y0020689D01*
X0248854Y0020640D01*
X0248715Y0020595D01*
X0248574Y0020554D01*
X0248432Y0020517D01*
X0248290Y0020484D01*
X0248146Y0020454D01*
X0248002Y0020428D01*
X0247857Y0020407D01*
X0247711Y0020389D01*
X0247565Y0020375D01*
X0247419Y0020365D01*
X0247273Y0020359D01*
X0247126Y0020357D01*
X0246979Y0020359D01*
X0246833Y0020365D01*
X0246687Y0020375D01*
X0246541Y0020389D01*
X0246395Y0020407D01*
X0246250Y0020428D01*
X0246106Y0020454D01*
X0245962Y0020484D01*
X0245820Y0020517D01*
X0245678Y0020554D01*
X0245537Y0020595D01*
X0245398Y0020640D01*
X0245259Y0020689D01*
X0245122Y0020741D01*
X0244987Y0020798D01*
X0244853Y0020857D01*
X0244721Y0020921D01*
X0244591Y0020988D01*
X0244462Y0021058D01*
X0244335Y0021132D01*
X0244211Y0021209D01*
X0244088Y0021290D01*
X0243968Y0021374D01*
X0243850Y0021461D01*
X0243735Y0021551D01*
X0243622Y0021644D01*
X0243511Y0021741D01*
X0243403Y0021840D01*
X0243298Y0021942D01*
X0243196Y0022047D01*
X0243097Y0022155D01*
X0243000Y0022266D01*
X0242907Y0022379D01*
X0242817Y0022494D01*
X0242730Y0022612D01*
X0242646Y0022732D01*
X0242565Y0022855D01*
X0242488Y0022979D01*
X0242414Y0023106D01*
X0242344Y0023235D01*
X0242277Y0023365D01*
X0242213Y0023497D01*
X0242154Y0023631D01*
X0242097Y0023766D01*
X0242045Y0023903D01*
X0241996Y0024042D01*
X0241951Y0024181D01*
X0241910Y0024322D01*
X0241873Y0024464D01*
X0241840Y0024606D01*
X0241810Y0024750D01*
X0241784Y0024894D01*
X0241763Y0025039D01*
X0241745Y0025185D01*
X0241731Y0025331D01*
X0241721Y0025477D01*
X0241715Y0025623D01*
X0241713Y0025770D01*
X0232323Y0026991D02*
X0232325Y0027088D01*
X0232331Y0027185D01*
X0232341Y0027281D01*
X0232355Y0027377D01*
X0232373Y0027473D01*
X0232394Y0027567D01*
X0232420Y0027661D01*
X0232449Y0027753D01*
X0232483Y0027844D01*
X0232519Y0027934D01*
X0232560Y0028022D01*
X0232604Y0028108D01*
X0232652Y0028193D01*
X0232703Y0028275D01*
X0232757Y0028356D01*
X0232815Y0028434D01*
X0232876Y0028509D01*
X0232939Y0028582D01*
X0233006Y0028653D01*
X0233076Y0028720D01*
X0233148Y0028785D01*
X0233223Y0028846D01*
X0233301Y0028905D01*
X0233380Y0028960D01*
X0233462Y0029012D01*
X0233546Y0029060D01*
X0233632Y0029105D01*
X0233720Y0029147D01*
X0233809Y0029185D01*
X0233900Y0029219D01*
X0233992Y0029249D01*
X0234085Y0029276D01*
X0234180Y0029298D01*
X0234275Y0029317D01*
X0234371Y0029332D01*
X0234467Y0029343D01*
X0234564Y0029350D01*
X0234661Y0029353D01*
X0234758Y0029352D01*
X0234855Y0029347D01*
X0234951Y0029338D01*
X0235047Y0029325D01*
X0235143Y0029308D01*
X0235238Y0029287D01*
X0235331Y0029263D01*
X0235424Y0029234D01*
X0235516Y0029202D01*
X0235606Y0029166D01*
X0235694Y0029127D01*
X0235781Y0029083D01*
X0235866Y0029037D01*
X0235949Y0028986D01*
X0236030Y0028933D01*
X0236108Y0028876D01*
X0236185Y0028816D01*
X0236258Y0028753D01*
X0236329Y0028687D01*
X0236397Y0028618D01*
X0236463Y0028546D01*
X0236525Y0028472D01*
X0236584Y0028395D01*
X0236640Y0028316D01*
X0236693Y0028234D01*
X0236743Y0028151D01*
X0236788Y0028065D01*
X0236831Y0027978D01*
X0236870Y0027889D01*
X0236905Y0027799D01*
X0236936Y0027707D01*
X0236963Y0027614D01*
X0236987Y0027520D01*
X0237007Y0027425D01*
X0237023Y0027329D01*
X0237035Y0027233D01*
X0237043Y0027136D01*
X0237047Y0027039D01*
X0237047Y0026943D01*
X0237043Y0026846D01*
X0237035Y0026749D01*
X0237023Y0026653D01*
X0237007Y0026557D01*
X0236987Y0026462D01*
X0236963Y0026368D01*
X0236936Y0026275D01*
X0236905Y0026183D01*
X0236870Y0026093D01*
X0236831Y0026004D01*
X0236788Y0025917D01*
X0236743Y0025831D01*
X0236693Y0025748D01*
X0236640Y0025666D01*
X0236584Y0025587D01*
X0236525Y0025510D01*
X0236463Y0025436D01*
X0236397Y0025364D01*
X0236329Y0025295D01*
X0236258Y0025229D01*
X0236185Y0025166D01*
X0236108Y0025106D01*
X0236030Y0025049D01*
X0235949Y0024996D01*
X0235866Y0024945D01*
X0235781Y0024899D01*
X0235694Y0024855D01*
X0235606Y0024816D01*
X0235516Y0024780D01*
X0235424Y0024748D01*
X0235331Y0024719D01*
X0235238Y0024695D01*
X0235143Y0024674D01*
X0235047Y0024657D01*
X0234951Y0024644D01*
X0234855Y0024635D01*
X0234758Y0024630D01*
X0234661Y0024629D01*
X0234564Y0024632D01*
X0234467Y0024639D01*
X0234371Y0024650D01*
X0234275Y0024665D01*
X0234180Y0024684D01*
X0234085Y0024706D01*
X0233992Y0024733D01*
X0233900Y0024763D01*
X0233809Y0024797D01*
X0233720Y0024835D01*
X0233632Y0024877D01*
X0233546Y0024922D01*
X0233462Y0024970D01*
X0233380Y0025022D01*
X0233301Y0025077D01*
X0233223Y0025136D01*
X0233148Y0025197D01*
X0233076Y0025262D01*
X0233006Y0025329D01*
X0232939Y0025400D01*
X0232876Y0025473D01*
X0232815Y0025548D01*
X0232757Y0025626D01*
X0232703Y0025707D01*
X0232652Y0025789D01*
X0232604Y0025874D01*
X0232560Y0025960D01*
X0232519Y0026048D01*
X0232483Y0026138D01*
X0232449Y0026229D01*
X0232420Y0026321D01*
X0232394Y0026415D01*
X0232373Y0026509D01*
X0232355Y0026605D01*
X0232341Y0026701D01*
X0232331Y0026797D01*
X0232325Y0026894D01*
X0232323Y0026991D01*
X0212638Y0046676D02*
X0212640Y0046773D01*
X0212646Y0046870D01*
X0212656Y0046966D01*
X0212670Y0047062D01*
X0212688Y0047158D01*
X0212709Y0047252D01*
X0212735Y0047346D01*
X0212764Y0047438D01*
X0212798Y0047529D01*
X0212834Y0047619D01*
X0212875Y0047707D01*
X0212919Y0047793D01*
X0212967Y0047878D01*
X0213018Y0047960D01*
X0213072Y0048041D01*
X0213130Y0048119D01*
X0213191Y0048194D01*
X0213254Y0048267D01*
X0213321Y0048338D01*
X0213391Y0048405D01*
X0213463Y0048470D01*
X0213538Y0048531D01*
X0213616Y0048590D01*
X0213695Y0048645D01*
X0213777Y0048697D01*
X0213861Y0048745D01*
X0213947Y0048790D01*
X0214035Y0048832D01*
X0214124Y0048870D01*
X0214215Y0048904D01*
X0214307Y0048934D01*
X0214400Y0048961D01*
X0214495Y0048983D01*
X0214590Y0049002D01*
X0214686Y0049017D01*
X0214782Y0049028D01*
X0214879Y0049035D01*
X0214976Y0049038D01*
X0215073Y0049037D01*
X0215170Y0049032D01*
X0215266Y0049023D01*
X0215362Y0049010D01*
X0215458Y0048993D01*
X0215553Y0048972D01*
X0215646Y0048948D01*
X0215739Y0048919D01*
X0215831Y0048887D01*
X0215921Y0048851D01*
X0216009Y0048812D01*
X0216096Y0048768D01*
X0216181Y0048722D01*
X0216264Y0048671D01*
X0216345Y0048618D01*
X0216423Y0048561D01*
X0216500Y0048501D01*
X0216573Y0048438D01*
X0216644Y0048372D01*
X0216712Y0048303D01*
X0216778Y0048231D01*
X0216840Y0048157D01*
X0216899Y0048080D01*
X0216955Y0048001D01*
X0217008Y0047919D01*
X0217058Y0047836D01*
X0217103Y0047750D01*
X0217146Y0047663D01*
X0217185Y0047574D01*
X0217220Y0047484D01*
X0217251Y0047392D01*
X0217278Y0047299D01*
X0217302Y0047205D01*
X0217322Y0047110D01*
X0217338Y0047014D01*
X0217350Y0046918D01*
X0217358Y0046821D01*
X0217362Y0046724D01*
X0217362Y0046628D01*
X0217358Y0046531D01*
X0217350Y0046434D01*
X0217338Y0046338D01*
X0217322Y0046242D01*
X0217302Y0046147D01*
X0217278Y0046053D01*
X0217251Y0045960D01*
X0217220Y0045868D01*
X0217185Y0045778D01*
X0217146Y0045689D01*
X0217103Y0045602D01*
X0217058Y0045516D01*
X0217008Y0045433D01*
X0216955Y0045351D01*
X0216899Y0045272D01*
X0216840Y0045195D01*
X0216778Y0045121D01*
X0216712Y0045049D01*
X0216644Y0044980D01*
X0216573Y0044914D01*
X0216500Y0044851D01*
X0216423Y0044791D01*
X0216345Y0044734D01*
X0216264Y0044681D01*
X0216181Y0044630D01*
X0216096Y0044584D01*
X0216009Y0044540D01*
X0215921Y0044501D01*
X0215831Y0044465D01*
X0215739Y0044433D01*
X0215646Y0044404D01*
X0215553Y0044380D01*
X0215458Y0044359D01*
X0215362Y0044342D01*
X0215266Y0044329D01*
X0215170Y0044320D01*
X0215073Y0044315D01*
X0214976Y0044314D01*
X0214879Y0044317D01*
X0214782Y0044324D01*
X0214686Y0044335D01*
X0214590Y0044350D01*
X0214495Y0044369D01*
X0214400Y0044391D01*
X0214307Y0044418D01*
X0214215Y0044448D01*
X0214124Y0044482D01*
X0214035Y0044520D01*
X0213947Y0044562D01*
X0213861Y0044607D01*
X0213777Y0044655D01*
X0213695Y0044707D01*
X0213616Y0044762D01*
X0213538Y0044821D01*
X0213463Y0044882D01*
X0213391Y0044947D01*
X0213321Y0045014D01*
X0213254Y0045085D01*
X0213191Y0045158D01*
X0213130Y0045233D01*
X0213072Y0045311D01*
X0213018Y0045392D01*
X0212967Y0045474D01*
X0212919Y0045559D01*
X0212875Y0045645D01*
X0212834Y0045733D01*
X0212798Y0045823D01*
X0212764Y0045914D01*
X0212735Y0046006D01*
X0212709Y0046100D01*
X0212688Y0046194D01*
X0212670Y0046290D01*
X0212656Y0046386D01*
X0212646Y0046482D01*
X0212640Y0046579D01*
X0212638Y0046676D01*
X0241713Y0116321D02*
X0241715Y0116468D01*
X0241721Y0116614D01*
X0241731Y0116760D01*
X0241745Y0116906D01*
X0241763Y0117052D01*
X0241784Y0117197D01*
X0241810Y0117341D01*
X0241840Y0117485D01*
X0241873Y0117627D01*
X0241910Y0117769D01*
X0241951Y0117910D01*
X0241996Y0118049D01*
X0242045Y0118188D01*
X0242097Y0118325D01*
X0242154Y0118460D01*
X0242213Y0118594D01*
X0242277Y0118726D01*
X0242344Y0118856D01*
X0242414Y0118985D01*
X0242488Y0119112D01*
X0242565Y0119236D01*
X0242646Y0119359D01*
X0242730Y0119479D01*
X0242817Y0119597D01*
X0242907Y0119712D01*
X0243000Y0119825D01*
X0243097Y0119936D01*
X0243196Y0120044D01*
X0243298Y0120149D01*
X0243403Y0120251D01*
X0243511Y0120350D01*
X0243622Y0120447D01*
X0243735Y0120540D01*
X0243850Y0120630D01*
X0243968Y0120717D01*
X0244088Y0120801D01*
X0244211Y0120882D01*
X0244335Y0120959D01*
X0244462Y0121033D01*
X0244591Y0121103D01*
X0244721Y0121170D01*
X0244853Y0121234D01*
X0244987Y0121293D01*
X0245122Y0121350D01*
X0245259Y0121402D01*
X0245398Y0121451D01*
X0245537Y0121496D01*
X0245678Y0121537D01*
X0245820Y0121574D01*
X0245962Y0121607D01*
X0246106Y0121637D01*
X0246250Y0121663D01*
X0246395Y0121684D01*
X0246541Y0121702D01*
X0246687Y0121716D01*
X0246833Y0121726D01*
X0246979Y0121732D01*
X0247126Y0121734D01*
X0247273Y0121732D01*
X0247419Y0121726D01*
X0247565Y0121716D01*
X0247711Y0121702D01*
X0247857Y0121684D01*
X0248002Y0121663D01*
X0248146Y0121637D01*
X0248290Y0121607D01*
X0248432Y0121574D01*
X0248574Y0121537D01*
X0248715Y0121496D01*
X0248854Y0121451D01*
X0248993Y0121402D01*
X0249130Y0121350D01*
X0249265Y0121293D01*
X0249399Y0121234D01*
X0249531Y0121170D01*
X0249661Y0121103D01*
X0249790Y0121033D01*
X0249917Y0120959D01*
X0250041Y0120882D01*
X0250164Y0120801D01*
X0250284Y0120717D01*
X0250402Y0120630D01*
X0250517Y0120540D01*
X0250630Y0120447D01*
X0250741Y0120350D01*
X0250849Y0120251D01*
X0250954Y0120149D01*
X0251056Y0120044D01*
X0251155Y0119936D01*
X0251252Y0119825D01*
X0251345Y0119712D01*
X0251435Y0119597D01*
X0251522Y0119479D01*
X0251606Y0119359D01*
X0251687Y0119236D01*
X0251764Y0119112D01*
X0251838Y0118985D01*
X0251908Y0118856D01*
X0251975Y0118726D01*
X0252039Y0118594D01*
X0252098Y0118460D01*
X0252155Y0118325D01*
X0252207Y0118188D01*
X0252256Y0118049D01*
X0252301Y0117910D01*
X0252342Y0117769D01*
X0252379Y0117627D01*
X0252412Y0117485D01*
X0252442Y0117341D01*
X0252468Y0117197D01*
X0252489Y0117052D01*
X0252507Y0116906D01*
X0252521Y0116760D01*
X0252531Y0116614D01*
X0252537Y0116468D01*
X0252539Y0116321D01*
X0252537Y0116174D01*
X0252531Y0116028D01*
X0252521Y0115882D01*
X0252507Y0115736D01*
X0252489Y0115590D01*
X0252468Y0115445D01*
X0252442Y0115301D01*
X0252412Y0115157D01*
X0252379Y0115015D01*
X0252342Y0114873D01*
X0252301Y0114732D01*
X0252256Y0114593D01*
X0252207Y0114454D01*
X0252155Y0114317D01*
X0252098Y0114182D01*
X0252039Y0114048D01*
X0251975Y0113916D01*
X0251908Y0113786D01*
X0251838Y0113657D01*
X0251764Y0113530D01*
X0251687Y0113406D01*
X0251606Y0113283D01*
X0251522Y0113163D01*
X0251435Y0113045D01*
X0251345Y0112930D01*
X0251252Y0112817D01*
X0251155Y0112706D01*
X0251056Y0112598D01*
X0250954Y0112493D01*
X0250849Y0112391D01*
X0250741Y0112292D01*
X0250630Y0112195D01*
X0250517Y0112102D01*
X0250402Y0112012D01*
X0250284Y0111925D01*
X0250164Y0111841D01*
X0250041Y0111760D01*
X0249917Y0111683D01*
X0249790Y0111609D01*
X0249661Y0111539D01*
X0249531Y0111472D01*
X0249399Y0111408D01*
X0249265Y0111349D01*
X0249130Y0111292D01*
X0248993Y0111240D01*
X0248854Y0111191D01*
X0248715Y0111146D01*
X0248574Y0111105D01*
X0248432Y0111068D01*
X0248290Y0111035D01*
X0248146Y0111005D01*
X0248002Y0110979D01*
X0247857Y0110958D01*
X0247711Y0110940D01*
X0247565Y0110926D01*
X0247419Y0110916D01*
X0247273Y0110910D01*
X0247126Y0110908D01*
X0246979Y0110910D01*
X0246833Y0110916D01*
X0246687Y0110926D01*
X0246541Y0110940D01*
X0246395Y0110958D01*
X0246250Y0110979D01*
X0246106Y0111005D01*
X0245962Y0111035D01*
X0245820Y0111068D01*
X0245678Y0111105D01*
X0245537Y0111146D01*
X0245398Y0111191D01*
X0245259Y0111240D01*
X0245122Y0111292D01*
X0244987Y0111349D01*
X0244853Y0111408D01*
X0244721Y0111472D01*
X0244591Y0111539D01*
X0244462Y0111609D01*
X0244335Y0111683D01*
X0244211Y0111760D01*
X0244088Y0111841D01*
X0243968Y0111925D01*
X0243850Y0112012D01*
X0243735Y0112102D01*
X0243622Y0112195D01*
X0243511Y0112292D01*
X0243403Y0112391D01*
X0243298Y0112493D01*
X0243196Y0112598D01*
X0243097Y0112706D01*
X0243000Y0112817D01*
X0242907Y0112930D01*
X0242817Y0113045D01*
X0242730Y0113163D01*
X0242646Y0113283D01*
X0242565Y0113406D01*
X0242488Y0113530D01*
X0242414Y0113657D01*
X0242344Y0113786D01*
X0242277Y0113916D01*
X0242213Y0114048D01*
X0242154Y0114182D01*
X0242097Y0114317D01*
X0242045Y0114454D01*
X0241996Y0114593D01*
X0241951Y0114732D01*
X0241910Y0114873D01*
X0241873Y0115015D01*
X0241840Y0115157D01*
X0241810Y0115301D01*
X0241784Y0115445D01*
X0241763Y0115590D01*
X0241745Y0115736D01*
X0241731Y0115882D01*
X0241721Y0116028D01*
X0241715Y0116174D01*
X0241713Y0116321D01*
D14*
X0232835Y0108861D02*
X0232835Y0123861D01*
X0230335Y0126361D01*
X0225335Y0126361D01*
X0222835Y0123861D01*
X0222835Y0108861D01*
X0225335Y0106361D01*
X0230335Y0106361D01*
X0232835Y0108861D01*
X0222835Y0108861D02*
X0220335Y0106361D01*
X0215335Y0106361D01*
X0212835Y0108861D01*
X0212835Y0123861D01*
X0215335Y0126361D01*
X0220335Y0126361D01*
X0222835Y0123861D01*
X0212835Y0123861D02*
X0210335Y0126361D01*
X0205335Y0126361D01*
X0202835Y0123861D01*
X0202835Y0108861D01*
X0200335Y0106361D01*
X0195335Y0106361D01*
X0192835Y0108861D01*
X0192835Y0123861D01*
X0195335Y0126361D01*
X0200335Y0126361D01*
X0202835Y0123861D01*
X0192835Y0123861D02*
X0190335Y0126361D01*
X0185335Y0126361D01*
X0182835Y0123861D01*
X0182835Y0108861D01*
X0180335Y0106361D01*
X0175335Y0106361D01*
X0172835Y0108861D01*
X0172835Y0123861D01*
X0175335Y0126361D01*
X0180335Y0126361D01*
X0182835Y0123861D01*
X0172835Y0123861D02*
X0170335Y0126361D01*
X0165335Y0126361D01*
X0162835Y0123861D01*
X0162835Y0108861D01*
X0160335Y0106361D01*
X0155335Y0106361D01*
X0152835Y0108861D01*
X0152835Y0123861D01*
X0155335Y0126361D01*
X0160335Y0126361D01*
X0162835Y0123861D01*
X0152835Y0123861D02*
X0150335Y0126361D01*
X0145335Y0126361D01*
X0142835Y0123861D01*
X0142835Y0108861D01*
X0140335Y0106361D01*
X0135335Y0106361D01*
X0132835Y0108861D01*
X0132835Y0123861D01*
X0135335Y0126361D01*
X0140335Y0126361D01*
X0142835Y0123861D01*
X0132835Y0123861D02*
X0130335Y0126361D01*
X0125335Y0126361D01*
X0122835Y0123861D01*
X0122835Y0108861D01*
X0120335Y0106361D01*
X0115335Y0106361D01*
X0112835Y0108861D01*
X0112835Y0123861D01*
X0115335Y0126361D01*
X0120335Y0126361D01*
X0122835Y0123861D01*
X0112835Y0123861D02*
X0110335Y0126361D01*
X0105335Y0126361D01*
X0102835Y0123861D01*
X0102835Y0108861D01*
X0100335Y0106361D01*
X0095335Y0106361D01*
X0092835Y0108861D01*
X0092835Y0123861D01*
X0095335Y0126361D01*
X0100335Y0126361D01*
X0102835Y0123861D01*
X0092835Y0123861D02*
X0090335Y0126361D01*
X0085335Y0126361D01*
X0082835Y0123861D01*
X0082835Y0108861D01*
X0085335Y0106361D01*
X0090335Y0106361D01*
X0092835Y0108861D01*
X0102835Y0108861D02*
X0105335Y0106361D01*
X0110335Y0106361D01*
X0112835Y0108861D01*
X0122835Y0108861D02*
X0125335Y0106361D01*
X0130335Y0106361D01*
X0132835Y0108861D01*
X0142835Y0108861D02*
X0145335Y0106361D01*
X0150335Y0106361D01*
X0152835Y0108861D01*
X0162835Y0108861D02*
X0165335Y0106361D01*
X0170335Y0106361D01*
X0172835Y0108861D01*
X0182835Y0108861D02*
X0185335Y0106361D01*
X0190335Y0106361D01*
X0192835Y0108861D01*
X0202835Y0108861D02*
X0205335Y0106361D01*
X0210335Y0106361D01*
X0212835Y0108861D01*
X0183987Y0084450D02*
X0166013Y0084450D01*
X0166013Y0059531D01*
X0183987Y0059531D01*
X0183987Y0084450D01*
X0168400Y0080950D02*
X0168402Y0081034D01*
X0168408Y0081119D01*
X0168418Y0081202D01*
X0168432Y0081286D01*
X0168449Y0081368D01*
X0168471Y0081450D01*
X0168496Y0081530D01*
X0168525Y0081609D01*
X0168558Y0081687D01*
X0168594Y0081763D01*
X0168634Y0081838D01*
X0168678Y0081910D01*
X0168724Y0081981D01*
X0168774Y0082049D01*
X0168827Y0082114D01*
X0168883Y0082177D01*
X0168942Y0082238D01*
X0169004Y0082295D01*
X0169068Y0082350D01*
X0169135Y0082401D01*
X0169204Y0082450D01*
X0169276Y0082495D01*
X0169349Y0082536D01*
X0169424Y0082574D01*
X0169501Y0082609D01*
X0169580Y0082640D01*
X0169660Y0082667D01*
X0169741Y0082690D01*
X0169823Y0082710D01*
X0169906Y0082726D01*
X0169989Y0082738D01*
X0170074Y0082746D01*
X0170158Y0082750D01*
X0170242Y0082750D01*
X0170326Y0082746D01*
X0170411Y0082738D01*
X0170494Y0082726D01*
X0170577Y0082710D01*
X0170659Y0082690D01*
X0170740Y0082667D01*
X0170820Y0082640D01*
X0170899Y0082609D01*
X0170976Y0082574D01*
X0171051Y0082536D01*
X0171124Y0082495D01*
X0171196Y0082450D01*
X0171265Y0082401D01*
X0171332Y0082350D01*
X0171396Y0082295D01*
X0171458Y0082238D01*
X0171517Y0082177D01*
X0171573Y0082114D01*
X0171626Y0082049D01*
X0171676Y0081981D01*
X0171722Y0081910D01*
X0171766Y0081838D01*
X0171806Y0081763D01*
X0171842Y0081687D01*
X0171875Y0081609D01*
X0171904Y0081530D01*
X0171929Y0081450D01*
X0171951Y0081368D01*
X0171968Y0081286D01*
X0171982Y0081202D01*
X0171992Y0081119D01*
X0171998Y0081034D01*
X0172000Y0080950D01*
X0171998Y0080866D01*
X0171992Y0080781D01*
X0171982Y0080698D01*
X0171968Y0080614D01*
X0171951Y0080532D01*
X0171929Y0080450D01*
X0171904Y0080370D01*
X0171875Y0080291D01*
X0171842Y0080213D01*
X0171806Y0080137D01*
X0171766Y0080062D01*
X0171722Y0079990D01*
X0171676Y0079919D01*
X0171626Y0079851D01*
X0171573Y0079786D01*
X0171517Y0079723D01*
X0171458Y0079662D01*
X0171396Y0079605D01*
X0171332Y0079550D01*
X0171265Y0079499D01*
X0171196Y0079450D01*
X0171124Y0079405D01*
X0171051Y0079364D01*
X0170976Y0079326D01*
X0170899Y0079291D01*
X0170820Y0079260D01*
X0170740Y0079233D01*
X0170659Y0079210D01*
X0170577Y0079190D01*
X0170494Y0079174D01*
X0170411Y0079162D01*
X0170326Y0079154D01*
X0170242Y0079150D01*
X0170158Y0079150D01*
X0170074Y0079154D01*
X0169989Y0079162D01*
X0169906Y0079174D01*
X0169823Y0079190D01*
X0169741Y0079210D01*
X0169660Y0079233D01*
X0169580Y0079260D01*
X0169501Y0079291D01*
X0169424Y0079326D01*
X0169349Y0079364D01*
X0169276Y0079405D01*
X0169204Y0079450D01*
X0169135Y0079499D01*
X0169068Y0079550D01*
X0169004Y0079605D01*
X0168942Y0079662D01*
X0168883Y0079723D01*
X0168827Y0079786D01*
X0168774Y0079851D01*
X0168724Y0079919D01*
X0168678Y0079990D01*
X0168634Y0080062D01*
X0168594Y0080137D01*
X0168558Y0080213D01*
X0168525Y0080291D01*
X0168496Y0080370D01*
X0168471Y0080450D01*
X0168449Y0080532D01*
X0168432Y0080614D01*
X0168418Y0080698D01*
X0168408Y0080781D01*
X0168402Y0080866D01*
X0168400Y0080950D01*
X0116701Y0080892D02*
X0113299Y0080892D01*
X0113299Y0078089D02*
X0116701Y0078089D01*
X0116701Y0073392D02*
X0113299Y0073392D01*
X0113299Y0070589D02*
X0116701Y0070589D01*
X0116701Y0065892D02*
X0113299Y0065892D01*
X0113299Y0063089D02*
X0116701Y0063089D01*
X0116701Y0058392D02*
X0113299Y0058392D01*
X0113299Y0055589D02*
X0116701Y0055589D01*
X0116701Y0050892D02*
X0113299Y0050892D01*
X0113299Y0048089D02*
X0116701Y0048089D01*
X0163598Y0048691D02*
X0163598Y0045290D01*
X0166402Y0045290D02*
X0166402Y0048691D01*
X0173598Y0048691D02*
X0173598Y0045290D01*
X0176402Y0045290D02*
X0176402Y0048691D01*
X0183598Y0048691D02*
X0183598Y0045290D01*
X0186402Y0045290D02*
X0186402Y0048691D01*
X0116701Y0085589D02*
X0113299Y0085589D01*
X0113299Y0088392D02*
X0116701Y0088392D01*
X0082835Y0108861D02*
X0080335Y0106361D01*
X0075335Y0106361D01*
X0072835Y0108861D01*
X0072835Y0123861D01*
X0075335Y0126361D01*
X0080335Y0126361D01*
X0082835Y0123861D01*
X0072835Y0123861D02*
X0070335Y0126361D01*
X0065335Y0126361D01*
X0062835Y0123861D01*
X0062835Y0108861D01*
X0065335Y0106361D01*
X0070335Y0106361D01*
X0072835Y0108861D01*
X0062835Y0108861D02*
X0060335Y0106361D01*
X0055335Y0106361D01*
X0052835Y0108861D01*
X0052835Y0123861D01*
X0055335Y0126361D01*
X0060335Y0126361D01*
X0062835Y0123861D01*
X0052835Y0123861D02*
X0050335Y0126361D01*
X0045335Y0126361D01*
X0042835Y0123861D01*
X0042835Y0108861D01*
X0045335Y0106361D01*
X0050335Y0106361D01*
X0052835Y0108861D01*
X0042835Y0108861D02*
X0040335Y0106361D01*
X0035335Y0106361D01*
X0032835Y0108861D01*
X0032835Y0123861D01*
X0035335Y0126361D01*
X0040335Y0126361D01*
X0042835Y0123861D01*
D15*
X0164363Y0083506D03*
X0164363Y0080947D03*
X0164363Y0078388D03*
X0164363Y0075829D03*
X0164363Y0073270D03*
X0164363Y0070711D03*
X0164363Y0068152D03*
X0164363Y0065593D03*
X0164363Y0063034D03*
X0164363Y0060475D03*
X0185637Y0060475D03*
X0185637Y0063034D03*
X0185637Y0065593D03*
X0185637Y0068152D03*
X0185637Y0070711D03*
X0185637Y0073270D03*
X0185637Y0075829D03*
X0185637Y0078388D03*
X0185637Y0080947D03*
X0185637Y0083506D03*
D16*
X0196929Y0087069D02*
X0196929Y0096912D01*
X0200079Y0100061D01*
X0213071Y0100061D01*
X0213071Y0083920D01*
X0200079Y0083920D01*
X0196929Y0087069D01*
X0197717Y0091991D02*
X0197719Y0092170D01*
X0197726Y0092348D01*
X0197737Y0092527D01*
X0197752Y0092705D01*
X0197772Y0092883D01*
X0197796Y0093060D01*
X0197824Y0093236D01*
X0197857Y0093412D01*
X0197894Y0093587D01*
X0197935Y0093761D01*
X0197981Y0093933D01*
X0198031Y0094105D01*
X0198085Y0094276D01*
X0198143Y0094445D01*
X0198205Y0094612D01*
X0198271Y0094778D01*
X0198342Y0094942D01*
X0198416Y0095105D01*
X0198495Y0095266D01*
X0198577Y0095424D01*
X0198663Y0095581D01*
X0198753Y0095735D01*
X0198847Y0095887D01*
X0198944Y0096037D01*
X0199046Y0096185D01*
X0199150Y0096329D01*
X0199258Y0096472D01*
X0199370Y0096611D01*
X0199485Y0096748D01*
X0199604Y0096882D01*
X0199725Y0097013D01*
X0199850Y0097141D01*
X0199978Y0097266D01*
X0200109Y0097387D01*
X0200243Y0097506D01*
X0200380Y0097621D01*
X0200519Y0097733D01*
X0200662Y0097841D01*
X0200806Y0097945D01*
X0200954Y0098047D01*
X0201104Y0098144D01*
X0201256Y0098238D01*
X0201410Y0098328D01*
X0201567Y0098414D01*
X0201725Y0098496D01*
X0201886Y0098575D01*
X0202049Y0098649D01*
X0202213Y0098720D01*
X0202379Y0098786D01*
X0202546Y0098848D01*
X0202715Y0098906D01*
X0202886Y0098960D01*
X0203058Y0099010D01*
X0203230Y0099056D01*
X0203404Y0099097D01*
X0203579Y0099134D01*
X0203755Y0099167D01*
X0203931Y0099195D01*
X0204108Y0099219D01*
X0204286Y0099239D01*
X0204464Y0099254D01*
X0204643Y0099265D01*
X0204821Y0099272D01*
X0205000Y0099274D01*
X0205179Y0099272D01*
X0205357Y0099265D01*
X0205536Y0099254D01*
X0205714Y0099239D01*
X0205892Y0099219D01*
X0206069Y0099195D01*
X0206245Y0099167D01*
X0206421Y0099134D01*
X0206596Y0099097D01*
X0206770Y0099056D01*
X0206942Y0099010D01*
X0207114Y0098960D01*
X0207285Y0098906D01*
X0207454Y0098848D01*
X0207621Y0098786D01*
X0207787Y0098720D01*
X0207951Y0098649D01*
X0208114Y0098575D01*
X0208275Y0098496D01*
X0208433Y0098414D01*
X0208590Y0098328D01*
X0208744Y0098238D01*
X0208896Y0098144D01*
X0209046Y0098047D01*
X0209194Y0097945D01*
X0209338Y0097841D01*
X0209481Y0097733D01*
X0209620Y0097621D01*
X0209757Y0097506D01*
X0209891Y0097387D01*
X0210022Y0097266D01*
X0210150Y0097141D01*
X0210275Y0097013D01*
X0210396Y0096882D01*
X0210515Y0096748D01*
X0210630Y0096611D01*
X0210742Y0096472D01*
X0210850Y0096329D01*
X0210954Y0096185D01*
X0211056Y0096037D01*
X0211153Y0095887D01*
X0211247Y0095735D01*
X0211337Y0095581D01*
X0211423Y0095424D01*
X0211505Y0095266D01*
X0211584Y0095105D01*
X0211658Y0094942D01*
X0211729Y0094778D01*
X0211795Y0094612D01*
X0211857Y0094445D01*
X0211915Y0094276D01*
X0211969Y0094105D01*
X0212019Y0093933D01*
X0212065Y0093761D01*
X0212106Y0093587D01*
X0212143Y0093412D01*
X0212176Y0093236D01*
X0212204Y0093060D01*
X0212228Y0092883D01*
X0212248Y0092705D01*
X0212263Y0092527D01*
X0212274Y0092348D01*
X0212281Y0092170D01*
X0212283Y0091991D01*
X0212281Y0091812D01*
X0212274Y0091634D01*
X0212263Y0091455D01*
X0212248Y0091277D01*
X0212228Y0091099D01*
X0212204Y0090922D01*
X0212176Y0090746D01*
X0212143Y0090570D01*
X0212106Y0090395D01*
X0212065Y0090221D01*
X0212019Y0090049D01*
X0211969Y0089877D01*
X0211915Y0089706D01*
X0211857Y0089537D01*
X0211795Y0089370D01*
X0211729Y0089204D01*
X0211658Y0089040D01*
X0211584Y0088877D01*
X0211505Y0088716D01*
X0211423Y0088558D01*
X0211337Y0088401D01*
X0211247Y0088247D01*
X0211153Y0088095D01*
X0211056Y0087945D01*
X0210954Y0087797D01*
X0210850Y0087653D01*
X0210742Y0087510D01*
X0210630Y0087371D01*
X0210515Y0087234D01*
X0210396Y0087100D01*
X0210275Y0086969D01*
X0210150Y0086841D01*
X0210022Y0086716D01*
X0209891Y0086595D01*
X0209757Y0086476D01*
X0209620Y0086361D01*
X0209481Y0086249D01*
X0209338Y0086141D01*
X0209194Y0086037D01*
X0209046Y0085935D01*
X0208896Y0085838D01*
X0208744Y0085744D01*
X0208590Y0085654D01*
X0208433Y0085568D01*
X0208275Y0085486D01*
X0208114Y0085407D01*
X0207951Y0085333D01*
X0207787Y0085262D01*
X0207621Y0085196D01*
X0207454Y0085134D01*
X0207285Y0085076D01*
X0207114Y0085022D01*
X0206942Y0084972D01*
X0206770Y0084926D01*
X0206596Y0084885D01*
X0206421Y0084848D01*
X0206245Y0084815D01*
X0206069Y0084787D01*
X0205892Y0084763D01*
X0205714Y0084743D01*
X0205536Y0084728D01*
X0205357Y0084717D01*
X0205179Y0084710D01*
X0205000Y0084708D01*
X0204821Y0084710D01*
X0204643Y0084717D01*
X0204464Y0084728D01*
X0204286Y0084743D01*
X0204108Y0084763D01*
X0203931Y0084787D01*
X0203755Y0084815D01*
X0203579Y0084848D01*
X0203404Y0084885D01*
X0203230Y0084926D01*
X0203058Y0084972D01*
X0202886Y0085022D01*
X0202715Y0085076D01*
X0202546Y0085134D01*
X0202379Y0085196D01*
X0202213Y0085262D01*
X0202049Y0085333D01*
X0201886Y0085407D01*
X0201725Y0085486D01*
X0201567Y0085568D01*
X0201410Y0085654D01*
X0201256Y0085744D01*
X0201104Y0085838D01*
X0200954Y0085935D01*
X0200806Y0086037D01*
X0200662Y0086141D01*
X0200519Y0086249D01*
X0200380Y0086361D01*
X0200243Y0086476D01*
X0200109Y0086595D01*
X0199978Y0086716D01*
X0199850Y0086841D01*
X0199725Y0086969D01*
X0199604Y0087100D01*
X0199485Y0087234D01*
X0199370Y0087371D01*
X0199258Y0087510D01*
X0199150Y0087653D01*
X0199046Y0087797D01*
X0198944Y0087945D01*
X0198847Y0088095D01*
X0198753Y0088247D01*
X0198663Y0088401D01*
X0198577Y0088558D01*
X0198495Y0088716D01*
X0198416Y0088877D01*
X0198342Y0089040D01*
X0198271Y0089204D01*
X0198205Y0089370D01*
X0198143Y0089537D01*
X0198085Y0089706D01*
X0198031Y0089877D01*
X0197981Y0090049D01*
X0197935Y0090221D01*
X0197894Y0090395D01*
X0197857Y0090570D01*
X0197824Y0090746D01*
X0197796Y0090922D01*
X0197772Y0091099D01*
X0197752Y0091277D01*
X0197737Y0091455D01*
X0197726Y0091634D01*
X0197719Y0091812D01*
X0197717Y0091991D01*
X0209724Y0091842D02*
X0212071Y0091842D01*
X0212087Y0091991D02*
X0211961Y0090805D01*
X0211652Y0089654D01*
X0211168Y0088564D01*
X0210520Y0087563D01*
X0209724Y0086676D01*
X0209724Y0097306D01*
X0210479Y0096392D01*
X0211103Y0095384D01*
X0211585Y0094301D01*
X0211914Y0093163D01*
X0212087Y0091991D01*
X0211991Y0092640D02*
X0209724Y0092640D01*
X0209724Y0093439D02*
X0211835Y0093439D01*
X0211603Y0094237D02*
X0209724Y0094237D01*
X0209724Y0095036D02*
X0211258Y0095036D01*
X0210825Y0095834D02*
X0209724Y0095834D01*
X0209724Y0096633D02*
X0210280Y0096633D01*
X0209724Y0091043D02*
X0211986Y0091043D01*
X0211811Y0090245D02*
X0209724Y0090245D01*
X0209724Y0089446D02*
X0211560Y0089446D01*
X0211205Y0088648D02*
X0209724Y0088648D01*
X0209724Y0087849D02*
X0210705Y0087849D01*
X0210061Y0087051D02*
X0209724Y0087051D01*
X0153071Y0087069D02*
X0149921Y0083920D01*
X0136929Y0083920D01*
X0136929Y0100061D01*
X0149921Y0100061D01*
X0153071Y0096912D01*
X0153071Y0087069D01*
X0137717Y0091991D02*
X0137719Y0092170D01*
X0137726Y0092348D01*
X0137737Y0092527D01*
X0137752Y0092705D01*
X0137772Y0092883D01*
X0137796Y0093060D01*
X0137824Y0093236D01*
X0137857Y0093412D01*
X0137894Y0093587D01*
X0137935Y0093761D01*
X0137981Y0093933D01*
X0138031Y0094105D01*
X0138085Y0094276D01*
X0138143Y0094445D01*
X0138205Y0094612D01*
X0138271Y0094778D01*
X0138342Y0094942D01*
X0138416Y0095105D01*
X0138495Y0095266D01*
X0138577Y0095424D01*
X0138663Y0095581D01*
X0138753Y0095735D01*
X0138847Y0095887D01*
X0138944Y0096037D01*
X0139046Y0096185D01*
X0139150Y0096329D01*
X0139258Y0096472D01*
X0139370Y0096611D01*
X0139485Y0096748D01*
X0139604Y0096882D01*
X0139725Y0097013D01*
X0139850Y0097141D01*
X0139978Y0097266D01*
X0140109Y0097387D01*
X0140243Y0097506D01*
X0140380Y0097621D01*
X0140519Y0097733D01*
X0140662Y0097841D01*
X0140806Y0097945D01*
X0140954Y0098047D01*
X0141104Y0098144D01*
X0141256Y0098238D01*
X0141410Y0098328D01*
X0141567Y0098414D01*
X0141725Y0098496D01*
X0141886Y0098575D01*
X0142049Y0098649D01*
X0142213Y0098720D01*
X0142379Y0098786D01*
X0142546Y0098848D01*
X0142715Y0098906D01*
X0142886Y0098960D01*
X0143058Y0099010D01*
X0143230Y0099056D01*
X0143404Y0099097D01*
X0143579Y0099134D01*
X0143755Y0099167D01*
X0143931Y0099195D01*
X0144108Y0099219D01*
X0144286Y0099239D01*
X0144464Y0099254D01*
X0144643Y0099265D01*
X0144821Y0099272D01*
X0145000Y0099274D01*
X0145179Y0099272D01*
X0145357Y0099265D01*
X0145536Y0099254D01*
X0145714Y0099239D01*
X0145892Y0099219D01*
X0146069Y0099195D01*
X0146245Y0099167D01*
X0146421Y0099134D01*
X0146596Y0099097D01*
X0146770Y0099056D01*
X0146942Y0099010D01*
X0147114Y0098960D01*
X0147285Y0098906D01*
X0147454Y0098848D01*
X0147621Y0098786D01*
X0147787Y0098720D01*
X0147951Y0098649D01*
X0148114Y0098575D01*
X0148275Y0098496D01*
X0148433Y0098414D01*
X0148590Y0098328D01*
X0148744Y0098238D01*
X0148896Y0098144D01*
X0149046Y0098047D01*
X0149194Y0097945D01*
X0149338Y0097841D01*
X0149481Y0097733D01*
X0149620Y0097621D01*
X0149757Y0097506D01*
X0149891Y0097387D01*
X0150022Y0097266D01*
X0150150Y0097141D01*
X0150275Y0097013D01*
X0150396Y0096882D01*
X0150515Y0096748D01*
X0150630Y0096611D01*
X0150742Y0096472D01*
X0150850Y0096329D01*
X0150954Y0096185D01*
X0151056Y0096037D01*
X0151153Y0095887D01*
X0151247Y0095735D01*
X0151337Y0095581D01*
X0151423Y0095424D01*
X0151505Y0095266D01*
X0151584Y0095105D01*
X0151658Y0094942D01*
X0151729Y0094778D01*
X0151795Y0094612D01*
X0151857Y0094445D01*
X0151915Y0094276D01*
X0151969Y0094105D01*
X0152019Y0093933D01*
X0152065Y0093761D01*
X0152106Y0093587D01*
X0152143Y0093412D01*
X0152176Y0093236D01*
X0152204Y0093060D01*
X0152228Y0092883D01*
X0152248Y0092705D01*
X0152263Y0092527D01*
X0152274Y0092348D01*
X0152281Y0092170D01*
X0152283Y0091991D01*
X0152281Y0091812D01*
X0152274Y0091634D01*
X0152263Y0091455D01*
X0152248Y0091277D01*
X0152228Y0091099D01*
X0152204Y0090922D01*
X0152176Y0090746D01*
X0152143Y0090570D01*
X0152106Y0090395D01*
X0152065Y0090221D01*
X0152019Y0090049D01*
X0151969Y0089877D01*
X0151915Y0089706D01*
X0151857Y0089537D01*
X0151795Y0089370D01*
X0151729Y0089204D01*
X0151658Y0089040D01*
X0151584Y0088877D01*
X0151505Y0088716D01*
X0151423Y0088558D01*
X0151337Y0088401D01*
X0151247Y0088247D01*
X0151153Y0088095D01*
X0151056Y0087945D01*
X0150954Y0087797D01*
X0150850Y0087653D01*
X0150742Y0087510D01*
X0150630Y0087371D01*
X0150515Y0087234D01*
X0150396Y0087100D01*
X0150275Y0086969D01*
X0150150Y0086841D01*
X0150022Y0086716D01*
X0149891Y0086595D01*
X0149757Y0086476D01*
X0149620Y0086361D01*
X0149481Y0086249D01*
X0149338Y0086141D01*
X0149194Y0086037D01*
X0149046Y0085935D01*
X0148896Y0085838D01*
X0148744Y0085744D01*
X0148590Y0085654D01*
X0148433Y0085568D01*
X0148275Y0085486D01*
X0148114Y0085407D01*
X0147951Y0085333D01*
X0147787Y0085262D01*
X0147621Y0085196D01*
X0147454Y0085134D01*
X0147285Y0085076D01*
X0147114Y0085022D01*
X0146942Y0084972D01*
X0146770Y0084926D01*
X0146596Y0084885D01*
X0146421Y0084848D01*
X0146245Y0084815D01*
X0146069Y0084787D01*
X0145892Y0084763D01*
X0145714Y0084743D01*
X0145536Y0084728D01*
X0145357Y0084717D01*
X0145179Y0084710D01*
X0145000Y0084708D01*
X0144821Y0084710D01*
X0144643Y0084717D01*
X0144464Y0084728D01*
X0144286Y0084743D01*
X0144108Y0084763D01*
X0143931Y0084787D01*
X0143755Y0084815D01*
X0143579Y0084848D01*
X0143404Y0084885D01*
X0143230Y0084926D01*
X0143058Y0084972D01*
X0142886Y0085022D01*
X0142715Y0085076D01*
X0142546Y0085134D01*
X0142379Y0085196D01*
X0142213Y0085262D01*
X0142049Y0085333D01*
X0141886Y0085407D01*
X0141725Y0085486D01*
X0141567Y0085568D01*
X0141410Y0085654D01*
X0141256Y0085744D01*
X0141104Y0085838D01*
X0140954Y0085935D01*
X0140806Y0086037D01*
X0140662Y0086141D01*
X0140519Y0086249D01*
X0140380Y0086361D01*
X0140243Y0086476D01*
X0140109Y0086595D01*
X0139978Y0086716D01*
X0139850Y0086841D01*
X0139725Y0086969D01*
X0139604Y0087100D01*
X0139485Y0087234D01*
X0139370Y0087371D01*
X0139258Y0087510D01*
X0139150Y0087653D01*
X0139046Y0087797D01*
X0138944Y0087945D01*
X0138847Y0088095D01*
X0138753Y0088247D01*
X0138663Y0088401D01*
X0138577Y0088558D01*
X0138495Y0088716D01*
X0138416Y0088877D01*
X0138342Y0089040D01*
X0138271Y0089204D01*
X0138205Y0089370D01*
X0138143Y0089537D01*
X0138085Y0089706D01*
X0138031Y0089877D01*
X0137981Y0090049D01*
X0137935Y0090221D01*
X0137894Y0090395D01*
X0137857Y0090570D01*
X0137824Y0090746D01*
X0137796Y0090922D01*
X0137772Y0091099D01*
X0137752Y0091277D01*
X0137737Y0091455D01*
X0137726Y0091634D01*
X0137719Y0091812D01*
X0137717Y0091991D01*
X0137913Y0091991D02*
X0138086Y0090818D01*
X0138415Y0089680D01*
X0138897Y0088597D01*
X0139521Y0087589D01*
X0140276Y0086676D01*
X0140276Y0097306D01*
X0139480Y0096418D01*
X0138832Y0095417D01*
X0138348Y0094328D01*
X0138039Y0093176D01*
X0137913Y0091991D01*
X0137935Y0091842D02*
X0140276Y0091842D01*
X0140276Y0092640D02*
X0137982Y0092640D01*
X0138110Y0093439D02*
X0140276Y0093439D01*
X0140276Y0094237D02*
X0138324Y0094237D01*
X0138663Y0095036D02*
X0140276Y0095036D01*
X0140276Y0095834D02*
X0139102Y0095834D01*
X0139673Y0096633D02*
X0140276Y0096633D01*
X0140276Y0091043D02*
X0138052Y0091043D01*
X0138252Y0090245D02*
X0140276Y0090245D01*
X0140276Y0089446D02*
X0138519Y0089446D01*
X0138874Y0088648D02*
X0140276Y0088648D01*
X0140276Y0087849D02*
X0139360Y0087849D01*
X0139966Y0087051D02*
X0140276Y0087051D01*
X0191378Y0056518D02*
X0191378Y0052581D01*
X0191378Y0056518D02*
X0238622Y0056518D01*
X0238622Y0052581D01*
X0238622Y0040770D02*
X0238622Y0013211D01*
X0191378Y0013211D01*
X0191378Y0040770D01*
X0191378Y0013211D02*
X0197283Y0013211D01*
X0197283Y0009274D01*
X0203189Y0009274D01*
X0203189Y0001400D01*
X0226811Y0001400D01*
X0226811Y0009274D01*
X0232717Y0009274D01*
X0232717Y0013211D01*
X0238622Y0013211D01*
D17*
X0204950Y0022291D02*
X0204950Y0022541D01*
X0204700Y0022791D01*
X0203449Y0022791D01*
X0203449Y0022541D02*
X0203449Y0023041D01*
X0203449Y0023514D02*
X0203449Y0024264D01*
X0203699Y0024515D01*
X0204199Y0024515D01*
X0204450Y0024264D01*
X0204450Y0023514D01*
X0204950Y0023514D02*
X0203449Y0023514D01*
X0204700Y0022041D02*
X0204950Y0022291D01*
X0204950Y0024987D02*
X0204950Y0025988D01*
X0204950Y0025487D02*
X0203449Y0025487D01*
X0203949Y0024987D01*
D18*
X0117500Y0049491D03*
X0112500Y0049491D03*
X0112500Y0056991D03*
X0117500Y0056991D03*
X0117500Y0064491D03*
X0112500Y0064491D03*
X0112500Y0071991D03*
X0117500Y0071991D03*
X0117500Y0079491D03*
X0112500Y0079491D03*
X0112500Y0086991D03*
X0117500Y0086991D03*
D19*
X0162684Y0092011D03*
X0167284Y0092011D03*
X0182716Y0091970D03*
X0187316Y0091970D03*
D20*
X0198730Y0079275D03*
X0198730Y0074675D03*
D21*
X0185000Y0049491D03*
X0185000Y0044491D03*
X0175000Y0044491D03*
X0175000Y0049491D03*
X0165000Y0049491D03*
X0165000Y0044491D03*
M02*
